%TF.GenerationSoftware,KiCad,Pcbnew,(6.0.9-0)*%
%TF.CreationDate,2023-03-15T21:38:28+08:00*%
%TF.ProjectId,Epaper-mcu,45706170-6572-42d6-9d63-752e6b696361,rev?*%
%TF.SameCoordinates,Original*%
%TF.FileFunction,Copper,L2,Bot*%
%TF.FilePolarity,Positive*%
%FSLAX46Y46*%
G04 Gerber Fmt 4.6, Leading zero omitted, Abs format (unit mm)*
G04 Created by KiCad (PCBNEW (6.0.9-0)) date 2023-03-15 21:38:28*
%MOMM*%
%LPD*%
G01*
G04 APERTURE LIST*
%TA.AperFunction,ComponentPad*%
%ADD10O,2.100000X1.000000*%
%TD*%
%TA.AperFunction,ComponentPad*%
%ADD11O,1.600000X1.000000*%
%TD*%
%TA.AperFunction,ComponentPad*%
%ADD12R,1.700000X1.700000*%
%TD*%
%TA.AperFunction,ComponentPad*%
%ADD13O,1.700000X1.700000*%
%TD*%
%TA.AperFunction,ViaPad*%
%ADD14C,0.700000*%
%TD*%
%TA.AperFunction,ViaPad*%
%ADD15C,0.800000*%
%TD*%
%TA.AperFunction,Conductor*%
%ADD16C,0.250000*%
%TD*%
%TA.AperFunction,Conductor*%
%ADD17C,0.400000*%
%TD*%
%TA.AperFunction,Conductor*%
%ADD18C,0.200000*%
%TD*%
%TA.AperFunction,Conductor*%
%ADD19C,0.500000*%
%TD*%
G04 APERTURE END LIST*
D10*
%TO.P,J1,S1,SHIELD*%
%TO.N,GND*%
X118725800Y-106148600D03*
X118725800Y-97508600D03*
D11*
X114545800Y-97508600D03*
X114545800Y-106148600D03*
%TD*%
D12*
%TO.P,J2,1,Pin_1*%
%TO.N,/BUSY*%
X173243000Y-87433000D03*
D13*
%TO.P,J2,2,Pin_2*%
%TO.N,/RST*%
X175783000Y-87433000D03*
%TO.P,J2,3,Pin_3*%
%TO.N,/DC*%
X178323000Y-87433000D03*
%TO.P,J2,4,Pin_4*%
%TO.N,/CS*%
X180863000Y-87433000D03*
%TO.P,J2,5,Pin_5*%
%TO.N,/CLK*%
X183403000Y-87433000D03*
%TO.P,J2,6,Pin_6*%
%TO.N,/SDA*%
X185943000Y-87433000D03*
%TO.P,J2,7,Pin_7*%
%TO.N,GND*%
X188483000Y-87433000D03*
%TO.P,J2,8,Pin_8*%
%TO.N,/3V3*%
X191023000Y-87433000D03*
%TD*%
D14*
%TO.N,/RST_EN*%
X135346500Y-110439200D03*
X140716000Y-95504000D03*
X119938800Y-89560400D03*
D15*
%TO.N,GND*%
X125628400Y-102283100D03*
X125628400Y-100374100D03*
%TO.N,+3.3V*%
X168249600Y-106832400D03*
X151130000Y-92710000D03*
%TO.N,/3V3*%
X139954000Y-110134400D03*
X190398400Y-104140000D03*
%TO.N,+5V*%
X135128000Y-106807000D03*
X130937000Y-95504000D03*
D14*
%TO.N,/GDR*%
X170967400Y-102336600D03*
X181660800Y-94183200D03*
%TO.N,/RESE*%
X170180000Y-107696000D03*
X182920700Y-94782700D03*
%TO.N,/CLK*%
X166285911Y-104513111D03*
X148311000Y-105410000D03*
%TO.N,/DTR*%
X132486400Y-105816400D03*
X134721600Y-113019500D03*
%TO.N,/BOOT*%
X157687600Y-107548000D03*
X135890000Y-115570000D03*
%TD*%
D16*
%TO.N,/RST_EN*%
X140716000Y-105069700D02*
X135346500Y-110439200D01*
X140716000Y-95504000D02*
X140716000Y-105069700D01*
X134772400Y-89560400D02*
X140716000Y-95504000D01*
X119938800Y-89560400D02*
X134772400Y-89560400D01*
D17*
%TO.N,GND*%
X125628400Y-102283100D02*
X125628400Y-100374100D01*
%TO.N,+3.3V*%
X168249600Y-106832400D02*
X168249600Y-104349339D01*
X156559461Y-92659200D02*
X151180800Y-92659200D01*
X168249600Y-104349339D02*
X156559461Y-92659200D01*
X151180800Y-92659200D02*
X151130000Y-92710000D01*
%TO.N,/3V3*%
X190398400Y-104140000D02*
X190398400Y-105664000D01*
X142494000Y-112674400D02*
X139954000Y-110134400D01*
X190398400Y-105664000D02*
X183388000Y-112674400D01*
X183388000Y-112674400D02*
X142494000Y-112674400D01*
%TO.N,+5V*%
X131826000Y-103505000D02*
X131826000Y-96393000D01*
X131826000Y-96393000D02*
X130937000Y-95504000D01*
X135128000Y-106807000D02*
X131826000Y-103505000D01*
D18*
%TO.N,/GDR*%
X179120800Y-94183200D02*
X170967400Y-102336600D01*
X181660800Y-94183200D02*
X179120800Y-94183200D01*
%TO.N,/RESE*%
X171907200Y-105968800D02*
X170180000Y-107696000D01*
X182920700Y-94782700D02*
X179080100Y-94782700D01*
X171907200Y-101955600D02*
X171907200Y-105968800D01*
X179080100Y-94782700D02*
X171907200Y-101955600D01*
%TO.N,/CLK*%
X148311000Y-105410000D02*
X165389022Y-105410000D01*
X165389022Y-105410000D02*
X166285911Y-104513111D01*
D16*
%TO.N,/DTR*%
X132486400Y-105816400D02*
X134721600Y-108051600D01*
X134721600Y-108051600D02*
X134721600Y-113019500D01*
D19*
%TO.N,/BOOT*%
X139928600Y-107569000D02*
X136386000Y-111111600D01*
X136386000Y-115074000D02*
X135890000Y-115570000D01*
X157687600Y-107548000D02*
X157666600Y-107569000D01*
X136386000Y-111111600D02*
X136386000Y-115074000D01*
X157666600Y-107569000D02*
X139928600Y-107569000D01*
%TD*%
%TA.AperFunction,Conductor*%
%TO.N,/BOOT*%
G36*
X136209426Y-114913620D02*
G01*
X136546380Y-115250574D01*
X136549807Y-115258847D01*
X136546353Y-115267146D01*
X136500375Y-115312823D01*
X136451983Y-115360718D01*
X136409028Y-115403882D01*
X136371034Y-115443640D01*
X136337525Y-115481318D01*
X136308026Y-115518239D01*
X136282061Y-115555729D01*
X136259155Y-115595113D01*
X136238831Y-115637715D01*
X136238752Y-115637918D01*
X136238750Y-115637924D01*
X136223446Y-115677534D01*
X136217267Y-115684016D01*
X136212763Y-115685014D01*
X135905535Y-115691020D01*
X135778422Y-115693505D01*
X135770083Y-115690240D01*
X135766495Y-115681578D01*
X135770407Y-115481443D01*
X135774985Y-115247238D01*
X135778573Y-115239035D01*
X135782466Y-115236554D01*
X135822075Y-115221249D01*
X135822080Y-115221247D01*
X135822284Y-115221168D01*
X135822481Y-115221074D01*
X135822488Y-115221071D01*
X135839870Y-115212778D01*
X135864886Y-115200844D01*
X135904270Y-115177938D01*
X135941760Y-115151973D01*
X135978681Y-115122474D01*
X136016359Y-115088965D01*
X136056117Y-115050971D01*
X136099281Y-115008016D01*
X136147176Y-114959624D01*
X136192853Y-114913647D01*
X136201115Y-114910193D01*
X136209426Y-114913620D01*
G37*
%TD.AperFunction*%
%TD*%
%TA.AperFunction,Conductor*%
%TO.N,/RST_EN*%
G36*
X135754030Y-109870924D02*
G01*
X135914776Y-110031670D01*
X135918203Y-110039943D01*
X135915034Y-110047950D01*
X135869071Y-110096922D01*
X135827432Y-110148744D01*
X135795775Y-110196698D01*
X135771996Y-110242332D01*
X135753995Y-110287193D01*
X135753930Y-110287399D01*
X135753926Y-110287411D01*
X135739716Y-110332683D01*
X135739671Y-110332827D01*
X135739637Y-110332955D01*
X135739630Y-110332979D01*
X135726932Y-110380745D01*
X135726922Y-110380784D01*
X135726906Y-110380848D01*
X135713679Y-110432489D01*
X135713618Y-110432718D01*
X135697806Y-110489632D01*
X135697672Y-110490079D01*
X135679671Y-110546105D01*
X135673878Y-110552933D01*
X135668761Y-110554224D01*
X135234922Y-110562705D01*
X135226583Y-110559440D01*
X135222995Y-110550778D01*
X135231476Y-110116939D01*
X135235064Y-110108735D01*
X135239595Y-110106029D01*
X135295620Y-110088027D01*
X135296067Y-110087893D01*
X135352981Y-110072081D01*
X135353210Y-110072020D01*
X135404915Y-110058777D01*
X135404954Y-110058767D01*
X135452720Y-110046069D01*
X135452744Y-110046062D01*
X135452872Y-110046028D01*
X135453007Y-110045985D01*
X135453016Y-110045983D01*
X135498288Y-110031773D01*
X135498300Y-110031769D01*
X135498506Y-110031704D01*
X135543367Y-110013703D01*
X135589001Y-109989924D01*
X135636955Y-109958267D01*
X135688777Y-109916628D01*
X135737750Y-109870666D01*
X135746128Y-109867503D01*
X135754030Y-109870924D01*
G37*
%TD.AperFunction*%
%TD*%
%TA.AperFunction,Conductor*%
%TO.N,/RST_EN*%
G36*
X140836349Y-95454148D02*
G01*
X140836349Y-95454149D01*
X140837880Y-95455741D01*
X141025208Y-95650538D01*
X141028473Y-95658877D01*
X141027182Y-95663994D01*
X141000288Y-95716352D01*
X141000088Y-95716723D01*
X140981737Y-95749192D01*
X140971004Y-95768183D01*
X140970885Y-95768387D01*
X140943717Y-95814267D01*
X140943694Y-95814306D01*
X140918798Y-95857231D01*
X140896658Y-95899628D01*
X140886421Y-95923586D01*
X140877779Y-95943810D01*
X140877776Y-95943819D01*
X140877665Y-95944078D01*
X140862211Y-95993160D01*
X140850688Y-96049454D01*
X140843487Y-96115540D01*
X140843480Y-96115764D01*
X140841359Y-96182671D01*
X140837672Y-96190831D01*
X140829665Y-96194000D01*
X140602335Y-96194000D01*
X140594062Y-96190573D01*
X140590641Y-96182671D01*
X140588519Y-96115764D01*
X140588512Y-96115540D01*
X140581311Y-96049454D01*
X140569788Y-95993160D01*
X140554334Y-95944078D01*
X140554223Y-95943819D01*
X140554220Y-95943810D01*
X140545578Y-95923586D01*
X140535341Y-95899628D01*
X140513201Y-95857231D01*
X140488305Y-95814306D01*
X140488282Y-95814267D01*
X140461114Y-95768387D01*
X140460995Y-95768183D01*
X140450262Y-95749192D01*
X140431911Y-95716723D01*
X140431711Y-95716352D01*
X140404818Y-95663994D01*
X140404086Y-95655069D01*
X140406792Y-95650538D01*
X140434683Y-95621535D01*
X140716000Y-95329000D01*
X140836349Y-95454148D01*
G37*
%TD.AperFunction*%
%TD*%
%TA.AperFunction,Conductor*%
%TO.N,/RST_EN*%
G36*
X140324750Y-94935466D02*
G01*
X140373722Y-94981428D01*
X140425544Y-95023067D01*
X140473498Y-95054724D01*
X140519132Y-95078503D01*
X140563993Y-95096504D01*
X140564199Y-95096569D01*
X140564211Y-95096573D01*
X140609483Y-95110783D01*
X140609492Y-95110785D01*
X140609627Y-95110828D01*
X140609755Y-95110862D01*
X140609779Y-95110869D01*
X140657545Y-95123567D01*
X140657584Y-95123577D01*
X140709289Y-95136820D01*
X140709518Y-95136881D01*
X140766432Y-95152693D01*
X140766879Y-95152827D01*
X140822905Y-95170829D01*
X140829733Y-95176622D01*
X140831024Y-95181739D01*
X140834348Y-95351775D01*
X140836349Y-95454149D01*
X140836350Y-95454150D01*
X140839743Y-95627743D01*
X140436297Y-95619856D01*
X140420690Y-95619551D01*
X140393739Y-95619024D01*
X140385535Y-95615436D01*
X140382829Y-95610905D01*
X140364827Y-95554879D01*
X140364693Y-95554432D01*
X140348881Y-95497518D01*
X140348820Y-95497289D01*
X140337771Y-95454150D01*
X140335577Y-95445584D01*
X140335567Y-95445545D01*
X140322869Y-95397779D01*
X140322862Y-95397755D01*
X140322828Y-95397627D01*
X140322783Y-95397483D01*
X140308573Y-95352211D01*
X140308569Y-95352199D01*
X140308504Y-95351993D01*
X140290503Y-95307132D01*
X140266724Y-95261498D01*
X140235067Y-95213544D01*
X140193428Y-95161722D01*
X140147466Y-95112750D01*
X140144303Y-95104372D01*
X140147724Y-95096470D01*
X140308470Y-94935724D01*
X140316743Y-94932297D01*
X140324750Y-94935466D01*
G37*
%TD.AperFunction*%
%TD*%
%TA.AperFunction,Conductor*%
%TO.N,/RST_EN*%
G36*
X120098794Y-89249218D02*
G01*
X120151152Y-89276111D01*
X120151523Y-89276311D01*
X120183992Y-89294662D01*
X120202983Y-89305395D01*
X120203187Y-89305514D01*
X120249067Y-89332682D01*
X120249106Y-89332705D01*
X120292031Y-89357601D01*
X120334428Y-89379741D01*
X120358386Y-89389978D01*
X120378610Y-89398620D01*
X120378619Y-89398623D01*
X120378878Y-89398734D01*
X120379152Y-89398820D01*
X120379154Y-89398821D01*
X120427680Y-89414100D01*
X120427683Y-89414101D01*
X120427960Y-89414188D01*
X120428248Y-89414247D01*
X120428252Y-89414248D01*
X120445138Y-89417704D01*
X120484254Y-89425711D01*
X120484525Y-89425741D01*
X120484528Y-89425741D01*
X120550116Y-89432888D01*
X120550126Y-89432889D01*
X120550340Y-89432912D01*
X120570249Y-89433543D01*
X120617471Y-89435041D01*
X120625631Y-89438728D01*
X120628800Y-89446735D01*
X120628800Y-89674065D01*
X120625373Y-89682338D01*
X120617471Y-89685759D01*
X120583567Y-89686834D01*
X120550340Y-89687887D01*
X120550126Y-89687910D01*
X120550116Y-89687911D01*
X120484528Y-89695058D01*
X120484525Y-89695058D01*
X120484254Y-89695088D01*
X120445138Y-89703095D01*
X120428252Y-89706551D01*
X120428248Y-89706552D01*
X120427960Y-89706611D01*
X120427683Y-89706698D01*
X120427680Y-89706699D01*
X120379154Y-89721978D01*
X120378878Y-89722065D01*
X120378619Y-89722176D01*
X120378610Y-89722179D01*
X120358386Y-89730821D01*
X120334428Y-89741058D01*
X120292031Y-89763198D01*
X120291916Y-89763265D01*
X120291910Y-89763268D01*
X120249106Y-89788094D01*
X120249067Y-89788117D01*
X120203187Y-89815285D01*
X120202983Y-89815404D01*
X120183992Y-89826137D01*
X120151523Y-89844488D01*
X120151152Y-89844688D01*
X120102637Y-89869608D01*
X120098794Y-89871582D01*
X120089869Y-89872314D01*
X120085338Y-89869608D01*
X120000597Y-89788117D01*
X119772569Y-89568833D01*
X119768981Y-89560629D01*
X119772569Y-89551967D01*
X119881998Y-89446735D01*
X120085338Y-89251192D01*
X120093677Y-89247927D01*
X120098794Y-89249218D01*
G37*
%TD.AperFunction*%
%TD*%
%TA.AperFunction,Conductor*%
%TO.N,+3.3V*%
G36*
X168446368Y-106045827D02*
G01*
X168449793Y-106053903D01*
X168451085Y-106130740D01*
X168455592Y-106206574D01*
X168463198Y-106272358D01*
X168473978Y-106330553D01*
X168488010Y-106383617D01*
X168505368Y-106434010D01*
X168526130Y-106484190D01*
X168550371Y-106536616D01*
X168550403Y-106536682D01*
X168550405Y-106536686D01*
X168578169Y-106593748D01*
X168606007Y-106650694D01*
X168606562Y-106659631D01*
X168603929Y-106663942D01*
X168258033Y-107023631D01*
X168249829Y-107027219D01*
X168241167Y-107023631D01*
X167895271Y-106663942D01*
X167892006Y-106655603D01*
X167893193Y-106650694D01*
X167921030Y-106593748D01*
X167948794Y-106536686D01*
X167948796Y-106536682D01*
X167948828Y-106536616D01*
X167973069Y-106484190D01*
X167993831Y-106434010D01*
X168011189Y-106383617D01*
X168025221Y-106330553D01*
X168036001Y-106272358D01*
X168043607Y-106206574D01*
X168048114Y-106130740D01*
X168049407Y-106053903D01*
X168052972Y-106045689D01*
X168061105Y-106042400D01*
X168438095Y-106042400D01*
X168446368Y-106045827D01*
G37*
%TD.AperFunction*%
%TD*%
%TA.AperFunction,Conductor*%
%TO.N,+3.3V*%
G36*
X151265454Y-92333583D02*
G01*
X151330392Y-92355781D01*
X151330417Y-92355789D01*
X151394556Y-92377875D01*
X151452792Y-92397197D01*
X151452803Y-92397201D01*
X151452886Y-92397228D01*
X151508171Y-92413885D01*
X151508290Y-92413915D01*
X151508289Y-92413915D01*
X151563043Y-92427847D01*
X151563055Y-92427850D01*
X151563178Y-92427881D01*
X151563310Y-92427907D01*
X151563314Y-92427908D01*
X151620512Y-92439220D01*
X151620520Y-92439221D01*
X151620670Y-92439251D01*
X151683413Y-92448032D01*
X151754173Y-92454260D01*
X151835713Y-92457971D01*
X151863884Y-92458335D01*
X151919251Y-92459051D01*
X151927479Y-92462584D01*
X151930800Y-92470750D01*
X151930800Y-92847719D01*
X151927373Y-92855992D01*
X151919322Y-92859417D01*
X151845721Y-92860805D01*
X151845627Y-92860811D01*
X151845610Y-92860812D01*
X151772653Y-92865721D01*
X151772648Y-92865721D01*
X151772477Y-92865733D01*
X151772313Y-92865755D01*
X151772300Y-92865756D01*
X151722203Y-92872389D01*
X151708866Y-92874155D01*
X151708637Y-92874204D01*
X151708627Y-92874206D01*
X151675722Y-92881285D01*
X151652685Y-92886241D01*
X151620667Y-92896245D01*
X151601982Y-92902082D01*
X151601977Y-92902084D01*
X151601730Y-92902161D01*
X151601485Y-92902263D01*
X151554005Y-92921998D01*
X151553994Y-92922003D01*
X151553797Y-92922085D01*
X151553605Y-92922183D01*
X151553599Y-92922186D01*
X151506827Y-92946109D01*
X151506818Y-92946114D01*
X151506685Y-92946182D01*
X151458190Y-92974623D01*
X151458086Y-92974689D01*
X151406108Y-93007579D01*
X151355067Y-93040777D01*
X151346264Y-93042415D01*
X151341703Y-93040355D01*
X150941349Y-92742412D01*
X150936758Y-92734724D01*
X150939228Y-92725679D01*
X151252564Y-92337307D01*
X151260426Y-92333020D01*
X151265454Y-92333583D01*
G37*
%TD.AperFunction*%
%TD*%
%TA.AperFunction,Conductor*%
%TO.N,/3V3*%
G36*
X190406833Y-103948769D02*
G01*
X190752729Y-104308458D01*
X190755994Y-104316797D01*
X190754808Y-104321704D01*
X190726969Y-104378651D01*
X190699171Y-104435783D01*
X190674930Y-104488209D01*
X190654168Y-104538389D01*
X190636810Y-104588782D01*
X190622778Y-104641846D01*
X190611998Y-104700041D01*
X190604392Y-104765825D01*
X190599885Y-104841659D01*
X190599883Y-104841778D01*
X190598593Y-104918497D01*
X190595028Y-104926711D01*
X190586895Y-104930000D01*
X190209905Y-104930000D01*
X190201632Y-104926573D01*
X190198207Y-104918497D01*
X190196916Y-104841778D01*
X190196914Y-104841659D01*
X190192407Y-104765825D01*
X190184801Y-104700041D01*
X190174021Y-104641846D01*
X190159989Y-104588782D01*
X190142631Y-104538389D01*
X190121869Y-104488209D01*
X190097628Y-104435783D01*
X190069830Y-104378651D01*
X190041993Y-104321705D01*
X190041438Y-104312769D01*
X190044071Y-104308458D01*
X190389967Y-103948769D01*
X190398171Y-103945181D01*
X190406833Y-103948769D01*
G37*
%TD.AperFunction*%
%TD*%
%TA.AperFunction,Conductor*%
%TO.N,/3V3*%
G36*
X140161399Y-109999798D02*
G01*
X140323666Y-110002970D01*
X140331870Y-110006558D01*
X140334503Y-110010869D01*
X140355085Y-110070818D01*
X140375827Y-110130873D01*
X140395757Y-110185085D01*
X140395789Y-110185161D01*
X140395797Y-110185183D01*
X140409883Y-110219148D01*
X140416559Y-110235248D01*
X140439918Y-110283155D01*
X140467518Y-110330599D01*
X140501045Y-110379371D01*
X140501158Y-110379513D01*
X140501162Y-110379519D01*
X140542085Y-110431142D01*
X140542097Y-110431156D01*
X140542184Y-110431266D01*
X140592619Y-110488075D01*
X140592719Y-110488179D01*
X140592726Y-110488186D01*
X140646038Y-110543321D01*
X140649325Y-110551651D01*
X140645900Y-110559727D01*
X140379327Y-110826300D01*
X140371054Y-110829727D01*
X140362921Y-110826438D01*
X140362779Y-110826300D01*
X140307675Y-110773019D01*
X140250866Y-110722584D01*
X140250756Y-110722497D01*
X140250742Y-110722485D01*
X140199119Y-110681562D01*
X140199113Y-110681558D01*
X140198971Y-110681445D01*
X140150199Y-110647918D01*
X140102755Y-110620318D01*
X140054848Y-110596959D01*
X140038748Y-110590283D01*
X140004783Y-110576197D01*
X140004761Y-110576189D01*
X140004685Y-110576157D01*
X139950473Y-110556227D01*
X139890418Y-110535485D01*
X139830469Y-110514903D01*
X139823757Y-110508975D01*
X139822570Y-110504066D01*
X139821145Y-110431142D01*
X139816336Y-110185183D01*
X139812817Y-110005144D01*
X139816082Y-109996805D01*
X139824744Y-109993217D01*
X140161399Y-109999798D01*
G37*
%TD.AperFunction*%
%TD*%
%TA.AperFunction,Conductor*%
%TO.N,+5V*%
G36*
X131144399Y-95369398D02*
G01*
X131306666Y-95372570D01*
X131314870Y-95376158D01*
X131317503Y-95380469D01*
X131338085Y-95440418D01*
X131358827Y-95500473D01*
X131378757Y-95554685D01*
X131378789Y-95554761D01*
X131378797Y-95554783D01*
X131392883Y-95588748D01*
X131399559Y-95604848D01*
X131422918Y-95652755D01*
X131450518Y-95700199D01*
X131484045Y-95748971D01*
X131484158Y-95749113D01*
X131484162Y-95749119D01*
X131525085Y-95800742D01*
X131525097Y-95800756D01*
X131525184Y-95800866D01*
X131575619Y-95857675D01*
X131575719Y-95857779D01*
X131575726Y-95857786D01*
X131629038Y-95912921D01*
X131632325Y-95921251D01*
X131628900Y-95929327D01*
X131362327Y-96195900D01*
X131354054Y-96199327D01*
X131345921Y-96196038D01*
X131345779Y-96195900D01*
X131290675Y-96142619D01*
X131233866Y-96092184D01*
X131233756Y-96092097D01*
X131233742Y-96092085D01*
X131182119Y-96051162D01*
X131182113Y-96051158D01*
X131181971Y-96051045D01*
X131133199Y-96017518D01*
X131085755Y-95989918D01*
X131037848Y-95966559D01*
X131021748Y-95959883D01*
X130987783Y-95945797D01*
X130987761Y-95945789D01*
X130987685Y-95945757D01*
X130933473Y-95925827D01*
X130873418Y-95905085D01*
X130813469Y-95884503D01*
X130806757Y-95878575D01*
X130805570Y-95873666D01*
X130804145Y-95800742D01*
X130799336Y-95554783D01*
X130795817Y-95374744D01*
X130799082Y-95366405D01*
X130807744Y-95362817D01*
X131144399Y-95369398D01*
G37*
%TD.AperFunction*%
%TD*%
%TA.AperFunction,Conductor*%
%TO.N,+5V*%
G36*
X134719078Y-106114962D02*
G01*
X134774324Y-106168380D01*
X134831133Y-106218815D01*
X134831243Y-106218902D01*
X134831257Y-106218914D01*
X134882880Y-106259837D01*
X134883028Y-106259954D01*
X134931800Y-106293481D01*
X134979244Y-106321081D01*
X135027151Y-106344440D01*
X135043251Y-106351116D01*
X135077216Y-106365202D01*
X135077238Y-106365210D01*
X135077314Y-106365242D01*
X135131526Y-106385172D01*
X135131559Y-106385183D01*
X135131569Y-106385187D01*
X135191581Y-106405914D01*
X135251531Y-106426497D01*
X135258243Y-106432425D01*
X135259430Y-106437334D01*
X135261865Y-106561880D01*
X135269183Y-106936256D01*
X135265918Y-106944595D01*
X135257256Y-106948183D01*
X134920601Y-106941602D01*
X134758334Y-106938430D01*
X134750130Y-106934842D01*
X134747497Y-106930531D01*
X134726914Y-106870581D01*
X134726880Y-106870482D01*
X134726873Y-106870461D01*
X134706187Y-106810569D01*
X134706183Y-106810559D01*
X134706172Y-106810526D01*
X134686242Y-106756314D01*
X134686210Y-106756238D01*
X134686202Y-106756216D01*
X134665499Y-106706294D01*
X134665440Y-106706151D01*
X134642081Y-106658244D01*
X134614481Y-106610800D01*
X134580954Y-106562028D01*
X134580837Y-106561880D01*
X134539914Y-106510257D01*
X134539902Y-106510243D01*
X134539815Y-106510133D01*
X134489380Y-106453324D01*
X134435962Y-106398078D01*
X134432675Y-106389749D01*
X134436100Y-106381673D01*
X134702673Y-106115100D01*
X134710946Y-106111673D01*
X134719078Y-106114962D01*
G37*
%TD.AperFunction*%
%TD*%
%TA.AperFunction,Conductor*%
%TO.N,/BOOT*%
G36*
X157522458Y-107247756D02*
G01*
X157853029Y-107529654D01*
X157857100Y-107537630D01*
X157854036Y-107546491D01*
X157559457Y-107865768D01*
X157551328Y-107869525D01*
X157546758Y-107868792D01*
X157504530Y-107852990D01*
X157504513Y-107852984D01*
X157504317Y-107852911D01*
X157504118Y-107852853D01*
X157504110Y-107852850D01*
X157485740Y-107847467D01*
X157456704Y-107838957D01*
X157456481Y-107838910D01*
X157456470Y-107838907D01*
X157410094Y-107829089D01*
X157410082Y-107829087D01*
X157409884Y-107829045D01*
X157362454Y-107822534D01*
X157362257Y-107822519D01*
X157362247Y-107822518D01*
X157313150Y-107818794D01*
X157313137Y-107818793D01*
X157313014Y-107818784D01*
X157287467Y-107817995D01*
X157260265Y-107817155D01*
X157260253Y-107817155D01*
X157260162Y-107817152D01*
X157229697Y-107817071D01*
X157202571Y-107816999D01*
X157202496Y-107816999D01*
X157138614Y-107817683D01*
X157067197Y-107818563D01*
X157067116Y-107818564D01*
X156998363Y-107818936D01*
X156990072Y-107815554D01*
X156986600Y-107807236D01*
X156986600Y-107330725D01*
X156990027Y-107322452D01*
X156998324Y-107319025D01*
X157062385Y-107319159D01*
X157062386Y-107319159D01*
X157129841Y-107319227D01*
X157129964Y-107319227D01*
X157162779Y-107318881D01*
X157190419Y-107318589D01*
X157245049Y-107316630D01*
X157295011Y-107312734D01*
X157295165Y-107312713D01*
X157295171Y-107312712D01*
X157341275Y-107306317D01*
X157341284Y-107306315D01*
X157341496Y-107306286D01*
X157341696Y-107306242D01*
X157341710Y-107306240D01*
X157385443Y-107296726D01*
X157385447Y-107296725D01*
X157385695Y-107296671D01*
X157428801Y-107283274D01*
X157472005Y-107265480D01*
X157472222Y-107265369D01*
X157509529Y-107246247D01*
X157518455Y-107245523D01*
X157522458Y-107247756D01*
G37*
%TD.AperFunction*%
%TD*%
%TA.AperFunction,Conductor*%
%TO.N,/GDR*%
G36*
X171392549Y-101785943D02*
G01*
X171518057Y-101911451D01*
X171521484Y-101919724D01*
X171518373Y-101927668D01*
X171498959Y-101948657D01*
X171472291Y-101977485D01*
X171472283Y-101977494D01*
X171472104Y-101977688D01*
X171471938Y-101977905D01*
X171471934Y-101977910D01*
X171466227Y-101985380D01*
X171431556Y-102030757D01*
X171401952Y-102080146D01*
X171390941Y-102104824D01*
X171381001Y-102127098D01*
X171380998Y-102127106D01*
X171380873Y-102127386D01*
X171365900Y-102174010D01*
X171354617Y-102221547D01*
X171354598Y-102221642D01*
X171354596Y-102221651D01*
X171344619Y-102271458D01*
X171344605Y-102271529D01*
X171333490Y-102325275D01*
X171333389Y-102325718D01*
X171318805Y-102384620D01*
X171318619Y-102385286D01*
X171300523Y-102443406D01*
X171294792Y-102450287D01*
X171289582Y-102451626D01*
X171116376Y-102455012D01*
X170855822Y-102460105D01*
X170847483Y-102456840D01*
X170843895Y-102448178D01*
X170852374Y-102014419D01*
X170855962Y-102006215D01*
X170860594Y-102003477D01*
X170918713Y-101985380D01*
X170919379Y-101985194D01*
X170978281Y-101970610D01*
X170978724Y-101970509D01*
X171032470Y-101959394D01*
X171032541Y-101959380D01*
X171082348Y-101949403D01*
X171082357Y-101949401D01*
X171082452Y-101949382D01*
X171129989Y-101938099D01*
X171176613Y-101923126D01*
X171176893Y-101923001D01*
X171176901Y-101922998D01*
X171202778Y-101911451D01*
X171223853Y-101902047D01*
X171224155Y-101901866D01*
X171272949Y-101872619D01*
X171272954Y-101872616D01*
X171273242Y-101872443D01*
X171326311Y-101831895D01*
X171326505Y-101831716D01*
X171326514Y-101831708D01*
X171362593Y-101798335D01*
X171376332Y-101785627D01*
X171384732Y-101782525D01*
X171392549Y-101785943D01*
G37*
%TD.AperFunction*%
%TD*%
%TA.AperFunction,Conductor*%
%TO.N,/GDR*%
G36*
X181514321Y-93874048D02*
G01*
X181731813Y-94083200D01*
X181827031Y-94174767D01*
X181830619Y-94182971D01*
X181827031Y-94191633D01*
X181731357Y-94283638D01*
X181514320Y-94492352D01*
X181505981Y-94495617D01*
X181500770Y-94494278D01*
X181497103Y-94492352D01*
X181482565Y-94484718D01*
X181446865Y-94465970D01*
X181446263Y-94465630D01*
X181394300Y-94434293D01*
X181393916Y-94434051D01*
X181348124Y-94403953D01*
X181348063Y-94403913D01*
X181305640Y-94375650D01*
X181264048Y-94350014D01*
X181220493Y-94327633D01*
X181172184Y-94309134D01*
X181171837Y-94309047D01*
X181116647Y-94295224D01*
X181116644Y-94295224D01*
X181116327Y-94295144D01*
X181050130Y-94286290D01*
X181049866Y-94286280D01*
X181049858Y-94286279D01*
X180982045Y-94283638D01*
X180973911Y-94279892D01*
X180970800Y-94271947D01*
X180970800Y-94094453D01*
X180974227Y-94086180D01*
X180982044Y-94082762D01*
X181049857Y-94080120D01*
X181049865Y-94080119D01*
X181050130Y-94080109D01*
X181116327Y-94071255D01*
X181116644Y-94071175D01*
X181116647Y-94071175D01*
X181171837Y-94057352D01*
X181171838Y-94057352D01*
X181172184Y-94057265D01*
X181220493Y-94038766D01*
X181264048Y-94016385D01*
X181305640Y-93990749D01*
X181348063Y-93962486D01*
X181393923Y-93932343D01*
X181394300Y-93932106D01*
X181446263Y-93900769D01*
X181446865Y-93900429D01*
X181500770Y-93872122D01*
X181509688Y-93871310D01*
X181514321Y-93874048D01*
G37*
%TD.AperFunction*%
%TD*%
%TA.AperFunction,Conductor*%
%TO.N,/RESE*%
G36*
X170605149Y-107145343D02*
G01*
X170730657Y-107270851D01*
X170734084Y-107279124D01*
X170730973Y-107287068D01*
X170711559Y-107308057D01*
X170684891Y-107336885D01*
X170684883Y-107336894D01*
X170684704Y-107337088D01*
X170684538Y-107337305D01*
X170684534Y-107337310D01*
X170678827Y-107344780D01*
X170644156Y-107390157D01*
X170614552Y-107439546D01*
X170603541Y-107464224D01*
X170593601Y-107486498D01*
X170593598Y-107486506D01*
X170593473Y-107486786D01*
X170578500Y-107533410D01*
X170567217Y-107580947D01*
X170567198Y-107581042D01*
X170567196Y-107581051D01*
X170557219Y-107630858D01*
X170557205Y-107630929D01*
X170546090Y-107684675D01*
X170545989Y-107685118D01*
X170531405Y-107744020D01*
X170531219Y-107744686D01*
X170513123Y-107802806D01*
X170507392Y-107809687D01*
X170502182Y-107811026D01*
X170328976Y-107814412D01*
X170068422Y-107819505D01*
X170060083Y-107816240D01*
X170056495Y-107807578D01*
X170064974Y-107373819D01*
X170068562Y-107365615D01*
X170073194Y-107362877D01*
X170131313Y-107344780D01*
X170131979Y-107344594D01*
X170190881Y-107330010D01*
X170191324Y-107329909D01*
X170245070Y-107318794D01*
X170245141Y-107318780D01*
X170294948Y-107308803D01*
X170294957Y-107308801D01*
X170295052Y-107308782D01*
X170342589Y-107297499D01*
X170389213Y-107282526D01*
X170389493Y-107282401D01*
X170389501Y-107282398D01*
X170415378Y-107270851D01*
X170436453Y-107261447D01*
X170436755Y-107261266D01*
X170485549Y-107232019D01*
X170485554Y-107232016D01*
X170485842Y-107231843D01*
X170538911Y-107191295D01*
X170539105Y-107191116D01*
X170539114Y-107191108D01*
X170575193Y-107157735D01*
X170588932Y-107145027D01*
X170597332Y-107141925D01*
X170605149Y-107145343D01*
G37*
%TD.AperFunction*%
%TD*%
%TA.AperFunction,Conductor*%
%TO.N,/RESE*%
G36*
X182774221Y-94473548D02*
G01*
X182991713Y-94682700D01*
X183086931Y-94774267D01*
X183090519Y-94782471D01*
X183086931Y-94791133D01*
X182991257Y-94883138D01*
X182774220Y-95091852D01*
X182765881Y-95095117D01*
X182760670Y-95093778D01*
X182757003Y-95091852D01*
X182742465Y-95084218D01*
X182706765Y-95065470D01*
X182706163Y-95065130D01*
X182654200Y-95033793D01*
X182653816Y-95033551D01*
X182608024Y-95003453D01*
X182607963Y-95003413D01*
X182565540Y-94975150D01*
X182523948Y-94949514D01*
X182480393Y-94927133D01*
X182432084Y-94908634D01*
X182431737Y-94908547D01*
X182376547Y-94894724D01*
X182376544Y-94894724D01*
X182376227Y-94894644D01*
X182310030Y-94885790D01*
X182309766Y-94885780D01*
X182309758Y-94885779D01*
X182241945Y-94883138D01*
X182233811Y-94879392D01*
X182230700Y-94871447D01*
X182230700Y-94693953D01*
X182234127Y-94685680D01*
X182241944Y-94682262D01*
X182309757Y-94679620D01*
X182309765Y-94679619D01*
X182310030Y-94679609D01*
X182376227Y-94670755D01*
X182376544Y-94670675D01*
X182376547Y-94670675D01*
X182431737Y-94656852D01*
X182431738Y-94656852D01*
X182432084Y-94656765D01*
X182480393Y-94638266D01*
X182523948Y-94615885D01*
X182565540Y-94590249D01*
X182607963Y-94561986D01*
X182653823Y-94531843D01*
X182654200Y-94531606D01*
X182706163Y-94500269D01*
X182706765Y-94499929D01*
X182760670Y-94471622D01*
X182769588Y-94470810D01*
X182774221Y-94473548D01*
G37*
%TD.AperFunction*%
%TD*%
%TA.AperFunction,Conductor*%
%TO.N,/CLK*%
G36*
X148471029Y-105098922D02*
G01*
X148485904Y-105106733D01*
X148524934Y-105127229D01*
X148525536Y-105127569D01*
X148577499Y-105158906D01*
X148577876Y-105159143D01*
X148623736Y-105189286D01*
X148666159Y-105217549D01*
X148707751Y-105243185D01*
X148751306Y-105265566D01*
X148799615Y-105284065D01*
X148799961Y-105284152D01*
X148799962Y-105284152D01*
X148855152Y-105297975D01*
X148855155Y-105297975D01*
X148855472Y-105298055D01*
X148921669Y-105306909D01*
X148921934Y-105306919D01*
X148921942Y-105306920D01*
X148989756Y-105309562D01*
X148997889Y-105313308D01*
X149001000Y-105321253D01*
X149001000Y-105498747D01*
X148997573Y-105507020D01*
X148989755Y-105510438D01*
X148921941Y-105513079D01*
X148921933Y-105513080D01*
X148921669Y-105513090D01*
X148855472Y-105521944D01*
X148855155Y-105522024D01*
X148855152Y-105522024D01*
X148799962Y-105535847D01*
X148799615Y-105535934D01*
X148751306Y-105554433D01*
X148707751Y-105576814D01*
X148666159Y-105602450D01*
X148623736Y-105630713D01*
X148623675Y-105630753D01*
X148577883Y-105660851D01*
X148577499Y-105661093D01*
X148525536Y-105692430D01*
X148524934Y-105692769D01*
X148471030Y-105721077D01*
X148462112Y-105721890D01*
X148457480Y-105719152D01*
X148240443Y-105510438D01*
X148144769Y-105418433D01*
X148141181Y-105410229D01*
X148144769Y-105401567D01*
X148239988Y-105310000D01*
X148457480Y-105100848D01*
X148465819Y-105097583D01*
X148471029Y-105098922D01*
G37*
%TD.AperFunction*%
%TD*%
%TA.AperFunction,Conductor*%
%TO.N,/CLK*%
G36*
X166405828Y-104392871D02*
G01*
X166409416Y-104401533D01*
X166400937Y-104835292D01*
X166397349Y-104843496D01*
X166392717Y-104846234D01*
X166334597Y-104864330D01*
X166333931Y-104864516D01*
X166275029Y-104879100D01*
X166274586Y-104879201D01*
X166220840Y-104890316D01*
X166220769Y-104890330D01*
X166170962Y-104900307D01*
X166170953Y-104900309D01*
X166170858Y-104900328D01*
X166123321Y-104911611D01*
X166076697Y-104926584D01*
X166076417Y-104926709D01*
X166076409Y-104926712D01*
X166068362Y-104930303D01*
X166029457Y-104947663D01*
X166029155Y-104947844D01*
X165980361Y-104977091D01*
X165980356Y-104977094D01*
X165980068Y-104977267D01*
X165926999Y-105017815D01*
X165926805Y-105017994D01*
X165926796Y-105018002D01*
X165897968Y-105044670D01*
X165876979Y-105064084D01*
X165868580Y-105067186D01*
X165860762Y-105063768D01*
X165735254Y-104938260D01*
X165731827Y-104929987D01*
X165734938Y-104922042D01*
X165781019Y-104872225D01*
X165781027Y-104872216D01*
X165781206Y-104872022D01*
X165787005Y-104864433D01*
X165821548Y-104819222D01*
X165821754Y-104818953D01*
X165851358Y-104769564D01*
X165862369Y-104744886D01*
X165872309Y-104722612D01*
X165872312Y-104722604D01*
X165872437Y-104722324D01*
X165887410Y-104675700D01*
X165898693Y-104628163D01*
X165908705Y-104578181D01*
X165919820Y-104524435D01*
X165919921Y-104523992D01*
X165934505Y-104465090D01*
X165934691Y-104464424D01*
X165952788Y-104406305D01*
X165958520Y-104399424D01*
X165963729Y-104398085D01*
X166136935Y-104394699D01*
X166397489Y-104389606D01*
X166405828Y-104392871D01*
G37*
%TD.AperFunction*%
%TD*%
%TA.AperFunction,Conductor*%
%TO.N,/DTR*%
G36*
X132808661Y-105701376D02*
G01*
X132816865Y-105704964D01*
X132819571Y-105709495D01*
X132837572Y-105765520D01*
X132837706Y-105765967D01*
X132853518Y-105822881D01*
X132853579Y-105823109D01*
X132866822Y-105874815D01*
X132866832Y-105874854D01*
X132879530Y-105922620D01*
X132879537Y-105922644D01*
X132879571Y-105922772D01*
X132879614Y-105922907D01*
X132879616Y-105922916D01*
X132893826Y-105968188D01*
X132893830Y-105968200D01*
X132893895Y-105968406D01*
X132911896Y-106013267D01*
X132935675Y-106058901D01*
X132967332Y-106106855D01*
X133008971Y-106158677D01*
X133044772Y-106196822D01*
X133054934Y-106207650D01*
X133058097Y-106216028D01*
X133054676Y-106223930D01*
X132893930Y-106384676D01*
X132885657Y-106388103D01*
X132877650Y-106384934D01*
X132828844Y-106339128D01*
X132828677Y-106338971D01*
X132776855Y-106297332D01*
X132728901Y-106265675D01*
X132683267Y-106241896D01*
X132638406Y-106223895D01*
X132638200Y-106223830D01*
X132638188Y-106223826D01*
X132592916Y-106209616D01*
X132592907Y-106209614D01*
X132592772Y-106209571D01*
X132592644Y-106209537D01*
X132592620Y-106209530D01*
X132544854Y-106196832D01*
X132544815Y-106196822D01*
X132493109Y-106183579D01*
X132492881Y-106183518D01*
X132435967Y-106167706D01*
X132435520Y-106167572D01*
X132379495Y-106149571D01*
X132372667Y-106143778D01*
X132371376Y-106138661D01*
X132362895Y-105704822D01*
X132366160Y-105696483D01*
X132374822Y-105692895D01*
X132808661Y-105701376D01*
G37*
%TD.AperFunction*%
%TD*%
%TA.AperFunction,Conductor*%
%TO.N,/DTR*%
G36*
X134843538Y-112332927D02*
G01*
X134846959Y-112340829D01*
X134849087Y-112407959D01*
X134856288Y-112474045D01*
X134867811Y-112530339D01*
X134883265Y-112579421D01*
X134883376Y-112579680D01*
X134883379Y-112579689D01*
X134892021Y-112599913D01*
X134902258Y-112623871D01*
X134924398Y-112666268D01*
X134924465Y-112666383D01*
X134924468Y-112666389D01*
X134949263Y-112709140D01*
X134949317Y-112709232D01*
X134976485Y-112755112D01*
X134976604Y-112755316D01*
X135005688Y-112806776D01*
X135005888Y-112807147D01*
X135031640Y-112857282D01*
X135032782Y-112859506D01*
X135033514Y-112868431D01*
X135030808Y-112872962D01*
X134730033Y-113185731D01*
X134721829Y-113189319D01*
X134713167Y-113185731D01*
X134412392Y-112872962D01*
X134409127Y-112864623D01*
X134410418Y-112859506D01*
X134437301Y-112807168D01*
X134437522Y-112806757D01*
X134466595Y-112755316D01*
X134466714Y-112755112D01*
X134493882Y-112709232D01*
X134493936Y-112709140D01*
X134518731Y-112666389D01*
X134518734Y-112666383D01*
X134518801Y-112666268D01*
X134540941Y-112623871D01*
X134551178Y-112599913D01*
X134559820Y-112579689D01*
X134559823Y-112579680D01*
X134559934Y-112579421D01*
X134575388Y-112530339D01*
X134586911Y-112474045D01*
X134594112Y-112407959D01*
X134596241Y-112340829D01*
X134599928Y-112332669D01*
X134607935Y-112329500D01*
X134835265Y-112329500D01*
X134843538Y-112332927D01*
G37*
%TD.AperFunction*%
%TD*%
%TA.AperFunction,Conductor*%
%TO.N,GND*%
G36*
X142791721Y-83671602D02*
G01*
X142838214Y-83725258D01*
X142849600Y-83777600D01*
X142849600Y-89865200D01*
X142863210Y-89865172D01*
X146554151Y-89857562D01*
X167487600Y-89814400D01*
X167487600Y-88302748D01*
X172192500Y-88302748D01*
X172193707Y-88308816D01*
X172197331Y-88327033D01*
X172204133Y-88361231D01*
X172248448Y-88427552D01*
X172314769Y-88471867D01*
X172326938Y-88474288D01*
X172326939Y-88474288D01*
X172367184Y-88482293D01*
X172373252Y-88483500D01*
X174112748Y-88483500D01*
X174118816Y-88482293D01*
X174159061Y-88474288D01*
X174159062Y-88474288D01*
X174171231Y-88471867D01*
X174237552Y-88427552D01*
X174281867Y-88361231D01*
X174288670Y-88327033D01*
X174292293Y-88308816D01*
X174293500Y-88302748D01*
X174293500Y-87418262D01*
X174727520Y-87418262D01*
X174744759Y-87623553D01*
X174746458Y-87629478D01*
X174792395Y-87789678D01*
X174801544Y-87821586D01*
X174804359Y-87827063D01*
X174804360Y-87827066D01*
X174892897Y-87999341D01*
X174895712Y-88004818D01*
X175023677Y-88166270D01*
X175028370Y-88170264D01*
X175028371Y-88170265D01*
X175102541Y-88233388D01*
X175180564Y-88299791D01*
X175185942Y-88302797D01*
X175185944Y-88302798D01*
X175216387Y-88319812D01*
X175360398Y-88400297D01*
X175444280Y-88427552D01*
X175550471Y-88462056D01*
X175550475Y-88462057D01*
X175556329Y-88463959D01*
X175760894Y-88488351D01*
X175767029Y-88487879D01*
X175767031Y-88487879D01*
X175839625Y-88482293D01*
X175966300Y-88472546D01*
X175972230Y-88470890D01*
X175972232Y-88470890D01*
X176158797Y-88418800D01*
X176158796Y-88418800D01*
X176164725Y-88417145D01*
X176170214Y-88414372D01*
X176170220Y-88414370D01*
X176343116Y-88327033D01*
X176348610Y-88324258D01*
X176364345Y-88311965D01*
X176506101Y-88201213D01*
X176510951Y-88197424D01*
X176568992Y-88130183D01*
X176641540Y-88046134D01*
X176641540Y-88046133D01*
X176645564Y-88041472D01*
X176666387Y-88004818D01*
X176684056Y-87973714D01*
X176747323Y-87862344D01*
X176812351Y-87666863D01*
X176838171Y-87462474D01*
X176838583Y-87433000D01*
X176837138Y-87418262D01*
X177267520Y-87418262D01*
X177284759Y-87623553D01*
X177286458Y-87629478D01*
X177332395Y-87789678D01*
X177341544Y-87821586D01*
X177344359Y-87827063D01*
X177344360Y-87827066D01*
X177432897Y-87999341D01*
X177435712Y-88004818D01*
X177563677Y-88166270D01*
X177568370Y-88170264D01*
X177568371Y-88170265D01*
X177642541Y-88233388D01*
X177720564Y-88299791D01*
X177725942Y-88302797D01*
X177725944Y-88302798D01*
X177756387Y-88319812D01*
X177900398Y-88400297D01*
X177984280Y-88427552D01*
X178090471Y-88462056D01*
X178090475Y-88462057D01*
X178096329Y-88463959D01*
X178300894Y-88488351D01*
X178307029Y-88487879D01*
X178307031Y-88487879D01*
X178379625Y-88482293D01*
X178506300Y-88472546D01*
X178512230Y-88470890D01*
X178512232Y-88470890D01*
X178698797Y-88418800D01*
X178698796Y-88418800D01*
X178704725Y-88417145D01*
X178710214Y-88414372D01*
X178710220Y-88414370D01*
X178883116Y-88327033D01*
X178888610Y-88324258D01*
X178904345Y-88311965D01*
X179046101Y-88201213D01*
X179050951Y-88197424D01*
X179108992Y-88130183D01*
X179181540Y-88046134D01*
X179181540Y-88046133D01*
X179185564Y-88041472D01*
X179206387Y-88004818D01*
X179224056Y-87973714D01*
X179287323Y-87862344D01*
X179352351Y-87666863D01*
X179378171Y-87462474D01*
X179378583Y-87433000D01*
X179377138Y-87418262D01*
X179807520Y-87418262D01*
X179824759Y-87623553D01*
X179826458Y-87629478D01*
X179872395Y-87789678D01*
X179881544Y-87821586D01*
X179884359Y-87827063D01*
X179884360Y-87827066D01*
X179972897Y-87999341D01*
X179975712Y-88004818D01*
X180103677Y-88166270D01*
X180108370Y-88170264D01*
X180108371Y-88170265D01*
X180182541Y-88233388D01*
X180260564Y-88299791D01*
X180265942Y-88302797D01*
X180265944Y-88302798D01*
X180296387Y-88319812D01*
X180440398Y-88400297D01*
X180524280Y-88427552D01*
X180630471Y-88462056D01*
X180630475Y-88462057D01*
X180636329Y-88463959D01*
X180840894Y-88488351D01*
X180847029Y-88487879D01*
X180847031Y-88487879D01*
X180919625Y-88482293D01*
X181046300Y-88472546D01*
X181052230Y-88470890D01*
X181052232Y-88470890D01*
X181238797Y-88418800D01*
X181238796Y-88418800D01*
X181244725Y-88417145D01*
X181250214Y-88414372D01*
X181250220Y-88414370D01*
X181423116Y-88327033D01*
X181428610Y-88324258D01*
X181444345Y-88311965D01*
X181586101Y-88201213D01*
X181590951Y-88197424D01*
X181648992Y-88130183D01*
X181721540Y-88046134D01*
X181721540Y-88046133D01*
X181725564Y-88041472D01*
X181746387Y-88004818D01*
X181764056Y-87973714D01*
X181827323Y-87862344D01*
X181892351Y-87666863D01*
X181918171Y-87462474D01*
X181918583Y-87433000D01*
X181917138Y-87418262D01*
X182347520Y-87418262D01*
X182364759Y-87623553D01*
X182366458Y-87629478D01*
X182412395Y-87789678D01*
X182421544Y-87821586D01*
X182424359Y-87827063D01*
X182424360Y-87827066D01*
X182512897Y-87999341D01*
X182515712Y-88004818D01*
X182643677Y-88166270D01*
X182648370Y-88170264D01*
X182648371Y-88170265D01*
X182722541Y-88233388D01*
X182800564Y-88299791D01*
X182805942Y-88302797D01*
X182805944Y-88302798D01*
X182836387Y-88319812D01*
X182980398Y-88400297D01*
X183064280Y-88427552D01*
X183170471Y-88462056D01*
X183170475Y-88462057D01*
X183176329Y-88463959D01*
X183380894Y-88488351D01*
X183387029Y-88487879D01*
X183387031Y-88487879D01*
X183459625Y-88482293D01*
X183586300Y-88472546D01*
X183592230Y-88470890D01*
X183592232Y-88470890D01*
X183778797Y-88418800D01*
X183778796Y-88418800D01*
X183784725Y-88417145D01*
X183790214Y-88414372D01*
X183790220Y-88414370D01*
X183963116Y-88327033D01*
X183968610Y-88324258D01*
X183984345Y-88311965D01*
X184126101Y-88201213D01*
X184130951Y-88197424D01*
X184188992Y-88130183D01*
X184261540Y-88046134D01*
X184261540Y-88046133D01*
X184265564Y-88041472D01*
X184286387Y-88004818D01*
X184304056Y-87973714D01*
X184367323Y-87862344D01*
X184432351Y-87666863D01*
X184458171Y-87462474D01*
X184458583Y-87433000D01*
X184457138Y-87418262D01*
X184887520Y-87418262D01*
X184904759Y-87623553D01*
X184906458Y-87629478D01*
X184952395Y-87789678D01*
X184961544Y-87821586D01*
X184964359Y-87827063D01*
X184964360Y-87827066D01*
X185052897Y-87999341D01*
X185055712Y-88004818D01*
X185183677Y-88166270D01*
X185188370Y-88170264D01*
X185188371Y-88170265D01*
X185262541Y-88233388D01*
X185340564Y-88299791D01*
X185345942Y-88302797D01*
X185345944Y-88302798D01*
X185376387Y-88319812D01*
X185520398Y-88400297D01*
X185604280Y-88427552D01*
X185710471Y-88462056D01*
X185710475Y-88462057D01*
X185716329Y-88463959D01*
X185920894Y-88488351D01*
X185927029Y-88487879D01*
X185927031Y-88487879D01*
X185999625Y-88482293D01*
X186126300Y-88472546D01*
X186132230Y-88470890D01*
X186132232Y-88470890D01*
X186318797Y-88418800D01*
X186318796Y-88418800D01*
X186324725Y-88417145D01*
X186330214Y-88414372D01*
X186330220Y-88414370D01*
X186503116Y-88327033D01*
X186508610Y-88324258D01*
X186524345Y-88311965D01*
X186666101Y-88201213D01*
X186670951Y-88197424D01*
X186728992Y-88130183D01*
X186801540Y-88046134D01*
X186801540Y-88046133D01*
X186805564Y-88041472D01*
X186826387Y-88004818D01*
X186844056Y-87973714D01*
X186907323Y-87862344D01*
X186916271Y-87835444D01*
X186931496Y-87789678D01*
X186971978Y-87731354D01*
X187037566Y-87704175D01*
X187107437Y-87716770D01*
X187159406Y-87765141D01*
X187173971Y-87801751D01*
X187181564Y-87835444D01*
X187184645Y-87845275D01*
X187264770Y-88042603D01*
X187269413Y-88051794D01*
X187380694Y-88233388D01*
X187386777Y-88241699D01*
X187526213Y-88402667D01*
X187533580Y-88409883D01*
X187697434Y-88545916D01*
X187705881Y-88551831D01*
X187889756Y-88659279D01*
X187899042Y-88663729D01*
X188098001Y-88739703D01*
X188107899Y-88742579D01*
X188211250Y-88763606D01*
X188225299Y-88762410D01*
X188229000Y-88752065D01*
X188229000Y-88751517D01*
X188737000Y-88751517D01*
X188741064Y-88765359D01*
X188754478Y-88767393D01*
X188761184Y-88766534D01*
X188771262Y-88764392D01*
X188975255Y-88703191D01*
X188984842Y-88699433D01*
X189176095Y-88605739D01*
X189184945Y-88600464D01*
X189358328Y-88476792D01*
X189366200Y-88470139D01*
X189517052Y-88319812D01*
X189523730Y-88311965D01*
X189648003Y-88139020D01*
X189653313Y-88130183D01*
X189747670Y-87939267D01*
X189751469Y-87929672D01*
X189792593Y-87794319D01*
X189831534Y-87734955D01*
X189896388Y-87706068D01*
X189966564Y-87716830D01*
X190019782Y-87763823D01*
X190034270Y-87796217D01*
X190041544Y-87821586D01*
X190044359Y-87827063D01*
X190044360Y-87827066D01*
X190132897Y-87999341D01*
X190135712Y-88004818D01*
X190263677Y-88166270D01*
X190268370Y-88170264D01*
X190268371Y-88170265D01*
X190342541Y-88233388D01*
X190420564Y-88299791D01*
X190425942Y-88302797D01*
X190425944Y-88302798D01*
X190456387Y-88319812D01*
X190600398Y-88400297D01*
X190684280Y-88427552D01*
X190790471Y-88462056D01*
X190790475Y-88462057D01*
X190796329Y-88463959D01*
X191000894Y-88488351D01*
X191007029Y-88487879D01*
X191007031Y-88487879D01*
X191079625Y-88482293D01*
X191206300Y-88472546D01*
X191212230Y-88470890D01*
X191212232Y-88470890D01*
X191398797Y-88418800D01*
X191398796Y-88418800D01*
X191404725Y-88417145D01*
X191410214Y-88414372D01*
X191410220Y-88414370D01*
X191583116Y-88327033D01*
X191588610Y-88324258D01*
X191604345Y-88311965D01*
X191746101Y-88201213D01*
X191750951Y-88197424D01*
X191808992Y-88130183D01*
X191881540Y-88046134D01*
X191881540Y-88046133D01*
X191885564Y-88041472D01*
X191906387Y-88004818D01*
X191924056Y-87973714D01*
X191987323Y-87862344D01*
X192052351Y-87666863D01*
X192078171Y-87462474D01*
X192078583Y-87433000D01*
X192058480Y-87227970D01*
X191998935Y-87030749D01*
X191902218Y-86848849D01*
X191826206Y-86755649D01*
X191775906Y-86693975D01*
X191775903Y-86693972D01*
X191772011Y-86689200D01*
X191754786Y-86674950D01*
X191618025Y-86561811D01*
X191618021Y-86561809D01*
X191613275Y-86557882D01*
X191432055Y-86459897D01*
X191235254Y-86398977D01*
X191229129Y-86398333D01*
X191229128Y-86398333D01*
X191036498Y-86378087D01*
X191036496Y-86378087D01*
X191030369Y-86377443D01*
X190943529Y-86385346D01*
X190831342Y-86395555D01*
X190831339Y-86395556D01*
X190825203Y-86396114D01*
X190627572Y-86454280D01*
X190445002Y-86549726D01*
X190440201Y-86553586D01*
X190440198Y-86553588D01*
X190407688Y-86579727D01*
X190284447Y-86678815D01*
X190152024Y-86836630D01*
X190149056Y-86842028D01*
X190149053Y-86842033D01*
X190142315Y-86854290D01*
X190052776Y-87017162D01*
X190050914Y-87023032D01*
X190034068Y-87076138D01*
X189994405Y-87135022D01*
X189929202Y-87163114D01*
X189859163Y-87151497D01*
X189806523Y-87103857D01*
X189791762Y-87068735D01*
X189774214Y-86998875D01*
X189770894Y-86989124D01*
X189685972Y-86793814D01*
X189681105Y-86784739D01*
X189565426Y-86605926D01*
X189559136Y-86597757D01*
X189415806Y-86440240D01*
X189408273Y-86433215D01*
X189241139Y-86301222D01*
X189232552Y-86295517D01*
X189046117Y-86192599D01*
X189036705Y-86188369D01*
X188835959Y-86117280D01*
X188825988Y-86114646D01*
X188754837Y-86101972D01*
X188741540Y-86103432D01*
X188737000Y-86117989D01*
X188737000Y-88751517D01*
X188229000Y-88751517D01*
X188229000Y-86116102D01*
X188225082Y-86102758D01*
X188210806Y-86100771D01*
X188172324Y-86106660D01*
X188162288Y-86109051D01*
X187959868Y-86175212D01*
X187950359Y-86179209D01*
X187761463Y-86277542D01*
X187752738Y-86283036D01*
X187582433Y-86410905D01*
X187574726Y-86417748D01*
X187427590Y-86571717D01*
X187421104Y-86579727D01*
X187301098Y-86755649D01*
X187296000Y-86764623D01*
X187206338Y-86957783D01*
X187202775Y-86967470D01*
X187174012Y-87071185D01*
X187136533Y-87131483D01*
X187072405Y-87161946D01*
X187001986Y-87152903D01*
X186947636Y-87107224D01*
X186931973Y-87073933D01*
X186931143Y-87071185D01*
X186918935Y-87030749D01*
X186822218Y-86848849D01*
X186746206Y-86755649D01*
X186695906Y-86693975D01*
X186695903Y-86693972D01*
X186692011Y-86689200D01*
X186674786Y-86674950D01*
X186538025Y-86561811D01*
X186538021Y-86561809D01*
X186533275Y-86557882D01*
X186352055Y-86459897D01*
X186155254Y-86398977D01*
X186149129Y-86398333D01*
X186149128Y-86398333D01*
X185956498Y-86378087D01*
X185956496Y-86378087D01*
X185950369Y-86377443D01*
X185863529Y-86385346D01*
X185751342Y-86395555D01*
X185751339Y-86395556D01*
X185745203Y-86396114D01*
X185547572Y-86454280D01*
X185365002Y-86549726D01*
X185360201Y-86553586D01*
X185360198Y-86553588D01*
X185327688Y-86579727D01*
X185204447Y-86678815D01*
X185072024Y-86836630D01*
X185069056Y-86842028D01*
X185069053Y-86842033D01*
X185062315Y-86854290D01*
X184972776Y-87017162D01*
X184910484Y-87213532D01*
X184909798Y-87219649D01*
X184909797Y-87219653D01*
X184888207Y-87412137D01*
X184887520Y-87418262D01*
X184457138Y-87418262D01*
X184438480Y-87227970D01*
X184378935Y-87030749D01*
X184282218Y-86848849D01*
X184206206Y-86755649D01*
X184155906Y-86693975D01*
X184155903Y-86693972D01*
X184152011Y-86689200D01*
X184134786Y-86674950D01*
X183998025Y-86561811D01*
X183998021Y-86561809D01*
X183993275Y-86557882D01*
X183812055Y-86459897D01*
X183615254Y-86398977D01*
X183609129Y-86398333D01*
X183609128Y-86398333D01*
X183416498Y-86378087D01*
X183416496Y-86378087D01*
X183410369Y-86377443D01*
X183323529Y-86385346D01*
X183211342Y-86395555D01*
X183211339Y-86395556D01*
X183205203Y-86396114D01*
X183007572Y-86454280D01*
X182825002Y-86549726D01*
X182820201Y-86553586D01*
X182820198Y-86553588D01*
X182787688Y-86579727D01*
X182664447Y-86678815D01*
X182532024Y-86836630D01*
X182529056Y-86842028D01*
X182529053Y-86842033D01*
X182522315Y-86854290D01*
X182432776Y-87017162D01*
X182370484Y-87213532D01*
X182369798Y-87219649D01*
X182369797Y-87219653D01*
X182348207Y-87412137D01*
X182347520Y-87418262D01*
X181917138Y-87418262D01*
X181898480Y-87227970D01*
X181838935Y-87030749D01*
X181742218Y-86848849D01*
X181666206Y-86755649D01*
X181615906Y-86693975D01*
X181615903Y-86693972D01*
X181612011Y-86689200D01*
X181594786Y-86674950D01*
X181458025Y-86561811D01*
X181458021Y-86561809D01*
X181453275Y-86557882D01*
X181272055Y-86459897D01*
X181075254Y-86398977D01*
X181069129Y-86398333D01*
X181069128Y-86398333D01*
X180876498Y-86378087D01*
X180876496Y-86378087D01*
X180870369Y-86377443D01*
X180783529Y-86385346D01*
X180671342Y-86395555D01*
X180671339Y-86395556D01*
X180665203Y-86396114D01*
X180467572Y-86454280D01*
X180285002Y-86549726D01*
X180280201Y-86553586D01*
X180280198Y-86553588D01*
X180247688Y-86579727D01*
X180124447Y-86678815D01*
X179992024Y-86836630D01*
X179989056Y-86842028D01*
X179989053Y-86842033D01*
X179982315Y-86854290D01*
X179892776Y-87017162D01*
X179830484Y-87213532D01*
X179829798Y-87219649D01*
X179829797Y-87219653D01*
X179808207Y-87412137D01*
X179807520Y-87418262D01*
X179377138Y-87418262D01*
X179358480Y-87227970D01*
X179298935Y-87030749D01*
X179202218Y-86848849D01*
X179126206Y-86755649D01*
X179075906Y-86693975D01*
X179075903Y-86693972D01*
X179072011Y-86689200D01*
X179054786Y-86674950D01*
X178918025Y-86561811D01*
X178918021Y-86561809D01*
X178913275Y-86557882D01*
X178732055Y-86459897D01*
X178535254Y-86398977D01*
X178529129Y-86398333D01*
X178529128Y-86398333D01*
X178336498Y-86378087D01*
X178336496Y-86378087D01*
X178330369Y-86377443D01*
X178243529Y-86385346D01*
X178131342Y-86395555D01*
X178131339Y-86395556D01*
X178125203Y-86396114D01*
X177927572Y-86454280D01*
X177745002Y-86549726D01*
X177740201Y-86553586D01*
X177740198Y-86553588D01*
X177707688Y-86579727D01*
X177584447Y-86678815D01*
X177452024Y-86836630D01*
X177449056Y-86842028D01*
X177449053Y-86842033D01*
X177442315Y-86854290D01*
X177352776Y-87017162D01*
X177290484Y-87213532D01*
X177289798Y-87219649D01*
X177289797Y-87219653D01*
X177268207Y-87412137D01*
X177267520Y-87418262D01*
X176837138Y-87418262D01*
X176818480Y-87227970D01*
X176758935Y-87030749D01*
X176662218Y-86848849D01*
X176586206Y-86755649D01*
X176535906Y-86693975D01*
X176535903Y-86693972D01*
X176532011Y-86689200D01*
X176514786Y-86674950D01*
X176378025Y-86561811D01*
X176378021Y-86561809D01*
X176373275Y-86557882D01*
X176192055Y-86459897D01*
X175995254Y-86398977D01*
X175989129Y-86398333D01*
X175989128Y-86398333D01*
X175796498Y-86378087D01*
X175796496Y-86378087D01*
X175790369Y-86377443D01*
X175703529Y-86385346D01*
X175591342Y-86395555D01*
X175591339Y-86395556D01*
X175585203Y-86396114D01*
X175387572Y-86454280D01*
X175205002Y-86549726D01*
X175200201Y-86553586D01*
X175200198Y-86553588D01*
X175167688Y-86579727D01*
X175044447Y-86678815D01*
X174912024Y-86836630D01*
X174909056Y-86842028D01*
X174909053Y-86842033D01*
X174902315Y-86854290D01*
X174812776Y-87017162D01*
X174750484Y-87213532D01*
X174749798Y-87219649D01*
X174749797Y-87219653D01*
X174728207Y-87412137D01*
X174727520Y-87418262D01*
X174293500Y-87418262D01*
X174293500Y-86563252D01*
X174281867Y-86504769D01*
X174237552Y-86438448D01*
X174171231Y-86394133D01*
X174159062Y-86391712D01*
X174159061Y-86391712D01*
X174118816Y-86383707D01*
X174112748Y-86382500D01*
X172373252Y-86382500D01*
X172367184Y-86383707D01*
X172326939Y-86391712D01*
X172326938Y-86391712D01*
X172314769Y-86394133D01*
X172248448Y-86438448D01*
X172204133Y-86504769D01*
X172192500Y-86563252D01*
X172192500Y-88302748D01*
X167487600Y-88302748D01*
X167487600Y-83777600D01*
X167507602Y-83709479D01*
X167561258Y-83662986D01*
X167613600Y-83651600D01*
X194782813Y-83651600D01*
X194795163Y-83652207D01*
X194971740Y-83669599D01*
X194995957Y-83674415D01*
X195159809Y-83724118D01*
X195182628Y-83733570D01*
X195196897Y-83741197D01*
X195247545Y-83790950D01*
X195263500Y-83852319D01*
X195263500Y-118982500D01*
X195243498Y-119050621D01*
X195189842Y-119097114D01*
X195137500Y-119108500D01*
X111995519Y-119108500D01*
X111927398Y-119088498D01*
X111884397Y-119041897D01*
X111876771Y-119027630D01*
X111867318Y-119004809D01*
X111860551Y-118982500D01*
X111817615Y-118840957D01*
X111812798Y-118816737D01*
X111795407Y-118640163D01*
X111794800Y-118627813D01*
X111794800Y-115570000D01*
X135334750Y-115570000D01*
X135353670Y-115713709D01*
X135409139Y-115847625D01*
X135497379Y-115962621D01*
X135612375Y-116050861D01*
X135746291Y-116106330D01*
X135890000Y-116125250D01*
X136033709Y-116106330D01*
X136167625Y-116050861D01*
X136282621Y-115962621D01*
X136370861Y-115847625D01*
X136397992Y-115782124D01*
X136407987Y-115762874D01*
X136411814Y-115756837D01*
X136411817Y-115756830D01*
X136415135Y-115751598D01*
X136417366Y-115745824D01*
X136417369Y-115745818D01*
X136425954Y-115723600D01*
X136429763Y-115714762D01*
X136438797Y-115695825D01*
X136443600Y-115686732D01*
X136453124Y-115670356D01*
X136458446Y-115661983D01*
X136470519Y-115644550D01*
X136475645Y-115637665D01*
X136492628Y-115616409D01*
X136496917Y-115611323D01*
X136520637Y-115584653D01*
X136523693Y-115581338D01*
X136555284Y-115548280D01*
X136557038Y-115546481D01*
X136596818Y-115506507D01*
X136597378Y-115505948D01*
X136644933Y-115458882D01*
X136644938Y-115458877D01*
X136645207Y-115458610D01*
X136686774Y-115417315D01*
X136691185Y-115412933D01*
X136694412Y-115408129D01*
X136705123Y-115397657D01*
X136710715Y-115391702D01*
X136718110Y-115385872D01*
X136723465Y-115378124D01*
X136723467Y-115378122D01*
X136751474Y-115337600D01*
X136753774Y-115334381D01*
X136783038Y-115294760D01*
X136783039Y-115294759D01*
X136788634Y-115287183D01*
X136791027Y-115280369D01*
X136795131Y-115274431D01*
X136812827Y-115218476D01*
X136814078Y-115214728D01*
X136830396Y-115168262D01*
X136833519Y-115159369D01*
X136833801Y-115152182D01*
X136833813Y-115152120D01*
X136835980Y-115145270D01*
X136836500Y-115138663D01*
X136836500Y-115085980D01*
X136836597Y-115081037D01*
X136837351Y-115061838D01*
X136838838Y-115024006D01*
X136836954Y-115016900D01*
X136836500Y-115008653D01*
X136836500Y-111350393D01*
X136856502Y-111282272D01*
X136873405Y-111261298D01*
X138000303Y-110134400D01*
X139348318Y-110134400D01*
X139368956Y-110291162D01*
X139429464Y-110437241D01*
X139525718Y-110562682D01*
X139651159Y-110658936D01*
X139733867Y-110693195D01*
X139749020Y-110700700D01*
X139763739Y-110709267D01*
X139807194Y-110724186D01*
X139823330Y-110729726D01*
X139823549Y-110729802D01*
X139880300Y-110749403D01*
X139882603Y-110750223D01*
X139927455Y-110766712D01*
X139932215Y-110768573D01*
X139952740Y-110777085D01*
X139966840Y-110782932D01*
X139973792Y-110786065D01*
X140001780Y-110799711D01*
X140009919Y-110804055D01*
X140036064Y-110819265D01*
X140044083Y-110824344D01*
X140054961Y-110831821D01*
X140073269Y-110844407D01*
X140080147Y-110849488D01*
X140115971Y-110877887D01*
X140121340Y-110882392D01*
X140165973Y-110922017D01*
X140169885Y-110925641D01*
X140220074Y-110974171D01*
X140225149Y-110977470D01*
X140225155Y-110977475D01*
X140229875Y-110980543D01*
X140250294Y-110997087D01*
X142165950Y-112912742D01*
X142255658Y-113002450D01*
X142264492Y-113006951D01*
X142264493Y-113006952D01*
X142275259Y-113012438D01*
X142292116Y-113022768D01*
X142309910Y-113035696D01*
X142330830Y-113042493D01*
X142349093Y-113050058D01*
X142359861Y-113055545D01*
X142359865Y-113055546D01*
X142368696Y-113060046D01*
X142378485Y-113061597D01*
X142378493Y-113061599D01*
X142390427Y-113063489D01*
X142409647Y-113068103D01*
X142421133Y-113071835D01*
X142421140Y-113071836D01*
X142430567Y-113074899D01*
X142462477Y-113074899D01*
X142462481Y-113074900D01*
X183451433Y-113074900D01*
X183460864Y-113071836D01*
X183460868Y-113071835D01*
X183472353Y-113068103D01*
X183491578Y-113063487D01*
X183503512Y-113061597D01*
X183503513Y-113061597D01*
X183513304Y-113060046D01*
X183522137Y-113055545D01*
X183522141Y-113055544D01*
X183532906Y-113050059D01*
X183551166Y-113042495D01*
X183572090Y-113035696D01*
X183589893Y-113022761D01*
X183606745Y-113012435D01*
X183617502Y-113006954D01*
X183626342Y-113002450D01*
X183648905Y-112979887D01*
X183648909Y-112979884D01*
X190703884Y-105924909D01*
X190703887Y-105924905D01*
X190726450Y-105902342D01*
X190733383Y-105888735D01*
X190736437Y-105882742D01*
X190746765Y-105865887D01*
X190753867Y-105856112D01*
X190759696Y-105848089D01*
X190766494Y-105827168D01*
X190774058Y-105808908D01*
X190779544Y-105798141D01*
X190779545Y-105798137D01*
X190784046Y-105789304D01*
X190786038Y-105776730D01*
X190787487Y-105767578D01*
X190792103Y-105748353D01*
X190795835Y-105736868D01*
X190795836Y-105736864D01*
X190798900Y-105727433D01*
X190798900Y-104959292D01*
X190801751Y-104932639D01*
X190802756Y-104927996D01*
X190802756Y-104927995D01*
X190804064Y-104921952D01*
X190804894Y-104872592D01*
X190805238Y-104852165D01*
X190805442Y-104846809D01*
X190808982Y-104787240D01*
X190809594Y-104780245D01*
X190814842Y-104734848D01*
X190816113Y-104726386D01*
X190822564Y-104691563D01*
X190824642Y-104682306D01*
X190832375Y-104653063D01*
X190835058Y-104644238D01*
X190845201Y-104614793D01*
X190847902Y-104607660D01*
X190862228Y-104573035D01*
X190864282Y-104568344D01*
X190884328Y-104524990D01*
X190885394Y-104522744D01*
X190911655Y-104468771D01*
X190911757Y-104468561D01*
X190937923Y-104415035D01*
X190939428Y-104411957D01*
X190954556Y-104369982D01*
X190955357Y-104366666D01*
X190955808Y-104365165D01*
X190960081Y-104353166D01*
X190980284Y-104304392D01*
X190980285Y-104304389D01*
X190983444Y-104296762D01*
X191004082Y-104140000D01*
X190989897Y-104032250D01*
X190984522Y-103991426D01*
X190983444Y-103983238D01*
X190922936Y-103837159D01*
X190826682Y-103711718D01*
X190701241Y-103615464D01*
X190555162Y-103554956D01*
X190398400Y-103534318D01*
X190241638Y-103554956D01*
X190095559Y-103615464D01*
X189970118Y-103711718D01*
X189873864Y-103837159D01*
X189813356Y-103983238D01*
X189812278Y-103991426D01*
X189806903Y-104032250D01*
X189792718Y-104140000D01*
X189813356Y-104296762D01*
X189816516Y-104304391D01*
X189847609Y-104379456D01*
X189853018Y-104395482D01*
X189855092Y-104403329D01*
X189857371Y-104411954D01*
X189860089Y-104417514D01*
X189884941Y-104468354D01*
X189885042Y-104468561D01*
X189911405Y-104522743D01*
X189912471Y-104524990D01*
X189932517Y-104568344D01*
X189934571Y-104573035D01*
X189948897Y-104607660D01*
X189951598Y-104614793D01*
X189961741Y-104644238D01*
X189964424Y-104653063D01*
X189972157Y-104682306D01*
X189974235Y-104691563D01*
X189980686Y-104726386D01*
X189981957Y-104734848D01*
X189987205Y-104780245D01*
X189987817Y-104787241D01*
X189991357Y-104846811D01*
X189991561Y-104852164D01*
X189992628Y-104915545D01*
X189992736Y-104921955D01*
X189995002Y-104932639D01*
X189995159Y-104933381D01*
X189997900Y-104959519D01*
X189997900Y-105445917D01*
X189977898Y-105514038D01*
X189960995Y-105535012D01*
X183259012Y-112236995D01*
X183196700Y-112271021D01*
X183169917Y-112273900D01*
X142712082Y-112273900D01*
X142643961Y-112253898D01*
X142622987Y-112236995D01*
X140816524Y-110430531D01*
X140799691Y-110409665D01*
X140797121Y-110405675D01*
X140793771Y-110400474D01*
X140745241Y-110350285D01*
X140741617Y-110346373D01*
X140701992Y-110301740D01*
X140697478Y-110296361D01*
X140686866Y-110282974D01*
X140669088Y-110260547D01*
X140664007Y-110253669D01*
X140643944Y-110224484D01*
X140638865Y-110216464D01*
X140623655Y-110190319D01*
X140619311Y-110182180D01*
X140605665Y-110154192D01*
X140602532Y-110147240D01*
X140596685Y-110133140D01*
X140588173Y-110112615D01*
X140586304Y-110107835D01*
X140569837Y-110063041D01*
X140569003Y-110060700D01*
X140549326Y-110003729D01*
X140549250Y-110003509D01*
X140529980Y-109947379D01*
X140529976Y-109947369D01*
X140528867Y-109944139D01*
X140524236Y-109934288D01*
X140511336Y-109906852D01*
X140509880Y-109903755D01*
X140508094Y-109900831D01*
X140507371Y-109899488D01*
X140501902Y-109887971D01*
X140495919Y-109873525D01*
X140478536Y-109831559D01*
X140382282Y-109706118D01*
X140372120Y-109698320D01*
X140263392Y-109614891D01*
X140256841Y-109609864D01*
X140110762Y-109549356D01*
X139954000Y-109528718D01*
X139797238Y-109549356D01*
X139651159Y-109609864D01*
X139644608Y-109614891D01*
X139535881Y-109698320D01*
X139525718Y-109706118D01*
X139429464Y-109831559D01*
X139368956Y-109977638D01*
X139348318Y-110134400D01*
X138000303Y-110134400D01*
X140078298Y-108056405D01*
X140140610Y-108022379D01*
X140167393Y-108019500D01*
X156961888Y-108019500D01*
X156985801Y-108021790D01*
X156993399Y-108023259D01*
X156993404Y-108023259D01*
X156999475Y-108024433D01*
X157005658Y-108024400D01*
X157005663Y-108024400D01*
X157068228Y-108024061D01*
X157069566Y-108024049D01*
X157069599Y-108024048D01*
X157069649Y-108024048D01*
X157140666Y-108023173D01*
X157140870Y-108023170D01*
X157202497Y-108022511D01*
X157204125Y-108022504D01*
X157254969Y-108022638D01*
X157258477Y-108022698D01*
X157293433Y-108023777D01*
X157299255Y-108023957D01*
X157304893Y-108024258D01*
X157336852Y-108026682D01*
X157344456Y-108027491D01*
X157354438Y-108028861D01*
X157370093Y-108031010D01*
X157379045Y-108032570D01*
X157401746Y-108037377D01*
X157411066Y-108039725D01*
X157434915Y-108046714D01*
X157443615Y-108049612D01*
X157474739Y-108061259D01*
X157477768Y-108062060D01*
X157503777Y-108068939D01*
X157519769Y-108074339D01*
X157543891Y-108084330D01*
X157687600Y-108103250D01*
X157831309Y-108084330D01*
X157965225Y-108028861D01*
X158080221Y-107940621D01*
X158168461Y-107825625D01*
X158222153Y-107696000D01*
X169624750Y-107696000D01*
X169643670Y-107839709D01*
X169699139Y-107973625D01*
X169787379Y-108088621D01*
X169902375Y-108176861D01*
X170036291Y-108232330D01*
X170180000Y-108251250D01*
X170323709Y-108232330D01*
X170457625Y-108176861D01*
X170572621Y-108088621D01*
X170660861Y-107973625D01*
X170677889Y-107932516D01*
X170694120Y-107893331D01*
X170699841Y-107881349D01*
X170706375Y-107869335D01*
X170706378Y-107869329D01*
X170709332Y-107863897D01*
X170711170Y-107857995D01*
X170727302Y-107806183D01*
X170727316Y-107806135D01*
X170727428Y-107805777D01*
X170729145Y-107799963D01*
X170729331Y-107799297D01*
X170730882Y-107793410D01*
X170745466Y-107734508D01*
X170746348Y-107730798D01*
X170746360Y-107730746D01*
X170746377Y-107730673D01*
X170746393Y-107730600D01*
X170746449Y-107730355D01*
X170747332Y-107726293D01*
X170758447Y-107672547D01*
X170758702Y-107671291D01*
X170767566Y-107627037D01*
X170768517Y-107622694D01*
X170775469Y-107593404D01*
X170778094Y-107583988D01*
X170783606Y-107566822D01*
X170788505Y-107554013D01*
X170789274Y-107552291D01*
X170794084Y-107541511D01*
X170801075Y-107528078D01*
X170810822Y-107511817D01*
X170818774Y-107500099D01*
X170838528Y-107474245D01*
X170846151Y-107465184D01*
X170872217Y-107437004D01*
X170881830Y-107426612D01*
X170884955Y-107421626D01*
X170886800Y-107418683D01*
X170904468Y-107396503D01*
X172082652Y-106218319D01*
X172084686Y-106216563D01*
X172089469Y-106214225D01*
X172100373Y-106202471D01*
X172122773Y-106178323D01*
X172126053Y-106174918D01*
X172139448Y-106161523D01*
X172142172Y-106157553D01*
X172144497Y-106154905D01*
X172157690Y-106140682D01*
X172165601Y-106132154D01*
X172169913Y-106121347D01*
X172172432Y-106117362D01*
X172178204Y-106106553D01*
X172180111Y-106102248D01*
X172186693Y-106092654D01*
X172192386Y-106068664D01*
X172197951Y-106051068D01*
X172200612Y-106044399D01*
X172207083Y-106028178D01*
X172207700Y-106021885D01*
X172207700Y-106018803D01*
X172207850Y-106015733D01*
X172208066Y-106015744D01*
X172209398Y-106004369D01*
X172209853Y-105995055D01*
X172212540Y-105983734D01*
X172210025Y-105965250D01*
X172208851Y-105956627D01*
X172207700Y-105939636D01*
X172207700Y-102132261D01*
X172227702Y-102064140D01*
X172244605Y-102043166D01*
X179167666Y-95120105D01*
X179229978Y-95086079D01*
X179256761Y-95083200D01*
X182197022Y-95083200D01*
X182226384Y-95086669D01*
X182233947Y-95088482D01*
X182281897Y-95090350D01*
X182286439Y-95090527D01*
X182298237Y-95091543D01*
X182330485Y-95095856D01*
X182344392Y-95098519D01*
X182352664Y-95100591D01*
X182362795Y-95103128D01*
X182377236Y-95107683D01*
X182388815Y-95112117D01*
X182390022Y-95112579D01*
X182402543Y-95118174D01*
X182418562Y-95126405D01*
X182427093Y-95131216D01*
X182452740Y-95147025D01*
X182456482Y-95149424D01*
X182494025Y-95174435D01*
X182495091Y-95175140D01*
X182540944Y-95205278D01*
X182544251Y-95207406D01*
X182544635Y-95207648D01*
X182544859Y-95207786D01*
X182546486Y-95208789D01*
X182548075Y-95209769D01*
X182600038Y-95241106D01*
X182605104Y-95244064D01*
X182605706Y-95244404D01*
X182606042Y-95244587D01*
X182606078Y-95244607D01*
X182608370Y-95245855D01*
X182611221Y-95247408D01*
X182665126Y-95275716D01*
X182709527Y-95292812D01*
X182713068Y-95293722D01*
X182716554Y-95294837D01*
X182716513Y-95294964D01*
X182728735Y-95299042D01*
X182736580Y-95302292D01*
X182769363Y-95315871D01*
X182769367Y-95315872D01*
X182776991Y-95319030D01*
X182920700Y-95337950D01*
X183064409Y-95319030D01*
X183198325Y-95263561D01*
X183313321Y-95175321D01*
X183401561Y-95060325D01*
X183457030Y-94926409D01*
X183475950Y-94782700D01*
X183457030Y-94638991D01*
X183401561Y-94505075D01*
X183313321Y-94390079D01*
X183198325Y-94301839D01*
X183064409Y-94246370D01*
X182920700Y-94227450D01*
X182776991Y-94246370D01*
X182696691Y-94279631D01*
X182684186Y-94284054D01*
X182665128Y-94289682D01*
X182659644Y-94292562D01*
X182659641Y-94292563D01*
X182647995Y-94298679D01*
X182611223Y-94317989D01*
X182605706Y-94320995D01*
X182605104Y-94321335D01*
X182600038Y-94324293D01*
X182548075Y-94355630D01*
X182544829Y-94357628D01*
X182544452Y-94357865D01*
X182540950Y-94360117D01*
X182495090Y-94390260D01*
X182494936Y-94390362D01*
X182494881Y-94390398D01*
X182494025Y-94390964D01*
X182493930Y-94391027D01*
X182456482Y-94415975D01*
X182452740Y-94418374D01*
X182427093Y-94434183D01*
X182418562Y-94438994D01*
X182402543Y-94447225D01*
X182390022Y-94452820D01*
X182377236Y-94457716D01*
X182362791Y-94462272D01*
X182357387Y-94463625D01*
X182352760Y-94464784D01*
X182281820Y-94461926D01*
X182223688Y-94421169D01*
X182196819Y-94355453D01*
X182197235Y-94326110D01*
X182197909Y-94320995D01*
X182216050Y-94183200D01*
X182197130Y-94039491D01*
X182141661Y-93905575D01*
X182053421Y-93790579D01*
X181938425Y-93702339D01*
X181804509Y-93646870D01*
X181660800Y-93627950D01*
X181517091Y-93646870D01*
X181436791Y-93680131D01*
X181424286Y-93684554D01*
X181405228Y-93690182D01*
X181399744Y-93693062D01*
X181399741Y-93693063D01*
X181388095Y-93699179D01*
X181351323Y-93718489D01*
X181345806Y-93721495D01*
X181345204Y-93721835D01*
X181340138Y-93724793D01*
X181288175Y-93756130D01*
X181284929Y-93758128D01*
X181284552Y-93758365D01*
X181281050Y-93760617D01*
X181235190Y-93790760D01*
X181235036Y-93790862D01*
X181234981Y-93790898D01*
X181234125Y-93791464D01*
X181234030Y-93791527D01*
X181196582Y-93816475D01*
X181192840Y-93818874D01*
X181167193Y-93834683D01*
X181158662Y-93839494D01*
X181142643Y-93847725D01*
X181130122Y-93853320D01*
X181117336Y-93858216D01*
X181102895Y-93862771D01*
X181092764Y-93865308D01*
X181084492Y-93867380D01*
X181070585Y-93870043D01*
X181038337Y-93874356D01*
X181026541Y-93875372D01*
X181022192Y-93875542D01*
X180974043Y-93877418D01*
X180964933Y-93879509D01*
X180936754Y-93882700D01*
X179173166Y-93882700D01*
X179170493Y-93882504D01*
X179165458Y-93880775D01*
X179153836Y-93881211D01*
X179153834Y-93881211D01*
X179116545Y-93882611D01*
X179111819Y-93882700D01*
X179092852Y-93882700D01*
X179088117Y-93883582D01*
X179084591Y-93883810D01*
X179080851Y-93883951D01*
X179053592Y-93884974D01*
X179042907Y-93889564D01*
X179038307Y-93890601D01*
X179026586Y-93894162D01*
X179022183Y-93895861D01*
X179010747Y-93897991D01*
X178989761Y-93910927D01*
X178973389Y-93919431D01*
X178958912Y-93925651D01*
X178958908Y-93925653D01*
X178950737Y-93929164D01*
X178945851Y-93933178D01*
X178943666Y-93935363D01*
X178941403Y-93937415D01*
X178941258Y-93937255D01*
X178932251Y-93944375D01*
X178925356Y-93950627D01*
X178915452Y-93956732D01*
X178898884Y-93978520D01*
X178887690Y-93991339D01*
X171266639Y-101612390D01*
X171243415Y-101630705D01*
X171236791Y-101634767D01*
X171232252Y-101638966D01*
X171232250Y-101638967D01*
X171198213Y-101670450D01*
X171189154Y-101678071D01*
X171163300Y-101697825D01*
X171151582Y-101705777D01*
X171135321Y-101715524D01*
X171121887Y-101722515D01*
X171109381Y-101728096D01*
X171096563Y-101732997D01*
X171079423Y-101738501D01*
X171069998Y-101741129D01*
X171040709Y-101748081D01*
X171036358Y-101749033D01*
X170992178Y-101757883D01*
X170990925Y-101758138D01*
X170937108Y-101769267D01*
X170933044Y-101770150D01*
X170932601Y-101770251D01*
X170932480Y-101770280D01*
X170932479Y-101770280D01*
X170929045Y-101771096D01*
X170928987Y-101771110D01*
X170928891Y-101771133D01*
X170908450Y-101776194D01*
X170870408Y-101785613D01*
X170870380Y-101785620D01*
X170869989Y-101785717D01*
X170865892Y-101786796D01*
X170864534Y-101787154D01*
X170864510Y-101787160D01*
X170864102Y-101787268D01*
X170863436Y-101787454D01*
X170861089Y-101788147D01*
X170857986Y-101789063D01*
X170857945Y-101789075D01*
X170857618Y-101789172D01*
X170857286Y-101789276D01*
X170857251Y-101789286D01*
X170822397Y-101800139D01*
X170799499Y-101807269D01*
X170756024Y-101826572D01*
X170752876Y-101828433D01*
X170749629Y-101830106D01*
X170749569Y-101829989D01*
X170738037Y-101835749D01*
X170689775Y-101855739D01*
X170574779Y-101943979D01*
X170486539Y-102058975D01*
X170431070Y-102192891D01*
X170412150Y-102336600D01*
X170431070Y-102480309D01*
X170486539Y-102614225D01*
X170574779Y-102729221D01*
X170689775Y-102817461D01*
X170823691Y-102872930D01*
X170967400Y-102891850D01*
X171111109Y-102872930D01*
X171245025Y-102817461D01*
X171360021Y-102729221D01*
X171380740Y-102702220D01*
X171438075Y-102660355D01*
X171508946Y-102656133D01*
X171570849Y-102690897D01*
X171604130Y-102753610D01*
X171606700Y-102778926D01*
X171606700Y-105792138D01*
X171586698Y-105860259D01*
X171569795Y-105881233D01*
X170479238Y-106971790D01*
X170456017Y-106990103D01*
X170449391Y-106994167D01*
X170444849Y-106998368D01*
X170444848Y-106998369D01*
X170410813Y-107029850D01*
X170401754Y-107037471D01*
X170375900Y-107057225D01*
X170364182Y-107065177D01*
X170347921Y-107074924D01*
X170334487Y-107081915D01*
X170321981Y-107087496D01*
X170309163Y-107092397D01*
X170292023Y-107097901D01*
X170282598Y-107100529D01*
X170253309Y-107107481D01*
X170248958Y-107108433D01*
X170222575Y-107113718D01*
X170204778Y-107117283D01*
X170203525Y-107117538D01*
X170149708Y-107128667D01*
X170145644Y-107129550D01*
X170145201Y-107129651D01*
X170145080Y-107129680D01*
X170145079Y-107129680D01*
X170141645Y-107130496D01*
X170141587Y-107130510D01*
X170141491Y-107130533D01*
X170129302Y-107133551D01*
X170083008Y-107145013D01*
X170082980Y-107145020D01*
X170082589Y-107145117D01*
X170078805Y-107146114D01*
X170077134Y-107146554D01*
X170077110Y-107146560D01*
X170076702Y-107146668D01*
X170076036Y-107146854D01*
X170073689Y-107147547D01*
X170070586Y-107148463D01*
X170070545Y-107148475D01*
X170070218Y-107148572D01*
X170069886Y-107148676D01*
X170069851Y-107148686D01*
X170044436Y-107156600D01*
X170012099Y-107166669D01*
X169968624Y-107185972D01*
X169965476Y-107187833D01*
X169962229Y-107189506D01*
X169962169Y-107189389D01*
X169950637Y-107195149D01*
X169902375Y-107215139D01*
X169895824Y-107220166D01*
X169895822Y-107220167D01*
X169838930Y-107263822D01*
X169787379Y-107303379D01*
X169699139Y-107418375D01*
X169643670Y-107552291D01*
X169624750Y-107696000D01*
X158222153Y-107696000D01*
X158223930Y-107691709D01*
X158242850Y-107548000D01*
X158223930Y-107404291D01*
X158168461Y-107270375D01*
X158080221Y-107155379D01*
X157965225Y-107067139D01*
X157831309Y-107011670D01*
X157687600Y-106992750D01*
X157543891Y-107011670D01*
X157433911Y-107057225D01*
X157433001Y-107057602D01*
X157425170Y-107060328D01*
X157421755Y-107061674D01*
X157415795Y-107063370D01*
X157408442Y-107067139D01*
X157390516Y-107076327D01*
X157381022Y-107080705D01*
X157364245Y-107087614D01*
X157353663Y-107091429D01*
X157338509Y-107096139D01*
X157327901Y-107098936D01*
X157310184Y-107102791D01*
X157300704Y-107104477D01*
X157276636Y-107107815D01*
X157269124Y-107108629D01*
X157236003Y-107111212D01*
X157230721Y-107111512D01*
X157216724Y-107112014D01*
X157187246Y-107113071D01*
X157184100Y-107113144D01*
X157160106Y-107113397D01*
X157129683Y-107113718D01*
X157128227Y-107113725D01*
X157062953Y-107113659D01*
X157062816Y-107113659D01*
X156998754Y-107113525D01*
X156992664Y-107114727D01*
X156992660Y-107114727D01*
X156985616Y-107116117D01*
X156961226Y-107118500D01*
X139962820Y-107118500D01*
X139948011Y-107117627D01*
X139937576Y-107116392D01*
X139914290Y-107113636D01*
X139905026Y-107115328D01*
X139905025Y-107115328D01*
X139856599Y-107124172D01*
X139852696Y-107124822D01*
X139803955Y-107132150D01*
X139803954Y-107132150D01*
X139794638Y-107133551D01*
X139788125Y-107136679D01*
X139781027Y-107137975D01*
X139728953Y-107165025D01*
X139725463Y-107166768D01*
X139672521Y-107192191D01*
X139667235Y-107197077D01*
X139667187Y-107197110D01*
X139660812Y-107200421D01*
X139655772Y-107204725D01*
X139618545Y-107241952D01*
X139614980Y-107245381D01*
X139573044Y-107284146D01*
X139569351Y-107290505D01*
X139563834Y-107296663D01*
X136091650Y-110768847D01*
X136080561Y-110778701D01*
X136061290Y-110793894D01*
X136053890Y-110799728D01*
X136053740Y-110799944D01*
X135996696Y-110833465D01*
X135953827Y-110831752D01*
X135973521Y-110868862D01*
X135970227Y-110932170D01*
X135959162Y-110967156D01*
X135957929Y-110970850D01*
X135948716Y-110997087D01*
X135938481Y-111026231D01*
X135938199Y-111033419D01*
X135938188Y-111033478D01*
X135936020Y-111040330D01*
X135935500Y-111046937D01*
X135935500Y-111099616D01*
X135935403Y-111104562D01*
X135933162Y-111161594D01*
X135935046Y-111168700D01*
X135935500Y-111176947D01*
X135935500Y-114828116D01*
X135915498Y-114896237D01*
X135896551Y-114919210D01*
X135878661Y-114936306D01*
X135875346Y-114939362D01*
X135848676Y-114963082D01*
X135843590Y-114967371D01*
X135822334Y-114984354D01*
X135815449Y-114989480D01*
X135798016Y-115001553D01*
X135789646Y-115006874D01*
X135773269Y-115016399D01*
X135764173Y-115021203D01*
X135745230Y-115030240D01*
X135736393Y-115034049D01*
X135708397Y-115044867D01*
X135672023Y-115063255D01*
X135671038Y-115063883D01*
X135658313Y-115070111D01*
X135612375Y-115089139D01*
X135497379Y-115177379D01*
X135409139Y-115292375D01*
X135353670Y-115426291D01*
X135334750Y-115570000D01*
X111794800Y-115570000D01*
X111794800Y-106414368D01*
X113273225Y-106414368D01*
X113304938Y-106522121D01*
X113309531Y-106533489D01*
X113395407Y-106697754D01*
X113402121Y-106708015D01*
X113518268Y-106852473D01*
X113526846Y-106861232D01*
X113668839Y-106980378D01*
X113678959Y-106987308D01*
X113841385Y-107076602D01*
X113852658Y-107081434D01*
X114029338Y-107137480D01*
X114041332Y-107140030D01*
X114185561Y-107156207D01*
X114192585Y-107156600D01*
X114273685Y-107156600D01*
X114288924Y-107152125D01*
X114290129Y-107150735D01*
X114291800Y-107143052D01*
X114291800Y-107138485D01*
X114799800Y-107138485D01*
X114804275Y-107153724D01*
X114805665Y-107154929D01*
X114813348Y-107156600D01*
X114892457Y-107156600D01*
X114898605Y-107156299D01*
X115036403Y-107142788D01*
X115048438Y-107140405D01*
X115225876Y-107086833D01*
X115237216Y-107082159D01*
X115400877Y-106995140D01*
X115411094Y-106988351D01*
X115554733Y-106871203D01*
X115563437Y-106862559D01*
X115681584Y-106719744D01*
X115688444Y-106709573D01*
X115776604Y-106546524D01*
X115781356Y-106535219D01*
X115817050Y-106419908D01*
X115817131Y-106414368D01*
X117203225Y-106414368D01*
X117234938Y-106522121D01*
X117239531Y-106533489D01*
X117325407Y-106697754D01*
X117332121Y-106708015D01*
X117448268Y-106852473D01*
X117456846Y-106861232D01*
X117598839Y-106980378D01*
X117608959Y-106987308D01*
X117771385Y-107076602D01*
X117782658Y-107081434D01*
X117959338Y-107137480D01*
X117971332Y-107140030D01*
X118115561Y-107156207D01*
X118122585Y-107156600D01*
X118453685Y-107156600D01*
X118468924Y-107152125D01*
X118470129Y-107150735D01*
X118471800Y-107143052D01*
X118471800Y-107138485D01*
X118979800Y-107138485D01*
X118984275Y-107153724D01*
X118985665Y-107154929D01*
X118993348Y-107156600D01*
X119322457Y-107156600D01*
X119328605Y-107156299D01*
X119466403Y-107142788D01*
X119478438Y-107140405D01*
X119655876Y-107086833D01*
X119667216Y-107082159D01*
X119830877Y-106995140D01*
X119841094Y-106988351D01*
X119984733Y-106871203D01*
X119993437Y-106862559D01*
X120111584Y-106719744D01*
X120118444Y-106709573D01*
X120206604Y-106546524D01*
X120211356Y-106535219D01*
X120247050Y-106419908D01*
X120247256Y-106405805D01*
X120240501Y-106402600D01*
X118997915Y-106402600D01*
X118982676Y-106407075D01*
X118981471Y-106408465D01*
X118979800Y-106416148D01*
X118979800Y-107138485D01*
X118471800Y-107138485D01*
X118471800Y-106420715D01*
X118467325Y-106405476D01*
X118465935Y-106404271D01*
X118458252Y-106402600D01*
X117217876Y-106402600D01*
X117204345Y-106406573D01*
X117203225Y-106414368D01*
X115817131Y-106414368D01*
X115817256Y-106405805D01*
X115810501Y-106402600D01*
X114817915Y-106402600D01*
X114802676Y-106407075D01*
X114801471Y-106408465D01*
X114799800Y-106416148D01*
X114799800Y-107138485D01*
X114291800Y-107138485D01*
X114291800Y-106420715D01*
X114287325Y-106405476D01*
X114285935Y-106404271D01*
X114278252Y-106402600D01*
X113287876Y-106402600D01*
X113274345Y-106406573D01*
X113273225Y-106414368D01*
X111794800Y-106414368D01*
X111794800Y-105891395D01*
X113274344Y-105891395D01*
X113281099Y-105894600D01*
X114273685Y-105894600D01*
X114288924Y-105890125D01*
X114290129Y-105888735D01*
X114291800Y-105881052D01*
X114291800Y-105876485D01*
X114799800Y-105876485D01*
X114804275Y-105891724D01*
X114805665Y-105892929D01*
X114813348Y-105894600D01*
X115803724Y-105894600D01*
X115814639Y-105891395D01*
X117204344Y-105891395D01*
X117211099Y-105894600D01*
X120233724Y-105894600D01*
X120247255Y-105890627D01*
X120248375Y-105882832D01*
X120216662Y-105775079D01*
X120212069Y-105763711D01*
X120126193Y-105599446D01*
X120119479Y-105589185D01*
X120003332Y-105444727D01*
X119994754Y-105435968D01*
X119852761Y-105316822D01*
X119842641Y-105309892D01*
X119680215Y-105220598D01*
X119668942Y-105215766D01*
X119492262Y-105159720D01*
X119480268Y-105157170D01*
X119336039Y-105140993D01*
X119329015Y-105140600D01*
X118862491Y-105140600D01*
X118794370Y-105120598D01*
X118747877Y-105066942D01*
X118737773Y-104996668D01*
X118746082Y-104966382D01*
X118783327Y-104876465D01*
X118786487Y-104868836D01*
X118806266Y-104718600D01*
X118786487Y-104568364D01*
X118728498Y-104428367D01*
X118636251Y-104308149D01*
X118516033Y-104215902D01*
X118376036Y-104157913D01*
X118367848Y-104156835D01*
X118267607Y-104143638D01*
X118267606Y-104143638D01*
X118263520Y-104143100D01*
X118188080Y-104143100D01*
X118183994Y-104143638D01*
X118183993Y-104143638D01*
X118083752Y-104156835D01*
X118075564Y-104157913D01*
X117935567Y-104215902D01*
X117815349Y-104308149D01*
X117723102Y-104428367D01*
X117665113Y-104568364D01*
X117645334Y-104718600D01*
X117665113Y-104868836D01*
X117723102Y-105008833D01*
X117758897Y-105055482D01*
X117762632Y-105060349D01*
X117788233Y-105126569D01*
X117773969Y-105196118D01*
X117721823Y-105248305D01*
X117620723Y-105302060D01*
X117610506Y-105308849D01*
X117466867Y-105425997D01*
X117458163Y-105434641D01*
X117340016Y-105577456D01*
X117333156Y-105587627D01*
X117244996Y-105750676D01*
X117240244Y-105761981D01*
X117204550Y-105877292D01*
X117204344Y-105891395D01*
X115814639Y-105891395D01*
X115817255Y-105890627D01*
X115818375Y-105882832D01*
X115786662Y-105775079D01*
X115782069Y-105763711D01*
X115696193Y-105599446D01*
X115689479Y-105589185D01*
X115573332Y-105444727D01*
X115564754Y-105435968D01*
X115422761Y-105316822D01*
X115412641Y-105309892D01*
X115250215Y-105220598D01*
X115238942Y-105215766D01*
X115062262Y-105159720D01*
X115050268Y-105157170D01*
X114906039Y-105140993D01*
X114899015Y-105140600D01*
X114817915Y-105140600D01*
X114802676Y-105145075D01*
X114801471Y-105146465D01*
X114799800Y-105154148D01*
X114799800Y-105876485D01*
X114291800Y-105876485D01*
X114291800Y-105158715D01*
X114287325Y-105143476D01*
X114285935Y-105142271D01*
X114278252Y-105140600D01*
X114199143Y-105140600D01*
X114192995Y-105140901D01*
X114055197Y-105154412D01*
X114043162Y-105156795D01*
X113865724Y-105210367D01*
X113854384Y-105215041D01*
X113690723Y-105302060D01*
X113680506Y-105308849D01*
X113536867Y-105425997D01*
X113528163Y-105434641D01*
X113410016Y-105577456D01*
X113403156Y-105587627D01*
X113314996Y-105750676D01*
X113310244Y-105761981D01*
X113274550Y-105877292D01*
X113274344Y-105891395D01*
X111794800Y-105891395D01*
X111794800Y-97774368D01*
X113273225Y-97774368D01*
X113304938Y-97882121D01*
X113309531Y-97893489D01*
X113395407Y-98057754D01*
X113402121Y-98068015D01*
X113518268Y-98212473D01*
X113526846Y-98221232D01*
X113668839Y-98340378D01*
X113678959Y-98347308D01*
X113841385Y-98436602D01*
X113852658Y-98441434D01*
X114029338Y-98497480D01*
X114041332Y-98500030D01*
X114185561Y-98516207D01*
X114192585Y-98516600D01*
X114273685Y-98516600D01*
X114288924Y-98512125D01*
X114290129Y-98510735D01*
X114291800Y-98503052D01*
X114291800Y-98498485D01*
X114799800Y-98498485D01*
X114804275Y-98513724D01*
X114805665Y-98514929D01*
X114813348Y-98516600D01*
X114892457Y-98516600D01*
X114898605Y-98516299D01*
X115036403Y-98502788D01*
X115048438Y-98500405D01*
X115225876Y-98446833D01*
X115237216Y-98442159D01*
X115400877Y-98355140D01*
X115411094Y-98348351D01*
X115554733Y-98231203D01*
X115563437Y-98222559D01*
X115681584Y-98079744D01*
X115688444Y-98069573D01*
X115776604Y-97906524D01*
X115781356Y-97895219D01*
X115817050Y-97779908D01*
X115817131Y-97774368D01*
X117203225Y-97774368D01*
X117234938Y-97882121D01*
X117239531Y-97893489D01*
X117325407Y-98057754D01*
X117332121Y-98068015D01*
X117448268Y-98212473D01*
X117456846Y-98221232D01*
X117598839Y-98340378D01*
X117608959Y-98347308D01*
X117723116Y-98410066D01*
X117773175Y-98460411D01*
X117788068Y-98529828D01*
X117762378Y-98597181D01*
X117723102Y-98648367D01*
X117665113Y-98788364D01*
X117645334Y-98938600D01*
X117665113Y-99088836D01*
X117723102Y-99228833D01*
X117815349Y-99349051D01*
X117935567Y-99441298D01*
X118075564Y-99499287D01*
X118188080Y-99514100D01*
X118263520Y-99514100D01*
X118376036Y-99499287D01*
X118516033Y-99441298D01*
X118636251Y-99349051D01*
X118728498Y-99228833D01*
X118786487Y-99088836D01*
X118806266Y-98938600D01*
X118786487Y-98788364D01*
X118746082Y-98690818D01*
X118738493Y-98620228D01*
X118770272Y-98556741D01*
X118831330Y-98520514D01*
X118862491Y-98516600D01*
X119322457Y-98516600D01*
X119328605Y-98516299D01*
X119466403Y-98502788D01*
X119478438Y-98500405D01*
X119655876Y-98446833D01*
X119667216Y-98442159D01*
X119830877Y-98355140D01*
X119841094Y-98348351D01*
X119984733Y-98231203D01*
X119993437Y-98222559D01*
X120111584Y-98079744D01*
X120118444Y-98069573D01*
X120206604Y-97906524D01*
X120211356Y-97895219D01*
X120247050Y-97779908D01*
X120247256Y-97765805D01*
X120240501Y-97762600D01*
X117217876Y-97762600D01*
X117204345Y-97766573D01*
X117203225Y-97774368D01*
X115817131Y-97774368D01*
X115817256Y-97765805D01*
X115810501Y-97762600D01*
X114817915Y-97762600D01*
X114802676Y-97767075D01*
X114801471Y-97768465D01*
X114799800Y-97776148D01*
X114799800Y-98498485D01*
X114291800Y-98498485D01*
X114291800Y-97780715D01*
X114287325Y-97765476D01*
X114285935Y-97764271D01*
X114278252Y-97762600D01*
X113287876Y-97762600D01*
X113274345Y-97766573D01*
X113273225Y-97774368D01*
X111794800Y-97774368D01*
X111794800Y-97251395D01*
X113274344Y-97251395D01*
X113281099Y-97254600D01*
X114273685Y-97254600D01*
X114288924Y-97250125D01*
X114290129Y-97248735D01*
X114291800Y-97241052D01*
X114291800Y-97236485D01*
X114799800Y-97236485D01*
X114804275Y-97251724D01*
X114805665Y-97252929D01*
X114813348Y-97254600D01*
X115803724Y-97254600D01*
X115814639Y-97251395D01*
X117204344Y-97251395D01*
X117211099Y-97254600D01*
X118453685Y-97254600D01*
X118468924Y-97250125D01*
X118470129Y-97248735D01*
X118471800Y-97241052D01*
X118471800Y-97236485D01*
X118979800Y-97236485D01*
X118984275Y-97251724D01*
X118985665Y-97252929D01*
X118993348Y-97254600D01*
X120233724Y-97254600D01*
X120247255Y-97250627D01*
X120248375Y-97242832D01*
X120216662Y-97135079D01*
X120212069Y-97123711D01*
X120126193Y-96959446D01*
X120119479Y-96949185D01*
X120003332Y-96804727D01*
X119994754Y-96795968D01*
X119852761Y-96676822D01*
X119842641Y-96669892D01*
X119680215Y-96580598D01*
X119668942Y-96575766D01*
X119492262Y-96519720D01*
X119480268Y-96517170D01*
X119336039Y-96500993D01*
X119329015Y-96500600D01*
X118997915Y-96500600D01*
X118982676Y-96505075D01*
X118981471Y-96506465D01*
X118979800Y-96514148D01*
X118979800Y-97236485D01*
X118471800Y-97236485D01*
X118471800Y-96518715D01*
X118467325Y-96503476D01*
X118465935Y-96502271D01*
X118458252Y-96500600D01*
X118129143Y-96500600D01*
X118122995Y-96500901D01*
X117985197Y-96514412D01*
X117973162Y-96516795D01*
X117795724Y-96570367D01*
X117784384Y-96575041D01*
X117620723Y-96662060D01*
X117610506Y-96668849D01*
X117466867Y-96785997D01*
X117458163Y-96794641D01*
X117340016Y-96937456D01*
X117333156Y-96947627D01*
X117244996Y-97110676D01*
X117240244Y-97121981D01*
X117204550Y-97237292D01*
X117204344Y-97251395D01*
X115814639Y-97251395D01*
X115817255Y-97250627D01*
X115818375Y-97242832D01*
X115786662Y-97135079D01*
X115782069Y-97123711D01*
X115696193Y-96959446D01*
X115689479Y-96949185D01*
X115573332Y-96804727D01*
X115564754Y-96795968D01*
X115422761Y-96676822D01*
X115412641Y-96669892D01*
X115250215Y-96580598D01*
X115238942Y-96575766D01*
X115062262Y-96519720D01*
X115050268Y-96517170D01*
X114906039Y-96500993D01*
X114899015Y-96500600D01*
X114817915Y-96500600D01*
X114802676Y-96505075D01*
X114801471Y-96506465D01*
X114799800Y-96514148D01*
X114799800Y-97236485D01*
X114291800Y-97236485D01*
X114291800Y-96518715D01*
X114287325Y-96503476D01*
X114285935Y-96502271D01*
X114278252Y-96500600D01*
X114199143Y-96500600D01*
X114192995Y-96500901D01*
X114055197Y-96514412D01*
X114043162Y-96516795D01*
X113865724Y-96570367D01*
X113854384Y-96575041D01*
X113690723Y-96662060D01*
X113680506Y-96668849D01*
X113536867Y-96785997D01*
X113528163Y-96794641D01*
X113410016Y-96937456D01*
X113403156Y-96947627D01*
X113314996Y-97110676D01*
X113310244Y-97121981D01*
X113274550Y-97237292D01*
X113274344Y-97251395D01*
X111794800Y-97251395D01*
X111794800Y-89560400D01*
X119383550Y-89560400D01*
X119402470Y-89704109D01*
X119457939Y-89838025D01*
X119546179Y-89953021D01*
X119661175Y-90041261D01*
X119795091Y-90096730D01*
X119938800Y-90115650D01*
X120082509Y-90096730D01*
X120160488Y-90064430D01*
X120174108Y-90059683D01*
X120186732Y-90056078D01*
X120186733Y-90056078D01*
X120192688Y-90054377D01*
X120245046Y-90027483D01*
X120245199Y-90027402D01*
X120245258Y-90027372D01*
X120248524Y-90025653D01*
X120248667Y-90025578D01*
X120248766Y-90025524D01*
X120248803Y-90025505D01*
X120248850Y-90025479D01*
X120249038Y-90025378D01*
X120249239Y-90025267D01*
X120249294Y-90025237D01*
X120250431Y-90024609D01*
X120252635Y-90023392D01*
X120304095Y-89994308D01*
X120307685Y-89992231D01*
X120352622Y-89965623D01*
X120353345Y-89965199D01*
X120388802Y-89944634D01*
X120393683Y-89941947D01*
X120418161Y-89929165D01*
X120426976Y-89924988D01*
X120444557Y-89917476D01*
X120456219Y-89913160D01*
X120473355Y-89907764D01*
X120485927Y-89904507D01*
X120510292Y-89899520D01*
X120521897Y-89897703D01*
X120559945Y-89893557D01*
X120569580Y-89892881D01*
X120623982Y-89891156D01*
X120629777Y-89889859D01*
X120629780Y-89889859D01*
X120633886Y-89888940D01*
X120661398Y-89885900D01*
X134585384Y-89885900D01*
X134653505Y-89905902D01*
X134674479Y-89922805D01*
X139975123Y-95223449D01*
X139992958Y-95245896D01*
X139997624Y-95253383D01*
X140001865Y-95257902D01*
X140001866Y-95257903D01*
X140034863Y-95293061D01*
X140041209Y-95300365D01*
X140065171Y-95330186D01*
X140072100Y-95339685D01*
X140085808Y-95360451D01*
X140092379Y-95371617D01*
X140100695Y-95387576D01*
X140105878Y-95398848D01*
X140113010Y-95416620D01*
X140116285Y-95425797D01*
X140124559Y-95452160D01*
X140126111Y-95457517D01*
X140136579Y-95496892D01*
X140136869Y-95498002D01*
X140141694Y-95516840D01*
X140149746Y-95548277D01*
X140150244Y-95550185D01*
X140150305Y-95550414D01*
X140150880Y-95552527D01*
X140166692Y-95609441D01*
X140167848Y-95613442D01*
X140167982Y-95613889D01*
X140169179Y-95617744D01*
X140169234Y-95617915D01*
X140169245Y-95617950D01*
X140185558Y-95668718D01*
X140187181Y-95673770D01*
X140188659Y-95677038D01*
X140202403Y-95707436D01*
X140206398Y-95716273D01*
X140208244Y-95719365D01*
X140208417Y-95719695D01*
X140217899Y-95743448D01*
X140222021Y-95757885D01*
X140248914Y-95810243D01*
X140250821Y-95813867D01*
X140251021Y-95814238D01*
X140253007Y-95817835D01*
X140282091Y-95869295D01*
X140284168Y-95872885D01*
X140310776Y-95917822D01*
X140311200Y-95918545D01*
X140331758Y-95953990D01*
X140334452Y-95958883D01*
X140347234Y-95983361D01*
X140351411Y-95992176D01*
X140358923Y-96009757D01*
X140363239Y-96021419D01*
X140368635Y-96038555D01*
X140371893Y-96051132D01*
X140376878Y-96075485D01*
X140378696Y-96087097D01*
X140382264Y-96119837D01*
X140382841Y-96125134D01*
X140383518Y-96134778D01*
X140385244Y-96189185D01*
X140386539Y-96194971D01*
X140386539Y-96194974D01*
X140387460Y-96199090D01*
X140390500Y-96226602D01*
X140390500Y-104882684D01*
X140370498Y-104950805D01*
X140353595Y-104971779D01*
X135627054Y-109698320D01*
X135604604Y-109716157D01*
X135597119Y-109720822D01*
X135592601Y-109725062D01*
X135592600Y-109725063D01*
X135557437Y-109758064D01*
X135550134Y-109764409D01*
X135520313Y-109788371D01*
X135510814Y-109795300D01*
X135490048Y-109809008D01*
X135478882Y-109815579D01*
X135462923Y-109823895D01*
X135451651Y-109829078D01*
X135433879Y-109836210D01*
X135424713Y-109839481D01*
X135404939Y-109845687D01*
X135398339Y-109847759D01*
X135392982Y-109849311D01*
X135353607Y-109859779D01*
X135352497Y-109860069D01*
X135336763Y-109864099D01*
X135302222Y-109872946D01*
X135301671Y-109873090D01*
X135300527Y-109873388D01*
X135300450Y-109873408D01*
X135300314Y-109873444D01*
X135300174Y-109873481D01*
X135300010Y-109873525D01*
X135297972Y-109874080D01*
X135241058Y-109889892D01*
X135237057Y-109891048D01*
X135236610Y-109891182D01*
X135232754Y-109892379D01*
X135211644Y-109899162D01*
X135140673Y-109900959D01*
X135079994Y-109864099D01*
X135048876Y-109800285D01*
X135047100Y-109779203D01*
X135047100Y-108071313D01*
X135047579Y-108060332D01*
X135049903Y-108033770D01*
X135049903Y-108033768D01*
X135050863Y-108022793D01*
X135041108Y-107986383D01*
X135038733Y-107975672D01*
X135037027Y-107965996D01*
X135032188Y-107938555D01*
X135026678Y-107929011D01*
X135025486Y-107925735D01*
X135024007Y-107922564D01*
X135021154Y-107911916D01*
X134999540Y-107881048D01*
X134993636Y-107871779D01*
X134980307Y-107848692D01*
X134980304Y-107848688D01*
X134974794Y-107839145D01*
X134945923Y-107814920D01*
X134937818Y-107807492D01*
X134623087Y-107492761D01*
X134589061Y-107430449D01*
X134594126Y-107359634D01*
X134636673Y-107302798D01*
X134703193Y-107277987D01*
X134772567Y-107293078D01*
X134788886Y-107303703D01*
X134825159Y-107331536D01*
X134971238Y-107392044D01*
X134979426Y-107393122D01*
X135006300Y-107396660D01*
X135128000Y-107412682D01*
X135136188Y-107411604D01*
X135276574Y-107393122D01*
X135284762Y-107392044D01*
X135430841Y-107331536D01*
X135545287Y-107243719D01*
X135549736Y-107240305D01*
X135556282Y-107235282D01*
X135652536Y-107109841D01*
X135713044Y-106963762D01*
X135733682Y-106807000D01*
X135713044Y-106650238D01*
X135652536Y-106504159D01*
X135573937Y-106401726D01*
X135561305Y-106385264D01*
X135556282Y-106378718D01*
X135539205Y-106365614D01*
X135484710Y-106323799D01*
X135430841Y-106282464D01*
X135348138Y-106248207D01*
X135332976Y-106240697D01*
X135323609Y-106235245D01*
X135323606Y-106235244D01*
X135318263Y-106232134D01*
X135278026Y-106218319D01*
X135258827Y-106211727D01*
X135258611Y-106211653D01*
X135201754Y-106192016D01*
X135199413Y-106191181D01*
X135163187Y-106177864D01*
X135154554Y-106174690D01*
X135149765Y-106172818D01*
X135115160Y-106158467D01*
X135108207Y-106155334D01*
X135080219Y-106141688D01*
X135072080Y-106137344D01*
X135045935Y-106122134D01*
X135037915Y-106117055D01*
X135022638Y-106106553D01*
X135008729Y-106096991D01*
X135001852Y-106091911D01*
X134966028Y-106063512D01*
X134960659Y-106059007D01*
X134921006Y-106023803D01*
X134916024Y-106019380D01*
X134912093Y-106015737D01*
X134900089Y-106004130D01*
X134861924Y-105967228D01*
X134856842Y-105963924D01*
X134852122Y-105960855D01*
X134831703Y-105944311D01*
X132263405Y-103376012D01*
X132229379Y-103313700D01*
X132226500Y-103286917D01*
X132226500Y-96329567D01*
X132223436Y-96320136D01*
X132223435Y-96320132D01*
X132219703Y-96308647D01*
X132215087Y-96289422D01*
X132213197Y-96277488D01*
X132213197Y-96277487D01*
X132211646Y-96267696D01*
X132207145Y-96258863D01*
X132207144Y-96258859D01*
X132201658Y-96248092D01*
X132194092Y-96229828D01*
X132190607Y-96219100D01*
X132187296Y-96208911D01*
X132174365Y-96191113D01*
X132164037Y-96174258D01*
X132158555Y-96163499D01*
X132158554Y-96163497D01*
X132154050Y-96154658D01*
X132131487Y-96132095D01*
X132131484Y-96132091D01*
X131799525Y-95800132D01*
X131782692Y-95779266D01*
X131780126Y-95775282D01*
X131780123Y-95775278D01*
X131776771Y-95770074D01*
X131728241Y-95719885D01*
X131724617Y-95715973D01*
X131684992Y-95671340D01*
X131680478Y-95665961D01*
X131676357Y-95660762D01*
X131652088Y-95630147D01*
X131647007Y-95623269D01*
X131643351Y-95617950D01*
X131626944Y-95594083D01*
X131621865Y-95586064D01*
X131606655Y-95559919D01*
X131602311Y-95551780D01*
X131588665Y-95523792D01*
X131585532Y-95516840D01*
X131577259Y-95496892D01*
X131571173Y-95482215D01*
X131569304Y-95477435D01*
X131560992Y-95454823D01*
X131552823Y-95432603D01*
X131552003Y-95430300D01*
X131532326Y-95373329D01*
X131532250Y-95373109D01*
X131512980Y-95316979D01*
X131512976Y-95316969D01*
X131511867Y-95313739D01*
X131502658Y-95294151D01*
X131494336Y-95276452D01*
X131492880Y-95273355D01*
X131491094Y-95270431D01*
X131490371Y-95269088D01*
X131484902Y-95257571D01*
X131483168Y-95253383D01*
X131461536Y-95201159D01*
X131365282Y-95075718D01*
X131353762Y-95066878D01*
X131303313Y-95028168D01*
X131239841Y-94979464D01*
X131093762Y-94918956D01*
X131056961Y-94914111D01*
X131015381Y-94908637D01*
X130937000Y-94898318D01*
X130858619Y-94908637D01*
X130817040Y-94914111D01*
X130780238Y-94918956D01*
X130634159Y-94979464D01*
X130570687Y-95028168D01*
X130520239Y-95066878D01*
X130508718Y-95075718D01*
X130412464Y-95201159D01*
X130351956Y-95347238D01*
X130331318Y-95504000D01*
X130351956Y-95660762D01*
X130412464Y-95806841D01*
X130417491Y-95813392D01*
X130497514Y-95917680D01*
X130508718Y-95932282D01*
X130634159Y-96028536D01*
X130716867Y-96062795D01*
X130732020Y-96070300D01*
X130746739Y-96078867D01*
X130770731Y-96087104D01*
X130806330Y-96099326D01*
X130806549Y-96099402D01*
X130863300Y-96119003D01*
X130865603Y-96119823D01*
X130910455Y-96136312D01*
X130915215Y-96138173D01*
X130935740Y-96146685D01*
X130949840Y-96152532D01*
X130956792Y-96155665D01*
X130984780Y-96169311D01*
X130992917Y-96173654D01*
X130998539Y-96176924D01*
X131019064Y-96188865D01*
X131027083Y-96193944D01*
X131028929Y-96195212D01*
X131056269Y-96214007D01*
X131063147Y-96219088D01*
X131098971Y-96247487D01*
X131104340Y-96251992D01*
X131148973Y-96291617D01*
X131152885Y-96295241D01*
X131203074Y-96343771D01*
X131212872Y-96350140D01*
X131233291Y-96366684D01*
X131388595Y-96521988D01*
X131422621Y-96584300D01*
X131425500Y-96611083D01*
X131425500Y-103568433D01*
X131428564Y-103577864D01*
X131428565Y-103577868D01*
X131432297Y-103589353D01*
X131436913Y-103608578D01*
X131440354Y-103630304D01*
X131444855Y-103639137D01*
X131444856Y-103639141D01*
X131450341Y-103649906D01*
X131457905Y-103668166D01*
X131464704Y-103689090D01*
X131477639Y-103706893D01*
X131487965Y-103723745D01*
X131497950Y-103743342D01*
X131520513Y-103765905D01*
X131520516Y-103765909D01*
X132872836Y-105118229D01*
X132906862Y-105180541D01*
X132901797Y-105251356D01*
X132859250Y-105308192D01*
X132792730Y-105333003D01*
X132735524Y-105323733D01*
X132637743Y-105283232D01*
X132630109Y-105280070D01*
X132486400Y-105261150D01*
X132342691Y-105280070D01*
X132208775Y-105335539D01*
X132093779Y-105423779D01*
X132005539Y-105538775D01*
X131950070Y-105672691D01*
X131931150Y-105816400D01*
X131950070Y-105960109D01*
X132005539Y-106094025D01*
X132093779Y-106209021D01*
X132208775Y-106297261D01*
X132216402Y-106300420D01*
X132216407Y-106300423D01*
X132286755Y-106329561D01*
X132299738Y-106335832D01*
X132316632Y-106345220D01*
X132322525Y-106347113D01*
X132322524Y-106347113D01*
X132372459Y-106363158D01*
X132372550Y-106363187D01*
X132372657Y-106363221D01*
X132376510Y-106364417D01*
X132376617Y-106364449D01*
X132376656Y-106364461D01*
X132376685Y-106364469D01*
X132376957Y-106364551D01*
X132380958Y-106365707D01*
X132437872Y-106381519D01*
X132438118Y-106381586D01*
X132439701Y-106382018D01*
X132439791Y-106382042D01*
X132439997Y-106382097D01*
X132442122Y-106382653D01*
X132492258Y-106395494D01*
X132493367Y-106395783D01*
X132532884Y-106406288D01*
X132538231Y-106407837D01*
X132564630Y-106416123D01*
X132573792Y-106419394D01*
X132591539Y-106426516D01*
X132602823Y-106431704D01*
X132618782Y-106440020D01*
X132629948Y-106446591D01*
X132650714Y-106460299D01*
X132660213Y-106467228D01*
X132690034Y-106491190D01*
X132697338Y-106497536D01*
X132704053Y-106503838D01*
X132737017Y-106534776D01*
X132742032Y-106537957D01*
X132745590Y-106540214D01*
X132767191Y-106557517D01*
X134359195Y-108149522D01*
X134393221Y-108211834D01*
X134396100Y-108238617D01*
X134396100Y-112297238D01*
X134392838Y-112325723D01*
X134390844Y-112334315D01*
X134390648Y-112340502D01*
X134389119Y-112388710D01*
X134388441Y-112398365D01*
X134384297Y-112436395D01*
X134382478Y-112448014D01*
X134377493Y-112472367D01*
X134374235Y-112484944D01*
X134368839Y-112502080D01*
X134364524Y-112513741D01*
X134357011Y-112531323D01*
X134352839Y-112540128D01*
X134340038Y-112564642D01*
X134337344Y-112569533D01*
X134316928Y-112604735D01*
X134316369Y-112605689D01*
X134289767Y-112650616D01*
X134287691Y-112654204D01*
X134258618Y-112705645D01*
X134256529Y-112709435D01*
X134256308Y-112709846D01*
X134256158Y-112710132D01*
X134254704Y-112712898D01*
X134254505Y-112713276D01*
X134254419Y-112713444D01*
X134254388Y-112713503D01*
X134229252Y-112762440D01*
X134227622Y-112765614D01*
X134211162Y-112809234D01*
X134210286Y-112812705D01*
X134209212Y-112816129D01*
X134209012Y-112816066D01*
X134205037Y-112828069D01*
X134185270Y-112875791D01*
X134166350Y-113019500D01*
X134185270Y-113163209D01*
X134240739Y-113297125D01*
X134328979Y-113412121D01*
X134443975Y-113500361D01*
X134577891Y-113555830D01*
X134721600Y-113574750D01*
X134865309Y-113555830D01*
X134999225Y-113500361D01*
X135114221Y-113412121D01*
X135202461Y-113297125D01*
X135257930Y-113163209D01*
X135276850Y-113019500D01*
X135257930Y-112875791D01*
X135225634Y-112797819D01*
X135220889Y-112784208D01*
X135217278Y-112771566D01*
X135215578Y-112765613D01*
X135188684Y-112713254D01*
X135186778Y-112709632D01*
X135186578Y-112709261D01*
X135184592Y-112705664D01*
X135155508Y-112654204D01*
X135153431Y-112650614D01*
X135126823Y-112605677D01*
X135126399Y-112604954D01*
X135105834Y-112569497D01*
X135103147Y-112564616D01*
X135090365Y-112540138D01*
X135086188Y-112531323D01*
X135078676Y-112513742D01*
X135074360Y-112502080D01*
X135068964Y-112484944D01*
X135065706Y-112472367D01*
X135060721Y-112448014D01*
X135058902Y-112436395D01*
X135054758Y-112398365D01*
X135054080Y-112388708D01*
X135052544Y-112340256D01*
X135052356Y-112334318D01*
X135050140Y-112324414D01*
X135047100Y-112296902D01*
X135047100Y-111096903D01*
X135067102Y-111028782D01*
X135120758Y-110982289D01*
X135191032Y-110972185D01*
X135198330Y-110973682D01*
X135202791Y-110975530D01*
X135346500Y-110994450D01*
X135490209Y-110975530D01*
X135624125Y-110920061D01*
X135739121Y-110831821D01*
X135750131Y-110817473D01*
X135807466Y-110775608D01*
X135860471Y-110772450D01*
X135840719Y-110724186D01*
X135849642Y-110663035D01*
X135859659Y-110638849D01*
X135865935Y-110625855D01*
X135872315Y-110614375D01*
X135872316Y-110614373D01*
X135875320Y-110608967D01*
X135893321Y-110552941D01*
X135894517Y-110549089D01*
X135894651Y-110548642D01*
X135895807Y-110544641D01*
X135911619Y-110487727D01*
X135912194Y-110485614D01*
X135912255Y-110485385D01*
X135912753Y-110483478D01*
X135925603Y-110433309D01*
X135925891Y-110432206D01*
X135936385Y-110392725D01*
X135937941Y-110387355D01*
X135946219Y-110360984D01*
X135949498Y-110351798D01*
X135956618Y-110334055D01*
X135961804Y-110322776D01*
X135970120Y-110306817D01*
X135976691Y-110295651D01*
X135990399Y-110274885D01*
X135997328Y-110265386D01*
X136021290Y-110235565D01*
X136027637Y-110228260D01*
X136060809Y-110192916D01*
X136064875Y-110188584D01*
X136070315Y-110180008D01*
X136087615Y-110158411D01*
X140836026Y-105410000D01*
X147755750Y-105410000D01*
X147774670Y-105553709D01*
X147830139Y-105687625D01*
X147918379Y-105802621D01*
X148033375Y-105890861D01*
X148167291Y-105946330D01*
X148311000Y-105965250D01*
X148454709Y-105946330D01*
X148462333Y-105943172D01*
X148462337Y-105943171D01*
X148534998Y-105913074D01*
X148547518Y-105908645D01*
X148560643Y-105904768D01*
X148560646Y-105904767D01*
X148566576Y-105903015D01*
X148572052Y-105900139D01*
X148572055Y-105900138D01*
X148605008Y-105882832D01*
X148620480Y-105874707D01*
X148625767Y-105871830D01*
X148626369Y-105871491D01*
X148631661Y-105868406D01*
X148683624Y-105837069D01*
X148687064Y-105834948D01*
X148687448Y-105834706D01*
X148690755Y-105832578D01*
X148691079Y-105832365D01*
X148691133Y-105832330D01*
X148727826Y-105808212D01*
X148736547Y-105802480D01*
X148736786Y-105802322D01*
X148737518Y-105801838D01*
X148737611Y-105801776D01*
X148775250Y-105776701D01*
X148778929Y-105774342D01*
X148804609Y-105758514D01*
X148813131Y-105753708D01*
X148829153Y-105745475D01*
X148841677Y-105739879D01*
X148842884Y-105739417D01*
X148854463Y-105734983D01*
X148868904Y-105730428D01*
X148880862Y-105727433D01*
X148887307Y-105725819D01*
X148901214Y-105723156D01*
X148933462Y-105718843D01*
X148945260Y-105717827D01*
X148991876Y-105716011D01*
X148991877Y-105716011D01*
X148997753Y-105715782D01*
X149006868Y-105713691D01*
X149035044Y-105710500D01*
X165336656Y-105710500D01*
X165339329Y-105710696D01*
X165344364Y-105712425D01*
X165355986Y-105711989D01*
X165355988Y-105711989D01*
X165393277Y-105710589D01*
X165398003Y-105710500D01*
X165416970Y-105710500D01*
X165421705Y-105709618D01*
X165425231Y-105709390D01*
X165428971Y-105709249D01*
X165456230Y-105708226D01*
X165466915Y-105703636D01*
X165471515Y-105702599D01*
X165483236Y-105699038D01*
X165487639Y-105697339D01*
X165499075Y-105695209D01*
X165520063Y-105682272D01*
X165536433Y-105673769D01*
X165550910Y-105667549D01*
X165550914Y-105667547D01*
X165559085Y-105664036D01*
X165563971Y-105660022D01*
X165566156Y-105657837D01*
X165568419Y-105655785D01*
X165568564Y-105655945D01*
X165577571Y-105648825D01*
X165584466Y-105642573D01*
X165594370Y-105636468D01*
X165610938Y-105614680D01*
X165622132Y-105601861D01*
X165986672Y-105237321D01*
X166009893Y-105219008D01*
X166011246Y-105218178D01*
X166011251Y-105218174D01*
X166016523Y-105214941D01*
X166037716Y-105195337D01*
X166055095Y-105179262D01*
X166064156Y-105171639D01*
X166090010Y-105151885D01*
X166101728Y-105143933D01*
X166117989Y-105134186D01*
X166131422Y-105127195D01*
X166134499Y-105125822D01*
X166143929Y-105121614D01*
X166156747Y-105116713D01*
X166173887Y-105111209D01*
X166183312Y-105108581D01*
X166212601Y-105101629D01*
X166216952Y-105100677D01*
X166261132Y-105091827D01*
X166262385Y-105091572D01*
X166316202Y-105080443D01*
X166320266Y-105079560D01*
X166320582Y-105079488D01*
X166320584Y-105079488D01*
X166320657Y-105079471D01*
X166320709Y-105079459D01*
X166320831Y-105079430D01*
X166324265Y-105078614D01*
X166324323Y-105078600D01*
X166324419Y-105078577D01*
X166374028Y-105066294D01*
X166382902Y-105064097D01*
X166382930Y-105064090D01*
X166383321Y-105063993D01*
X166387418Y-105062914D01*
X166388776Y-105062556D01*
X166388798Y-105062550D01*
X166389208Y-105062442D01*
X166389874Y-105062256D01*
X166392492Y-105061483D01*
X166392945Y-105061349D01*
X166395688Y-105060539D01*
X166396046Y-105060427D01*
X166396094Y-105060413D01*
X166443431Y-105045674D01*
X166453808Y-105042443D01*
X166497287Y-105023139D01*
X166500433Y-105021280D01*
X166503682Y-105019605D01*
X166503742Y-105019722D01*
X166515275Y-105013962D01*
X166555907Y-104997132D01*
X166563536Y-104993972D01*
X166571911Y-104987546D01*
X166671982Y-104910758D01*
X166678532Y-104905732D01*
X166766772Y-104790736D01*
X166822241Y-104656820D01*
X166841161Y-104513111D01*
X166822241Y-104369402D01*
X166766772Y-104235486D01*
X166678532Y-104120490D01*
X166563536Y-104032250D01*
X166429620Y-103976781D01*
X166285911Y-103957861D01*
X166142202Y-103976781D01*
X166008286Y-104032250D01*
X165893290Y-104120490D01*
X165805050Y-104235486D01*
X165783060Y-104288574D01*
X165771792Y-104315778D01*
X165766068Y-104327766D01*
X165759537Y-104339773D01*
X165756580Y-104345210D01*
X165738483Y-104403329D01*
X165736765Y-104409147D01*
X165736579Y-104409813D01*
X165735028Y-104415700D01*
X165734931Y-104416091D01*
X165734924Y-104416119D01*
X165725505Y-104454161D01*
X165720444Y-104474602D01*
X165719562Y-104478312D01*
X165719461Y-104478755D01*
X165718578Y-104482817D01*
X165707463Y-104536563D01*
X165707208Y-104537819D01*
X165698345Y-104582066D01*
X165697393Y-104586416D01*
X165690441Y-104615706D01*
X165687816Y-104625122D01*
X165682304Y-104642288D01*
X165677405Y-104655097D01*
X165671826Y-104667599D01*
X165664837Y-104681029D01*
X165655087Y-104697296D01*
X165647132Y-104709018D01*
X165627382Y-104734866D01*
X165619761Y-104743925D01*
X165584080Y-104782500D01*
X165580956Y-104787484D01*
X165580954Y-104787487D01*
X165579115Y-104790421D01*
X165561447Y-104812603D01*
X165422197Y-104951854D01*
X165301456Y-105072595D01*
X165239143Y-105106620D01*
X165212360Y-105109500D01*
X149034685Y-105109500D01*
X149005314Y-105106029D01*
X149003778Y-105105661D01*
X149003774Y-105105661D01*
X148997757Y-105104218D01*
X148956149Y-105102596D01*
X148945258Y-105102172D01*
X148933462Y-105101156D01*
X148901214Y-105096843D01*
X148887307Y-105094180D01*
X148876781Y-105091544D01*
X148868904Y-105089571D01*
X148854463Y-105085016D01*
X148841677Y-105080120D01*
X148829156Y-105074525D01*
X148813137Y-105066294D01*
X148804606Y-105061483D01*
X148778959Y-105045674D01*
X148775217Y-105043275D01*
X148737674Y-105018264D01*
X148736818Y-105017698D01*
X148736763Y-105017662D01*
X148736609Y-105017560D01*
X148690749Y-104987417D01*
X148687247Y-104985165D01*
X148686870Y-104984928D01*
X148683624Y-104982930D01*
X148644804Y-104959519D01*
X148632094Y-104951854D01*
X148632080Y-104951846D01*
X148631661Y-104951593D01*
X148630312Y-104950805D01*
X148627008Y-104948876D01*
X148626994Y-104948868D01*
X148626595Y-104948635D01*
X148625993Y-104948295D01*
X148620476Y-104945289D01*
X148566571Y-104916982D01*
X148522181Y-104899890D01*
X148518630Y-104898977D01*
X148515164Y-104897869D01*
X148515204Y-104897744D01*
X148502966Y-104893658D01*
X148462337Y-104876829D01*
X148462333Y-104876828D01*
X148454709Y-104873670D01*
X148311000Y-104854750D01*
X148167291Y-104873670D01*
X148033375Y-104929139D01*
X147918379Y-105017379D01*
X147830139Y-105132375D01*
X147774670Y-105266291D01*
X147755750Y-105410000D01*
X140836026Y-105410000D01*
X140932215Y-105313811D01*
X140940319Y-105306384D01*
X140960749Y-105289241D01*
X140969194Y-105282155D01*
X140982759Y-105258660D01*
X140988039Y-105249515D01*
X140993945Y-105240244D01*
X140995992Y-105237321D01*
X141015554Y-105209384D01*
X141018408Y-105198734D01*
X141019885Y-105195566D01*
X141021077Y-105192290D01*
X141026588Y-105182745D01*
X141033130Y-105145642D01*
X141035509Y-105134910D01*
X141035703Y-105134186D01*
X141045264Y-105098507D01*
X141044084Y-105085013D01*
X141041979Y-105060957D01*
X141041500Y-105049976D01*
X141041500Y-96226258D01*
X141044762Y-96197773D01*
X141046756Y-96189182D01*
X141048481Y-96134780D01*
X141049158Y-96125134D01*
X141049736Y-96119837D01*
X141053303Y-96087097D01*
X141055121Y-96075485D01*
X141060106Y-96051132D01*
X141063364Y-96038555D01*
X141068760Y-96021419D01*
X141073076Y-96009757D01*
X141080588Y-95992176D01*
X141084754Y-95983382D01*
X141097564Y-95958851D01*
X141100235Y-95954002D01*
X141120750Y-95918631D01*
X141121325Y-95917650D01*
X141147606Y-95873265D01*
X141147831Y-95872885D01*
X141149908Y-95869295D01*
X141178992Y-95817835D01*
X141180978Y-95814238D01*
X141181178Y-95813867D01*
X141181428Y-95813392D01*
X141182972Y-95810458D01*
X141183002Y-95810399D01*
X141183083Y-95810246D01*
X141198996Y-95779266D01*
X141208341Y-95761074D01*
X141208344Y-95761067D01*
X141209977Y-95757888D01*
X141226438Y-95714266D01*
X141227315Y-95710789D01*
X141228387Y-95707373D01*
X141228588Y-95707436D01*
X141232563Y-95695431D01*
X141252330Y-95647709D01*
X141271250Y-95504000D01*
X141252330Y-95360291D01*
X141196861Y-95226375D01*
X141108621Y-95111379D01*
X140993625Y-95023139D01*
X140985997Y-95019980D01*
X140985993Y-95019977D01*
X140915648Y-94990840D01*
X140902658Y-94984566D01*
X140902524Y-94984491D01*
X140885770Y-94975181D01*
X140879889Y-94973291D01*
X140879886Y-94973290D01*
X140829950Y-94957245D01*
X140829915Y-94957234D01*
X140829744Y-94957179D01*
X140829565Y-94957123D01*
X140829532Y-94957113D01*
X140826182Y-94956073D01*
X140825889Y-94955982D01*
X140825442Y-94955848D01*
X140821441Y-94954692D01*
X140764527Y-94938880D01*
X140762489Y-94938325D01*
X140762325Y-94938281D01*
X140762185Y-94938244D01*
X140762049Y-94938208D01*
X140761972Y-94938188D01*
X140760969Y-94937927D01*
X140760277Y-94937746D01*
X140710114Y-94924898D01*
X140709006Y-94924609D01*
X140669515Y-94914111D01*
X140664168Y-94912562D01*
X140637769Y-94904276D01*
X140628607Y-94901005D01*
X140610858Y-94893882D01*
X140599576Y-94888695D01*
X140583617Y-94880379D01*
X140572451Y-94873808D01*
X140551685Y-94860100D01*
X140542186Y-94853171D01*
X140512365Y-94829209D01*
X140505061Y-94822863D01*
X140469714Y-94789689D01*
X140465383Y-94785624D01*
X140456809Y-94780186D01*
X140435209Y-94762883D01*
X138382326Y-92710000D01*
X150524318Y-92710000D01*
X150544956Y-92866762D01*
X150605464Y-93012841D01*
X150701718Y-93138282D01*
X150827159Y-93234536D01*
X150973238Y-93295044D01*
X151130000Y-93315682D01*
X151138188Y-93314604D01*
X151278574Y-93296122D01*
X151286762Y-93295044D01*
X151432841Y-93234536D01*
X151439391Y-93229510D01*
X151439398Y-93229506D01*
X151441716Y-93227727D01*
X151460406Y-93215839D01*
X151461363Y-93215343D01*
X151467113Y-93213044D01*
X151472301Y-93209669D01*
X151472304Y-93209668D01*
X151516439Y-93180961D01*
X151517667Y-93180173D01*
X151563364Y-93151257D01*
X151566941Y-93149077D01*
X151602425Y-93128267D01*
X151608764Y-93124792D01*
X151635730Y-93110999D01*
X151644746Y-93106827D01*
X151666663Y-93097717D01*
X151677441Y-93093802D01*
X151699580Y-93086886D01*
X151710618Y-93083980D01*
X151739097Y-93077853D01*
X151749040Y-93076129D01*
X151788858Y-93070858D01*
X151796934Y-93070052D01*
X151851520Y-93066379D01*
X151857603Y-93066117D01*
X151917159Y-93064994D01*
X151917161Y-93064994D01*
X151923197Y-93064880D01*
X151929106Y-93063617D01*
X151929108Y-93063617D01*
X151934420Y-93062482D01*
X151960750Y-93059700D01*
X156341378Y-93059700D01*
X156409499Y-93079702D01*
X156430473Y-93096605D01*
X167812195Y-104478326D01*
X167846221Y-104540638D01*
X167849100Y-104567421D01*
X167849100Y-106013104D01*
X167846249Y-106039757D01*
X167845244Y-106044399D01*
X167845243Y-106044405D01*
X167843936Y-106050445D01*
X167843832Y-106056631D01*
X167842761Y-106120235D01*
X167842557Y-106125588D01*
X167839017Y-106185158D01*
X167838405Y-106192154D01*
X167836455Y-106209021D01*
X167833424Y-106235245D01*
X167833157Y-106237551D01*
X167831886Y-106246013D01*
X167831480Y-106248207D01*
X167825436Y-106280833D01*
X167823357Y-106290093D01*
X167815624Y-106319336D01*
X167812941Y-106328161D01*
X167802798Y-106357606D01*
X167800098Y-106364736D01*
X167787307Y-106395654D01*
X167785780Y-106399344D01*
X167783717Y-106404055D01*
X167763671Y-106447409D01*
X167762605Y-106449655D01*
X167736343Y-106503630D01*
X167736242Y-106503838D01*
X167708571Y-106560445D01*
X167707408Y-106563671D01*
X167707406Y-106563676D01*
X167694611Y-106599171D01*
X167694608Y-106599179D01*
X167693449Y-106602396D01*
X167692644Y-106605727D01*
X167692185Y-106607255D01*
X167687918Y-106619237D01*
X167664556Y-106675638D01*
X167663478Y-106683826D01*
X167660088Y-106709573D01*
X167643918Y-106832400D01*
X167664556Y-106989162D01*
X167725064Y-107135241D01*
X167821318Y-107260682D01*
X167827864Y-107265705D01*
X167848949Y-107281884D01*
X167946759Y-107356936D01*
X168031517Y-107392044D01*
X168081342Y-107412682D01*
X168092838Y-107417444D01*
X168101026Y-107418522D01*
X168157858Y-107426004D01*
X168249600Y-107438082D01*
X168257788Y-107437004D01*
X168398174Y-107418522D01*
X168406362Y-107417444D01*
X168417859Y-107412682D01*
X168467683Y-107392044D01*
X168552441Y-107356936D01*
X168650251Y-107281884D01*
X168671336Y-107265705D01*
X168677882Y-107260682D01*
X168774136Y-107135241D01*
X168834644Y-106989162D01*
X168855282Y-106832400D01*
X168839112Y-106709573D01*
X168835722Y-106683826D01*
X168834644Y-106675638D01*
X168800390Y-106592941D01*
X168794985Y-106576930D01*
X168790628Y-106560442D01*
X168762917Y-106503757D01*
X168736594Y-106449655D01*
X168735546Y-106447446D01*
X168715492Y-106404078D01*
X168713430Y-106399367D01*
X168699101Y-106364736D01*
X168696402Y-106357609D01*
X168686257Y-106328158D01*
X168683575Y-106319336D01*
X168675842Y-106290093D01*
X168673763Y-106280833D01*
X168667719Y-106248207D01*
X168667313Y-106246013D01*
X168666042Y-106237551D01*
X168665776Y-106235245D01*
X168662744Y-106209021D01*
X168660794Y-106192154D01*
X168660182Y-106185158D01*
X168656642Y-106125588D01*
X168656438Y-106120233D01*
X168655366Y-106056507D01*
X168655366Y-106056506D01*
X168655264Y-106050448D01*
X168654008Y-106044524D01*
X168654007Y-106044517D01*
X168652841Y-106039020D01*
X168650100Y-106012884D01*
X168650100Y-104285906D01*
X168647036Y-104276475D01*
X168647035Y-104276471D01*
X168643303Y-104264986D01*
X168638687Y-104245761D01*
X168636797Y-104233827D01*
X168636797Y-104233826D01*
X168635246Y-104224035D01*
X168630745Y-104215202D01*
X168630744Y-104215198D01*
X168625259Y-104204433D01*
X168617693Y-104186169D01*
X168613960Y-104174680D01*
X168610896Y-104165249D01*
X168605067Y-104157227D01*
X168605066Y-104157224D01*
X168597968Y-104147455D01*
X168587638Y-104130598D01*
X168582152Y-104119832D01*
X168582151Y-104119831D01*
X168577650Y-104110997D01*
X168487942Y-104021289D01*
X156820370Y-92353716D01*
X156820366Y-92353713D01*
X156797803Y-92331150D01*
X156778207Y-92321165D01*
X156761354Y-92310839D01*
X156743551Y-92297904D01*
X156722627Y-92291105D01*
X156704367Y-92283541D01*
X156693602Y-92278056D01*
X156693598Y-92278055D01*
X156684765Y-92273554D01*
X156674974Y-92272003D01*
X156674973Y-92272003D01*
X156663039Y-92270113D01*
X156643814Y-92265497D01*
X156632329Y-92261765D01*
X156632325Y-92261764D01*
X156622894Y-92258700D01*
X151959304Y-92258700D01*
X151933129Y-92255951D01*
X151932501Y-92255818D01*
X151921908Y-92253568D01*
X151843782Y-92252558D01*
X151839713Y-92252439D01*
X151804102Y-92250819D01*
X151770523Y-92249291D01*
X151765204Y-92248936D01*
X151709896Y-92244068D01*
X151703479Y-92243337D01*
X151658358Y-92237022D01*
X151651378Y-92235844D01*
X151611819Y-92228021D01*
X151605192Y-92226524D01*
X151565825Y-92216507D01*
X151560578Y-92215050D01*
X151516514Y-92201774D01*
X151513287Y-92200753D01*
X151460972Y-92183395D01*
X151459810Y-92183003D01*
X151397324Y-92161486D01*
X151396886Y-92161336D01*
X151331923Y-92139130D01*
X151318695Y-92136165D01*
X151298037Y-92129626D01*
X151297837Y-92129543D01*
X151286762Y-92124956D01*
X151278578Y-92123879D01*
X151278576Y-92123878D01*
X151138188Y-92105396D01*
X151130000Y-92104318D01*
X150973238Y-92124956D01*
X150827159Y-92185464D01*
X150743978Y-92249291D01*
X150712358Y-92273554D01*
X150701718Y-92281718D01*
X150605464Y-92407159D01*
X150544956Y-92553238D01*
X150524318Y-92710000D01*
X138382326Y-92710000D01*
X135016511Y-89344185D01*
X135009084Y-89336081D01*
X134991941Y-89315651D01*
X134991942Y-89315651D01*
X134984855Y-89307206D01*
X134975306Y-89301693D01*
X134952215Y-89288361D01*
X134942944Y-89282455D01*
X134912084Y-89260846D01*
X134901434Y-89257992D01*
X134898266Y-89256515D01*
X134894990Y-89255323D01*
X134885445Y-89249812D01*
X134851701Y-89243862D01*
X134848342Y-89243270D01*
X134837615Y-89240892D01*
X134801207Y-89231136D01*
X134790222Y-89232097D01*
X134790220Y-89232097D01*
X134763672Y-89234420D01*
X134752690Y-89234900D01*
X120661062Y-89234900D01*
X120632577Y-89231638D01*
X120631370Y-89231358D01*
X120623985Y-89229644D01*
X120569578Y-89227918D01*
X120559945Y-89227242D01*
X120521897Y-89223096D01*
X120510292Y-89221279D01*
X120485927Y-89216292D01*
X120473355Y-89213035D01*
X120456219Y-89207639D01*
X120444557Y-89203323D01*
X120426976Y-89195811D01*
X120418182Y-89191645D01*
X120393651Y-89178835D01*
X120388802Y-89176164D01*
X120353431Y-89155649D01*
X120352450Y-89155074D01*
X120308065Y-89128793D01*
X120307685Y-89128568D01*
X120304095Y-89126491D01*
X120252635Y-89097407D01*
X120249038Y-89095421D01*
X120248667Y-89095221D01*
X120245043Y-89093314D01*
X120192685Y-89066421D01*
X120149066Y-89049962D01*
X120145590Y-89049085D01*
X120142176Y-89048014D01*
X120142239Y-89047813D01*
X120130231Y-89043837D01*
X120082509Y-89024070D01*
X119938800Y-89005150D01*
X119795091Y-89024070D01*
X119661175Y-89079539D01*
X119546179Y-89167779D01*
X119457939Y-89282775D01*
X119402470Y-89416691D01*
X119383550Y-89560400D01*
X111794800Y-89560400D01*
X111794800Y-84657787D01*
X111795407Y-84645437D01*
X111812798Y-84468863D01*
X111817615Y-84444643D01*
X111867318Y-84280790D01*
X111876771Y-84257971D01*
X111957481Y-84106972D01*
X111971199Y-84086442D01*
X112079826Y-83954079D01*
X112097279Y-83936626D01*
X112229642Y-83827999D01*
X112250169Y-83814283D01*
X112342383Y-83764993D01*
X112401171Y-83733571D01*
X112423991Y-83724118D01*
X112587843Y-83674415D01*
X112612060Y-83669599D01*
X112788637Y-83652207D01*
X112800987Y-83651600D01*
X142723600Y-83651600D01*
X142791721Y-83671602D01*
G37*
%TD.AperFunction*%
%TD*%
M02*
