%TF.GenerationSoftware,KiCad,Pcbnew,(6.0.9-0)*%
%TF.CreationDate,2023-03-15T21:38:29+08:00*%
%TF.ProjectId,Epaper-mcu,45706170-6572-42d6-9d63-752e6b696361,rev?*%
%TF.SameCoordinates,Original*%
%TF.FileFunction,Paste,Top*%
%TF.FilePolarity,Positive*%
%FSLAX46Y46*%
G04 Gerber Fmt 4.6, Leading zero omitted, Abs format (unit mm)*
G04 Created by KiCad (PCBNEW (6.0.9-0)) date 2023-03-15 21:38:29*
%MOMM*%
%LPD*%
G01*
G04 APERTURE LIST*
G04 Aperture macros list*
%AMRoundRect*
0 Rectangle with rounded corners*
0 $1 Rounding radius*
0 $2 $3 $4 $5 $6 $7 $8 $9 X,Y pos of 4 corners*
0 Add a 4 corners polygon primitive as box body*
4,1,4,$2,$3,$4,$5,$6,$7,$8,$9,$2,$3,0*
0 Add four circle primitives for the rounded corners*
1,1,$1+$1,$2,$3*
1,1,$1+$1,$4,$5*
1,1,$1+$1,$6,$7*
1,1,$1+$1,$8,$9*
0 Add four rect primitives between the rounded corners*
20,1,$1+$1,$2,$3,$4,$5,0*
20,1,$1+$1,$4,$5,$6,$7,0*
20,1,$1+$1,$6,$7,$8,$9,0*
20,1,$1+$1,$8,$9,$2,$3,0*%
G04 Aperture macros list end*
%ADD10RoundRect,0.225000X0.225000X0.250000X-0.225000X0.250000X-0.225000X-0.250000X0.225000X-0.250000X0*%
%ADD11RoundRect,0.150000X-0.587500X-0.150000X0.587500X-0.150000X0.587500X0.150000X-0.587500X0.150000X0*%
%ADD12RoundRect,0.200000X-0.275000X0.200000X-0.275000X-0.200000X0.275000X-0.200000X0.275000X0.200000X0*%
%ADD13RoundRect,0.225000X-0.225000X-0.250000X0.225000X-0.250000X0.225000X0.250000X-0.225000X0.250000X0*%
%ADD14R,0.500000X1.050000*%
%ADD15R,1.150000X0.300000*%
%ADD16R,2.000000X1.500000*%
%ADD17R,2.000000X3.800000*%
%ADD18R,1.200000X0.900000*%
%ADD19R,1.500000X0.900000*%
%ADD20R,0.900000X1.500000*%
%ADD21R,1.050000X1.050000*%
%ADD22RoundRect,0.225000X0.250000X-0.225000X0.250000X0.225000X-0.250000X0.225000X-0.250000X-0.225000X0*%
%ADD23R,1.250000X0.300000*%
%ADD24R,3.000000X2.000000*%
%ADD25RoundRect,0.200000X-0.200000X-0.275000X0.200000X-0.275000X0.200000X0.275000X-0.200000X0.275000X0*%
%ADD26R,0.900000X1.700000*%
%ADD27RoundRect,0.218750X0.256250X-0.218750X0.256250X0.218750X-0.256250X0.218750X-0.256250X-0.218750X0*%
%ADD28RoundRect,0.225000X-0.250000X0.225000X-0.250000X-0.225000X0.250000X-0.225000X0.250000X0.225000X0*%
%ADD29RoundRect,0.200000X0.275000X-0.200000X0.275000X0.200000X-0.275000X0.200000X-0.275000X-0.200000X0*%
%ADD30R,1.000000X3.000000*%
%ADD31RoundRect,0.218750X-0.256250X0.218750X-0.256250X-0.218750X0.256250X-0.218750X0.256250X0.218750X0*%
%ADD32RoundRect,0.150000X-0.150000X0.825000X-0.150000X-0.825000X0.150000X-0.825000X0.150000X0.825000X0*%
G04 APERTURE END LIST*
D10*
%TO.C,C1*%
X117234000Y-89662000D03*
X115684000Y-89662000D03*
%TD*%
D11*
%TO.C,Q1*%
X131396500Y-109540000D03*
X131396500Y-111440000D03*
X133271500Y-110490000D03*
%TD*%
D12*
%TO.C,R5*%
X128524000Y-112205000D03*
X128524000Y-113855000D03*
%TD*%
D13*
%TO.C,C13*%
X175107600Y-94132400D03*
X176657600Y-94132400D03*
%TD*%
%TO.C,C17*%
X177292000Y-107696000D03*
X178842000Y-107696000D03*
%TD*%
D14*
%TO.C,Q3*%
X171465000Y-109313000D03*
X170165000Y-109313000D03*
X170815000Y-111413000D03*
%TD*%
D15*
%TO.C,J1*%
X119290800Y-98478600D03*
X119290800Y-99278600D03*
X119290800Y-100578600D03*
X119290800Y-101578600D03*
X119290800Y-102078600D03*
X119290800Y-103078600D03*
X119290800Y-104378600D03*
X119290800Y-105178600D03*
X119290800Y-104878600D03*
X119290800Y-104078600D03*
X119290800Y-103578600D03*
X119290800Y-102578600D03*
X119290800Y-101078600D03*
X119290800Y-100078600D03*
X119290800Y-99578600D03*
X119290800Y-98778600D03*
%TD*%
D16*
%TO.C,U3*%
X130809600Y-86600000D03*
X130809600Y-88900000D03*
D17*
X137109600Y-88900000D03*
D16*
X130809600Y-91200000D03*
%TD*%
D18*
%TO.C,D2*%
X174498000Y-110364000D03*
X174498000Y-113664000D03*
%TD*%
D19*
%TO.C,U1*%
X145599000Y-91288000D03*
X145599000Y-92558000D03*
X145599000Y-93828000D03*
X145599000Y-95098000D03*
X145599000Y-96368000D03*
X145599000Y-97638000D03*
X145599000Y-98908000D03*
X145599000Y-100178000D03*
X145599000Y-101448000D03*
X145599000Y-102718000D03*
X145599000Y-103988000D03*
X145599000Y-105258000D03*
X145599000Y-106528000D03*
X145599000Y-107798000D03*
D20*
X148629000Y-109048000D03*
X149899000Y-109048000D03*
X151169000Y-109048000D03*
X152439000Y-109048000D03*
X153709000Y-109048000D03*
X154979000Y-109048000D03*
X156249000Y-109048000D03*
X157519000Y-109048000D03*
X158789000Y-109048000D03*
X160059000Y-109048000D03*
D19*
X163099000Y-107798000D03*
X163099000Y-106528000D03*
X163099000Y-105258000D03*
X163099000Y-103988000D03*
X163099000Y-102718000D03*
X163099000Y-101448000D03*
X163099000Y-100178000D03*
X163099000Y-98908000D03*
X163099000Y-97638000D03*
X163099000Y-96368000D03*
X163099000Y-95098000D03*
X163099000Y-93828000D03*
X163099000Y-92558000D03*
X163099000Y-91288000D03*
D21*
X155194000Y-98628000D03*
X155194000Y-100153000D03*
X153669000Y-97103000D03*
X152144000Y-98628000D03*
X152144000Y-97103000D03*
X155194000Y-97103000D03*
X153669000Y-100153000D03*
X152144000Y-100153000D03*
X153669000Y-98628000D03*
%TD*%
D22*
%TO.C,C5*%
X125476000Y-93231000D03*
X125476000Y-91681000D03*
%TD*%
D13*
%TO.C,C11*%
X174993000Y-117094000D03*
X176543000Y-117094000D03*
%TD*%
D23*
%TO.C,FPC1*%
X187877000Y-95088000D03*
X187877000Y-95588000D03*
X187877000Y-96088000D03*
X187877000Y-96588000D03*
X187877000Y-97088000D03*
X187877000Y-97588000D03*
X187877000Y-98088000D03*
X187877000Y-98588000D03*
X187877000Y-99088000D03*
X187877000Y-99588000D03*
X187877000Y-100088000D03*
X187877000Y-100588000D03*
X187877000Y-101088000D03*
X187877000Y-101588000D03*
X187877000Y-102088000D03*
X187877000Y-102588000D03*
X187877000Y-103088000D03*
X187877000Y-103588000D03*
X187877000Y-104088000D03*
X187877000Y-104588000D03*
X187877000Y-105088000D03*
X187877000Y-105588000D03*
X187877000Y-106088000D03*
X187877000Y-106588000D03*
D24*
X190201000Y-108128000D03*
X190201000Y-93548000D03*
%TD*%
D13*
%TO.C,C16*%
X177292000Y-105918000D03*
X178842000Y-105918000D03*
%TD*%
D22*
%TO.C,C18*%
X181102000Y-112027000D03*
X181102000Y-110477000D03*
%TD*%
D25*
%TO.C,R6*%
X122783600Y-102870000D03*
X124433600Y-102870000D03*
%TD*%
D26*
%TO.C,BOOT*%
X113920800Y-110490000D03*
X117320800Y-110490000D03*
%TD*%
D27*
%TO.C,PWR*%
X140081000Y-93243500D03*
X140081000Y-91668500D03*
%TD*%
D18*
%TO.C,D3*%
X181610000Y-117474000D03*
X181610000Y-114174000D03*
%TD*%
D25*
%TO.C,R2*%
X141669000Y-113919000D03*
X143319000Y-113919000D03*
%TD*%
D13*
%TO.C,C14*%
X177292000Y-102362000D03*
X178842000Y-102362000D03*
%TD*%
D28*
%TO.C,C6*%
X140411200Y-102755400D03*
X140411200Y-104305400D03*
%TD*%
D22*
%TO.C,C8*%
X165608000Y-116599000D03*
X165608000Y-115049000D03*
%TD*%
D26*
%TO.C,RST_EN*%
X113920800Y-92710000D03*
X117320800Y-92710000D03*
%TD*%
D22*
%TO.C,C2*%
X122301000Y-93231000D03*
X122301000Y-91681000D03*
%TD*%
D29*
%TO.C,R4*%
X136144000Y-113855000D03*
X136144000Y-112205000D03*
%TD*%
D12*
%TO.C,R8*%
X170180000Y-104331000D03*
X170180000Y-105981000D03*
%TD*%
D13*
%TO.C,C3*%
X139331400Y-100126800D03*
X140881400Y-100126800D03*
%TD*%
D29*
%TO.C,R1*%
X120015000Y-93281000D03*
X120015000Y-91631000D03*
%TD*%
D18*
%TO.C,D4*%
X178054000Y-110364000D03*
X178054000Y-113664000D03*
%TD*%
D25*
%TO.C,R7*%
X122771400Y-99822000D03*
X124421400Y-99822000D03*
%TD*%
D12*
%TO.C,R9*%
X140081000Y-87821000D03*
X140081000Y-89471000D03*
%TD*%
D13*
%TO.C,C12*%
X175107600Y-92100400D03*
X176657600Y-92100400D03*
%TD*%
D11*
%TO.C,Q2*%
X131396500Y-114620000D03*
X131396500Y-116520000D03*
X133271500Y-115570000D03*
%TD*%
D22*
%TO.C,C20*%
X185674000Y-115837000D03*
X185674000Y-114287000D03*
%TD*%
%TO.C,C10*%
X128016000Y-89421000D03*
X128016000Y-87871000D03*
%TD*%
%TO.C,C21*%
X187960000Y-115837000D03*
X187960000Y-114287000D03*
%TD*%
D30*
%TO.C,L1*%
X168418000Y-115824000D03*
X170418000Y-115824000D03*
%TD*%
D22*
%TO.C,C7*%
X142544800Y-104305400D03*
X142544800Y-102755400D03*
%TD*%
%TO.C,C19*%
X183134000Y-112040000D03*
X183134000Y-110490000D03*
%TD*%
D13*
%TO.C,C15*%
X177292000Y-104140000D03*
X178842000Y-104140000D03*
%TD*%
D25*
%TO.C,R3*%
X141606000Y-111633000D03*
X143256000Y-111633000D03*
%TD*%
D31*
%TO.C,R10*%
X167640000Y-109448500D03*
X167640000Y-111023500D03*
%TD*%
D22*
%TO.C,C4*%
X128016000Y-93231000D03*
X128016000Y-91681000D03*
%TD*%
D32*
%TO.C,U2*%
X136271000Y-98871000D03*
X135001000Y-98871000D03*
X133731000Y-98871000D03*
X132461000Y-98871000D03*
X131191000Y-98871000D03*
X129921000Y-98871000D03*
X128651000Y-98871000D03*
X127381000Y-98871000D03*
X127381000Y-103821000D03*
X128651000Y-103821000D03*
X129921000Y-103821000D03*
X131191000Y-103821000D03*
X132461000Y-103821000D03*
X133731000Y-103821000D03*
X135001000Y-103821000D03*
X136271000Y-103821000D03*
%TD*%
D22*
%TO.C,C9*%
X125476000Y-89421000D03*
X125476000Y-87871000D03*
%TD*%
M02*
