%TF.GenerationSoftware,KiCad,Pcbnew,(6.0.9-0)*%
%TF.CreationDate,2022-12-04T14:46:01+08:00*%
%TF.ProjectId,Epaper-mcu,45706170-6572-42d6-9d63-752e6b696361,rev?*%
%TF.SameCoordinates,Original*%
%TF.FileFunction,Legend,Top*%
%TF.FilePolarity,Positive*%
%FSLAX46Y46*%
G04 Gerber Fmt 4.6, Leading zero omitted, Abs format (unit mm)*
G04 Created by KiCad (PCBNEW (6.0.9-0)) date 2022-12-04 14:46:01*
%MOMM*%
%LPD*%
G01*
G04 APERTURE LIST*
%ADD10C,0.150000*%
%ADD11C,0.120000*%
%ADD12C,0.200000*%
%ADD13C,0.240000*%
G04 APERTURE END LIST*
D10*
X150121428Y-118960952D02*
X150026190Y-118913333D01*
X149978571Y-118865714D01*
X149930952Y-118770476D01*
X149930952Y-118722857D01*
X149978571Y-118627619D01*
X150026190Y-118580000D01*
X150121428Y-118532380D01*
X150311904Y-118532380D01*
X150407142Y-118580000D01*
X150454761Y-118627619D01*
X150502380Y-118722857D01*
X150502380Y-118770476D01*
X150454761Y-118865714D01*
X150407142Y-118913333D01*
X150311904Y-118960952D01*
X150121428Y-118960952D01*
X150026190Y-119008571D01*
X149978571Y-119056190D01*
X149930952Y-119151428D01*
X149930952Y-119341904D01*
X149978571Y-119437142D01*
X150026190Y-119484761D01*
X150121428Y-119532380D01*
X150311904Y-119532380D01*
X150407142Y-119484761D01*
X150454761Y-119437142D01*
X150502380Y-119341904D01*
X150502380Y-119151428D01*
X150454761Y-119056190D01*
X150407142Y-119008571D01*
X150311904Y-118960952D01*
X151407142Y-118532380D02*
X150930952Y-118532380D01*
X150883333Y-119008571D01*
X150930952Y-118960952D01*
X151026190Y-118913333D01*
X151264285Y-118913333D01*
X151359523Y-118960952D01*
X151407142Y-119008571D01*
X151454761Y-119103809D01*
X151454761Y-119341904D01*
X151407142Y-119437142D01*
X151359523Y-119484761D01*
X151264285Y-119532380D01*
X151026190Y-119532380D01*
X150930952Y-119484761D01*
X150883333Y-119437142D01*
X151883333Y-119437142D02*
X151930952Y-119484761D01*
X151883333Y-119532380D01*
X151835714Y-119484761D01*
X151883333Y-119437142D01*
X151883333Y-119532380D01*
X152550000Y-118532380D02*
X152645238Y-118532380D01*
X152740476Y-118580000D01*
X152788095Y-118627619D01*
X152835714Y-118722857D01*
X152883333Y-118913333D01*
X152883333Y-119151428D01*
X152835714Y-119341904D01*
X152788095Y-119437142D01*
X152740476Y-119484761D01*
X152645238Y-119532380D01*
X152550000Y-119532380D01*
X152454761Y-119484761D01*
X152407142Y-119437142D01*
X152359523Y-119341904D01*
X152311904Y-119151428D01*
X152311904Y-118913333D01*
X152359523Y-118722857D01*
X152407142Y-118627619D01*
X152454761Y-118580000D01*
X152550000Y-118532380D01*
X153502380Y-118532380D02*
X153597619Y-118532380D01*
X153692857Y-118580000D01*
X153740476Y-118627619D01*
X153788095Y-118722857D01*
X153835714Y-118913333D01*
X153835714Y-119151428D01*
X153788095Y-119341904D01*
X153740476Y-119437142D01*
X153692857Y-119484761D01*
X153597619Y-119532380D01*
X153502380Y-119532380D01*
X153407142Y-119484761D01*
X153359523Y-119437142D01*
X153311904Y-119341904D01*
X153264285Y-119151428D01*
X153264285Y-118913333D01*
X153311904Y-118722857D01*
X153359523Y-118627619D01*
X153407142Y-118580000D01*
X153502380Y-118532380D01*
X154454761Y-118532380D02*
X154550000Y-118532380D01*
X154645238Y-118580000D01*
X154692857Y-118627619D01*
X154740476Y-118722857D01*
X154788095Y-118913333D01*
X154788095Y-119151428D01*
X154740476Y-119341904D01*
X154692857Y-119437142D01*
X154645238Y-119484761D01*
X154550000Y-119532380D01*
X154454761Y-119532380D01*
X154359523Y-119484761D01*
X154311904Y-119437142D01*
X154264285Y-119341904D01*
X154216666Y-119151428D01*
X154216666Y-118913333D01*
X154264285Y-118722857D01*
X154311904Y-118627619D01*
X154359523Y-118580000D01*
X154454761Y-118532380D01*
X155407142Y-118532380D02*
X155502380Y-118532380D01*
X155597619Y-118580000D01*
X155645238Y-118627619D01*
X155692857Y-118722857D01*
X155740476Y-118913333D01*
X155740476Y-119151428D01*
X155692857Y-119341904D01*
X155645238Y-119437142D01*
X155597619Y-119484761D01*
X155502380Y-119532380D01*
X155407142Y-119532380D01*
X155311904Y-119484761D01*
X155264285Y-119437142D01*
X155216666Y-119341904D01*
X155169047Y-119151428D01*
X155169047Y-118913333D01*
X155216666Y-118722857D01*
X155264285Y-118627619D01*
X155311904Y-118580000D01*
X155407142Y-118532380D01*
X156930952Y-119532380D02*
X156930952Y-118865714D01*
X156930952Y-118960952D02*
X156978571Y-118913333D01*
X157073809Y-118865714D01*
X157216666Y-118865714D01*
X157311904Y-118913333D01*
X157359523Y-119008571D01*
X157359523Y-119532380D01*
X157359523Y-119008571D02*
X157407142Y-118913333D01*
X157502380Y-118865714D01*
X157645238Y-118865714D01*
X157740476Y-118913333D01*
X157788095Y-119008571D01*
X157788095Y-119532380D01*
X158264285Y-119532380D02*
X158264285Y-118865714D01*
X158264285Y-118960952D02*
X158311904Y-118913333D01*
X158407142Y-118865714D01*
X158550000Y-118865714D01*
X158645238Y-118913333D01*
X158692857Y-119008571D01*
X158692857Y-119532380D01*
X158692857Y-119008571D02*
X158740476Y-118913333D01*
X158835714Y-118865714D01*
X158978571Y-118865714D01*
X159073809Y-118913333D01*
X159121428Y-119008571D01*
X159121428Y-119532380D01*
X197050000Y-115050000D02*
X197050000Y-120816420D01*
X112050000Y-115050000D02*
X112050000Y-120816420D01*
X197050000Y-120230000D02*
X112050000Y-120230000D01*
X197050000Y-120230000D02*
X112050000Y-120230000D01*
X197050000Y-120230000D02*
X195923496Y-119643579D01*
X197050000Y-120230000D02*
X195923496Y-120816421D01*
X112050000Y-120230000D02*
X113176504Y-120816421D01*
X112050000Y-120230000D02*
X113176504Y-119643579D01*
X202462380Y-100716666D02*
X202462380Y-100097619D01*
X202843333Y-100430952D01*
X202843333Y-100288095D01*
X202890952Y-100192857D01*
X202938571Y-100145238D01*
X203033809Y-100097619D01*
X203271904Y-100097619D01*
X203367142Y-100145238D01*
X203414761Y-100192857D01*
X203462380Y-100288095D01*
X203462380Y-100573809D01*
X203414761Y-100669047D01*
X203367142Y-100716666D01*
X202462380Y-99764285D02*
X202462380Y-99097619D01*
X203462380Y-99526190D01*
X203367142Y-98716666D02*
X203414761Y-98669047D01*
X203462380Y-98716666D01*
X203414761Y-98764285D01*
X203367142Y-98716666D01*
X203462380Y-98716666D01*
X202462380Y-98050000D02*
X202462380Y-97954761D01*
X202510000Y-97859523D01*
X202557619Y-97811904D01*
X202652857Y-97764285D01*
X202843333Y-97716666D01*
X203081428Y-97716666D01*
X203271904Y-97764285D01*
X203367142Y-97811904D01*
X203414761Y-97859523D01*
X203462380Y-97954761D01*
X203462380Y-98050000D01*
X203414761Y-98145238D01*
X203367142Y-98192857D01*
X203271904Y-98240476D01*
X203081428Y-98288095D01*
X202843333Y-98288095D01*
X202652857Y-98240476D01*
X202557619Y-98192857D01*
X202510000Y-98145238D01*
X202462380Y-98050000D01*
X202462380Y-97097619D02*
X202462380Y-97002380D01*
X202510000Y-96907142D01*
X202557619Y-96859523D01*
X202652857Y-96811904D01*
X202843333Y-96764285D01*
X203081428Y-96764285D01*
X203271904Y-96811904D01*
X203367142Y-96859523D01*
X203414761Y-96907142D01*
X203462380Y-97002380D01*
X203462380Y-97097619D01*
X203414761Y-97192857D01*
X203367142Y-97240476D01*
X203271904Y-97288095D01*
X203081428Y-97335714D01*
X202843333Y-97335714D01*
X202652857Y-97288095D01*
X202557619Y-97240476D01*
X202510000Y-97192857D01*
X202462380Y-97097619D01*
X202462380Y-96145238D02*
X202462380Y-96050000D01*
X202510000Y-95954761D01*
X202557619Y-95907142D01*
X202652857Y-95859523D01*
X202843333Y-95811904D01*
X203081428Y-95811904D01*
X203271904Y-95859523D01*
X203367142Y-95907142D01*
X203414761Y-95954761D01*
X203462380Y-96050000D01*
X203462380Y-96145238D01*
X203414761Y-96240476D01*
X203367142Y-96288095D01*
X203271904Y-96335714D01*
X203081428Y-96383333D01*
X202843333Y-96383333D01*
X202652857Y-96335714D01*
X202557619Y-96288095D01*
X202510000Y-96240476D01*
X202462380Y-96145238D01*
X202462380Y-95192857D02*
X202462380Y-95097619D01*
X202510000Y-95002380D01*
X202557619Y-94954761D01*
X202652857Y-94907142D01*
X202843333Y-94859523D01*
X203081428Y-94859523D01*
X203271904Y-94907142D01*
X203367142Y-94954761D01*
X203414761Y-95002380D01*
X203462380Y-95097619D01*
X203462380Y-95192857D01*
X203414761Y-95288095D01*
X203367142Y-95335714D01*
X203271904Y-95383333D01*
X203081428Y-95430952D01*
X202843333Y-95430952D01*
X202652857Y-95383333D01*
X202557619Y-95335714D01*
X202510000Y-95288095D01*
X202462380Y-95192857D01*
X203462380Y-93669047D02*
X202795714Y-93669047D01*
X202890952Y-93669047D02*
X202843333Y-93621428D01*
X202795714Y-93526190D01*
X202795714Y-93383333D01*
X202843333Y-93288095D01*
X202938571Y-93240476D01*
X203462380Y-93240476D01*
X202938571Y-93240476D02*
X202843333Y-93192857D01*
X202795714Y-93097619D01*
X202795714Y-92954761D01*
X202843333Y-92859523D01*
X202938571Y-92811904D01*
X203462380Y-92811904D01*
X203462380Y-92335714D02*
X202795714Y-92335714D01*
X202890952Y-92335714D02*
X202843333Y-92288095D01*
X202795714Y-92192857D01*
X202795714Y-92050000D01*
X202843333Y-91954761D01*
X202938571Y-91907142D01*
X203462380Y-91907142D01*
X202938571Y-91907142D02*
X202843333Y-91859523D01*
X202795714Y-91764285D01*
X202795714Y-91621428D01*
X202843333Y-91526190D01*
X202938571Y-91478571D01*
X203462380Y-91478571D01*
X197550000Y-77550000D02*
X204746420Y-77550000D01*
X197550000Y-114550000D02*
X204746420Y-114550000D01*
X204160000Y-77550000D02*
X204160000Y-114550000D01*
X204160000Y-77550000D02*
X204160000Y-114550000D01*
X204160000Y-77550000D02*
X203573579Y-78676504D01*
X204160000Y-77550000D02*
X204746421Y-78676504D01*
X204160000Y-114550000D02*
X204746421Y-113423496D01*
X204160000Y-114550000D02*
X203573579Y-113423496D01*
%TO.C,R14*%
X158107142Y-93416380D02*
X157773809Y-92940190D01*
X157535714Y-93416380D02*
X157535714Y-92416380D01*
X157916666Y-92416380D01*
X158011904Y-92464000D01*
X158059523Y-92511619D01*
X158107142Y-92606857D01*
X158107142Y-92749714D01*
X158059523Y-92844952D01*
X158011904Y-92892571D01*
X157916666Y-92940190D01*
X157535714Y-92940190D01*
X159059523Y-93416380D02*
X158488095Y-93416380D01*
X158773809Y-93416380D02*
X158773809Y-92416380D01*
X158678571Y-92559238D01*
X158583333Y-92654476D01*
X158488095Y-92702095D01*
X159916666Y-92749714D02*
X159916666Y-93416380D01*
X159678571Y-92368761D02*
X159440476Y-93083047D01*
X160059523Y-93083047D01*
%TO.C,C10*%
X125485142Y-93098857D02*
X125532761Y-93146476D01*
X125580380Y-93289333D01*
X125580380Y-93384571D01*
X125532761Y-93527428D01*
X125437523Y-93622666D01*
X125342285Y-93670285D01*
X125151809Y-93717904D01*
X125008952Y-93717904D01*
X124818476Y-93670285D01*
X124723238Y-93622666D01*
X124628000Y-93527428D01*
X124580380Y-93384571D01*
X124580380Y-93289333D01*
X124628000Y-93146476D01*
X124675619Y-93098857D01*
X125580380Y-92146476D02*
X125580380Y-92717904D01*
X125580380Y-92432190D02*
X124580380Y-92432190D01*
X124723238Y-92527428D01*
X124818476Y-92622666D01*
X124866095Y-92717904D01*
X124580380Y-91527428D02*
X124580380Y-91432190D01*
X124628000Y-91336952D01*
X124675619Y-91289333D01*
X124770857Y-91241714D01*
X124961333Y-91194095D01*
X125199428Y-91194095D01*
X125389904Y-91241714D01*
X125485142Y-91289333D01*
X125532761Y-91336952D01*
X125580380Y-91432190D01*
X125580380Y-91527428D01*
X125532761Y-91622666D01*
X125485142Y-91670285D01*
X125389904Y-91717904D01*
X125199428Y-91765523D01*
X124961333Y-91765523D01*
X124770857Y-91717904D01*
X124675619Y-91670285D01*
X124628000Y-91622666D01*
X124580380Y-91527428D01*
%TO.C,R18*%
X186794380Y-108846857D02*
X186318190Y-109180190D01*
X186794380Y-109418285D02*
X185794380Y-109418285D01*
X185794380Y-109037333D01*
X185842000Y-108942095D01*
X185889619Y-108894476D01*
X185984857Y-108846857D01*
X186127714Y-108846857D01*
X186222952Y-108894476D01*
X186270571Y-108942095D01*
X186318190Y-109037333D01*
X186318190Y-109418285D01*
X186794380Y-107894476D02*
X186794380Y-108465904D01*
X186794380Y-108180190D02*
X185794380Y-108180190D01*
X185937238Y-108275428D01*
X186032476Y-108370666D01*
X186080095Y-108465904D01*
X186222952Y-107323047D02*
X186175333Y-107418285D01*
X186127714Y-107465904D01*
X186032476Y-107513523D01*
X185984857Y-107513523D01*
X185889619Y-107465904D01*
X185842000Y-107418285D01*
X185794380Y-107323047D01*
X185794380Y-107132571D01*
X185842000Y-107037333D01*
X185889619Y-106989714D01*
X185984857Y-106942095D01*
X186032476Y-106942095D01*
X186127714Y-106989714D01*
X186175333Y-107037333D01*
X186222952Y-107132571D01*
X186222952Y-107323047D01*
X186270571Y-107418285D01*
X186318190Y-107465904D01*
X186413428Y-107513523D01*
X186603904Y-107513523D01*
X186699142Y-107465904D01*
X186746761Y-107418285D01*
X186794380Y-107323047D01*
X186794380Y-107132571D01*
X186746761Y-107037333D01*
X186699142Y-106989714D01*
X186603904Y-106942095D01*
X186413428Y-106942095D01*
X186318190Y-106989714D01*
X186270571Y-107037333D01*
X186222952Y-107132571D01*
%TO.C,C1*%
X128119142Y-100102086D02*
X128166761Y-100149705D01*
X128214380Y-100292562D01*
X128214380Y-100387800D01*
X128166761Y-100530658D01*
X128071523Y-100625896D01*
X127976285Y-100673515D01*
X127785809Y-100721134D01*
X127642952Y-100721134D01*
X127452476Y-100673515D01*
X127357238Y-100625896D01*
X127262000Y-100530658D01*
X127214380Y-100387800D01*
X127214380Y-100292562D01*
X127262000Y-100149705D01*
X127309619Y-100102086D01*
X128214380Y-99149705D02*
X128214380Y-99721134D01*
X128214380Y-99435420D02*
X127214380Y-99435420D01*
X127357238Y-99530658D01*
X127452476Y-99625896D01*
X127500095Y-99721134D01*
%TO.C,R15*%
X158117142Y-89352380D02*
X157783809Y-88876190D01*
X157545714Y-89352380D02*
X157545714Y-88352380D01*
X157926666Y-88352380D01*
X158021904Y-88400000D01*
X158069523Y-88447619D01*
X158117142Y-88542857D01*
X158117142Y-88685714D01*
X158069523Y-88780952D01*
X158021904Y-88828571D01*
X157926666Y-88876190D01*
X157545714Y-88876190D01*
X159069523Y-89352380D02*
X158498095Y-89352380D01*
X158783809Y-89352380D02*
X158783809Y-88352380D01*
X158688571Y-88495238D01*
X158593333Y-88590476D01*
X158498095Y-88638095D01*
X159974285Y-88352380D02*
X159498095Y-88352380D01*
X159450476Y-88828571D01*
X159498095Y-88780952D01*
X159593333Y-88733333D01*
X159831428Y-88733333D01*
X159926666Y-88780952D01*
X159974285Y-88828571D01*
X160021904Y-88923809D01*
X160021904Y-89161904D01*
X159974285Y-89257142D01*
X159926666Y-89304761D01*
X159831428Y-89352380D01*
X159593333Y-89352380D01*
X159498095Y-89304761D01*
X159450476Y-89257142D01*
%TO.C,C20*%
X183062142Y-83763142D02*
X183014523Y-83810761D01*
X182871666Y-83858380D01*
X182776428Y-83858380D01*
X182633571Y-83810761D01*
X182538333Y-83715523D01*
X182490714Y-83620285D01*
X182443095Y-83429809D01*
X182443095Y-83286952D01*
X182490714Y-83096476D01*
X182538333Y-83001238D01*
X182633571Y-82906000D01*
X182776428Y-82858380D01*
X182871666Y-82858380D01*
X183014523Y-82906000D01*
X183062142Y-82953619D01*
X183443095Y-82953619D02*
X183490714Y-82906000D01*
X183585952Y-82858380D01*
X183824047Y-82858380D01*
X183919285Y-82906000D01*
X183966904Y-82953619D01*
X184014523Y-83048857D01*
X184014523Y-83144095D01*
X183966904Y-83286952D01*
X183395476Y-83858380D01*
X184014523Y-83858380D01*
X184633571Y-82858380D02*
X184728809Y-82858380D01*
X184824047Y-82906000D01*
X184871666Y-82953619D01*
X184919285Y-83048857D01*
X184966904Y-83239333D01*
X184966904Y-83477428D01*
X184919285Y-83667904D01*
X184871666Y-83763142D01*
X184824047Y-83810761D01*
X184728809Y-83858380D01*
X184633571Y-83858380D01*
X184538333Y-83810761D01*
X184490714Y-83763142D01*
X184443095Y-83667904D01*
X184395476Y-83477428D01*
X184395476Y-83239333D01*
X184443095Y-83048857D01*
X184490714Y-82953619D01*
X184538333Y-82906000D01*
X184633571Y-82858380D01*
%TO.C,C11*%
X152917142Y-111894857D02*
X152964761Y-111942476D01*
X153012380Y-112085333D01*
X153012380Y-112180571D01*
X152964761Y-112323428D01*
X152869523Y-112418666D01*
X152774285Y-112466285D01*
X152583809Y-112513904D01*
X152440952Y-112513904D01*
X152250476Y-112466285D01*
X152155238Y-112418666D01*
X152060000Y-112323428D01*
X152012380Y-112180571D01*
X152012380Y-112085333D01*
X152060000Y-111942476D01*
X152107619Y-111894857D01*
X153012380Y-110942476D02*
X153012380Y-111513904D01*
X153012380Y-111228190D02*
X152012380Y-111228190D01*
X152155238Y-111323428D01*
X152250476Y-111418666D01*
X152298095Y-111513904D01*
X153012380Y-109990095D02*
X153012380Y-110561523D01*
X153012380Y-110275809D02*
X152012380Y-110275809D01*
X152155238Y-110371047D01*
X152250476Y-110466285D01*
X152298095Y-110561523D01*
%TO.C,C3*%
X134121142Y-95924666D02*
X134168761Y-95972285D01*
X134216380Y-96115142D01*
X134216380Y-96210380D01*
X134168761Y-96353238D01*
X134073523Y-96448476D01*
X133978285Y-96496095D01*
X133787809Y-96543714D01*
X133644952Y-96543714D01*
X133454476Y-96496095D01*
X133359238Y-96448476D01*
X133264000Y-96353238D01*
X133216380Y-96210380D01*
X133216380Y-96115142D01*
X133264000Y-95972285D01*
X133311619Y-95924666D01*
X133216380Y-95591333D02*
X133216380Y-94972285D01*
X133597333Y-95305619D01*
X133597333Y-95162761D01*
X133644952Y-95067523D01*
X133692571Y-95019904D01*
X133787809Y-94972285D01*
X134025904Y-94972285D01*
X134121142Y-95019904D01*
X134168761Y-95067523D01*
X134216380Y-95162761D01*
X134216380Y-95448476D01*
X134168761Y-95543714D01*
X134121142Y-95591333D01*
%TO.C,C19*%
X169029142Y-88495142D02*
X168981523Y-88542761D01*
X168838666Y-88590380D01*
X168743428Y-88590380D01*
X168600571Y-88542761D01*
X168505333Y-88447523D01*
X168457714Y-88352285D01*
X168410095Y-88161809D01*
X168410095Y-88018952D01*
X168457714Y-87828476D01*
X168505333Y-87733238D01*
X168600571Y-87638000D01*
X168743428Y-87590380D01*
X168838666Y-87590380D01*
X168981523Y-87638000D01*
X169029142Y-87685619D01*
X169981523Y-88590380D02*
X169410095Y-88590380D01*
X169695809Y-88590380D02*
X169695809Y-87590380D01*
X169600571Y-87733238D01*
X169505333Y-87828476D01*
X169410095Y-87876095D01*
X170457714Y-88590380D02*
X170648190Y-88590380D01*
X170743428Y-88542761D01*
X170791047Y-88495142D01*
X170886285Y-88352285D01*
X170933904Y-88161809D01*
X170933904Y-87780857D01*
X170886285Y-87685619D01*
X170838666Y-87638000D01*
X170743428Y-87590380D01*
X170552952Y-87590380D01*
X170457714Y-87638000D01*
X170410095Y-87685619D01*
X170362476Y-87780857D01*
X170362476Y-88018952D01*
X170410095Y-88114190D01*
X170457714Y-88161809D01*
X170552952Y-88209428D01*
X170743428Y-88209428D01*
X170838666Y-88161809D01*
X170886285Y-88114190D01*
X170933904Y-88018952D01*
%TO.C,R20*%
X141516380Y-112656857D02*
X141040190Y-112990190D01*
X141516380Y-113228285D02*
X140516380Y-113228285D01*
X140516380Y-112847333D01*
X140564000Y-112752095D01*
X140611619Y-112704476D01*
X140706857Y-112656857D01*
X140849714Y-112656857D01*
X140944952Y-112704476D01*
X140992571Y-112752095D01*
X141040190Y-112847333D01*
X141040190Y-113228285D01*
X140611619Y-112275904D02*
X140564000Y-112228285D01*
X140516380Y-112133047D01*
X140516380Y-111894952D01*
X140564000Y-111799714D01*
X140611619Y-111752095D01*
X140706857Y-111704476D01*
X140802095Y-111704476D01*
X140944952Y-111752095D01*
X141516380Y-112323523D01*
X141516380Y-111704476D01*
X140516380Y-111085428D02*
X140516380Y-110990190D01*
X140564000Y-110894952D01*
X140611619Y-110847333D01*
X140706857Y-110799714D01*
X140897333Y-110752095D01*
X141135428Y-110752095D01*
X141325904Y-110799714D01*
X141421142Y-110847333D01*
X141468761Y-110894952D01*
X141516380Y-110990190D01*
X141516380Y-111085428D01*
X141468761Y-111180666D01*
X141421142Y-111228285D01*
X141325904Y-111275904D01*
X141135428Y-111323523D01*
X140897333Y-111323523D01*
X140706857Y-111275904D01*
X140611619Y-111228285D01*
X140564000Y-111180666D01*
X140516380Y-111085428D01*
%TO.C,C4*%
X119069142Y-79922666D02*
X119116761Y-79970285D01*
X119164380Y-80113142D01*
X119164380Y-80208380D01*
X119116761Y-80351238D01*
X119021523Y-80446476D01*
X118926285Y-80494095D01*
X118735809Y-80541714D01*
X118592952Y-80541714D01*
X118402476Y-80494095D01*
X118307238Y-80446476D01*
X118212000Y-80351238D01*
X118164380Y-80208380D01*
X118164380Y-80113142D01*
X118212000Y-79970285D01*
X118259619Y-79922666D01*
X118497714Y-79065523D02*
X119164380Y-79065523D01*
X118116761Y-79303619D02*
X118831047Y-79541714D01*
X118831047Y-78922666D01*
%TO.C,J6*%
X173148666Y-106234880D02*
X173148666Y-106949166D01*
X173101047Y-107092023D01*
X173005809Y-107187261D01*
X172862952Y-107234880D01*
X172767714Y-107234880D01*
X174053428Y-106234880D02*
X173862952Y-106234880D01*
X173767714Y-106282500D01*
X173720095Y-106330119D01*
X173624857Y-106472976D01*
X173577238Y-106663452D01*
X173577238Y-107044404D01*
X173624857Y-107139642D01*
X173672476Y-107187261D01*
X173767714Y-107234880D01*
X173958190Y-107234880D01*
X174053428Y-107187261D01*
X174101047Y-107139642D01*
X174148666Y-107044404D01*
X174148666Y-106806309D01*
X174101047Y-106711071D01*
X174053428Y-106663452D01*
X173958190Y-106615833D01*
X173767714Y-106615833D01*
X173672476Y-106663452D01*
X173624857Y-106711071D01*
X173577238Y-106806309D01*
%TO.C,C12*%
X163174142Y-88869142D02*
X163126523Y-88916761D01*
X162983666Y-88964380D01*
X162888428Y-88964380D01*
X162745571Y-88916761D01*
X162650333Y-88821523D01*
X162602714Y-88726285D01*
X162555095Y-88535809D01*
X162555095Y-88392952D01*
X162602714Y-88202476D01*
X162650333Y-88107238D01*
X162745571Y-88012000D01*
X162888428Y-87964380D01*
X162983666Y-87964380D01*
X163126523Y-88012000D01*
X163174142Y-88059619D01*
X164126523Y-88964380D02*
X163555095Y-88964380D01*
X163840809Y-88964380D02*
X163840809Y-87964380D01*
X163745571Y-88107238D01*
X163650333Y-88202476D01*
X163555095Y-88250095D01*
X164507476Y-88059619D02*
X164555095Y-88012000D01*
X164650333Y-87964380D01*
X164888428Y-87964380D01*
X164983666Y-88012000D01*
X165031285Y-88059619D01*
X165078904Y-88154857D01*
X165078904Y-88250095D01*
X165031285Y-88392952D01*
X164459857Y-88964380D01*
X165078904Y-88964380D01*
%TO.C,R16*%
X137198380Y-112656857D02*
X136722190Y-112990190D01*
X137198380Y-113228285D02*
X136198380Y-113228285D01*
X136198380Y-112847333D01*
X136246000Y-112752095D01*
X136293619Y-112704476D01*
X136388857Y-112656857D01*
X136531714Y-112656857D01*
X136626952Y-112704476D01*
X136674571Y-112752095D01*
X136722190Y-112847333D01*
X136722190Y-113228285D01*
X137198380Y-111704476D02*
X137198380Y-112275904D01*
X137198380Y-111990190D02*
X136198380Y-111990190D01*
X136341238Y-112085428D01*
X136436476Y-112180666D01*
X136484095Y-112275904D01*
X136198380Y-110847333D02*
X136198380Y-111037809D01*
X136246000Y-111133047D01*
X136293619Y-111180666D01*
X136436476Y-111275904D01*
X136626952Y-111323523D01*
X137007904Y-111323523D01*
X137103142Y-111275904D01*
X137150761Y-111228285D01*
X137198380Y-111133047D01*
X137198380Y-110942571D01*
X137150761Y-110847333D01*
X137103142Y-110799714D01*
X137007904Y-110752095D01*
X136769809Y-110752095D01*
X136674571Y-110799714D01*
X136626952Y-110847333D01*
X136579333Y-110942571D01*
X136579333Y-111133047D01*
X136626952Y-111228285D01*
X136674571Y-111275904D01*
X136769809Y-111323523D01*
%TO.C,J1*%
X116038380Y-96091333D02*
X116752666Y-96091333D01*
X116895523Y-96138952D01*
X116990761Y-96234190D01*
X117038380Y-96377047D01*
X117038380Y-96472285D01*
X117038380Y-95091333D02*
X117038380Y-95662761D01*
X117038380Y-95377047D02*
X116038380Y-95377047D01*
X116181238Y-95472285D01*
X116276476Y-95567523D01*
X116324095Y-95662761D01*
%TO.C,C22*%
X187380142Y-83763142D02*
X187332523Y-83810761D01*
X187189666Y-83858380D01*
X187094428Y-83858380D01*
X186951571Y-83810761D01*
X186856333Y-83715523D01*
X186808714Y-83620285D01*
X186761095Y-83429809D01*
X186761095Y-83286952D01*
X186808714Y-83096476D01*
X186856333Y-83001238D01*
X186951571Y-82906000D01*
X187094428Y-82858380D01*
X187189666Y-82858380D01*
X187332523Y-82906000D01*
X187380142Y-82953619D01*
X187761095Y-82953619D02*
X187808714Y-82906000D01*
X187903952Y-82858380D01*
X188142047Y-82858380D01*
X188237285Y-82906000D01*
X188284904Y-82953619D01*
X188332523Y-83048857D01*
X188332523Y-83144095D01*
X188284904Y-83286952D01*
X187713476Y-83858380D01*
X188332523Y-83858380D01*
X188713476Y-82953619D02*
X188761095Y-82906000D01*
X188856333Y-82858380D01*
X189094428Y-82858380D01*
X189189666Y-82906000D01*
X189237285Y-82953619D01*
X189284904Y-83048857D01*
X189284904Y-83144095D01*
X189237285Y-83286952D01*
X188665857Y-83858380D01*
X189284904Y-83858380D01*
%TO.C,SW2*%
X115466666Y-102354761D02*
X115609523Y-102402380D01*
X115847619Y-102402380D01*
X115942857Y-102354761D01*
X115990476Y-102307142D01*
X116038095Y-102211904D01*
X116038095Y-102116666D01*
X115990476Y-102021428D01*
X115942857Y-101973809D01*
X115847619Y-101926190D01*
X115657142Y-101878571D01*
X115561904Y-101830952D01*
X115514285Y-101783333D01*
X115466666Y-101688095D01*
X115466666Y-101592857D01*
X115514285Y-101497619D01*
X115561904Y-101450000D01*
X115657142Y-101402380D01*
X115895238Y-101402380D01*
X116038095Y-101450000D01*
X116371428Y-101402380D02*
X116609523Y-102402380D01*
X116800000Y-101688095D01*
X116990476Y-102402380D01*
X117228571Y-101402380D01*
X117561904Y-101497619D02*
X117609523Y-101450000D01*
X117704761Y-101402380D01*
X117942857Y-101402380D01*
X118038095Y-101450000D01*
X118085714Y-101497619D01*
X118133333Y-101592857D01*
X118133333Y-101688095D01*
X118085714Y-101830952D01*
X117514285Y-102402380D01*
X118133333Y-102402380D01*
%TO.C,C5*%
X124055142Y-100383246D02*
X124102761Y-100430865D01*
X124150380Y-100573722D01*
X124150380Y-100668960D01*
X124102761Y-100811818D01*
X124007523Y-100907056D01*
X123912285Y-100954675D01*
X123721809Y-101002294D01*
X123578952Y-101002294D01*
X123388476Y-100954675D01*
X123293238Y-100907056D01*
X123198000Y-100811818D01*
X123150380Y-100668960D01*
X123150380Y-100573722D01*
X123198000Y-100430865D01*
X123245619Y-100383246D01*
X123150380Y-99478484D02*
X123150380Y-99954675D01*
X123626571Y-100002294D01*
X123578952Y-99954675D01*
X123531333Y-99859437D01*
X123531333Y-99621341D01*
X123578952Y-99526103D01*
X123626571Y-99478484D01*
X123721809Y-99430865D01*
X123959904Y-99430865D01*
X124055142Y-99478484D01*
X124102761Y-99526103D01*
X124150380Y-99621341D01*
X124150380Y-99859437D01*
X124102761Y-99954675D01*
X124055142Y-100002294D01*
%TO.C,Q1*%
X122314761Y-90267619D02*
X122219523Y-90220000D01*
X122124285Y-90124761D01*
X121981428Y-89981904D01*
X121886190Y-89934285D01*
X121790952Y-89934285D01*
X121838571Y-90172380D02*
X121743333Y-90124761D01*
X121648095Y-90029523D01*
X121600476Y-89839047D01*
X121600476Y-89505714D01*
X121648095Y-89315238D01*
X121743333Y-89220000D01*
X121838571Y-89172380D01*
X122029047Y-89172380D01*
X122124285Y-89220000D01*
X122219523Y-89315238D01*
X122267142Y-89505714D01*
X122267142Y-89839047D01*
X122219523Y-90029523D01*
X122124285Y-90124761D01*
X122029047Y-90172380D01*
X121838571Y-90172380D01*
X123219523Y-90172380D02*
X122648095Y-90172380D01*
X122933809Y-90172380D02*
X122933809Y-89172380D01*
X122838571Y-89315238D01*
X122743333Y-89410476D01*
X122648095Y-89458095D01*
%TO.C,C2*%
X114497142Y-80176666D02*
X114544761Y-80224285D01*
X114592380Y-80367142D01*
X114592380Y-80462380D01*
X114544761Y-80605238D01*
X114449523Y-80700476D01*
X114354285Y-80748095D01*
X114163809Y-80795714D01*
X114020952Y-80795714D01*
X113830476Y-80748095D01*
X113735238Y-80700476D01*
X113640000Y-80605238D01*
X113592380Y-80462380D01*
X113592380Y-80367142D01*
X113640000Y-80224285D01*
X113687619Y-80176666D01*
X113687619Y-79795714D02*
X113640000Y-79748095D01*
X113592380Y-79652857D01*
X113592380Y-79414761D01*
X113640000Y-79319523D01*
X113687619Y-79271904D01*
X113782857Y-79224285D01*
X113878095Y-79224285D01*
X114020952Y-79271904D01*
X114592380Y-79843333D01*
X114592380Y-79224285D01*
%TO.C,C8*%
X135469333Y-109483142D02*
X135421714Y-109530761D01*
X135278857Y-109578380D01*
X135183619Y-109578380D01*
X135040761Y-109530761D01*
X134945523Y-109435523D01*
X134897904Y-109340285D01*
X134850285Y-109149809D01*
X134850285Y-109006952D01*
X134897904Y-108816476D01*
X134945523Y-108721238D01*
X135040761Y-108626000D01*
X135183619Y-108578380D01*
X135278857Y-108578380D01*
X135421714Y-108626000D01*
X135469333Y-108673619D01*
X136040761Y-109006952D02*
X135945523Y-108959333D01*
X135897904Y-108911714D01*
X135850285Y-108816476D01*
X135850285Y-108768857D01*
X135897904Y-108673619D01*
X135945523Y-108626000D01*
X136040761Y-108578380D01*
X136231238Y-108578380D01*
X136326476Y-108626000D01*
X136374095Y-108673619D01*
X136421714Y-108768857D01*
X136421714Y-108816476D01*
X136374095Y-108911714D01*
X136326476Y-108959333D01*
X136231238Y-109006952D01*
X136040761Y-109006952D01*
X135945523Y-109054571D01*
X135897904Y-109102190D01*
X135850285Y-109197428D01*
X135850285Y-109387904D01*
X135897904Y-109483142D01*
X135945523Y-109530761D01*
X136040761Y-109578380D01*
X136231238Y-109578380D01*
X136326476Y-109530761D01*
X136374095Y-109483142D01*
X136421714Y-109387904D01*
X136421714Y-109197428D01*
X136374095Y-109102190D01*
X136326476Y-109054571D01*
X136231238Y-109006952D01*
%TO.C,R4*%
X132167333Y-90716380D02*
X131834000Y-90240190D01*
X131595904Y-90716380D02*
X131595904Y-89716380D01*
X131976857Y-89716380D01*
X132072095Y-89764000D01*
X132119714Y-89811619D01*
X132167333Y-89906857D01*
X132167333Y-90049714D01*
X132119714Y-90144952D01*
X132072095Y-90192571D01*
X131976857Y-90240190D01*
X131595904Y-90240190D01*
X133024476Y-90049714D02*
X133024476Y-90716380D01*
X132786380Y-89668761D02*
X132548285Y-90383047D01*
X133167333Y-90383047D01*
%TO.C,C15*%
X168775142Y-92399142D02*
X168727523Y-92446761D01*
X168584666Y-92494380D01*
X168489428Y-92494380D01*
X168346571Y-92446761D01*
X168251333Y-92351523D01*
X168203714Y-92256285D01*
X168156095Y-92065809D01*
X168156095Y-91922952D01*
X168203714Y-91732476D01*
X168251333Y-91637238D01*
X168346571Y-91542000D01*
X168489428Y-91494380D01*
X168584666Y-91494380D01*
X168727523Y-91542000D01*
X168775142Y-91589619D01*
X169727523Y-92494380D02*
X169156095Y-92494380D01*
X169441809Y-92494380D02*
X169441809Y-91494380D01*
X169346571Y-91637238D01*
X169251333Y-91732476D01*
X169156095Y-91780095D01*
X170632285Y-91494380D02*
X170156095Y-91494380D01*
X170108476Y-91970571D01*
X170156095Y-91922952D01*
X170251333Y-91875333D01*
X170489428Y-91875333D01*
X170584666Y-91922952D01*
X170632285Y-91970571D01*
X170679904Y-92065809D01*
X170679904Y-92303904D01*
X170632285Y-92399142D01*
X170584666Y-92446761D01*
X170489428Y-92494380D01*
X170251333Y-92494380D01*
X170156095Y-92446761D01*
X170108476Y-92399142D01*
%TO.C,R3*%
X118705333Y-84686380D02*
X118372000Y-84210190D01*
X118133904Y-84686380D02*
X118133904Y-83686380D01*
X118514857Y-83686380D01*
X118610095Y-83734000D01*
X118657714Y-83781619D01*
X118705333Y-83876857D01*
X118705333Y-84019714D01*
X118657714Y-84114952D01*
X118610095Y-84162571D01*
X118514857Y-84210190D01*
X118133904Y-84210190D01*
X119038666Y-83686380D02*
X119657714Y-83686380D01*
X119324380Y-84067333D01*
X119467238Y-84067333D01*
X119562476Y-84114952D01*
X119610095Y-84162571D01*
X119657714Y-84257809D01*
X119657714Y-84495904D01*
X119610095Y-84591142D01*
X119562476Y-84638761D01*
X119467238Y-84686380D01*
X119181523Y-84686380D01*
X119086285Y-84638761D01*
X119038666Y-84591142D01*
%TO.C,U2*%
X128144095Y-101414380D02*
X128144095Y-102223904D01*
X128191714Y-102319142D01*
X128239333Y-102366761D01*
X128334571Y-102414380D01*
X128525047Y-102414380D01*
X128620285Y-102366761D01*
X128667904Y-102319142D01*
X128715523Y-102223904D01*
X128715523Y-101414380D01*
X129144095Y-101509619D02*
X129191714Y-101462000D01*
X129286952Y-101414380D01*
X129525047Y-101414380D01*
X129620285Y-101462000D01*
X129667904Y-101509619D01*
X129715523Y-101604857D01*
X129715523Y-101700095D01*
X129667904Y-101842952D01*
X129096476Y-102414380D01*
X129715523Y-102414380D01*
%TO.C,Q3*%
X172164761Y-81731619D02*
X172069523Y-81684000D01*
X171974285Y-81588761D01*
X171831428Y-81445904D01*
X171736190Y-81398285D01*
X171640952Y-81398285D01*
X171688571Y-81636380D02*
X171593333Y-81588761D01*
X171498095Y-81493523D01*
X171450476Y-81303047D01*
X171450476Y-80969714D01*
X171498095Y-80779238D01*
X171593333Y-80684000D01*
X171688571Y-80636380D01*
X171879047Y-80636380D01*
X171974285Y-80684000D01*
X172069523Y-80779238D01*
X172117142Y-80969714D01*
X172117142Y-81303047D01*
X172069523Y-81493523D01*
X171974285Y-81588761D01*
X171879047Y-81636380D01*
X171688571Y-81636380D01*
X172450476Y-80636380D02*
X173069523Y-80636380D01*
X172736190Y-81017333D01*
X172879047Y-81017333D01*
X172974285Y-81064952D01*
X173021904Y-81112571D01*
X173069523Y-81207809D01*
X173069523Y-81445904D01*
X173021904Y-81541142D01*
X172974285Y-81588761D01*
X172879047Y-81636380D01*
X172593333Y-81636380D01*
X172498095Y-81588761D01*
X172450476Y-81541142D01*
%TO.C,U3*%
X129286095Y-85558380D02*
X129286095Y-86367904D01*
X129333714Y-86463142D01*
X129381333Y-86510761D01*
X129476571Y-86558380D01*
X129667047Y-86558380D01*
X129762285Y-86510761D01*
X129809904Y-86463142D01*
X129857523Y-86367904D01*
X129857523Y-85558380D01*
X130238476Y-85558380D02*
X130857523Y-85558380D01*
X130524190Y-85939333D01*
X130667047Y-85939333D01*
X130762285Y-85986952D01*
X130809904Y-86034571D01*
X130857523Y-86129809D01*
X130857523Y-86367904D01*
X130809904Y-86463142D01*
X130762285Y-86510761D01*
X130667047Y-86558380D01*
X130381333Y-86558380D01*
X130286095Y-86510761D01*
X130238476Y-86463142D01*
%TO.C,D2*%
X129563904Y-81384380D02*
X129563904Y-80384380D01*
X129802000Y-80384380D01*
X129944857Y-80432000D01*
X130040095Y-80527238D01*
X130087714Y-80622476D01*
X130135333Y-80812952D01*
X130135333Y-80955809D01*
X130087714Y-81146285D01*
X130040095Y-81241523D01*
X129944857Y-81336761D01*
X129802000Y-81384380D01*
X129563904Y-81384380D01*
X130516285Y-80479619D02*
X130563904Y-80432000D01*
X130659142Y-80384380D01*
X130897238Y-80384380D01*
X130992476Y-80432000D01*
X131040095Y-80479619D01*
X131087714Y-80574857D01*
X131087714Y-80670095D01*
X131040095Y-80812952D01*
X130468666Y-81384380D01*
X131087714Y-81384380D01*
%TO.C,D3*%
X163345904Y-91416380D02*
X163345904Y-90416380D01*
X163584000Y-90416380D01*
X163726857Y-90464000D01*
X163822095Y-90559238D01*
X163869714Y-90654476D01*
X163917333Y-90844952D01*
X163917333Y-90987809D01*
X163869714Y-91178285D01*
X163822095Y-91273523D01*
X163726857Y-91368761D01*
X163584000Y-91416380D01*
X163345904Y-91416380D01*
X164250666Y-90416380D02*
X164869714Y-90416380D01*
X164536380Y-90797333D01*
X164679238Y-90797333D01*
X164774476Y-90844952D01*
X164822095Y-90892571D01*
X164869714Y-90987809D01*
X164869714Y-91225904D01*
X164822095Y-91321142D01*
X164774476Y-91368761D01*
X164679238Y-91416380D01*
X164393523Y-91416380D01*
X164298285Y-91368761D01*
X164250666Y-91321142D01*
%TO.C,C14*%
X191902142Y-106369142D02*
X191854523Y-106416761D01*
X191711666Y-106464380D01*
X191616428Y-106464380D01*
X191473571Y-106416761D01*
X191378333Y-106321523D01*
X191330714Y-106226285D01*
X191283095Y-106035809D01*
X191283095Y-105892952D01*
X191330714Y-105702476D01*
X191378333Y-105607238D01*
X191473571Y-105512000D01*
X191616428Y-105464380D01*
X191711666Y-105464380D01*
X191854523Y-105512000D01*
X191902142Y-105559619D01*
X192854523Y-106464380D02*
X192283095Y-106464380D01*
X192568809Y-106464380D02*
X192568809Y-105464380D01*
X192473571Y-105607238D01*
X192378333Y-105702476D01*
X192283095Y-105750095D01*
X193711666Y-105797714D02*
X193711666Y-106464380D01*
X193473571Y-105416761D02*
X193235476Y-106131047D01*
X193854523Y-106131047D01*
%TO.C,R2*%
X127849333Y-90970380D02*
X127516000Y-90494190D01*
X127277904Y-90970380D02*
X127277904Y-89970380D01*
X127658857Y-89970380D01*
X127754095Y-90018000D01*
X127801714Y-90065619D01*
X127849333Y-90160857D01*
X127849333Y-90303714D01*
X127801714Y-90398952D01*
X127754095Y-90446571D01*
X127658857Y-90494190D01*
X127277904Y-90494190D01*
X128230285Y-90065619D02*
X128277904Y-90018000D01*
X128373142Y-89970380D01*
X128611238Y-89970380D01*
X128706476Y-90018000D01*
X128754095Y-90065619D01*
X128801714Y-90160857D01*
X128801714Y-90256095D01*
X128754095Y-90398952D01*
X128182666Y-90970380D01*
X128801714Y-90970380D01*
%TO.C,R10*%
X163277142Y-85996380D02*
X162943809Y-85520190D01*
X162705714Y-85996380D02*
X162705714Y-84996380D01*
X163086666Y-84996380D01*
X163181904Y-85044000D01*
X163229523Y-85091619D01*
X163277142Y-85186857D01*
X163277142Y-85329714D01*
X163229523Y-85424952D01*
X163181904Y-85472571D01*
X163086666Y-85520190D01*
X162705714Y-85520190D01*
X164229523Y-85996380D02*
X163658095Y-85996380D01*
X163943809Y-85996380D02*
X163943809Y-84996380D01*
X163848571Y-85139238D01*
X163753333Y-85234476D01*
X163658095Y-85282095D01*
X164848571Y-84996380D02*
X164943809Y-84996380D01*
X165039047Y-85044000D01*
X165086666Y-85091619D01*
X165134285Y-85186857D01*
X165181904Y-85377333D01*
X165181904Y-85615428D01*
X165134285Y-85805904D01*
X165086666Y-85901142D01*
X165039047Y-85948761D01*
X164943809Y-85996380D01*
X164848571Y-85996380D01*
X164753333Y-85948761D01*
X164705714Y-85901142D01*
X164658095Y-85805904D01*
X164610476Y-85615428D01*
X164610476Y-85377333D01*
X164658095Y-85186857D01*
X164705714Y-85091619D01*
X164753333Y-85044000D01*
X164848571Y-84996380D01*
%TO.C,C23*%
X155965142Y-109100857D02*
X156012761Y-109148476D01*
X156060380Y-109291333D01*
X156060380Y-109386571D01*
X156012761Y-109529428D01*
X155917523Y-109624666D01*
X155822285Y-109672285D01*
X155631809Y-109719904D01*
X155488952Y-109719904D01*
X155298476Y-109672285D01*
X155203238Y-109624666D01*
X155108000Y-109529428D01*
X155060380Y-109386571D01*
X155060380Y-109291333D01*
X155108000Y-109148476D01*
X155155619Y-109100857D01*
X155155619Y-108719904D02*
X155108000Y-108672285D01*
X155060380Y-108577047D01*
X155060380Y-108338952D01*
X155108000Y-108243714D01*
X155155619Y-108196095D01*
X155250857Y-108148476D01*
X155346095Y-108148476D01*
X155488952Y-108196095D01*
X156060380Y-108767523D01*
X156060380Y-108148476D01*
X155060380Y-107815142D02*
X155060380Y-107196095D01*
X155441333Y-107529428D01*
X155441333Y-107386571D01*
X155488952Y-107291333D01*
X155536571Y-107243714D01*
X155631809Y-107196095D01*
X155869904Y-107196095D01*
X155965142Y-107243714D01*
X156012761Y-107291333D01*
X156060380Y-107386571D01*
X156060380Y-107672285D01*
X156012761Y-107767523D01*
X155965142Y-107815142D01*
%TO.C,R1*%
X163726333Y-82804380D02*
X163393000Y-82328190D01*
X163154904Y-82804380D02*
X163154904Y-81804380D01*
X163535857Y-81804380D01*
X163631095Y-81852000D01*
X163678714Y-81899619D01*
X163726333Y-81994857D01*
X163726333Y-82137714D01*
X163678714Y-82232952D01*
X163631095Y-82280571D01*
X163535857Y-82328190D01*
X163154904Y-82328190D01*
X164678714Y-82804380D02*
X164107285Y-82804380D01*
X164393000Y-82804380D02*
X164393000Y-81804380D01*
X164297761Y-81947238D01*
X164202523Y-82042476D01*
X164107285Y-82090095D01*
%TO.C,D5*%
X160043904Y-104814380D02*
X160043904Y-103814380D01*
X160282000Y-103814380D01*
X160424857Y-103862000D01*
X160520095Y-103957238D01*
X160567714Y-104052476D01*
X160615333Y-104242952D01*
X160615333Y-104385809D01*
X160567714Y-104576285D01*
X160520095Y-104671523D01*
X160424857Y-104766761D01*
X160282000Y-104814380D01*
X160043904Y-104814380D01*
X161520095Y-103814380D02*
X161043904Y-103814380D01*
X160996285Y-104290571D01*
X161043904Y-104242952D01*
X161139142Y-104195333D01*
X161377238Y-104195333D01*
X161472476Y-104242952D01*
X161520095Y-104290571D01*
X161567714Y-104385809D01*
X161567714Y-104623904D01*
X161520095Y-104719142D01*
X161472476Y-104766761D01*
X161377238Y-104814380D01*
X161139142Y-104814380D01*
X161043904Y-104766761D01*
X160996285Y-104719142D01*
%TO.C,C17*%
X179456142Y-91129142D02*
X179408523Y-91176761D01*
X179265666Y-91224380D01*
X179170428Y-91224380D01*
X179027571Y-91176761D01*
X178932333Y-91081523D01*
X178884714Y-90986285D01*
X178837095Y-90795809D01*
X178837095Y-90652952D01*
X178884714Y-90462476D01*
X178932333Y-90367238D01*
X179027571Y-90272000D01*
X179170428Y-90224380D01*
X179265666Y-90224380D01*
X179408523Y-90272000D01*
X179456142Y-90319619D01*
X180408523Y-91224380D02*
X179837095Y-91224380D01*
X180122809Y-91224380D02*
X180122809Y-90224380D01*
X180027571Y-90367238D01*
X179932333Y-90462476D01*
X179837095Y-90510095D01*
X180741857Y-90224380D02*
X181408523Y-90224380D01*
X180979952Y-91224380D01*
%TO.C,J4*%
X191952380Y-96483333D02*
X192666666Y-96483333D01*
X192809523Y-96530952D01*
X192904761Y-96626190D01*
X192952380Y-96769047D01*
X192952380Y-96864285D01*
X192285714Y-95578571D02*
X192952380Y-95578571D01*
X191904761Y-95816666D02*
X192619047Y-96054761D01*
X192619047Y-95435714D01*
%TO.C,R9*%
X125817333Y-81478380D02*
X125484000Y-81002190D01*
X125245904Y-81478380D02*
X125245904Y-80478380D01*
X125626857Y-80478380D01*
X125722095Y-80526000D01*
X125769714Y-80573619D01*
X125817333Y-80668857D01*
X125817333Y-80811714D01*
X125769714Y-80906952D01*
X125722095Y-80954571D01*
X125626857Y-81002190D01*
X125245904Y-81002190D01*
X126293523Y-81478380D02*
X126484000Y-81478380D01*
X126579238Y-81430761D01*
X126626857Y-81383142D01*
X126722095Y-81240285D01*
X126769714Y-81049809D01*
X126769714Y-80668857D01*
X126722095Y-80573619D01*
X126674476Y-80526000D01*
X126579238Y-80478380D01*
X126388761Y-80478380D01*
X126293523Y-80526000D01*
X126245904Y-80573619D01*
X126198285Y-80668857D01*
X126198285Y-80906952D01*
X126245904Y-81002190D01*
X126293523Y-81049809D01*
X126388761Y-81097428D01*
X126579238Y-81097428D01*
X126674476Y-81049809D01*
X126722095Y-81002190D01*
X126769714Y-80906952D01*
%TO.C,R11*%
X173855142Y-83604380D02*
X173521809Y-83128190D01*
X173283714Y-83604380D02*
X173283714Y-82604380D01*
X173664666Y-82604380D01*
X173759904Y-82652000D01*
X173807523Y-82699619D01*
X173855142Y-82794857D01*
X173855142Y-82937714D01*
X173807523Y-83032952D01*
X173759904Y-83080571D01*
X173664666Y-83128190D01*
X173283714Y-83128190D01*
X174807523Y-83604380D02*
X174236095Y-83604380D01*
X174521809Y-83604380D02*
X174521809Y-82604380D01*
X174426571Y-82747238D01*
X174331333Y-82842476D01*
X174236095Y-82890095D01*
X175759904Y-83604380D02*
X175188476Y-83604380D01*
X175474190Y-83604380D02*
X175474190Y-82604380D01*
X175378952Y-82747238D01*
X175283714Y-82842476D01*
X175188476Y-82890095D01*
%TO.C,C6*%
X173174753Y-96369142D02*
X173127134Y-96416761D01*
X172984277Y-96464380D01*
X172889039Y-96464380D01*
X172746181Y-96416761D01*
X172650943Y-96321523D01*
X172603324Y-96226285D01*
X172555705Y-96035809D01*
X172555705Y-95892952D01*
X172603324Y-95702476D01*
X172650943Y-95607238D01*
X172746181Y-95512000D01*
X172889039Y-95464380D01*
X172984277Y-95464380D01*
X173127134Y-95512000D01*
X173174753Y-95559619D01*
X174031896Y-95464380D02*
X173841420Y-95464380D01*
X173746181Y-95512000D01*
X173698562Y-95559619D01*
X173603324Y-95702476D01*
X173555705Y-95892952D01*
X173555705Y-96273904D01*
X173603324Y-96369142D01*
X173650943Y-96416761D01*
X173746181Y-96464380D01*
X173936658Y-96464380D01*
X174031896Y-96416761D01*
X174079515Y-96369142D01*
X174127134Y-96273904D01*
X174127134Y-96035809D01*
X174079515Y-95940571D01*
X174031896Y-95892952D01*
X173936658Y-95845333D01*
X173746181Y-95845333D01*
X173650943Y-95892952D01*
X173603324Y-95940571D01*
X173555705Y-96035809D01*
%TO.C,C13*%
X191889142Y-110687142D02*
X191841523Y-110734761D01*
X191698666Y-110782380D01*
X191603428Y-110782380D01*
X191460571Y-110734761D01*
X191365333Y-110639523D01*
X191317714Y-110544285D01*
X191270095Y-110353809D01*
X191270095Y-110210952D01*
X191317714Y-110020476D01*
X191365333Y-109925238D01*
X191460571Y-109830000D01*
X191603428Y-109782380D01*
X191698666Y-109782380D01*
X191841523Y-109830000D01*
X191889142Y-109877619D01*
X192841523Y-110782380D02*
X192270095Y-110782380D01*
X192555809Y-110782380D02*
X192555809Y-109782380D01*
X192460571Y-109925238D01*
X192365333Y-110020476D01*
X192270095Y-110068095D01*
X193174857Y-109782380D02*
X193793904Y-109782380D01*
X193460571Y-110163333D01*
X193603428Y-110163333D01*
X193698666Y-110210952D01*
X193746285Y-110258571D01*
X193793904Y-110353809D01*
X193793904Y-110591904D01*
X193746285Y-110687142D01*
X193698666Y-110734761D01*
X193603428Y-110782380D01*
X193317714Y-110782380D01*
X193222476Y-110734761D01*
X193174857Y-110687142D01*
%TO.C,C7*%
X134883142Y-100496666D02*
X134930761Y-100544285D01*
X134978380Y-100687142D01*
X134978380Y-100782380D01*
X134930761Y-100925238D01*
X134835523Y-101020476D01*
X134740285Y-101068095D01*
X134549809Y-101115714D01*
X134406952Y-101115714D01*
X134216476Y-101068095D01*
X134121238Y-101020476D01*
X134026000Y-100925238D01*
X133978380Y-100782380D01*
X133978380Y-100687142D01*
X134026000Y-100544285D01*
X134073619Y-100496666D01*
X133978380Y-100163333D02*
X133978380Y-99496666D01*
X134978380Y-99925238D01*
%TO.C,R13*%
X158077142Y-86304380D02*
X157743809Y-85828190D01*
X157505714Y-86304380D02*
X157505714Y-85304380D01*
X157886666Y-85304380D01*
X157981904Y-85352000D01*
X158029523Y-85399619D01*
X158077142Y-85494857D01*
X158077142Y-85637714D01*
X158029523Y-85732952D01*
X157981904Y-85780571D01*
X157886666Y-85828190D01*
X157505714Y-85828190D01*
X159029523Y-86304380D02*
X158458095Y-86304380D01*
X158743809Y-86304380D02*
X158743809Y-85304380D01*
X158648571Y-85447238D01*
X158553333Y-85542476D01*
X158458095Y-85590095D01*
X159362857Y-85304380D02*
X159981904Y-85304380D01*
X159648571Y-85685333D01*
X159791428Y-85685333D01*
X159886666Y-85732952D01*
X159934285Y-85780571D01*
X159981904Y-85875809D01*
X159981904Y-86113904D01*
X159934285Y-86209142D01*
X159886666Y-86256761D01*
X159791428Y-86304380D01*
X159505714Y-86304380D01*
X159410476Y-86256761D01*
X159362857Y-86209142D01*
%TO.C,C21*%
X191190142Y-83763142D02*
X191142523Y-83810761D01*
X190999666Y-83858380D01*
X190904428Y-83858380D01*
X190761571Y-83810761D01*
X190666333Y-83715523D01*
X190618714Y-83620285D01*
X190571095Y-83429809D01*
X190571095Y-83286952D01*
X190618714Y-83096476D01*
X190666333Y-83001238D01*
X190761571Y-82906000D01*
X190904428Y-82858380D01*
X190999666Y-82858380D01*
X191142523Y-82906000D01*
X191190142Y-82953619D01*
X191571095Y-82953619D02*
X191618714Y-82906000D01*
X191713952Y-82858380D01*
X191952047Y-82858380D01*
X192047285Y-82906000D01*
X192094904Y-82953619D01*
X192142523Y-83048857D01*
X192142523Y-83144095D01*
X192094904Y-83286952D01*
X191523476Y-83858380D01*
X192142523Y-83858380D01*
X193094904Y-83858380D02*
X192523476Y-83858380D01*
X192809190Y-83858380D02*
X192809190Y-82858380D01*
X192713952Y-83001238D01*
X192618714Y-83096476D01*
X192523476Y-83144095D01*
%TO.C,U1*%
X145542095Y-88860380D02*
X145542095Y-89669904D01*
X145589714Y-89765142D01*
X145637333Y-89812761D01*
X145732571Y-89860380D01*
X145923047Y-89860380D01*
X146018285Y-89812761D01*
X146065904Y-89765142D01*
X146113523Y-89669904D01*
X146113523Y-88860380D01*
X147113523Y-89860380D02*
X146542095Y-89860380D01*
X146827809Y-89860380D02*
X146827809Y-88860380D01*
X146732571Y-89003238D01*
X146637333Y-89098476D01*
X146542095Y-89146095D01*
X141542095Y-81301666D02*
X142018285Y-81301666D01*
X141446857Y-81587380D02*
X141780190Y-80587380D01*
X142113523Y-81587380D01*
X142446857Y-80920714D02*
X142446857Y-81587380D01*
X142446857Y-81015952D02*
X142494476Y-80968333D01*
X142589714Y-80920714D01*
X142732571Y-80920714D01*
X142827809Y-80968333D01*
X142875428Y-81063571D01*
X142875428Y-81587380D01*
X143208761Y-80920714D02*
X143589714Y-80920714D01*
X143351619Y-80587380D02*
X143351619Y-81444523D01*
X143399238Y-81539761D01*
X143494476Y-81587380D01*
X143589714Y-81587380D01*
X144304000Y-81539761D02*
X144208761Y-81587380D01*
X144018285Y-81587380D01*
X143923047Y-81539761D01*
X143875428Y-81444523D01*
X143875428Y-81063571D01*
X143923047Y-80968333D01*
X144018285Y-80920714D01*
X144208761Y-80920714D01*
X144304000Y-80968333D01*
X144351619Y-81063571D01*
X144351619Y-81158809D01*
X143875428Y-81254047D01*
X144780190Y-80920714D02*
X144780190Y-81587380D01*
X144780190Y-81015952D02*
X144827809Y-80968333D01*
X144923047Y-80920714D01*
X145065904Y-80920714D01*
X145161142Y-80968333D01*
X145208761Y-81063571D01*
X145208761Y-81587380D01*
X145684952Y-80920714D02*
X145684952Y-81587380D01*
X145684952Y-81015952D02*
X145732571Y-80968333D01*
X145827809Y-80920714D01*
X145970666Y-80920714D01*
X146065904Y-80968333D01*
X146113523Y-81063571D01*
X146113523Y-81587380D01*
X147018285Y-81587380D02*
X147018285Y-81063571D01*
X146970666Y-80968333D01*
X146875428Y-80920714D01*
X146684952Y-80920714D01*
X146589714Y-80968333D01*
X147018285Y-81539761D02*
X146923047Y-81587380D01*
X146684952Y-81587380D01*
X146589714Y-81539761D01*
X146542095Y-81444523D01*
X146542095Y-81349285D01*
X146589714Y-81254047D01*
X146684952Y-81206428D01*
X146923047Y-81206428D01*
X147018285Y-81158809D01*
X148208761Y-81301666D02*
X148684952Y-81301666D01*
X148113523Y-81587380D02*
X148446857Y-80587380D01*
X148780190Y-81587380D01*
X149113523Y-81587380D02*
X149113523Y-80920714D01*
X149113523Y-81111190D02*
X149161142Y-81015952D01*
X149208761Y-80968333D01*
X149304000Y-80920714D01*
X149399238Y-80920714D01*
X150113523Y-81539761D02*
X150018285Y-81587380D01*
X149827809Y-81587380D01*
X149732571Y-81539761D01*
X149684952Y-81444523D01*
X149684952Y-81063571D01*
X149732571Y-80968333D01*
X149827809Y-80920714D01*
X150018285Y-80920714D01*
X150113523Y-80968333D01*
X150161142Y-81063571D01*
X150161142Y-81158809D01*
X149684952Y-81254047D01*
X151018285Y-81587380D02*
X151018285Y-81063571D01*
X150970666Y-80968333D01*
X150875428Y-80920714D01*
X150684952Y-80920714D01*
X150589714Y-80968333D01*
X151018285Y-81539761D02*
X150923047Y-81587380D01*
X150684952Y-81587380D01*
X150589714Y-81539761D01*
X150542095Y-81444523D01*
X150542095Y-81349285D01*
X150589714Y-81254047D01*
X150684952Y-81206428D01*
X150923047Y-81206428D01*
X151018285Y-81158809D01*
%TO.C,L1*%
X169251333Y-84620380D02*
X168775142Y-84620380D01*
X168775142Y-83620380D01*
X170108476Y-84620380D02*
X169537047Y-84620380D01*
X169822761Y-84620380D02*
X169822761Y-83620380D01*
X169727523Y-83763238D01*
X169632285Y-83858476D01*
X169537047Y-83906095D01*
%TO.C,R8*%
X127087333Y-97640380D02*
X126754000Y-97164190D01*
X126515904Y-97640380D02*
X126515904Y-96640380D01*
X126896857Y-96640380D01*
X126992095Y-96688000D01*
X127039714Y-96735619D01*
X127087333Y-96830857D01*
X127087333Y-96973714D01*
X127039714Y-97068952D01*
X126992095Y-97116571D01*
X126896857Y-97164190D01*
X126515904Y-97164190D01*
X127658761Y-97068952D02*
X127563523Y-97021333D01*
X127515904Y-96973714D01*
X127468285Y-96878476D01*
X127468285Y-96830857D01*
X127515904Y-96735619D01*
X127563523Y-96688000D01*
X127658761Y-96640380D01*
X127849238Y-96640380D01*
X127944476Y-96688000D01*
X127992095Y-96735619D01*
X128039714Y-96830857D01*
X128039714Y-96878476D01*
X127992095Y-96973714D01*
X127944476Y-97021333D01*
X127849238Y-97068952D01*
X127658761Y-97068952D01*
X127563523Y-97116571D01*
X127515904Y-97164190D01*
X127468285Y-97259428D01*
X127468285Y-97449904D01*
X127515904Y-97545142D01*
X127563523Y-97592761D01*
X127658761Y-97640380D01*
X127849238Y-97640380D01*
X127944476Y-97592761D01*
X127992095Y-97545142D01*
X128039714Y-97449904D01*
X128039714Y-97259428D01*
X127992095Y-97164190D01*
X127944476Y-97116571D01*
X127849238Y-97068952D01*
%TO.C,C16*%
X173867142Y-87573142D02*
X173819523Y-87620761D01*
X173676666Y-87668380D01*
X173581428Y-87668380D01*
X173438571Y-87620761D01*
X173343333Y-87525523D01*
X173295714Y-87430285D01*
X173248095Y-87239809D01*
X173248095Y-87096952D01*
X173295714Y-86906476D01*
X173343333Y-86811238D01*
X173438571Y-86716000D01*
X173581428Y-86668380D01*
X173676666Y-86668380D01*
X173819523Y-86716000D01*
X173867142Y-86763619D01*
X174819523Y-87668380D02*
X174248095Y-87668380D01*
X174533809Y-87668380D02*
X174533809Y-86668380D01*
X174438571Y-86811238D01*
X174343333Y-86906476D01*
X174248095Y-86954095D01*
X175676666Y-86668380D02*
X175486190Y-86668380D01*
X175390952Y-86716000D01*
X175343333Y-86763619D01*
X175248095Y-86906476D01*
X175200476Y-87096952D01*
X175200476Y-87477904D01*
X175248095Y-87573142D01*
X175295714Y-87620761D01*
X175390952Y-87668380D01*
X175581428Y-87668380D01*
X175676666Y-87620761D01*
X175724285Y-87573142D01*
X175771904Y-87477904D01*
X175771904Y-87239809D01*
X175724285Y-87144571D01*
X175676666Y-87096952D01*
X175581428Y-87049333D01*
X175390952Y-87049333D01*
X175295714Y-87096952D01*
X175248095Y-87144571D01*
X175200476Y-87239809D01*
%TO.C,R7*%
X121816333Y-108816380D02*
X121483000Y-108340190D01*
X121244904Y-108816380D02*
X121244904Y-107816380D01*
X121625857Y-107816380D01*
X121721095Y-107864000D01*
X121768714Y-107911619D01*
X121816333Y-108006857D01*
X121816333Y-108149714D01*
X121768714Y-108244952D01*
X121721095Y-108292571D01*
X121625857Y-108340190D01*
X121244904Y-108340190D01*
X122149666Y-107816380D02*
X122816333Y-107816380D01*
X122387761Y-108816380D01*
%TO.C,R6*%
X115418333Y-107197380D02*
X115085000Y-106721190D01*
X114846904Y-107197380D02*
X114846904Y-106197380D01*
X115227857Y-106197380D01*
X115323095Y-106245000D01*
X115370714Y-106292619D01*
X115418333Y-106387857D01*
X115418333Y-106530714D01*
X115370714Y-106625952D01*
X115323095Y-106673571D01*
X115227857Y-106721190D01*
X114846904Y-106721190D01*
X116275476Y-106197380D02*
X116085000Y-106197380D01*
X115989761Y-106245000D01*
X115942142Y-106292619D01*
X115846904Y-106435476D01*
X115799285Y-106625952D01*
X115799285Y-107006904D01*
X115846904Y-107102142D01*
X115894523Y-107149761D01*
X115989761Y-107197380D01*
X116180238Y-107197380D01*
X116275476Y-107149761D01*
X116323095Y-107102142D01*
X116370714Y-107006904D01*
X116370714Y-106768809D01*
X116323095Y-106673571D01*
X116275476Y-106625952D01*
X116180238Y-106578333D01*
X115989761Y-106578333D01*
X115894523Y-106625952D01*
X115846904Y-106673571D01*
X115799285Y-106768809D01*
%TO.C,R17*%
X184188380Y-103258857D02*
X183712190Y-103592190D01*
X184188380Y-103830285D02*
X183188380Y-103830285D01*
X183188380Y-103449333D01*
X183236000Y-103354095D01*
X183283619Y-103306476D01*
X183378857Y-103258857D01*
X183521714Y-103258857D01*
X183616952Y-103306476D01*
X183664571Y-103354095D01*
X183712190Y-103449333D01*
X183712190Y-103830285D01*
X184188380Y-102306476D02*
X184188380Y-102877904D01*
X184188380Y-102592190D02*
X183188380Y-102592190D01*
X183331238Y-102687428D01*
X183426476Y-102782666D01*
X183474095Y-102877904D01*
X183188380Y-101973142D02*
X183188380Y-101306476D01*
X184188380Y-101735047D01*
%TO.C,D4*%
X158519904Y-110720380D02*
X158519904Y-109720380D01*
X158758000Y-109720380D01*
X158900857Y-109768000D01*
X158996095Y-109863238D01*
X159043714Y-109958476D01*
X159091333Y-110148952D01*
X159091333Y-110291809D01*
X159043714Y-110482285D01*
X158996095Y-110577523D01*
X158900857Y-110672761D01*
X158758000Y-110720380D01*
X158519904Y-110720380D01*
X159948476Y-110053714D02*
X159948476Y-110720380D01*
X159710380Y-109672761D02*
X159472285Y-110387047D01*
X160091333Y-110387047D01*
%TO.C,R19*%
X145580380Y-112656857D02*
X145104190Y-112990190D01*
X145580380Y-113228285D02*
X144580380Y-113228285D01*
X144580380Y-112847333D01*
X144628000Y-112752095D01*
X144675619Y-112704476D01*
X144770857Y-112656857D01*
X144913714Y-112656857D01*
X145008952Y-112704476D01*
X145056571Y-112752095D01*
X145104190Y-112847333D01*
X145104190Y-113228285D01*
X145580380Y-111704476D02*
X145580380Y-112275904D01*
X145580380Y-111990190D02*
X144580380Y-111990190D01*
X144723238Y-112085428D01*
X144818476Y-112180666D01*
X144866095Y-112275904D01*
X145580380Y-111228285D02*
X145580380Y-111037809D01*
X145532761Y-110942571D01*
X145485142Y-110894952D01*
X145342285Y-110799714D01*
X145151809Y-110752095D01*
X144770857Y-110752095D01*
X144675619Y-110799714D01*
X144628000Y-110847333D01*
X144580380Y-110942571D01*
X144580380Y-111133047D01*
X144628000Y-111228285D01*
X144675619Y-111275904D01*
X144770857Y-111323523D01*
X145008952Y-111323523D01*
X145104190Y-111275904D01*
X145151809Y-111228285D01*
X145199428Y-111133047D01*
X145199428Y-110942571D01*
X145151809Y-110847333D01*
X145104190Y-110799714D01*
X145008952Y-110752095D01*
%TO.C,R5*%
X123468333Y-84686380D02*
X123135000Y-84210190D01*
X122896904Y-84686380D02*
X122896904Y-83686380D01*
X123277857Y-83686380D01*
X123373095Y-83734000D01*
X123420714Y-83781619D01*
X123468333Y-83876857D01*
X123468333Y-84019714D01*
X123420714Y-84114952D01*
X123373095Y-84162571D01*
X123277857Y-84210190D01*
X122896904Y-84210190D01*
X124373095Y-83686380D02*
X123896904Y-83686380D01*
X123849285Y-84162571D01*
X123896904Y-84114952D01*
X123992142Y-84067333D01*
X124230238Y-84067333D01*
X124325476Y-84114952D01*
X124373095Y-84162571D01*
X124420714Y-84257809D01*
X124420714Y-84495904D01*
X124373095Y-84591142D01*
X124325476Y-84638761D01*
X124230238Y-84686380D01*
X123992142Y-84686380D01*
X123896904Y-84638761D01*
X123849285Y-84591142D01*
%TO.C,Q2*%
X119077619Y-111915238D02*
X119030000Y-112010476D01*
X118934761Y-112105714D01*
X118791904Y-112248571D01*
X118744285Y-112343809D01*
X118744285Y-112439047D01*
X118982380Y-112391428D02*
X118934761Y-112486666D01*
X118839523Y-112581904D01*
X118649047Y-112629523D01*
X118315714Y-112629523D01*
X118125238Y-112581904D01*
X118030000Y-112486666D01*
X117982380Y-112391428D01*
X117982380Y-112200952D01*
X118030000Y-112105714D01*
X118125238Y-112010476D01*
X118315714Y-111962857D01*
X118649047Y-111962857D01*
X118839523Y-112010476D01*
X118934761Y-112105714D01*
X118982380Y-112200952D01*
X118982380Y-112391428D01*
X118077619Y-111581904D02*
X118030000Y-111534285D01*
X117982380Y-111439047D01*
X117982380Y-111200952D01*
X118030000Y-111105714D01*
X118077619Y-111058095D01*
X118172857Y-111010476D01*
X118268095Y-111010476D01*
X118410952Y-111058095D01*
X118982380Y-111629523D01*
X118982380Y-111010476D01*
%TO.C,R12*%
X158044142Y-82748380D02*
X157710809Y-82272190D01*
X157472714Y-82748380D02*
X157472714Y-81748380D01*
X157853666Y-81748380D01*
X157948904Y-81796000D01*
X157996523Y-81843619D01*
X158044142Y-81938857D01*
X158044142Y-82081714D01*
X157996523Y-82176952D01*
X157948904Y-82224571D01*
X157853666Y-82272190D01*
X157472714Y-82272190D01*
X158996523Y-82748380D02*
X158425095Y-82748380D01*
X158710809Y-82748380D02*
X158710809Y-81748380D01*
X158615571Y-81891238D01*
X158520333Y-81986476D01*
X158425095Y-82034095D01*
X159377476Y-81843619D02*
X159425095Y-81796000D01*
X159520333Y-81748380D01*
X159758428Y-81748380D01*
X159853666Y-81796000D01*
X159901285Y-81843619D01*
X159948904Y-81938857D01*
X159948904Y-82034095D01*
X159901285Y-82176952D01*
X159329857Y-82748380D01*
X159948904Y-82748380D01*
%TO.C,J5*%
X179244666Y-82510380D02*
X179244666Y-83224666D01*
X179197047Y-83367523D01*
X179101809Y-83462761D01*
X178958952Y-83510380D01*
X178863714Y-83510380D01*
X180197047Y-82510380D02*
X179720857Y-82510380D01*
X179673238Y-82986571D01*
X179720857Y-82938952D01*
X179816095Y-82891333D01*
X180054190Y-82891333D01*
X180149428Y-82938952D01*
X180197047Y-82986571D01*
X180244666Y-83081809D01*
X180244666Y-83319904D01*
X180197047Y-83415142D01*
X180149428Y-83462761D01*
X180054190Y-83510380D01*
X179816095Y-83510380D01*
X179720857Y-83462761D01*
X179673238Y-83415142D01*
%TO.C,SW1*%
X115406666Y-85284761D02*
X115549523Y-85332380D01*
X115787619Y-85332380D01*
X115882857Y-85284761D01*
X115930476Y-85237142D01*
X115978095Y-85141904D01*
X115978095Y-85046666D01*
X115930476Y-84951428D01*
X115882857Y-84903809D01*
X115787619Y-84856190D01*
X115597142Y-84808571D01*
X115501904Y-84760952D01*
X115454285Y-84713333D01*
X115406666Y-84618095D01*
X115406666Y-84522857D01*
X115454285Y-84427619D01*
X115501904Y-84380000D01*
X115597142Y-84332380D01*
X115835238Y-84332380D01*
X115978095Y-84380000D01*
X116311428Y-84332380D02*
X116549523Y-85332380D01*
X116740000Y-84618095D01*
X116930476Y-85332380D01*
X117168571Y-84332380D01*
X118073333Y-85332380D02*
X117501904Y-85332380D01*
X117787619Y-85332380D02*
X117787619Y-84332380D01*
X117692380Y-84475238D01*
X117597142Y-84570476D01*
X117501904Y-84618095D01*
%TO.C,C18*%
X179387142Y-86811142D02*
X179339523Y-86858761D01*
X179196666Y-86906380D01*
X179101428Y-86906380D01*
X178958571Y-86858761D01*
X178863333Y-86763523D01*
X178815714Y-86668285D01*
X178768095Y-86477809D01*
X178768095Y-86334952D01*
X178815714Y-86144476D01*
X178863333Y-86049238D01*
X178958571Y-85954000D01*
X179101428Y-85906380D01*
X179196666Y-85906380D01*
X179339523Y-85954000D01*
X179387142Y-86001619D01*
X180339523Y-86906380D02*
X179768095Y-86906380D01*
X180053809Y-86906380D02*
X180053809Y-85906380D01*
X179958571Y-86049238D01*
X179863333Y-86144476D01*
X179768095Y-86192095D01*
X180910952Y-86334952D02*
X180815714Y-86287333D01*
X180768095Y-86239714D01*
X180720476Y-86144476D01*
X180720476Y-86096857D01*
X180768095Y-86001619D01*
X180815714Y-85954000D01*
X180910952Y-85906380D01*
X181101428Y-85906380D01*
X181196666Y-85954000D01*
X181244285Y-86001619D01*
X181291904Y-86096857D01*
X181291904Y-86144476D01*
X181244285Y-86239714D01*
X181196666Y-86287333D01*
X181101428Y-86334952D01*
X180910952Y-86334952D01*
X180815714Y-86382571D01*
X180768095Y-86430190D01*
X180720476Y-86525428D01*
X180720476Y-86715904D01*
X180768095Y-86811142D01*
X180815714Y-86858761D01*
X180910952Y-86906380D01*
X181101428Y-86906380D01*
X181196666Y-86858761D01*
X181244285Y-86811142D01*
X181291904Y-86715904D01*
X181291904Y-86525428D01*
X181244285Y-86430190D01*
X181196666Y-86382571D01*
X181101428Y-86334952D01*
D11*
%TO.C,R14*%
X158512742Y-90917500D02*
X158987258Y-90917500D01*
X158512742Y-91962500D02*
X158987258Y-91962500D01*
%TO.C,C10*%
X124208000Y-92315420D02*
X124208000Y-92596580D01*
X123188000Y-92315420D02*
X123188000Y-92596580D01*
%TO.C,R18*%
X185434500Y-107966742D02*
X185434500Y-108441258D01*
X184389500Y-107966742D02*
X184389500Y-108441258D01*
%TO.C,C1*%
X128522000Y-100216580D02*
X128522000Y-99935420D01*
X129542000Y-100216580D02*
X129542000Y-99935420D01*
%TO.C,R15*%
X158522742Y-87898500D02*
X158997258Y-87898500D01*
X158522742Y-86853500D02*
X158997258Y-86853500D01*
%TO.C,C20*%
X183564420Y-85346000D02*
X183845580Y-85346000D01*
X183564420Y-84326000D02*
X183845580Y-84326000D01*
%TO.C,C11*%
X151640000Y-111111420D02*
X151640000Y-111392580D01*
X150620000Y-111111420D02*
X150620000Y-111392580D01*
%TO.C,C3*%
X131824000Y-95617420D02*
X131824000Y-95898580D01*
X132844000Y-95617420D02*
X132844000Y-95898580D01*
%TO.C,C19*%
X169531420Y-89152000D02*
X169812580Y-89152000D01*
X169531420Y-90172000D02*
X169812580Y-90172000D01*
%TO.C,R20*%
X143016500Y-112251258D02*
X143016500Y-111776742D01*
X141971500Y-112251258D02*
X141971500Y-111776742D01*
%TO.C,C4*%
X119632000Y-79896580D02*
X119632000Y-79615420D01*
X120652000Y-79896580D02*
X120652000Y-79615420D01*
D12*
%TO.C,J6*%
X179207000Y-113610000D02*
X179207000Y-113860000D01*
X165957000Y-113610000D02*
X165957000Y-110830000D01*
X165957000Y-107630000D02*
X165957000Y-101830000D01*
X181007000Y-107630000D02*
X181007000Y-101830000D01*
X180307000Y-113860000D02*
X180307000Y-113610000D01*
X181007000Y-113610000D02*
X181007000Y-110830000D01*
X180307000Y-113610000D02*
X181007000Y-113610000D01*
X165957000Y-113610000D02*
X179207000Y-113610000D01*
X176207000Y-98860000D02*
X180707000Y-98860000D01*
X179207000Y-113860000D02*
X180307000Y-113860000D01*
D13*
X176327000Y-97130000D02*
G75*
G03*
X176327000Y-97130000I-120000J0D01*
G01*
D11*
%TO.C,C12*%
X163676420Y-86612000D02*
X163957580Y-86612000D01*
X163676420Y-87632000D02*
X163957580Y-87632000D01*
%TO.C,R16*%
X137653500Y-112251258D02*
X137653500Y-111776742D01*
X138698500Y-112251258D02*
X138698500Y-111776742D01*
%TO.C,J1*%
X114470000Y-100430000D02*
X112765000Y-100430000D01*
X116480000Y-100430000D02*
X118400000Y-100430000D01*
X112765000Y-91270000D02*
X114470000Y-91270000D01*
X112765000Y-100430000D02*
X112765000Y-91270000D01*
X118400000Y-91270000D02*
X116480000Y-91270000D01*
%TO.C,C22*%
X187882420Y-85346000D02*
X188163580Y-85346000D01*
X187882420Y-84326000D02*
X188163580Y-84326000D01*
%TO.C,SW2*%
X115150000Y-103050000D02*
X118450000Y-103050000D01*
X118450000Y-105850000D02*
X118450000Y-105550000D01*
X115150000Y-103350000D02*
X115150000Y-103050000D01*
X118450000Y-103050000D02*
X118450000Y-103350000D01*
X115150000Y-105550000D02*
X115150000Y-105850000D01*
X115150000Y-105850000D02*
X118450000Y-105850000D01*
%TO.C,C5*%
X124712000Y-100216580D02*
X124712000Y-99935420D01*
X125732000Y-100216580D02*
X125732000Y-99935420D01*
%TO.C,Q1*%
X122275000Y-85715000D02*
X121625000Y-85715000D01*
X122275000Y-88835000D02*
X121625000Y-88835000D01*
X122275000Y-88835000D02*
X123950000Y-88835000D01*
X122275000Y-85715000D02*
X122925000Y-85715000D01*
%TO.C,C2*%
X115060000Y-80150580D02*
X115060000Y-79869420D01*
X116080000Y-80150580D02*
X116080000Y-79869420D01*
%TO.C,C8*%
X135776580Y-108206000D02*
X135495420Y-108206000D01*
X135776580Y-107186000D02*
X135495420Y-107186000D01*
%TO.C,R4*%
X132096742Y-91171500D02*
X132571258Y-91171500D01*
X132096742Y-92216500D02*
X132571258Y-92216500D01*
%TO.C,C15*%
X169277420Y-93982000D02*
X169558580Y-93982000D01*
X169277420Y-92962000D02*
X169558580Y-92962000D01*
%TO.C,R3*%
X119109258Y-83326500D02*
X118634742Y-83326500D01*
X119109258Y-82281500D02*
X118634742Y-82281500D01*
%TO.C,U2*%
X129160000Y-113430000D02*
X131110000Y-113430000D01*
X129160000Y-103310000D02*
X131110000Y-103310000D01*
X129160000Y-113430000D02*
X127210000Y-113430000D01*
X129160000Y-103310000D02*
X125710000Y-103310000D01*
%TO.C,Q3*%
X168800000Y-82440000D02*
X170200000Y-82440000D01*
X170200000Y-80120000D02*
X168300000Y-80120000D01*
%TO.C,U3*%
X126456000Y-82696000D02*
X132466000Y-82696000D01*
X132466000Y-82696000D02*
X132466000Y-83956000D01*
X132466000Y-89516000D02*
X132466000Y-88256000D01*
X128706000Y-89516000D02*
X132466000Y-89516000D01*
%TO.C,D2*%
X129502000Y-80237000D02*
X131787000Y-80237000D01*
X131787000Y-78767000D02*
X129502000Y-78767000D01*
X131787000Y-80237000D02*
X131787000Y-78767000D01*
%TO.C,D3*%
X161834000Y-91964000D02*
X161834000Y-93964000D01*
X161834000Y-91964000D02*
X165734000Y-91964000D01*
X161834000Y-93964000D02*
X165734000Y-93964000D01*
%TO.C,C14*%
X192404420Y-107952000D02*
X192685580Y-107952000D01*
X192404420Y-106932000D02*
X192685580Y-106932000D01*
%TO.C,R2*%
X127778742Y-91425500D02*
X128253258Y-91425500D01*
X127778742Y-92470500D02*
X128253258Y-92470500D01*
%TO.C,R10*%
X163642742Y-84596500D02*
X164117258Y-84596500D01*
X163642742Y-83551500D02*
X164117258Y-83551500D01*
%TO.C,C23*%
X154688000Y-108317420D02*
X154688000Y-108598580D01*
X153668000Y-108317420D02*
X153668000Y-108598580D01*
%TO.C,R1*%
X163655742Y-80249500D02*
X164130258Y-80249500D01*
X163655742Y-81294500D02*
X164130258Y-81294500D01*
%TO.C,D5*%
X163032000Y-103362000D02*
X163032000Y-101362000D01*
X163032000Y-101362000D02*
X159132000Y-101362000D01*
X163032000Y-103362000D02*
X159132000Y-103362000D01*
%TO.C,C17*%
X179958420Y-92712000D02*
X180239580Y-92712000D01*
X179958420Y-91692000D02*
X180239580Y-91692000D01*
%TO.C,J4*%
X192965000Y-104900000D02*
X193565000Y-104900000D01*
X192965000Y-87250000D02*
X193565000Y-87250000D01*
X190375000Y-102025000D02*
X190775000Y-101825000D01*
X192965000Y-87360000D02*
X192965000Y-87250000D01*
X192965000Y-104790000D02*
X192965000Y-104900000D01*
X190775000Y-101825000D02*
X190375000Y-101625000D01*
X190375000Y-101625000D02*
X190375000Y-102025000D01*
%TO.C,R9*%
X125746742Y-78979500D02*
X126221258Y-78979500D01*
X125746742Y-80024500D02*
X126221258Y-80024500D01*
%TO.C,R11*%
X174260742Y-84059500D02*
X174735258Y-84059500D01*
X174260742Y-85104500D02*
X174735258Y-85104500D01*
%TO.C,C6*%
X173622580Y-93978000D02*
X173341420Y-93978000D01*
X173622580Y-94998000D02*
X173341420Y-94998000D01*
%TO.C,C13*%
X192391420Y-111250000D02*
X192672580Y-111250000D01*
X192391420Y-112270000D02*
X192672580Y-112270000D01*
%TO.C,C7*%
X133606000Y-100189420D02*
X133606000Y-100470580D01*
X132586000Y-100189420D02*
X132586000Y-100470580D01*
%TO.C,R13*%
X158482742Y-84850500D02*
X158957258Y-84850500D01*
X158482742Y-83805500D02*
X158957258Y-83805500D01*
%TO.C,C21*%
X191692420Y-85346000D02*
X191973580Y-85346000D01*
X191692420Y-84326000D02*
X191973580Y-84326000D01*
%TO.C,U1*%
X138054000Y-103635000D02*
X139804000Y-103635000D01*
X155304000Y-78135000D02*
X155304000Y-84885000D01*
X155304000Y-103635000D02*
X154554000Y-103635000D01*
X154554000Y-103635000D02*
X152804000Y-103635000D01*
X137304000Y-78135000D02*
X137304000Y-84885000D01*
X137304000Y-78135000D02*
X155304000Y-78135000D01*
X155304000Y-102885000D02*
X155304000Y-103635000D01*
X137304000Y-103635000D02*
X138054000Y-103635000D01*
X137304000Y-102885000D02*
X137304000Y-103635000D01*
X155304000Y-84075000D02*
X137304000Y-84075000D01*
%TO.C,L1*%
X169255221Y-86108000D02*
X169580779Y-86108000D01*
X169255221Y-85088000D02*
X169580779Y-85088000D01*
%TO.C,R8*%
X127491258Y-95235500D02*
X127016742Y-95235500D01*
X127491258Y-96280500D02*
X127016742Y-96280500D01*
%TO.C,C16*%
X174369420Y-89156000D02*
X174650580Y-89156000D01*
X174369420Y-88136000D02*
X174650580Y-88136000D01*
%TO.C,R7*%
X122220258Y-107456500D02*
X121745742Y-107456500D01*
X122220258Y-106411500D02*
X121745742Y-106411500D01*
%TO.C,R6*%
X115347742Y-107652500D02*
X115822258Y-107652500D01*
X115347742Y-108697500D02*
X115822258Y-108697500D01*
%TO.C,R17*%
X185688500Y-102853258D02*
X185688500Y-102378742D01*
X184643500Y-102853258D02*
X184643500Y-102378742D01*
%TO.C,D4*%
X157008000Y-111268000D02*
X160908000Y-111268000D01*
X157008000Y-113268000D02*
X160908000Y-113268000D01*
X157008000Y-111268000D02*
X157008000Y-113268000D01*
%TO.C,R19*%
X146035500Y-112251258D02*
X146035500Y-111776742D01*
X147080500Y-112251258D02*
X147080500Y-111776742D01*
%TO.C,R5*%
X123872258Y-83326500D02*
X123397742Y-83326500D01*
X123872258Y-82281500D02*
X123397742Y-82281500D01*
%TO.C,Q2*%
X114570000Y-111820000D02*
X114570000Y-112470000D01*
X117690000Y-111820000D02*
X117690000Y-112470000D01*
X117690000Y-111820000D02*
X117690000Y-110145000D01*
X114570000Y-111820000D02*
X114570000Y-111170000D01*
%TO.C,R12*%
X158512742Y-81294500D02*
X158987258Y-81294500D01*
X158512742Y-80249500D02*
X158987258Y-80249500D01*
%TO.C,J5*%
X192547000Y-79078000D02*
X192547000Y-76418000D01*
X174767000Y-81788000D02*
X174767000Y-80518000D01*
X175957000Y-76418000D02*
X175957000Y-70418000D01*
X194197000Y-70418000D02*
X194197000Y-76418000D01*
X175657000Y-70418000D02*
X176417000Y-70418000D01*
X191657000Y-79475071D02*
X191657000Y-79078000D01*
X178197000Y-70418000D02*
X178957000Y-70418000D01*
X175717000Y-76418000D02*
X175717000Y-70418000D01*
X177307000Y-79078000D02*
X177307000Y-76418000D01*
X186577000Y-70418000D02*
X186577000Y-76418000D01*
X188357000Y-76418000D02*
X188357000Y-70418000D01*
X176417000Y-79408000D02*
X176417000Y-79078000D01*
X176077000Y-76418000D02*
X176077000Y-70418000D01*
X189117000Y-79475071D02*
X189117000Y-79078000D01*
X193437000Y-70418000D02*
X194197000Y-70418000D01*
X184927000Y-79078000D02*
X184927000Y-76418000D01*
X179847000Y-79078000D02*
X179847000Y-76418000D01*
X194197000Y-79475071D02*
X194197000Y-79078000D01*
X181497000Y-79475071D02*
X181497000Y-79078000D01*
X190897000Y-79475071D02*
X190897000Y-79078000D01*
X185817000Y-70418000D02*
X186577000Y-70418000D01*
X195147000Y-79078000D02*
X195147000Y-76418000D01*
X187467000Y-79078000D02*
X187467000Y-76418000D01*
X175837000Y-76418000D02*
X175837000Y-70418000D01*
X195147000Y-76418000D02*
X174707000Y-76418000D01*
X191657000Y-70418000D02*
X191657000Y-76418000D01*
X188357000Y-79475071D02*
X188357000Y-79078000D01*
X190897000Y-70418000D02*
X191657000Y-70418000D01*
X175657000Y-79408000D02*
X175657000Y-79078000D01*
X183277000Y-76418000D02*
X183277000Y-70418000D01*
X182387000Y-79078000D02*
X182387000Y-76418000D01*
X176317000Y-76418000D02*
X176317000Y-70418000D01*
X180737000Y-76418000D02*
X180737000Y-70418000D01*
X185817000Y-76418000D02*
X185817000Y-70418000D01*
X174707000Y-79078000D02*
X195147000Y-79078000D01*
X176197000Y-76418000D02*
X176197000Y-70418000D01*
X178197000Y-79475071D02*
X178197000Y-79078000D01*
X184037000Y-70418000D02*
X184037000Y-76418000D01*
X178197000Y-76418000D02*
X178197000Y-70418000D01*
X178957000Y-79475071D02*
X178957000Y-79078000D01*
X190007000Y-79078000D02*
X190007000Y-76418000D01*
X183277000Y-79475071D02*
X183277000Y-79078000D01*
X193437000Y-79475071D02*
X193437000Y-79078000D01*
X180737000Y-79475071D02*
X180737000Y-79078000D01*
X185817000Y-79475071D02*
X185817000Y-79078000D01*
X193437000Y-76418000D02*
X193437000Y-70418000D01*
X181497000Y-70418000D02*
X181497000Y-76418000D01*
X186577000Y-79475071D02*
X186577000Y-79078000D01*
X188357000Y-70418000D02*
X189117000Y-70418000D01*
X180737000Y-70418000D02*
X181497000Y-70418000D01*
X178957000Y-70418000D02*
X178957000Y-76418000D01*
X175657000Y-76418000D02*
X175657000Y-70418000D01*
X184037000Y-79475071D02*
X184037000Y-79078000D01*
X174707000Y-76418000D02*
X174707000Y-79078000D01*
X176037000Y-81788000D02*
X174767000Y-81788000D01*
X183277000Y-70418000D02*
X184037000Y-70418000D01*
X189117000Y-70418000D02*
X189117000Y-76418000D01*
X190897000Y-76418000D02*
X190897000Y-70418000D01*
X176417000Y-70418000D02*
X176417000Y-76418000D01*
%TO.C,SW1*%
X118450000Y-88700000D02*
X118450000Y-88400000D01*
X115150000Y-86200000D02*
X115150000Y-85900000D01*
X115150000Y-88400000D02*
X115150000Y-88700000D01*
X118450000Y-85900000D02*
X118450000Y-86200000D01*
X115150000Y-88700000D02*
X118450000Y-88700000D01*
X115150000Y-85900000D02*
X118450000Y-85900000D01*
%TO.C,C18*%
X179889420Y-87374000D02*
X180170580Y-87374000D01*
X179889420Y-88394000D02*
X180170580Y-88394000D01*
%TD*%
M02*
