%TF.GenerationSoftware,KiCad,Pcbnew,(6.0.9-0)*%
%TF.CreationDate,2023-03-15T21:38:29+08:00*%
%TF.ProjectId,Epaper-mcu,45706170-6572-42d6-9d63-752e6b696361,rev?*%
%TF.SameCoordinates,Original*%
%TF.FileFunction,Legend,Top*%
%TF.FilePolarity,Positive*%
%FSLAX46Y46*%
G04 Gerber Fmt 4.6, Leading zero omitted, Abs format (unit mm)*
G04 Created by KiCad (PCBNEW (6.0.9-0)) date 2023-03-15 21:38:29*
%MOMM*%
%LPD*%
G01*
G04 APERTURE LIST*
%ADD10C,0.150000*%
%ADD11C,0.120000*%
%ADD12C,0.200000*%
%ADD13C,0.254000*%
%ADD14C,0.127000*%
G04 APERTURE END LIST*
D10*
X148860428Y-120854152D02*
X148765190Y-120806533D01*
X148717571Y-120758914D01*
X148669952Y-120663676D01*
X148669952Y-120616057D01*
X148717571Y-120520819D01*
X148765190Y-120473200D01*
X148860428Y-120425580D01*
X149050904Y-120425580D01*
X149146142Y-120473200D01*
X149193761Y-120520819D01*
X149241380Y-120616057D01*
X149241380Y-120663676D01*
X149193761Y-120758914D01*
X149146142Y-120806533D01*
X149050904Y-120854152D01*
X148860428Y-120854152D01*
X148765190Y-120901771D01*
X148717571Y-120949390D01*
X148669952Y-121044628D01*
X148669952Y-121235104D01*
X148717571Y-121330342D01*
X148765190Y-121377961D01*
X148860428Y-121425580D01*
X149050904Y-121425580D01*
X149146142Y-121377961D01*
X149193761Y-121330342D01*
X149241380Y-121235104D01*
X149241380Y-121044628D01*
X149193761Y-120949390D01*
X149146142Y-120901771D01*
X149050904Y-120854152D01*
X150146142Y-120425580D02*
X149669952Y-120425580D01*
X149622333Y-120901771D01*
X149669952Y-120854152D01*
X149765190Y-120806533D01*
X150003285Y-120806533D01*
X150098523Y-120854152D01*
X150146142Y-120901771D01*
X150193761Y-120997009D01*
X150193761Y-121235104D01*
X150146142Y-121330342D01*
X150098523Y-121377961D01*
X150003285Y-121425580D01*
X149765190Y-121425580D01*
X149669952Y-121377961D01*
X149622333Y-121330342D01*
X150622333Y-121330342D02*
X150669952Y-121377961D01*
X150622333Y-121425580D01*
X150574714Y-121377961D01*
X150622333Y-121330342D01*
X150622333Y-121425580D01*
X151289000Y-120425580D02*
X151384238Y-120425580D01*
X151479476Y-120473200D01*
X151527095Y-120520819D01*
X151574714Y-120616057D01*
X151622333Y-120806533D01*
X151622333Y-121044628D01*
X151574714Y-121235104D01*
X151527095Y-121330342D01*
X151479476Y-121377961D01*
X151384238Y-121425580D01*
X151289000Y-121425580D01*
X151193761Y-121377961D01*
X151146142Y-121330342D01*
X151098523Y-121235104D01*
X151050904Y-121044628D01*
X151050904Y-120806533D01*
X151098523Y-120616057D01*
X151146142Y-120520819D01*
X151193761Y-120473200D01*
X151289000Y-120425580D01*
X152241380Y-120425580D02*
X152336619Y-120425580D01*
X152431857Y-120473200D01*
X152479476Y-120520819D01*
X152527095Y-120616057D01*
X152574714Y-120806533D01*
X152574714Y-121044628D01*
X152527095Y-121235104D01*
X152479476Y-121330342D01*
X152431857Y-121377961D01*
X152336619Y-121425580D01*
X152241380Y-121425580D01*
X152146142Y-121377961D01*
X152098523Y-121330342D01*
X152050904Y-121235104D01*
X152003285Y-121044628D01*
X152003285Y-120806533D01*
X152050904Y-120616057D01*
X152098523Y-120520819D01*
X152146142Y-120473200D01*
X152241380Y-120425580D01*
X153193761Y-120425580D02*
X153289000Y-120425580D01*
X153384238Y-120473200D01*
X153431857Y-120520819D01*
X153479476Y-120616057D01*
X153527095Y-120806533D01*
X153527095Y-121044628D01*
X153479476Y-121235104D01*
X153431857Y-121330342D01*
X153384238Y-121377961D01*
X153289000Y-121425580D01*
X153193761Y-121425580D01*
X153098523Y-121377961D01*
X153050904Y-121330342D01*
X153003285Y-121235104D01*
X152955666Y-121044628D01*
X152955666Y-120806533D01*
X153003285Y-120616057D01*
X153050904Y-120520819D01*
X153098523Y-120473200D01*
X153193761Y-120425580D01*
X154146142Y-120425580D02*
X154241380Y-120425580D01*
X154336619Y-120473200D01*
X154384238Y-120520819D01*
X154431857Y-120616057D01*
X154479476Y-120806533D01*
X154479476Y-121044628D01*
X154431857Y-121235104D01*
X154384238Y-121330342D01*
X154336619Y-121377961D01*
X154241380Y-121425580D01*
X154146142Y-121425580D01*
X154050904Y-121377961D01*
X154003285Y-121330342D01*
X153955666Y-121235104D01*
X153908047Y-121044628D01*
X153908047Y-120806533D01*
X153955666Y-120616057D01*
X154003285Y-120520819D01*
X154050904Y-120473200D01*
X154146142Y-120425580D01*
X155669952Y-121425580D02*
X155669952Y-120758914D01*
X155669952Y-120854152D02*
X155717571Y-120806533D01*
X155812809Y-120758914D01*
X155955666Y-120758914D01*
X156050904Y-120806533D01*
X156098523Y-120901771D01*
X156098523Y-121425580D01*
X156098523Y-120901771D02*
X156146142Y-120806533D01*
X156241380Y-120758914D01*
X156384238Y-120758914D01*
X156479476Y-120806533D01*
X156527095Y-120901771D01*
X156527095Y-121425580D01*
X157003285Y-121425580D02*
X157003285Y-120758914D01*
X157003285Y-120854152D02*
X157050904Y-120806533D01*
X157146142Y-120758914D01*
X157289000Y-120758914D01*
X157384238Y-120806533D01*
X157431857Y-120901771D01*
X157431857Y-121425580D01*
X157431857Y-120901771D02*
X157479476Y-120806533D01*
X157574714Y-120758914D01*
X157717571Y-120758914D01*
X157812809Y-120806533D01*
X157860428Y-120901771D01*
X157860428Y-121425580D01*
X110789000Y-120134000D02*
X110789000Y-122709620D01*
X195789000Y-120134000D02*
X195789000Y-122709620D01*
X110789000Y-122123200D02*
X195789000Y-122123200D01*
X110789000Y-122123200D02*
X195789000Y-122123200D01*
X110789000Y-122123200D02*
X111915504Y-122709621D01*
X110789000Y-122123200D02*
X111915504Y-121536779D01*
X195789000Y-122123200D02*
X194662496Y-121536779D01*
X195789000Y-122123200D02*
X194662496Y-122709621D01*
X197184380Y-105800666D02*
X197184380Y-105181619D01*
X197565333Y-105514952D01*
X197565333Y-105372095D01*
X197612952Y-105276857D01*
X197660571Y-105229238D01*
X197755809Y-105181619D01*
X197993904Y-105181619D01*
X198089142Y-105229238D01*
X198136761Y-105276857D01*
X198184380Y-105372095D01*
X198184380Y-105657809D01*
X198136761Y-105753047D01*
X198089142Y-105800666D01*
X197184380Y-104848285D02*
X197184380Y-104181619D01*
X198184380Y-104610190D01*
X198089142Y-103800666D02*
X198136761Y-103753047D01*
X198184380Y-103800666D01*
X198136761Y-103848285D01*
X198089142Y-103800666D01*
X198184380Y-103800666D01*
X197184380Y-103134000D02*
X197184380Y-103038761D01*
X197232000Y-102943523D01*
X197279619Y-102895904D01*
X197374857Y-102848285D01*
X197565333Y-102800666D01*
X197803428Y-102800666D01*
X197993904Y-102848285D01*
X198089142Y-102895904D01*
X198136761Y-102943523D01*
X198184380Y-103038761D01*
X198184380Y-103134000D01*
X198136761Y-103229238D01*
X198089142Y-103276857D01*
X197993904Y-103324476D01*
X197803428Y-103372095D01*
X197565333Y-103372095D01*
X197374857Y-103324476D01*
X197279619Y-103276857D01*
X197232000Y-103229238D01*
X197184380Y-103134000D01*
X197184380Y-102181619D02*
X197184380Y-102086380D01*
X197232000Y-101991142D01*
X197279619Y-101943523D01*
X197374857Y-101895904D01*
X197565333Y-101848285D01*
X197803428Y-101848285D01*
X197993904Y-101895904D01*
X198089142Y-101943523D01*
X198136761Y-101991142D01*
X198184380Y-102086380D01*
X198184380Y-102181619D01*
X198136761Y-102276857D01*
X198089142Y-102324476D01*
X197993904Y-102372095D01*
X197803428Y-102419714D01*
X197565333Y-102419714D01*
X197374857Y-102372095D01*
X197279619Y-102324476D01*
X197232000Y-102276857D01*
X197184380Y-102181619D01*
X197184380Y-101229238D02*
X197184380Y-101134000D01*
X197232000Y-101038761D01*
X197279619Y-100991142D01*
X197374857Y-100943523D01*
X197565333Y-100895904D01*
X197803428Y-100895904D01*
X197993904Y-100943523D01*
X198089142Y-100991142D01*
X198136761Y-101038761D01*
X198184380Y-101134000D01*
X198184380Y-101229238D01*
X198136761Y-101324476D01*
X198089142Y-101372095D01*
X197993904Y-101419714D01*
X197803428Y-101467333D01*
X197565333Y-101467333D01*
X197374857Y-101419714D01*
X197279619Y-101372095D01*
X197232000Y-101324476D01*
X197184380Y-101229238D01*
X197184380Y-100276857D02*
X197184380Y-100181619D01*
X197232000Y-100086380D01*
X197279619Y-100038761D01*
X197374857Y-99991142D01*
X197565333Y-99943523D01*
X197803428Y-99943523D01*
X197993904Y-99991142D01*
X198089142Y-100038761D01*
X198136761Y-100086380D01*
X198184380Y-100181619D01*
X198184380Y-100276857D01*
X198136761Y-100372095D01*
X198089142Y-100419714D01*
X197993904Y-100467333D01*
X197803428Y-100514952D01*
X197565333Y-100514952D01*
X197374857Y-100467333D01*
X197279619Y-100419714D01*
X197232000Y-100372095D01*
X197184380Y-100276857D01*
X198184380Y-98753047D02*
X197517714Y-98753047D01*
X197612952Y-98753047D02*
X197565333Y-98705428D01*
X197517714Y-98610190D01*
X197517714Y-98467333D01*
X197565333Y-98372095D01*
X197660571Y-98324476D01*
X198184380Y-98324476D01*
X197660571Y-98324476D02*
X197565333Y-98276857D01*
X197517714Y-98181619D01*
X197517714Y-98038761D01*
X197565333Y-97943523D01*
X197660571Y-97895904D01*
X198184380Y-97895904D01*
X198184380Y-97419714D02*
X197517714Y-97419714D01*
X197612952Y-97419714D02*
X197565333Y-97372095D01*
X197517714Y-97276857D01*
X197517714Y-97134000D01*
X197565333Y-97038761D01*
X197660571Y-96991142D01*
X198184380Y-96991142D01*
X197660571Y-96991142D02*
X197565333Y-96943523D01*
X197517714Y-96848285D01*
X197517714Y-96705428D01*
X197565333Y-96610190D01*
X197660571Y-96562571D01*
X198184380Y-96562571D01*
X196289000Y-82634000D02*
X199468420Y-82634000D01*
X196289000Y-119634000D02*
X199468420Y-119634000D01*
X198882000Y-82634000D02*
X198882000Y-119634000D01*
X198882000Y-82634000D02*
X198882000Y-119634000D01*
X198882000Y-82634000D02*
X198295579Y-83760504D01*
X198882000Y-82634000D02*
X199468421Y-83760504D01*
X198882000Y-119634000D02*
X199468421Y-118507496D01*
X198882000Y-119634000D02*
X198295579Y-118507496D01*
%TO.C,C1*%
X116165333Y-88495142D02*
X116117714Y-88542761D01*
X115974857Y-88590380D01*
X115879619Y-88590380D01*
X115736761Y-88542761D01*
X115641523Y-88447523D01*
X115593904Y-88352285D01*
X115546285Y-88161809D01*
X115546285Y-88018952D01*
X115593904Y-87828476D01*
X115641523Y-87733238D01*
X115736761Y-87638000D01*
X115879619Y-87590380D01*
X115974857Y-87590380D01*
X116117714Y-87638000D01*
X116165333Y-87685619D01*
X117117714Y-88590380D02*
X116546285Y-88590380D01*
X116832000Y-88590380D02*
X116832000Y-87590380D01*
X116736761Y-87733238D01*
X116641523Y-87828476D01*
X116546285Y-87876095D01*
%TO.C,Q1*%
X132238761Y-107989619D02*
X132143523Y-107942000D01*
X132048285Y-107846761D01*
X131905428Y-107703904D01*
X131810190Y-107656285D01*
X131714952Y-107656285D01*
X131762571Y-107894380D02*
X131667333Y-107846761D01*
X131572095Y-107751523D01*
X131524476Y-107561047D01*
X131524476Y-107227714D01*
X131572095Y-107037238D01*
X131667333Y-106942000D01*
X131762571Y-106894380D01*
X131953047Y-106894380D01*
X132048285Y-106942000D01*
X132143523Y-107037238D01*
X132191142Y-107227714D01*
X132191142Y-107561047D01*
X132143523Y-107751523D01*
X132048285Y-107846761D01*
X131953047Y-107894380D01*
X131762571Y-107894380D01*
X133143523Y-107894380D02*
X132572095Y-107894380D01*
X132857809Y-107894380D02*
X132857809Y-106894380D01*
X132762571Y-107037238D01*
X132667333Y-107132476D01*
X132572095Y-107180095D01*
%TO.C,R5*%
X126325333Y-113482380D02*
X125992000Y-113006190D01*
X125753904Y-113482380D02*
X125753904Y-112482380D01*
X126134857Y-112482380D01*
X126230095Y-112530000D01*
X126277714Y-112577619D01*
X126325333Y-112672857D01*
X126325333Y-112815714D01*
X126277714Y-112910952D01*
X126230095Y-112958571D01*
X126134857Y-113006190D01*
X125753904Y-113006190D01*
X127230095Y-112482380D02*
X126753904Y-112482380D01*
X126706285Y-112958571D01*
X126753904Y-112910952D01*
X126849142Y-112863333D01*
X127087238Y-112863333D01*
X127182476Y-112910952D01*
X127230095Y-112958571D01*
X127277714Y-113053809D01*
X127277714Y-113291904D01*
X127230095Y-113387142D01*
X127182476Y-113434761D01*
X127087238Y-113482380D01*
X126849142Y-113482380D01*
X126753904Y-113434761D01*
X126706285Y-113387142D01*
%TO.C,C13*%
X171683742Y-94489542D02*
X171636123Y-94537161D01*
X171493266Y-94584780D01*
X171398028Y-94584780D01*
X171255171Y-94537161D01*
X171159933Y-94441923D01*
X171112314Y-94346685D01*
X171064695Y-94156209D01*
X171064695Y-94013352D01*
X171112314Y-93822876D01*
X171159933Y-93727638D01*
X171255171Y-93632400D01*
X171398028Y-93584780D01*
X171493266Y-93584780D01*
X171636123Y-93632400D01*
X171683742Y-93680019D01*
X172636123Y-94584780D02*
X172064695Y-94584780D01*
X172350409Y-94584780D02*
X172350409Y-93584780D01*
X172255171Y-93727638D01*
X172159933Y-93822876D01*
X172064695Y-93870495D01*
X172969457Y-93584780D02*
X173588504Y-93584780D01*
X173255171Y-93965733D01*
X173398028Y-93965733D01*
X173493266Y-94013352D01*
X173540885Y-94060971D01*
X173588504Y-94156209D01*
X173588504Y-94394304D01*
X173540885Y-94489542D01*
X173493266Y-94537161D01*
X173398028Y-94584780D01*
X173112314Y-94584780D01*
X173017076Y-94537161D01*
X172969457Y-94489542D01*
%TO.C,C17*%
X173614142Y-108053142D02*
X173566523Y-108100761D01*
X173423666Y-108148380D01*
X173328428Y-108148380D01*
X173185571Y-108100761D01*
X173090333Y-108005523D01*
X173042714Y-107910285D01*
X172995095Y-107719809D01*
X172995095Y-107576952D01*
X173042714Y-107386476D01*
X173090333Y-107291238D01*
X173185571Y-107196000D01*
X173328428Y-107148380D01*
X173423666Y-107148380D01*
X173566523Y-107196000D01*
X173614142Y-107243619D01*
X174566523Y-108148380D02*
X173995095Y-108148380D01*
X174280809Y-108148380D02*
X174280809Y-107148380D01*
X174185571Y-107291238D01*
X174090333Y-107386476D01*
X173995095Y-107434095D01*
X174899857Y-107148380D02*
X175566523Y-107148380D01*
X175137952Y-108148380D01*
%TO.C,Q3*%
X170719761Y-113577619D02*
X170624523Y-113530000D01*
X170529285Y-113434761D01*
X170386428Y-113291904D01*
X170291190Y-113244285D01*
X170195952Y-113244285D01*
X170243571Y-113482380D02*
X170148333Y-113434761D01*
X170053095Y-113339523D01*
X170005476Y-113149047D01*
X170005476Y-112815714D01*
X170053095Y-112625238D01*
X170148333Y-112530000D01*
X170243571Y-112482380D01*
X170434047Y-112482380D01*
X170529285Y-112530000D01*
X170624523Y-112625238D01*
X170672142Y-112815714D01*
X170672142Y-113149047D01*
X170624523Y-113339523D01*
X170529285Y-113434761D01*
X170434047Y-113482380D01*
X170243571Y-113482380D01*
X171005476Y-112482380D02*
X171624523Y-112482380D01*
X171291190Y-112863333D01*
X171434047Y-112863333D01*
X171529285Y-112910952D01*
X171576904Y-112958571D01*
X171624523Y-113053809D01*
X171624523Y-113291904D01*
X171576904Y-113387142D01*
X171529285Y-113434761D01*
X171434047Y-113482380D01*
X171148333Y-113482380D01*
X171053095Y-113434761D01*
X171005476Y-113387142D01*
%TO.C,J1*%
X115236666Y-101179380D02*
X115236666Y-101893666D01*
X115189047Y-102036523D01*
X115093809Y-102131761D01*
X114950952Y-102179380D01*
X114855714Y-102179380D01*
X116236666Y-102179380D02*
X115665238Y-102179380D01*
X115950952Y-102179380D02*
X115950952Y-101179380D01*
X115855714Y-101322238D01*
X115760476Y-101417476D01*
X115665238Y-101465095D01*
%TO.C,U3*%
X139446095Y-85812380D02*
X139446095Y-86621904D01*
X139493714Y-86717142D01*
X139541333Y-86764761D01*
X139636571Y-86812380D01*
X139827047Y-86812380D01*
X139922285Y-86764761D01*
X139969904Y-86717142D01*
X140017523Y-86621904D01*
X140017523Y-85812380D01*
X140398476Y-85812380D02*
X141017523Y-85812380D01*
X140684190Y-86193333D01*
X140827047Y-86193333D01*
X140922285Y-86240952D01*
X140969904Y-86288571D01*
X141017523Y-86383809D01*
X141017523Y-86621904D01*
X140969904Y-86717142D01*
X140922285Y-86764761D01*
X140827047Y-86812380D01*
X140541333Y-86812380D01*
X140446095Y-86764761D01*
X140398476Y-86717142D01*
%TO.C,D2*%
X173759904Y-115641380D02*
X173759904Y-114641380D01*
X173998000Y-114641380D01*
X174140857Y-114689000D01*
X174236095Y-114784238D01*
X174283714Y-114879476D01*
X174331333Y-115069952D01*
X174331333Y-115212809D01*
X174283714Y-115403285D01*
X174236095Y-115498523D01*
X174140857Y-115593761D01*
X173998000Y-115641380D01*
X173759904Y-115641380D01*
X174712285Y-114736619D02*
X174759904Y-114689000D01*
X174855142Y-114641380D01*
X175093238Y-114641380D01*
X175188476Y-114689000D01*
X175236095Y-114736619D01*
X175283714Y-114831857D01*
X175283714Y-114927095D01*
X175236095Y-115069952D01*
X174664666Y-115641380D01*
X175283714Y-115641380D01*
%TO.C,U1*%
X164846095Y-97496380D02*
X164846095Y-98305904D01*
X164893714Y-98401142D01*
X164941333Y-98448761D01*
X165036571Y-98496380D01*
X165227047Y-98496380D01*
X165322285Y-98448761D01*
X165369904Y-98401142D01*
X165417523Y-98305904D01*
X165417523Y-97496380D01*
X166417523Y-98496380D02*
X165846095Y-98496380D01*
X166131809Y-98496380D02*
X166131809Y-97496380D01*
X166036571Y-97639238D01*
X165941333Y-97734476D01*
X165846095Y-97782095D01*
X149587095Y-86964666D02*
X150063285Y-86964666D01*
X149491857Y-87250380D02*
X149825190Y-86250380D01*
X150158523Y-87250380D01*
X150491857Y-86583714D02*
X150491857Y-87250380D01*
X150491857Y-86678952D02*
X150539476Y-86631333D01*
X150634714Y-86583714D01*
X150777571Y-86583714D01*
X150872809Y-86631333D01*
X150920428Y-86726571D01*
X150920428Y-87250380D01*
X151253761Y-86583714D02*
X151634714Y-86583714D01*
X151396619Y-86250380D02*
X151396619Y-87107523D01*
X151444238Y-87202761D01*
X151539476Y-87250380D01*
X151634714Y-87250380D01*
X152349000Y-87202761D02*
X152253761Y-87250380D01*
X152063285Y-87250380D01*
X151968047Y-87202761D01*
X151920428Y-87107523D01*
X151920428Y-86726571D01*
X151968047Y-86631333D01*
X152063285Y-86583714D01*
X152253761Y-86583714D01*
X152349000Y-86631333D01*
X152396619Y-86726571D01*
X152396619Y-86821809D01*
X151920428Y-86917047D01*
X152825190Y-86583714D02*
X152825190Y-87250380D01*
X152825190Y-86678952D02*
X152872809Y-86631333D01*
X152968047Y-86583714D01*
X153110904Y-86583714D01*
X153206142Y-86631333D01*
X153253761Y-86726571D01*
X153253761Y-87250380D01*
X153729952Y-86583714D02*
X153729952Y-87250380D01*
X153729952Y-86678952D02*
X153777571Y-86631333D01*
X153872809Y-86583714D01*
X154015666Y-86583714D01*
X154110904Y-86631333D01*
X154158523Y-86726571D01*
X154158523Y-87250380D01*
X155063285Y-87250380D02*
X155063285Y-86726571D01*
X155015666Y-86631333D01*
X154920428Y-86583714D01*
X154729952Y-86583714D01*
X154634714Y-86631333D01*
X155063285Y-87202761D02*
X154968047Y-87250380D01*
X154729952Y-87250380D01*
X154634714Y-87202761D01*
X154587095Y-87107523D01*
X154587095Y-87012285D01*
X154634714Y-86917047D01*
X154729952Y-86869428D01*
X154968047Y-86869428D01*
X155063285Y-86821809D01*
X156253761Y-86964666D02*
X156729952Y-86964666D01*
X156158523Y-87250380D02*
X156491857Y-86250380D01*
X156825190Y-87250380D01*
X157158523Y-87250380D02*
X157158523Y-86583714D01*
X157158523Y-86774190D02*
X157206142Y-86678952D01*
X157253761Y-86631333D01*
X157349000Y-86583714D01*
X157444238Y-86583714D01*
X158158523Y-87202761D02*
X158063285Y-87250380D01*
X157872809Y-87250380D01*
X157777571Y-87202761D01*
X157729952Y-87107523D01*
X157729952Y-86726571D01*
X157777571Y-86631333D01*
X157872809Y-86583714D01*
X158063285Y-86583714D01*
X158158523Y-86631333D01*
X158206142Y-86726571D01*
X158206142Y-86821809D01*
X157729952Y-86917047D01*
X159063285Y-87250380D02*
X159063285Y-86726571D01*
X159015666Y-86631333D01*
X158920428Y-86583714D01*
X158729952Y-86583714D01*
X158634714Y-86631333D01*
X159063285Y-87202761D02*
X158968047Y-87250380D01*
X158729952Y-87250380D01*
X158634714Y-87202761D01*
X158587095Y-87107523D01*
X158587095Y-87012285D01*
X158634714Y-86917047D01*
X158729952Y-86869428D01*
X158968047Y-86869428D01*
X159063285Y-86821809D01*
%TO.C,C5*%
X125309333Y-95353142D02*
X125261714Y-95400761D01*
X125118857Y-95448380D01*
X125023619Y-95448380D01*
X124880761Y-95400761D01*
X124785523Y-95305523D01*
X124737904Y-95210285D01*
X124690285Y-95019809D01*
X124690285Y-94876952D01*
X124737904Y-94686476D01*
X124785523Y-94591238D01*
X124880761Y-94496000D01*
X125023619Y-94448380D01*
X125118857Y-94448380D01*
X125261714Y-94496000D01*
X125309333Y-94543619D01*
X126214095Y-94448380D02*
X125737904Y-94448380D01*
X125690285Y-94924571D01*
X125737904Y-94876952D01*
X125833142Y-94829333D01*
X126071238Y-94829333D01*
X126166476Y-94876952D01*
X126214095Y-94924571D01*
X126261714Y-95019809D01*
X126261714Y-95257904D01*
X126214095Y-95353142D01*
X126166476Y-95400761D01*
X126071238Y-95448380D01*
X125833142Y-95448380D01*
X125737904Y-95400761D01*
X125690285Y-95353142D01*
%TO.C,C11*%
X178300142Y-117324142D02*
X178252523Y-117371761D01*
X178109666Y-117419380D01*
X178014428Y-117419380D01*
X177871571Y-117371761D01*
X177776333Y-117276523D01*
X177728714Y-117181285D01*
X177681095Y-116990809D01*
X177681095Y-116847952D01*
X177728714Y-116657476D01*
X177776333Y-116562238D01*
X177871571Y-116467000D01*
X178014428Y-116419380D01*
X178109666Y-116419380D01*
X178252523Y-116467000D01*
X178300142Y-116514619D01*
X179252523Y-117419380D02*
X178681095Y-117419380D01*
X178966809Y-117419380D02*
X178966809Y-116419380D01*
X178871571Y-116562238D01*
X178776333Y-116657476D01*
X178681095Y-116705095D01*
X180204904Y-117419380D02*
X179633476Y-117419380D01*
X179919190Y-117419380D02*
X179919190Y-116419380D01*
X179823952Y-116562238D01*
X179728714Y-116657476D01*
X179633476Y-116705095D01*
%TO.C,FPC1*%
X189390928Y-110926571D02*
X189057595Y-110926571D01*
X189057595Y-111450380D02*
X189057595Y-110450380D01*
X189533785Y-110450380D01*
X189914738Y-111450380D02*
X189914738Y-110450380D01*
X190295690Y-110450380D01*
X190390928Y-110498000D01*
X190438547Y-110545619D01*
X190486166Y-110640857D01*
X190486166Y-110783714D01*
X190438547Y-110878952D01*
X190390928Y-110926571D01*
X190295690Y-110974190D01*
X189914738Y-110974190D01*
X191486166Y-111355142D02*
X191438547Y-111402761D01*
X191295690Y-111450380D01*
X191200452Y-111450380D01*
X191057595Y-111402761D01*
X190962357Y-111307523D01*
X190914738Y-111212285D01*
X190867119Y-111021809D01*
X190867119Y-110878952D01*
X190914738Y-110688476D01*
X190962357Y-110593238D01*
X191057595Y-110498000D01*
X191200452Y-110450380D01*
X191295690Y-110450380D01*
X191438547Y-110498000D01*
X191486166Y-110545619D01*
X192438547Y-111450380D02*
X191867119Y-111450380D01*
X192152833Y-111450380D02*
X192152833Y-110450380D01*
X192057595Y-110593238D01*
X191962357Y-110688476D01*
X191867119Y-110736095D01*
%TO.C,C16*%
X173614142Y-106275142D02*
X173566523Y-106322761D01*
X173423666Y-106370380D01*
X173328428Y-106370380D01*
X173185571Y-106322761D01*
X173090333Y-106227523D01*
X173042714Y-106132285D01*
X172995095Y-105941809D01*
X172995095Y-105798952D01*
X173042714Y-105608476D01*
X173090333Y-105513238D01*
X173185571Y-105418000D01*
X173328428Y-105370380D01*
X173423666Y-105370380D01*
X173566523Y-105418000D01*
X173614142Y-105465619D01*
X174566523Y-106370380D02*
X173995095Y-106370380D01*
X174280809Y-106370380D02*
X174280809Y-105370380D01*
X174185571Y-105513238D01*
X174090333Y-105608476D01*
X173995095Y-105656095D01*
X175423666Y-105370380D02*
X175233190Y-105370380D01*
X175137952Y-105418000D01*
X175090333Y-105465619D01*
X174995095Y-105608476D01*
X174947476Y-105798952D01*
X174947476Y-106179904D01*
X174995095Y-106275142D01*
X175042714Y-106322761D01*
X175137952Y-106370380D01*
X175328428Y-106370380D01*
X175423666Y-106322761D01*
X175471285Y-106275142D01*
X175518904Y-106179904D01*
X175518904Y-105941809D01*
X175471285Y-105846571D01*
X175423666Y-105798952D01*
X175328428Y-105751333D01*
X175137952Y-105751333D01*
X175042714Y-105798952D01*
X174995095Y-105846571D01*
X174947476Y-105941809D01*
%TO.C,C18*%
X180713142Y-109323142D02*
X180665523Y-109370761D01*
X180522666Y-109418380D01*
X180427428Y-109418380D01*
X180284571Y-109370761D01*
X180189333Y-109275523D01*
X180141714Y-109180285D01*
X180094095Y-108989809D01*
X180094095Y-108846952D01*
X180141714Y-108656476D01*
X180189333Y-108561238D01*
X180284571Y-108466000D01*
X180427428Y-108418380D01*
X180522666Y-108418380D01*
X180665523Y-108466000D01*
X180713142Y-108513619D01*
X181665523Y-109418380D02*
X181094095Y-109418380D01*
X181379809Y-109418380D02*
X181379809Y-108418380D01*
X181284571Y-108561238D01*
X181189333Y-108656476D01*
X181094095Y-108704095D01*
X182236952Y-108846952D02*
X182141714Y-108799333D01*
X182094095Y-108751714D01*
X182046476Y-108656476D01*
X182046476Y-108608857D01*
X182094095Y-108513619D01*
X182141714Y-108466000D01*
X182236952Y-108418380D01*
X182427428Y-108418380D01*
X182522666Y-108466000D01*
X182570285Y-108513619D01*
X182617904Y-108608857D01*
X182617904Y-108656476D01*
X182570285Y-108751714D01*
X182522666Y-108799333D01*
X182427428Y-108846952D01*
X182236952Y-108846952D01*
X182141714Y-108894571D01*
X182094095Y-108942190D01*
X182046476Y-109037428D01*
X182046476Y-109227904D01*
X182094095Y-109323142D01*
X182141714Y-109370761D01*
X182236952Y-109418380D01*
X182427428Y-109418380D01*
X182522666Y-109370761D01*
X182570285Y-109323142D01*
X182617904Y-109227904D01*
X182617904Y-109037428D01*
X182570285Y-108942190D01*
X182522666Y-108894571D01*
X182427428Y-108846952D01*
%TO.C,R6*%
X123441933Y-105608380D02*
X123108600Y-105132190D01*
X122870504Y-105608380D02*
X122870504Y-104608380D01*
X123251457Y-104608380D01*
X123346695Y-104656000D01*
X123394314Y-104703619D01*
X123441933Y-104798857D01*
X123441933Y-104941714D01*
X123394314Y-105036952D01*
X123346695Y-105084571D01*
X123251457Y-105132190D01*
X122870504Y-105132190D01*
X124299076Y-104608380D02*
X124108600Y-104608380D01*
X124013361Y-104656000D01*
X123965742Y-104703619D01*
X123870504Y-104846476D01*
X123822885Y-105036952D01*
X123822885Y-105417904D01*
X123870504Y-105513142D01*
X123918123Y-105560761D01*
X124013361Y-105608380D01*
X124203838Y-105608380D01*
X124299076Y-105560761D01*
X124346695Y-105513142D01*
X124394314Y-105417904D01*
X124394314Y-105179809D01*
X124346695Y-105084571D01*
X124299076Y-105036952D01*
X124203838Y-104989333D01*
X124013361Y-104989333D01*
X123918123Y-105036952D01*
X123870504Y-105084571D01*
X123822885Y-105179809D01*
%TO.C,BOOT*%
X114263657Y-113212571D02*
X114406514Y-113260190D01*
X114454133Y-113307809D01*
X114501752Y-113403047D01*
X114501752Y-113545904D01*
X114454133Y-113641142D01*
X114406514Y-113688761D01*
X114311276Y-113736380D01*
X113930323Y-113736380D01*
X113930323Y-112736380D01*
X114263657Y-112736380D01*
X114358895Y-112784000D01*
X114406514Y-112831619D01*
X114454133Y-112926857D01*
X114454133Y-113022095D01*
X114406514Y-113117333D01*
X114358895Y-113164952D01*
X114263657Y-113212571D01*
X113930323Y-113212571D01*
X115120800Y-112736380D02*
X115311276Y-112736380D01*
X115406514Y-112784000D01*
X115501752Y-112879238D01*
X115549371Y-113069714D01*
X115549371Y-113403047D01*
X115501752Y-113593523D01*
X115406514Y-113688761D01*
X115311276Y-113736380D01*
X115120800Y-113736380D01*
X115025561Y-113688761D01*
X114930323Y-113593523D01*
X114882704Y-113403047D01*
X114882704Y-113069714D01*
X114930323Y-112879238D01*
X115025561Y-112784000D01*
X115120800Y-112736380D01*
X116168419Y-112736380D02*
X116358895Y-112736380D01*
X116454133Y-112784000D01*
X116549371Y-112879238D01*
X116596990Y-113069714D01*
X116596990Y-113403047D01*
X116549371Y-113593523D01*
X116454133Y-113688761D01*
X116358895Y-113736380D01*
X116168419Y-113736380D01*
X116073180Y-113688761D01*
X115977942Y-113593523D01*
X115930323Y-113403047D01*
X115930323Y-113069714D01*
X115977942Y-112879238D01*
X116073180Y-112784000D01*
X116168419Y-112736380D01*
X116882704Y-112736380D02*
X117454133Y-112736380D01*
X117168419Y-113736380D02*
X117168419Y-112736380D01*
%TO.C,PWR*%
X141414666Y-92908380D02*
X141414666Y-91908380D01*
X141795619Y-91908380D01*
X141890857Y-91956000D01*
X141938476Y-92003619D01*
X141986095Y-92098857D01*
X141986095Y-92241714D01*
X141938476Y-92336952D01*
X141890857Y-92384571D01*
X141795619Y-92432190D01*
X141414666Y-92432190D01*
X142319428Y-91908380D02*
X142557523Y-92908380D01*
X142748000Y-92194095D01*
X142938476Y-92908380D01*
X143176571Y-91908380D01*
X144128952Y-92908380D02*
X143795619Y-92432190D01*
X143557523Y-92908380D02*
X143557523Y-91908380D01*
X143938476Y-91908380D01*
X144033714Y-91956000D01*
X144081333Y-92003619D01*
X144128952Y-92098857D01*
X144128952Y-92241714D01*
X144081333Y-92336952D01*
X144033714Y-92384571D01*
X143938476Y-92432190D01*
X143557523Y-92432190D01*
%TO.C,D3*%
X183157904Y-116276380D02*
X183157904Y-115276380D01*
X183396000Y-115276380D01*
X183538857Y-115324000D01*
X183634095Y-115419238D01*
X183681714Y-115514476D01*
X183729333Y-115704952D01*
X183729333Y-115847809D01*
X183681714Y-116038285D01*
X183634095Y-116133523D01*
X183538857Y-116228761D01*
X183396000Y-116276380D01*
X183157904Y-116276380D01*
X184062666Y-115276380D02*
X184681714Y-115276380D01*
X184348380Y-115657333D01*
X184491238Y-115657333D01*
X184586476Y-115704952D01*
X184634095Y-115752571D01*
X184681714Y-115847809D01*
X184681714Y-116085904D01*
X184634095Y-116181142D01*
X184586476Y-116228761D01*
X184491238Y-116276380D01*
X184205523Y-116276380D01*
X184110285Y-116228761D01*
X184062666Y-116181142D01*
%TO.C,R2*%
X144968933Y-114396780D02*
X144635600Y-113920590D01*
X144397504Y-114396780D02*
X144397504Y-113396780D01*
X144778457Y-113396780D01*
X144873695Y-113444400D01*
X144921314Y-113492019D01*
X144968933Y-113587257D01*
X144968933Y-113730114D01*
X144921314Y-113825352D01*
X144873695Y-113872971D01*
X144778457Y-113920590D01*
X144397504Y-113920590D01*
X145349885Y-113492019D02*
X145397504Y-113444400D01*
X145492742Y-113396780D01*
X145730838Y-113396780D01*
X145826076Y-113444400D01*
X145873695Y-113492019D01*
X145921314Y-113587257D01*
X145921314Y-113682495D01*
X145873695Y-113825352D01*
X145302266Y-114396780D01*
X145921314Y-114396780D01*
%TO.C,C14*%
X173614142Y-102719142D02*
X173566523Y-102766761D01*
X173423666Y-102814380D01*
X173328428Y-102814380D01*
X173185571Y-102766761D01*
X173090333Y-102671523D01*
X173042714Y-102576285D01*
X172995095Y-102385809D01*
X172995095Y-102242952D01*
X173042714Y-102052476D01*
X173090333Y-101957238D01*
X173185571Y-101862000D01*
X173328428Y-101814380D01*
X173423666Y-101814380D01*
X173566523Y-101862000D01*
X173614142Y-101909619D01*
X174566523Y-102814380D02*
X173995095Y-102814380D01*
X174280809Y-102814380D02*
X174280809Y-101814380D01*
X174185571Y-101957238D01*
X174090333Y-102052476D01*
X173995095Y-102100095D01*
X175423666Y-102147714D02*
X175423666Y-102814380D01*
X175185571Y-101766761D02*
X174947476Y-102481047D01*
X175566523Y-102481047D01*
%TO.C,C6*%
X140219133Y-106427542D02*
X140171514Y-106475161D01*
X140028657Y-106522780D01*
X139933419Y-106522780D01*
X139790561Y-106475161D01*
X139695323Y-106379923D01*
X139647704Y-106284685D01*
X139600085Y-106094209D01*
X139600085Y-105951352D01*
X139647704Y-105760876D01*
X139695323Y-105665638D01*
X139790561Y-105570400D01*
X139933419Y-105522780D01*
X140028657Y-105522780D01*
X140171514Y-105570400D01*
X140219133Y-105618019D01*
X141076276Y-105522780D02*
X140885800Y-105522780D01*
X140790561Y-105570400D01*
X140742942Y-105618019D01*
X140647704Y-105760876D01*
X140600085Y-105951352D01*
X140600085Y-106332304D01*
X140647704Y-106427542D01*
X140695323Y-106475161D01*
X140790561Y-106522780D01*
X140981038Y-106522780D01*
X141076276Y-106475161D01*
X141123895Y-106427542D01*
X141171514Y-106332304D01*
X141171514Y-106094209D01*
X141123895Y-105998971D01*
X141076276Y-105951352D01*
X140981038Y-105903733D01*
X140790561Y-105903733D01*
X140695323Y-105951352D01*
X140647704Y-105998971D01*
X140600085Y-106094209D01*
%TO.C,C8*%
X163028333Y-116181142D02*
X162980714Y-116228761D01*
X162837857Y-116276380D01*
X162742619Y-116276380D01*
X162599761Y-116228761D01*
X162504523Y-116133523D01*
X162456904Y-116038285D01*
X162409285Y-115847809D01*
X162409285Y-115704952D01*
X162456904Y-115514476D01*
X162504523Y-115419238D01*
X162599761Y-115324000D01*
X162742619Y-115276380D01*
X162837857Y-115276380D01*
X162980714Y-115324000D01*
X163028333Y-115371619D01*
X163599761Y-115704952D02*
X163504523Y-115657333D01*
X163456904Y-115609714D01*
X163409285Y-115514476D01*
X163409285Y-115466857D01*
X163456904Y-115371619D01*
X163504523Y-115324000D01*
X163599761Y-115276380D01*
X163790238Y-115276380D01*
X163885476Y-115324000D01*
X163933095Y-115371619D01*
X163980714Y-115466857D01*
X163980714Y-115514476D01*
X163933095Y-115609714D01*
X163885476Y-115657333D01*
X163790238Y-115704952D01*
X163599761Y-115704952D01*
X163504523Y-115752571D01*
X163456904Y-115800190D01*
X163409285Y-115895428D01*
X163409285Y-116085904D01*
X163456904Y-116181142D01*
X163504523Y-116228761D01*
X163599761Y-116276380D01*
X163790238Y-116276380D01*
X163885476Y-116228761D01*
X163933095Y-116181142D01*
X163980714Y-116085904D01*
X163980714Y-115895428D01*
X163933095Y-115800190D01*
X163885476Y-115752571D01*
X163790238Y-115704952D01*
%TO.C,RST_EN*%
X113716038Y-95702380D02*
X113382704Y-95226190D01*
X113144609Y-95702380D02*
X113144609Y-94702380D01*
X113525561Y-94702380D01*
X113620800Y-94750000D01*
X113668419Y-94797619D01*
X113716038Y-94892857D01*
X113716038Y-95035714D01*
X113668419Y-95130952D01*
X113620800Y-95178571D01*
X113525561Y-95226190D01*
X113144609Y-95226190D01*
X114096990Y-95654761D02*
X114239847Y-95702380D01*
X114477942Y-95702380D01*
X114573180Y-95654761D01*
X114620800Y-95607142D01*
X114668419Y-95511904D01*
X114668419Y-95416666D01*
X114620800Y-95321428D01*
X114573180Y-95273809D01*
X114477942Y-95226190D01*
X114287466Y-95178571D01*
X114192228Y-95130952D01*
X114144609Y-95083333D01*
X114096990Y-94988095D01*
X114096990Y-94892857D01*
X114144609Y-94797619D01*
X114192228Y-94750000D01*
X114287466Y-94702380D01*
X114525561Y-94702380D01*
X114668419Y-94750000D01*
X114954133Y-94702380D02*
X115525561Y-94702380D01*
X115239847Y-95702380D02*
X115239847Y-94702380D01*
X115620800Y-95797619D02*
X116382704Y-95797619D01*
X116620800Y-95178571D02*
X116954133Y-95178571D01*
X117096990Y-95702380D02*
X116620800Y-95702380D01*
X116620800Y-94702380D01*
X117096990Y-94702380D01*
X117525561Y-95702380D02*
X117525561Y-94702380D01*
X118096990Y-95702380D01*
X118096990Y-94702380D01*
%TO.C,C2*%
X122134333Y-95353142D02*
X122086714Y-95400761D01*
X121943857Y-95448380D01*
X121848619Y-95448380D01*
X121705761Y-95400761D01*
X121610523Y-95305523D01*
X121562904Y-95210285D01*
X121515285Y-95019809D01*
X121515285Y-94876952D01*
X121562904Y-94686476D01*
X121610523Y-94591238D01*
X121705761Y-94496000D01*
X121848619Y-94448380D01*
X121943857Y-94448380D01*
X122086714Y-94496000D01*
X122134333Y-94543619D01*
X122515285Y-94543619D02*
X122562904Y-94496000D01*
X122658142Y-94448380D01*
X122896238Y-94448380D01*
X122991476Y-94496000D01*
X123039095Y-94543619D01*
X123086714Y-94638857D01*
X123086714Y-94734095D01*
X123039095Y-94876952D01*
X122467666Y-95448380D01*
X123086714Y-95448380D01*
%TO.C,R4*%
X137653733Y-113482380D02*
X137320400Y-113006190D01*
X137082304Y-113482380D02*
X137082304Y-112482380D01*
X137463257Y-112482380D01*
X137558495Y-112530000D01*
X137606114Y-112577619D01*
X137653733Y-112672857D01*
X137653733Y-112815714D01*
X137606114Y-112910952D01*
X137558495Y-112958571D01*
X137463257Y-113006190D01*
X137082304Y-113006190D01*
X138510876Y-112815714D02*
X138510876Y-113482380D01*
X138272780Y-112434761D02*
X138034685Y-113149047D01*
X138653733Y-113149047D01*
%TO.C,J2*%
X169846666Y-86066380D02*
X169846666Y-86780666D01*
X169799047Y-86923523D01*
X169703809Y-87018761D01*
X169560952Y-87066380D01*
X169465714Y-87066380D01*
X170275238Y-86161619D02*
X170322857Y-86114000D01*
X170418095Y-86066380D01*
X170656190Y-86066380D01*
X170751428Y-86114000D01*
X170799047Y-86161619D01*
X170846666Y-86256857D01*
X170846666Y-86352095D01*
X170799047Y-86494952D01*
X170227619Y-87066380D01*
X170846666Y-87066380D01*
%TO.C,R8*%
X168235333Y-105557580D02*
X167902000Y-105081390D01*
X167663904Y-105557580D02*
X167663904Y-104557580D01*
X168044857Y-104557580D01*
X168140095Y-104605200D01*
X168187714Y-104652819D01*
X168235333Y-104748057D01*
X168235333Y-104890914D01*
X168187714Y-104986152D01*
X168140095Y-105033771D01*
X168044857Y-105081390D01*
X167663904Y-105081390D01*
X168806761Y-104986152D02*
X168711523Y-104938533D01*
X168663904Y-104890914D01*
X168616285Y-104795676D01*
X168616285Y-104748057D01*
X168663904Y-104652819D01*
X168711523Y-104605200D01*
X168806761Y-104557580D01*
X168997238Y-104557580D01*
X169092476Y-104605200D01*
X169140095Y-104652819D01*
X169187714Y-104748057D01*
X169187714Y-104795676D01*
X169140095Y-104890914D01*
X169092476Y-104938533D01*
X168997238Y-104986152D01*
X168806761Y-104986152D01*
X168711523Y-105033771D01*
X168663904Y-105081390D01*
X168616285Y-105176628D01*
X168616285Y-105367104D01*
X168663904Y-105462342D01*
X168711523Y-105509961D01*
X168806761Y-105557580D01*
X168997238Y-105557580D01*
X169092476Y-105509961D01*
X169140095Y-105462342D01*
X169187714Y-105367104D01*
X169187714Y-105176628D01*
X169140095Y-105081390D01*
X169092476Y-105033771D01*
X168997238Y-104986152D01*
%TO.C,C3*%
X142479733Y-100483942D02*
X142432114Y-100531561D01*
X142289257Y-100579180D01*
X142194019Y-100579180D01*
X142051161Y-100531561D01*
X141955923Y-100436323D01*
X141908304Y-100341085D01*
X141860685Y-100150609D01*
X141860685Y-100007752D01*
X141908304Y-99817276D01*
X141955923Y-99722038D01*
X142051161Y-99626800D01*
X142194019Y-99579180D01*
X142289257Y-99579180D01*
X142432114Y-99626800D01*
X142479733Y-99674419D01*
X142813066Y-99579180D02*
X143432114Y-99579180D01*
X143098780Y-99960133D01*
X143241638Y-99960133D01*
X143336876Y-100007752D01*
X143384495Y-100055371D01*
X143432114Y-100150609D01*
X143432114Y-100388704D01*
X143384495Y-100483942D01*
X143336876Y-100531561D01*
X143241638Y-100579180D01*
X142955923Y-100579180D01*
X142860685Y-100531561D01*
X142813066Y-100483942D01*
%TO.C,R1*%
X119848333Y-95448380D02*
X119515000Y-94972190D01*
X119276904Y-95448380D02*
X119276904Y-94448380D01*
X119657857Y-94448380D01*
X119753095Y-94496000D01*
X119800714Y-94543619D01*
X119848333Y-94638857D01*
X119848333Y-94781714D01*
X119800714Y-94876952D01*
X119753095Y-94924571D01*
X119657857Y-94972190D01*
X119276904Y-94972190D01*
X120800714Y-95448380D02*
X120229285Y-95448380D01*
X120515000Y-95448380D02*
X120515000Y-94448380D01*
X120419761Y-94591238D01*
X120324523Y-94686476D01*
X120229285Y-94734095D01*
%TO.C,D4*%
X177315904Y-115641380D02*
X177315904Y-114641380D01*
X177554000Y-114641380D01*
X177696857Y-114689000D01*
X177792095Y-114784238D01*
X177839714Y-114879476D01*
X177887333Y-115069952D01*
X177887333Y-115212809D01*
X177839714Y-115403285D01*
X177792095Y-115498523D01*
X177696857Y-115593761D01*
X177554000Y-115641380D01*
X177315904Y-115641380D01*
X178744476Y-114974714D02*
X178744476Y-115641380D01*
X178506380Y-114593761D02*
X178268285Y-115308047D01*
X178887333Y-115308047D01*
%TO.C,R7*%
X123429733Y-98623380D02*
X123096400Y-98147190D01*
X122858304Y-98623380D02*
X122858304Y-97623380D01*
X123239257Y-97623380D01*
X123334495Y-97671000D01*
X123382114Y-97718619D01*
X123429733Y-97813857D01*
X123429733Y-97956714D01*
X123382114Y-98051952D01*
X123334495Y-98099571D01*
X123239257Y-98147190D01*
X122858304Y-98147190D01*
X123763066Y-97623380D02*
X124429733Y-97623380D01*
X124001161Y-98623380D01*
%TO.C,R9*%
X141946333Y-89098380D02*
X141613000Y-88622190D01*
X141374904Y-89098380D02*
X141374904Y-88098380D01*
X141755857Y-88098380D01*
X141851095Y-88146000D01*
X141898714Y-88193619D01*
X141946333Y-88288857D01*
X141946333Y-88431714D01*
X141898714Y-88526952D01*
X141851095Y-88574571D01*
X141755857Y-88622190D01*
X141374904Y-88622190D01*
X142422523Y-89098380D02*
X142613000Y-89098380D01*
X142708238Y-89050761D01*
X142755857Y-89003142D01*
X142851095Y-88860285D01*
X142898714Y-88669809D01*
X142898714Y-88288857D01*
X142851095Y-88193619D01*
X142803476Y-88146000D01*
X142708238Y-88098380D01*
X142517761Y-88098380D01*
X142422523Y-88146000D01*
X142374904Y-88193619D01*
X142327285Y-88288857D01*
X142327285Y-88526952D01*
X142374904Y-88622190D01*
X142422523Y-88669809D01*
X142517761Y-88717428D01*
X142708238Y-88717428D01*
X142803476Y-88669809D01*
X142851095Y-88622190D01*
X142898714Y-88526952D01*
%TO.C,C12*%
X171683742Y-92457542D02*
X171636123Y-92505161D01*
X171493266Y-92552780D01*
X171398028Y-92552780D01*
X171255171Y-92505161D01*
X171159933Y-92409923D01*
X171112314Y-92314685D01*
X171064695Y-92124209D01*
X171064695Y-91981352D01*
X171112314Y-91790876D01*
X171159933Y-91695638D01*
X171255171Y-91600400D01*
X171398028Y-91552780D01*
X171493266Y-91552780D01*
X171636123Y-91600400D01*
X171683742Y-91648019D01*
X172636123Y-92552780D02*
X172064695Y-92552780D01*
X172350409Y-92552780D02*
X172350409Y-91552780D01*
X172255171Y-91695638D01*
X172159933Y-91790876D01*
X172064695Y-91838495D01*
X173017076Y-91648019D02*
X173064695Y-91600400D01*
X173159933Y-91552780D01*
X173398028Y-91552780D01*
X173493266Y-91600400D01*
X173540885Y-91648019D01*
X173588504Y-91743257D01*
X173588504Y-91838495D01*
X173540885Y-91981352D01*
X172969457Y-92552780D01*
X173588504Y-92552780D01*
%TO.C,Q2*%
X132238761Y-113577619D02*
X132143523Y-113530000D01*
X132048285Y-113434761D01*
X131905428Y-113291904D01*
X131810190Y-113244285D01*
X131714952Y-113244285D01*
X131762571Y-113482380D02*
X131667333Y-113434761D01*
X131572095Y-113339523D01*
X131524476Y-113149047D01*
X131524476Y-112815714D01*
X131572095Y-112625238D01*
X131667333Y-112530000D01*
X131762571Y-112482380D01*
X131953047Y-112482380D01*
X132048285Y-112530000D01*
X132143523Y-112625238D01*
X132191142Y-112815714D01*
X132191142Y-113149047D01*
X132143523Y-113339523D01*
X132048285Y-113434761D01*
X131953047Y-113482380D01*
X131762571Y-113482380D01*
X132572095Y-112577619D02*
X132619714Y-112530000D01*
X132714952Y-112482380D01*
X132953047Y-112482380D01*
X133048285Y-112530000D01*
X133095904Y-112577619D01*
X133143523Y-112672857D01*
X133143523Y-112768095D01*
X133095904Y-112910952D01*
X132524476Y-113482380D01*
X133143523Y-113482380D01*
%TO.C,C20*%
X184777142Y-117959142D02*
X184729523Y-118006761D01*
X184586666Y-118054380D01*
X184491428Y-118054380D01*
X184348571Y-118006761D01*
X184253333Y-117911523D01*
X184205714Y-117816285D01*
X184158095Y-117625809D01*
X184158095Y-117482952D01*
X184205714Y-117292476D01*
X184253333Y-117197238D01*
X184348571Y-117102000D01*
X184491428Y-117054380D01*
X184586666Y-117054380D01*
X184729523Y-117102000D01*
X184777142Y-117149619D01*
X185158095Y-117149619D02*
X185205714Y-117102000D01*
X185300952Y-117054380D01*
X185539047Y-117054380D01*
X185634285Y-117102000D01*
X185681904Y-117149619D01*
X185729523Y-117244857D01*
X185729523Y-117340095D01*
X185681904Y-117482952D01*
X185110476Y-118054380D01*
X185729523Y-118054380D01*
X186348571Y-117054380D02*
X186443809Y-117054380D01*
X186539047Y-117102000D01*
X186586666Y-117149619D01*
X186634285Y-117244857D01*
X186681904Y-117435333D01*
X186681904Y-117673428D01*
X186634285Y-117863904D01*
X186586666Y-117959142D01*
X186539047Y-118006761D01*
X186443809Y-118054380D01*
X186348571Y-118054380D01*
X186253333Y-118006761D01*
X186205714Y-117959142D01*
X186158095Y-117863904D01*
X186110476Y-117673428D01*
X186110476Y-117435333D01*
X186158095Y-117244857D01*
X186205714Y-117149619D01*
X186253333Y-117102000D01*
X186348571Y-117054380D01*
%TO.C,C10*%
X127373142Y-86463142D02*
X127325523Y-86510761D01*
X127182666Y-86558380D01*
X127087428Y-86558380D01*
X126944571Y-86510761D01*
X126849333Y-86415523D01*
X126801714Y-86320285D01*
X126754095Y-86129809D01*
X126754095Y-85986952D01*
X126801714Y-85796476D01*
X126849333Y-85701238D01*
X126944571Y-85606000D01*
X127087428Y-85558380D01*
X127182666Y-85558380D01*
X127325523Y-85606000D01*
X127373142Y-85653619D01*
X128325523Y-86558380D02*
X127754095Y-86558380D01*
X128039809Y-86558380D02*
X128039809Y-85558380D01*
X127944571Y-85701238D01*
X127849333Y-85796476D01*
X127754095Y-85844095D01*
X128944571Y-85558380D02*
X129039809Y-85558380D01*
X129135047Y-85606000D01*
X129182666Y-85653619D01*
X129230285Y-85748857D01*
X129277904Y-85939333D01*
X129277904Y-86177428D01*
X129230285Y-86367904D01*
X129182666Y-86463142D01*
X129135047Y-86510761D01*
X129039809Y-86558380D01*
X128944571Y-86558380D01*
X128849333Y-86510761D01*
X128801714Y-86463142D01*
X128754095Y-86367904D01*
X128706476Y-86177428D01*
X128706476Y-85939333D01*
X128754095Y-85748857D01*
X128801714Y-85653619D01*
X128849333Y-85606000D01*
X128944571Y-85558380D01*
%TO.C,C21*%
X187825142Y-117959142D02*
X187777523Y-118006761D01*
X187634666Y-118054380D01*
X187539428Y-118054380D01*
X187396571Y-118006761D01*
X187301333Y-117911523D01*
X187253714Y-117816285D01*
X187206095Y-117625809D01*
X187206095Y-117482952D01*
X187253714Y-117292476D01*
X187301333Y-117197238D01*
X187396571Y-117102000D01*
X187539428Y-117054380D01*
X187634666Y-117054380D01*
X187777523Y-117102000D01*
X187825142Y-117149619D01*
X188206095Y-117149619D02*
X188253714Y-117102000D01*
X188348952Y-117054380D01*
X188587047Y-117054380D01*
X188682285Y-117102000D01*
X188729904Y-117149619D01*
X188777523Y-117244857D01*
X188777523Y-117340095D01*
X188729904Y-117482952D01*
X188158476Y-118054380D01*
X188777523Y-118054380D01*
X189729904Y-118054380D02*
X189158476Y-118054380D01*
X189444190Y-118054380D02*
X189444190Y-117054380D01*
X189348952Y-117197238D01*
X189253714Y-117292476D01*
X189158476Y-117340095D01*
%TO.C,L1*%
X172105333Y-116367523D02*
X171800571Y-116367523D01*
X171800571Y-115727523D01*
X172653904Y-116367523D02*
X172288190Y-116367523D01*
X172471047Y-116367523D02*
X172471047Y-115727523D01*
X172410095Y-115818952D01*
X172349142Y-115879904D01*
X172288190Y-115910380D01*
%TO.C,C7*%
X142352733Y-106427542D02*
X142305114Y-106475161D01*
X142162257Y-106522780D01*
X142067019Y-106522780D01*
X141924161Y-106475161D01*
X141828923Y-106379923D01*
X141781304Y-106284685D01*
X141733685Y-106094209D01*
X141733685Y-105951352D01*
X141781304Y-105760876D01*
X141828923Y-105665638D01*
X141924161Y-105570400D01*
X142067019Y-105522780D01*
X142162257Y-105522780D01*
X142305114Y-105570400D01*
X142352733Y-105618019D01*
X142686066Y-105522780D02*
X143352733Y-105522780D01*
X142924161Y-106522780D01*
%TO.C,C19*%
X183507142Y-109323142D02*
X183459523Y-109370761D01*
X183316666Y-109418380D01*
X183221428Y-109418380D01*
X183078571Y-109370761D01*
X182983333Y-109275523D01*
X182935714Y-109180285D01*
X182888095Y-108989809D01*
X182888095Y-108846952D01*
X182935714Y-108656476D01*
X182983333Y-108561238D01*
X183078571Y-108466000D01*
X183221428Y-108418380D01*
X183316666Y-108418380D01*
X183459523Y-108466000D01*
X183507142Y-108513619D01*
X184459523Y-109418380D02*
X183888095Y-109418380D01*
X184173809Y-109418380D02*
X184173809Y-108418380D01*
X184078571Y-108561238D01*
X183983333Y-108656476D01*
X183888095Y-108704095D01*
X184935714Y-109418380D02*
X185126190Y-109418380D01*
X185221428Y-109370761D01*
X185269047Y-109323142D01*
X185364285Y-109180285D01*
X185411904Y-108989809D01*
X185411904Y-108608857D01*
X185364285Y-108513619D01*
X185316666Y-108466000D01*
X185221428Y-108418380D01*
X185030952Y-108418380D01*
X184935714Y-108466000D01*
X184888095Y-108513619D01*
X184840476Y-108608857D01*
X184840476Y-108846952D01*
X184888095Y-108942190D01*
X184935714Y-108989809D01*
X185030952Y-109037428D01*
X185221428Y-109037428D01*
X185316666Y-108989809D01*
X185364285Y-108942190D01*
X185411904Y-108846952D01*
%TO.C,C15*%
X173614142Y-104497142D02*
X173566523Y-104544761D01*
X173423666Y-104592380D01*
X173328428Y-104592380D01*
X173185571Y-104544761D01*
X173090333Y-104449523D01*
X173042714Y-104354285D01*
X172995095Y-104163809D01*
X172995095Y-104020952D01*
X173042714Y-103830476D01*
X173090333Y-103735238D01*
X173185571Y-103640000D01*
X173328428Y-103592380D01*
X173423666Y-103592380D01*
X173566523Y-103640000D01*
X173614142Y-103687619D01*
X174566523Y-104592380D02*
X173995095Y-104592380D01*
X174280809Y-104592380D02*
X174280809Y-103592380D01*
X174185571Y-103735238D01*
X174090333Y-103830476D01*
X173995095Y-103878095D01*
X175471285Y-103592380D02*
X174995095Y-103592380D01*
X174947476Y-104068571D01*
X174995095Y-104020952D01*
X175090333Y-103973333D01*
X175328428Y-103973333D01*
X175423666Y-104020952D01*
X175471285Y-104068571D01*
X175518904Y-104163809D01*
X175518904Y-104401904D01*
X175471285Y-104497142D01*
X175423666Y-104544761D01*
X175328428Y-104592380D01*
X175090333Y-104592380D01*
X174995095Y-104544761D01*
X174947476Y-104497142D01*
%TO.C,R3*%
X144905933Y-112085380D02*
X144572600Y-111609190D01*
X144334504Y-112085380D02*
X144334504Y-111085380D01*
X144715457Y-111085380D01*
X144810695Y-111133000D01*
X144858314Y-111180619D01*
X144905933Y-111275857D01*
X144905933Y-111418714D01*
X144858314Y-111513952D01*
X144810695Y-111561571D01*
X144715457Y-111609190D01*
X144334504Y-111609190D01*
X145239266Y-111085380D02*
X145858314Y-111085380D01*
X145524980Y-111466333D01*
X145667838Y-111466333D01*
X145763076Y-111513952D01*
X145810695Y-111561571D01*
X145858314Y-111656809D01*
X145858314Y-111894904D01*
X145810695Y-111990142D01*
X145763076Y-112037761D01*
X145667838Y-112085380D01*
X145382123Y-112085380D01*
X145286885Y-112037761D01*
X145239266Y-111990142D01*
%TO.C,R10*%
X164965142Y-112974380D02*
X164631809Y-112498190D01*
X164393714Y-112974380D02*
X164393714Y-111974380D01*
X164774666Y-111974380D01*
X164869904Y-112022000D01*
X164917523Y-112069619D01*
X164965142Y-112164857D01*
X164965142Y-112307714D01*
X164917523Y-112402952D01*
X164869904Y-112450571D01*
X164774666Y-112498190D01*
X164393714Y-112498190D01*
X165917523Y-112974380D02*
X165346095Y-112974380D01*
X165631809Y-112974380D02*
X165631809Y-111974380D01*
X165536571Y-112117238D01*
X165441333Y-112212476D01*
X165346095Y-112260095D01*
X166536571Y-111974380D02*
X166631809Y-111974380D01*
X166727047Y-112022000D01*
X166774666Y-112069619D01*
X166822285Y-112164857D01*
X166869904Y-112355333D01*
X166869904Y-112593428D01*
X166822285Y-112783904D01*
X166774666Y-112879142D01*
X166727047Y-112926761D01*
X166631809Y-112974380D01*
X166536571Y-112974380D01*
X166441333Y-112926761D01*
X166393714Y-112879142D01*
X166346095Y-112783904D01*
X166298476Y-112593428D01*
X166298476Y-112355333D01*
X166346095Y-112164857D01*
X166393714Y-112069619D01*
X166441333Y-112022000D01*
X166536571Y-111974380D01*
%TO.C,C4*%
X127849333Y-95353142D02*
X127801714Y-95400761D01*
X127658857Y-95448380D01*
X127563619Y-95448380D01*
X127420761Y-95400761D01*
X127325523Y-95305523D01*
X127277904Y-95210285D01*
X127230285Y-95019809D01*
X127230285Y-94876952D01*
X127277904Y-94686476D01*
X127325523Y-94591238D01*
X127420761Y-94496000D01*
X127563619Y-94448380D01*
X127658857Y-94448380D01*
X127801714Y-94496000D01*
X127849333Y-94543619D01*
X128706476Y-94781714D02*
X128706476Y-95448380D01*
X128468380Y-94400761D02*
X128230285Y-95115047D01*
X128849333Y-95115047D01*
%TO.C,U2*%
X126746095Y-96327980D02*
X126746095Y-97137504D01*
X126793714Y-97232742D01*
X126841333Y-97280361D01*
X126936571Y-97327980D01*
X127127047Y-97327980D01*
X127222285Y-97280361D01*
X127269904Y-97232742D01*
X127317523Y-97137504D01*
X127317523Y-96327980D01*
X127746095Y-96423219D02*
X127793714Y-96375600D01*
X127888952Y-96327980D01*
X128127047Y-96327980D01*
X128222285Y-96375600D01*
X128269904Y-96423219D01*
X128317523Y-96518457D01*
X128317523Y-96613695D01*
X128269904Y-96756552D01*
X127698476Y-97327980D01*
X128317523Y-97327980D01*
%TO.C,C9*%
X125309333Y-86463142D02*
X125261714Y-86510761D01*
X125118857Y-86558380D01*
X125023619Y-86558380D01*
X124880761Y-86510761D01*
X124785523Y-86415523D01*
X124737904Y-86320285D01*
X124690285Y-86129809D01*
X124690285Y-85986952D01*
X124737904Y-85796476D01*
X124785523Y-85701238D01*
X124880761Y-85606000D01*
X125023619Y-85558380D01*
X125118857Y-85558380D01*
X125261714Y-85606000D01*
X125309333Y-85653619D01*
X125785523Y-86558380D02*
X125976000Y-86558380D01*
X126071238Y-86510761D01*
X126118857Y-86463142D01*
X126214095Y-86320285D01*
X126261714Y-86129809D01*
X126261714Y-85748857D01*
X126214095Y-85653619D01*
X126166476Y-85606000D01*
X126071238Y-85558380D01*
X125880761Y-85558380D01*
X125785523Y-85606000D01*
X125737904Y-85653619D01*
X125690285Y-85748857D01*
X125690285Y-85986952D01*
X125737904Y-86082190D01*
X125785523Y-86129809D01*
X125880761Y-86177428D01*
X126071238Y-86177428D01*
X126166476Y-86129809D01*
X126214095Y-86082190D01*
X126261714Y-85986952D01*
D11*
%TO.C,C1*%
X116599580Y-89152000D02*
X116318420Y-89152000D01*
X116599580Y-90172000D02*
X116318420Y-90172000D01*
%TO.C,Q1*%
X132334000Y-108930000D02*
X130659000Y-108930000D01*
X132334000Y-112050000D02*
X131684000Y-112050000D01*
X132334000Y-108930000D02*
X132984000Y-108930000D01*
X132334000Y-112050000D02*
X132984000Y-112050000D01*
%TO.C,R5*%
X129046500Y-112792742D02*
X129046500Y-113267258D01*
X128001500Y-112792742D02*
X128001500Y-113267258D01*
%TO.C,C13*%
X175742020Y-94642400D02*
X176023180Y-94642400D01*
X175742020Y-93622400D02*
X176023180Y-93622400D01*
%TO.C,C17*%
X177926420Y-107186000D02*
X178207580Y-107186000D01*
X177926420Y-108206000D02*
X178207580Y-108206000D01*
D12*
%TO.C,Q3*%
X169815000Y-110538000D02*
X169815000Y-110188000D01*
X171815000Y-110188000D02*
X171815000Y-110538000D01*
X171815000Y-110538000D02*
X169815000Y-110538000D01*
X171965000Y-108788000D02*
X171965000Y-109838000D01*
X169815000Y-110188000D02*
X171815000Y-110188000D01*
D11*
%TO.C,J1*%
X115550800Y-106408600D02*
X117470800Y-106408600D01*
X111835800Y-97248600D02*
X113540800Y-97248600D01*
X117470800Y-97248600D02*
X115550800Y-97248600D01*
X111835800Y-106408600D02*
X111835800Y-97248600D01*
X113540800Y-106408600D02*
X111835800Y-106408600D01*
%TO.C,U3*%
X135869600Y-92310000D02*
X135869600Y-91050000D01*
X129859600Y-85490000D02*
X135869600Y-85490000D01*
X132109600Y-92310000D02*
X135869600Y-92310000D01*
X135869600Y-85490000D02*
X135869600Y-86750000D01*
%TO.C,D2*%
X175498000Y-109764000D02*
X175498000Y-113664000D01*
X173498000Y-109764000D02*
X173498000Y-113664000D01*
X175498000Y-109764000D02*
X173498000Y-109764000D01*
%TO.C,U1*%
X163349000Y-89738000D02*
X145349000Y-89738000D01*
X145349000Y-83798000D02*
X145349000Y-90548000D01*
X145349000Y-108548000D02*
X145349000Y-109298000D01*
X163349000Y-83798000D02*
X163349000Y-90548000D01*
X163349000Y-109298000D02*
X162599000Y-109298000D01*
X162599000Y-109298000D02*
X160849000Y-109298000D01*
X163349000Y-108548000D02*
X163349000Y-109298000D01*
X146099000Y-109298000D02*
X147849000Y-109298000D01*
X145349000Y-83798000D02*
X163349000Y-83798000D01*
X145349000Y-109298000D02*
X146099000Y-109298000D01*
%TO.C,C5*%
X125986000Y-92596580D02*
X125986000Y-92315420D01*
X124966000Y-92596580D02*
X124966000Y-92315420D01*
%TO.C,C11*%
X175627420Y-117604000D02*
X175908580Y-117604000D01*
X175627420Y-116584000D02*
X175908580Y-116584000D01*
D13*
%TO.C,FPC1*%
X191704000Y-106897000D02*
X191704000Y-94779000D01*
X192996000Y-92018000D02*
X192996000Y-109658000D01*
X191706000Y-109658000D02*
X191706000Y-109359000D01*
X191704000Y-92317000D02*
X191704000Y-92018000D01*
X191704000Y-92018000D02*
X192996000Y-92018000D01*
X192996000Y-109658000D02*
X191706000Y-109658000D01*
X187242000Y-94344000D02*
G75*
G03*
X187242000Y-94344000I-127000J0D01*
G01*
D11*
%TO.C,C16*%
X177926420Y-105408000D02*
X178207580Y-105408000D01*
X177926420Y-106428000D02*
X178207580Y-106428000D01*
%TO.C,C18*%
X180592000Y-111392580D02*
X180592000Y-111111420D01*
X181612000Y-111392580D02*
X181612000Y-111111420D01*
%TO.C,R6*%
X123371342Y-102347500D02*
X123845858Y-102347500D01*
X123371342Y-103392500D02*
X123845858Y-103392500D01*
%TO.C,BOOT*%
X117270800Y-111890000D02*
X117270800Y-111590000D01*
X113970800Y-111590000D02*
X113970800Y-111890000D01*
X113970800Y-109390000D02*
X113970800Y-109090000D01*
X117270800Y-109090000D02*
X117270800Y-109390000D01*
X113970800Y-111890000D02*
X117270800Y-111890000D01*
X113970800Y-109090000D02*
X117270800Y-109090000D01*
%TO.C,PWR*%
X139346000Y-91656000D02*
X139346000Y-93941000D01*
X139346000Y-93941000D02*
X140816000Y-93941000D01*
X140816000Y-93941000D02*
X140816000Y-91656000D01*
%TO.C,D3*%
X180610000Y-118074000D02*
X180610000Y-114174000D01*
X180610000Y-118074000D02*
X182610000Y-118074000D01*
X182610000Y-118074000D02*
X182610000Y-114174000D01*
%TO.C,R2*%
X142256742Y-114441500D02*
X142731258Y-114441500D01*
X142256742Y-113396500D02*
X142731258Y-113396500D01*
%TO.C,C14*%
X177926420Y-101852000D02*
X178207580Y-101852000D01*
X177926420Y-102872000D02*
X178207580Y-102872000D01*
%TO.C,C6*%
X140921200Y-103389820D02*
X140921200Y-103670980D01*
X139901200Y-103389820D02*
X139901200Y-103670980D01*
%TO.C,C8*%
X165098000Y-115964580D02*
X165098000Y-115683420D01*
X166118000Y-115964580D02*
X166118000Y-115683420D01*
%TO.C,RST_EN*%
X113970800Y-91310000D02*
X117270800Y-91310000D01*
X113970800Y-91610000D02*
X113970800Y-91310000D01*
X117270800Y-94110000D02*
X117270800Y-93810000D01*
X113970800Y-94110000D02*
X117270800Y-94110000D01*
X117270800Y-91310000D02*
X117270800Y-91610000D01*
X113970800Y-93810000D02*
X113970800Y-94110000D01*
%TO.C,C2*%
X122811000Y-92596580D02*
X122811000Y-92315420D01*
X121791000Y-92596580D02*
X121791000Y-92315420D01*
%TO.C,R4*%
X136666500Y-113267258D02*
X136666500Y-112792742D01*
X135621500Y-113267258D02*
X135621500Y-112792742D01*
%TO.C,J2*%
X185563000Y-83333000D02*
X185563000Y-77333000D01*
X190643000Y-77333000D02*
X191403000Y-77333000D01*
X172863000Y-86323000D02*
X172863000Y-85993000D01*
X180483000Y-86390071D02*
X180483000Y-85993000D01*
X175403000Y-77333000D02*
X176163000Y-77333000D01*
X181243000Y-77333000D02*
X181243000Y-83333000D01*
X171973000Y-88703000D02*
X171973000Y-87433000D01*
X183783000Y-86390071D02*
X183783000Y-85993000D01*
X173403000Y-83333000D02*
X173403000Y-77333000D01*
X175403000Y-86390071D02*
X175403000Y-85993000D01*
X179593000Y-85993000D02*
X179593000Y-83333000D01*
X172863000Y-83333000D02*
X172863000Y-77333000D01*
X189753000Y-85993000D02*
X189753000Y-83333000D01*
X190643000Y-86390071D02*
X190643000Y-85993000D01*
X173043000Y-83333000D02*
X173043000Y-77333000D01*
X173243000Y-88703000D02*
X171973000Y-88703000D01*
X172863000Y-77333000D02*
X173623000Y-77333000D01*
X191403000Y-86390071D02*
X191403000Y-85993000D01*
X177943000Y-77333000D02*
X178703000Y-77333000D01*
X187213000Y-85993000D02*
X187213000Y-83333000D01*
X183023000Y-86390071D02*
X183023000Y-85993000D01*
X183023000Y-83333000D02*
X183023000Y-77333000D01*
X183023000Y-77333000D02*
X183783000Y-77333000D01*
X180483000Y-77333000D02*
X181243000Y-77333000D01*
X174513000Y-85993000D02*
X174513000Y-83333000D01*
X171913000Y-83333000D02*
X171913000Y-85993000D01*
X180483000Y-83333000D02*
X180483000Y-77333000D01*
X172923000Y-83333000D02*
X172923000Y-77333000D01*
X188103000Y-86390071D02*
X188103000Y-85993000D01*
X171913000Y-85993000D02*
X192353000Y-85993000D01*
X185563000Y-86390071D02*
X185563000Y-85993000D01*
X184673000Y-85993000D02*
X184673000Y-83333000D01*
X185563000Y-77333000D02*
X186323000Y-77333000D01*
X173163000Y-83333000D02*
X173163000Y-77333000D01*
X188103000Y-83333000D02*
X188103000Y-77333000D01*
X182133000Y-85993000D02*
X182133000Y-83333000D01*
X181243000Y-86390071D02*
X181243000Y-85993000D01*
X176163000Y-77333000D02*
X176163000Y-83333000D01*
X192353000Y-85993000D02*
X192353000Y-83333000D01*
X173623000Y-77333000D02*
X173623000Y-83333000D01*
X177943000Y-83333000D02*
X177943000Y-77333000D01*
X175403000Y-83333000D02*
X175403000Y-77333000D01*
X178703000Y-86390071D02*
X178703000Y-85993000D01*
X192353000Y-83333000D02*
X171913000Y-83333000D01*
X188103000Y-77333000D02*
X188863000Y-77333000D01*
X191403000Y-77333000D02*
X191403000Y-83333000D01*
X186323000Y-77333000D02*
X186323000Y-83333000D01*
X178703000Y-77333000D02*
X178703000Y-83333000D01*
X173283000Y-83333000D02*
X173283000Y-77333000D01*
X186323000Y-86390071D02*
X186323000Y-85993000D01*
X188863000Y-86390071D02*
X188863000Y-85993000D01*
X183783000Y-77333000D02*
X183783000Y-83333000D01*
X173623000Y-86323000D02*
X173623000Y-85993000D01*
X176163000Y-86390071D02*
X176163000Y-85993000D01*
X177943000Y-86390071D02*
X177943000Y-85993000D01*
X188863000Y-77333000D02*
X188863000Y-83333000D01*
X177053000Y-85993000D02*
X177053000Y-83333000D01*
X190643000Y-83333000D02*
X190643000Y-77333000D01*
X173523000Y-83333000D02*
X173523000Y-77333000D01*
%TO.C,R8*%
X169657500Y-104918742D02*
X169657500Y-105393258D01*
X170702500Y-104918742D02*
X170702500Y-105393258D01*
%TO.C,C3*%
X139965820Y-99616800D02*
X140246980Y-99616800D01*
X139965820Y-100636800D02*
X140246980Y-100636800D01*
%TO.C,R1*%
X120537500Y-92693258D02*
X120537500Y-92218742D01*
X119492500Y-92693258D02*
X119492500Y-92218742D01*
%TO.C,D4*%
X177054000Y-109764000D02*
X177054000Y-113664000D01*
X179054000Y-109764000D02*
X179054000Y-113664000D01*
X179054000Y-109764000D02*
X177054000Y-109764000D01*
%TO.C,R7*%
X123359142Y-99299500D02*
X123833658Y-99299500D01*
X123359142Y-100344500D02*
X123833658Y-100344500D01*
%TO.C,R9*%
X140603500Y-88408742D02*
X140603500Y-88883258D01*
X139558500Y-88408742D02*
X139558500Y-88883258D01*
%TO.C,C12*%
X175742020Y-91590400D02*
X176023180Y-91590400D01*
X175742020Y-92610400D02*
X176023180Y-92610400D01*
%TO.C,Q2*%
X132334000Y-117130000D02*
X132984000Y-117130000D01*
X132334000Y-114010000D02*
X132984000Y-114010000D01*
X132334000Y-117130000D02*
X131684000Y-117130000D01*
X132334000Y-114010000D02*
X130659000Y-114010000D01*
%TO.C,C20*%
X185164000Y-115202580D02*
X185164000Y-114921420D01*
X186184000Y-115202580D02*
X186184000Y-114921420D01*
%TO.C,C10*%
X128526000Y-88786580D02*
X128526000Y-88505420D01*
X127506000Y-88786580D02*
X127506000Y-88505420D01*
%TO.C,C21*%
X187450000Y-115202580D02*
X187450000Y-114921420D01*
X188470000Y-115202580D02*
X188470000Y-114921420D01*
D14*
%TO.C,L1*%
X169238000Y-117324000D02*
X169598000Y-117324000D01*
X169238000Y-114324000D02*
X169598000Y-114324000D01*
D11*
%TO.C,C7*%
X143054800Y-103670980D02*
X143054800Y-103389820D01*
X142034800Y-103670980D02*
X142034800Y-103389820D01*
%TO.C,C19*%
X183644000Y-111405580D02*
X183644000Y-111124420D01*
X182624000Y-111405580D02*
X182624000Y-111124420D01*
%TO.C,C15*%
X177926420Y-104650000D02*
X178207580Y-104650000D01*
X177926420Y-103630000D02*
X178207580Y-103630000D01*
%TO.C,R3*%
X142193742Y-112155500D02*
X142668258Y-112155500D01*
X142193742Y-111110500D02*
X142668258Y-111110500D01*
%TO.C,R10*%
X167130000Y-110073221D02*
X167130000Y-110398779D01*
X168150000Y-110073221D02*
X168150000Y-110398779D01*
%TO.C,C4*%
X127506000Y-92596580D02*
X127506000Y-92315420D01*
X128526000Y-92596580D02*
X128526000Y-92315420D01*
%TO.C,U2*%
X126766000Y-101346000D02*
X126766000Y-103296000D01*
X136886000Y-101346000D02*
X136886000Y-103296000D01*
X136886000Y-101346000D02*
X136886000Y-97896000D01*
X126766000Y-101346000D02*
X126766000Y-99396000D01*
%TO.C,C9*%
X125986000Y-88786580D02*
X125986000Y-88505420D01*
X124966000Y-88786580D02*
X124966000Y-88505420D01*
%TD*%
M02*
