M48
; DRILL file {KiCad (6.0.9-0)} date 
; FORMAT={-:-/ absolute / inch / decimal}
; #@! TF.CreationDate,2023-03-15T21:38:35+08:00
; #@! TF.GenerationSoftware,Kicad,Pcbnew,(6.0.9-0)
; #@! TF.FileFunction,Plated,1,2,PTH
FMAT,2
INCH
; #@! TA.AperFunction,Plated,PTH,ViaDrill
T1C0.0157
; #@! TA.AperFunction,Plated,PTH,ViaDrill
T2C0.0197
; #@! TA.AperFunction,Plated,PTH,ComponentDrill
T3C0.0236
; #@! TA.AperFunction,Plated,PTH,ComponentDrill
T4C0.0394
%
G90
G05
T1
X4.722Y-3.526
X5.216Y-4.166
X5.304Y-4.4496
X5.3286Y-4.348
X5.35Y-4.55
X5.54Y-3.76
X5.839Y-4.15
X6.2082Y-4.2342
X6.5467Y-4.1147
X6.7Y-4.24
X6.731Y-4.029
X7.152Y-3.708
X7.2016Y-3.7316
T2
X4.946Y-3.9517
X4.946Y-4.0269
X5.155Y-3.76
X5.32Y-4.205
X5.51Y-4.336
X5.95Y-3.65
X6.624Y-4.206
X7.496Y-4.1
T4
X6.8206Y-3.4422
X6.9206Y-3.4422
X7.0206Y-3.4422
X7.1206Y-3.4422
X7.2206Y-3.4422
X7.3206Y-3.4422
X7.4206Y-3.4422
X7.5206Y-3.4422
T3
G00X4.5215Y-3.8389
M15
G01X4.4979Y-3.8389
M16
G05
G00X4.5215Y-4.1791
M15
G01X4.4979Y-4.1791
M16
G05
G00X4.6959Y-3.8389
M15
G01X4.6526Y-3.8389
M16
G05
G00X4.6959Y-4.1791
M15
G01X4.6526Y-4.1791
M16
G05
T0
M30
