M48
; DRILL file {KiCad (6.0.9-0)} date 
; FORMAT={-:-/ absolute / inch / decimal}
; #@! TF.CreationDate,2022-12-04T14:35:13+08:00
; #@! TF.GenerationSoftware,Kicad,Pcbnew,(6.0.9-0)
; #@! TF.FileFunction,Plated,1,2,PTH
FMAT,2
INCH
; #@! TA.AperFunction,Plated,PTH,ViaDrill
T1C0.0157
; #@! TA.AperFunction,Plated,PTH,ComponentDrill
T2C0.0236
; #@! TA.AperFunction,Plated,PTH,ComponentDrill
T3C0.0394
%
G90
G05
T1
X4.6279Y-4.3183
X4.9282Y-3.2923
X4.9539Y-3.5879
X5.0409Y-3.9478
X5.0489Y-4.2415
X5.1235Y-4.2415
X5.1821Y-4.0376
X5.2489Y-3.7462
X5.325Y-3.4211
X5.3784Y-4.2011
X5.577Y-4.1198
X5.687Y-3.9657
X5.9366Y-4.2125
X6.0054Y-4.2486
X6.0376Y-4.0299
X6.1105Y-4.2264
X6.1755Y-3.8012
X6.1762Y-3.8822
X6.1846Y-3.9197
X6.202Y-3.9571
X6.2138Y-3.6961
X6.2529Y-3.8061
X6.2976Y-3.9005
X6.3261Y-3.6677
X6.6946Y-4.42
X6.7534Y-3.6893
X6.8445Y-3.8095
X7.0056Y-3.7167
X7.0112Y-4.0029
X7.1052Y-3.9393
X7.1172Y-3.7916
X7.1683Y-3.8058
X7.2531Y-3.7693
X7.506Y-3.5758
X7.5351Y-3.5555
X7.541Y-4.0044
T3
X6.9306Y-3.17
X7.0306Y-3.17
X7.1306Y-3.17
X7.2306Y-3.17
X7.3306Y-3.17
X7.4306Y-3.17
X7.5306Y-3.17
X7.6306Y-3.17
T2
G00X4.5581Y-3.6035
M15
G01X4.5344Y-3.6035
M16
G05
G00X4.5581Y-3.9437
M15
G01X4.5344Y-3.9437
M16
G05
G00X4.7325Y-3.6035
M15
G01X4.6892Y-3.6035
M16
G05
G00X4.7325Y-3.9437
M15
G01X4.6892Y-3.9437
M16
G05
T0
M30
