%TF.GenerationSoftware,KiCad,Pcbnew,(6.0.9-0)*%
%TF.CreationDate,2022-12-04T14:35:13+08:00*%
%TF.ProjectId,Epaper-mcu,45706170-6572-42d6-9d63-752e6b696361,rev?*%
%TF.SameCoordinates,Original*%
%TF.FileFunction,Copper,L2,Bot*%
%TF.FilePolarity,Positive*%
%FSLAX46Y46*%
G04 Gerber Fmt 4.6, Leading zero omitted, Abs format (unit mm)*
G04 Created by KiCad (PCBNEW (6.0.9-0)) date 2022-12-04 14:35:13*
%MOMM*%
%LPD*%
G01*
G04 APERTURE LIST*
%TA.AperFunction,ComponentPad*%
%ADD10O,2.100000X1.000000*%
%TD*%
%TA.AperFunction,ComponentPad*%
%ADD11O,1.600000X1.000000*%
%TD*%
%TA.AperFunction,ComponentPad*%
%ADD12R,1.700000X1.700000*%
%TD*%
%TA.AperFunction,ComponentPad*%
%ADD13O,1.700000X1.700000*%
%TD*%
%TA.AperFunction,ViaPad*%
%ADD14C,0.700000*%
%TD*%
%TA.AperFunction,Conductor*%
%ADD15C,0.250000*%
%TD*%
%TA.AperFunction,Conductor*%
%ADD16C,0.500000*%
%TD*%
G04 APERTURE END LIST*
D10*
%TO.P,J1,S1,SHIELD*%
%TO.N,GND*%
X119655000Y-91530000D03*
D11*
X115475000Y-100170000D03*
X115475000Y-91530000D03*
D10*
X119655000Y-100170000D03*
%TD*%
D12*
%TO.P,J5,1,Pin_1*%
%TO.N,/BUSY*%
X176037000Y-80518000D03*
D13*
%TO.P,J5,2,Pin_2*%
%TO.N,/RST*%
X178577000Y-80518000D03*
%TO.P,J5,3,Pin_3*%
%TO.N,/DC*%
X181117000Y-80518000D03*
%TO.P,J5,4,Pin_4*%
%TO.N,/CS*%
X183657000Y-80518000D03*
%TO.P,J5,5,Pin_5*%
%TO.N,/CLK*%
X186197000Y-80518000D03*
%TO.P,J5,6,Pin_6*%
%TO.N,/SDA*%
X188737000Y-80518000D03*
%TO.P,J5,7,Pin_7*%
%TO.N,GND*%
X191277000Y-80518000D03*
%TO.P,J5,8,Pin_8*%
%TO.N,/3V3*%
X193817000Y-80518000D03*
%TD*%
D14*
%TO.N,/DTR*%
X117548800Y-109684800D03*
X125177300Y-83625600D03*
X130136600Y-107735000D03*
%TO.N,/SD_CLK*%
X156857800Y-96550500D03*
X158824900Y-96676000D03*
%TO.N,/SD_MOSI*%
X157830300Y-93880000D03*
X150790200Y-106998700D03*
%TO.N,/SD_CS*%
X173851000Y-96761900D03*
X159960300Y-99073000D03*
%TO.N,unconnected-(J4-PadMP)*%
X191391400Y-90308800D03*
X191542600Y-101712000D03*
%TO.N,/SDA*%
X141657000Y-104643300D03*
%TO.N,/CLK*%
X144448900Y-100728100D03*
%TO.N,/CS*%
X184228000Y-95739800D03*
X153355200Y-102359900D03*
%TO.N,/DC*%
X182073800Y-96666800D03*
X157531100Y-100510500D03*
%TO.N,/RST*%
X180776500Y-96305700D03*
X157090000Y-99559300D03*
%TO.N,/BUSY*%
X177941500Y-94404800D03*
X156876600Y-98608200D03*
%TO.N,/PREVGL*%
X170041700Y-112268000D03*
X190652300Y-90825000D03*
%TO.N,/3V3*%
X155207900Y-107349300D03*
X128243000Y-107735000D03*
%TO.N,Net-(C11-Pad1)*%
X160683600Y-93160400D03*
X152538000Y-107913300D03*
%TO.N,+3.3V*%
X133320800Y-95152600D03*
X135256000Y-86895000D03*
X136611200Y-106707600D03*
%TO.N,GND*%
X180472300Y-100058700D03*
X178085600Y-101674300D03*
%TO.N,+5V*%
X128040100Y-100274200D03*
X125830000Y-91132100D03*
X171536900Y-93707100D03*
X131624900Y-102554200D03*
%TD*%
D15*
%TO.N,/DTR*%
X129479900Y-107078300D02*
X130136600Y-107735000D01*
X125177300Y-107078300D02*
X129479900Y-107078300D01*
X125177300Y-83625600D02*
X125177300Y-107078300D01*
X120155300Y-107078300D02*
X117548800Y-109684800D01*
X125177300Y-107078300D02*
X120155300Y-107078300D01*
%TO.N,/SD_CLK*%
X158699400Y-96550500D02*
X158824900Y-96676000D01*
X156857800Y-96550500D02*
X158699400Y-96550500D01*
%TO.N,/SD_MOSI*%
X150790200Y-100920100D02*
X157830300Y-93880000D01*
X150790200Y-106998700D02*
X150790200Y-100920100D01*
%TO.N,/SD_CS*%
X171539900Y-99073000D02*
X173851000Y-96761900D01*
X159960300Y-99073000D02*
X171539900Y-99073000D01*
%TO.N,unconnected-(J4-PadMP)*%
X191542600Y-90460000D02*
X191391400Y-90308800D01*
X191542600Y-101712000D02*
X191542600Y-90460000D01*
%TO.N,/SDA*%
X188737000Y-80518000D02*
X187611900Y-80518000D01*
X141657000Y-102624000D02*
X141657000Y-104643300D01*
X165291800Y-78989200D02*
X141657000Y-102624000D01*
X186364400Y-78989200D02*
X165291800Y-78989200D01*
X187611900Y-80236700D02*
X186364400Y-78989200D01*
X187611900Y-80518000D02*
X187611900Y-80236700D01*
%TO.N,/CLK*%
X186197000Y-80518000D02*
X185071900Y-80518000D01*
X165784200Y-79392800D02*
X144448900Y-100728100D01*
X184179800Y-79392800D02*
X165784200Y-79392800D01*
X185071900Y-80284900D02*
X184179800Y-79392800D01*
X185071900Y-80518000D02*
X185071900Y-80284900D01*
%TO.N,/CS*%
X184228000Y-82214100D02*
X184228000Y-95739800D01*
X183657000Y-81643100D02*
X184228000Y-82214100D01*
X183657000Y-80518000D02*
X183657000Y-81643100D01*
X176294500Y-102359900D02*
X153355200Y-102359900D01*
X181190100Y-97464300D02*
X176294500Y-102359900D01*
X182503500Y-97464300D02*
X181190100Y-97464300D01*
X184228000Y-95739800D02*
X182503500Y-97464300D01*
%TO.N,/DC*%
X181117000Y-80518000D02*
X181117000Y-81643100D01*
X181421700Y-81947800D02*
X181421700Y-96666800D01*
X181117000Y-81643100D02*
X181421700Y-81947800D01*
X182073800Y-96666800D02*
X181421700Y-96666800D01*
X177578000Y-100510500D02*
X157531100Y-100510500D01*
X181421700Y-96666800D02*
X177578000Y-100510500D01*
%TO.N,/RST*%
X178577000Y-80518000D02*
X178577000Y-81643100D01*
X157090000Y-99559200D02*
X157090000Y-99559300D01*
X157891100Y-99559200D02*
X157090000Y-99559200D01*
X161738300Y-95712000D02*
X157891100Y-99559200D01*
X178577000Y-95712000D02*
X161738300Y-95712000D01*
X178577000Y-81643100D02*
X178577000Y-95712000D01*
X179170700Y-96305700D02*
X180776500Y-96305700D01*
X178577000Y-95712000D02*
X179170700Y-96305700D01*
%TO.N,/BUSY*%
X176037000Y-80518000D02*
X176037000Y-81643100D01*
X157977700Y-98608200D02*
X156876600Y-98608200D01*
X162247600Y-94338300D02*
X157977700Y-98608200D01*
X174199000Y-94338300D02*
X162247600Y-94338300D01*
X176037000Y-92500300D02*
X174199000Y-94338300D01*
X176037000Y-81643100D02*
X176037000Y-92500300D01*
X176037000Y-92500300D02*
X177941500Y-94404800D01*
%TO.N,/PREVGL*%
X190652300Y-91657400D02*
X170041700Y-112268000D01*
X190652300Y-90825000D02*
X190652300Y-91657400D01*
D16*
%TO.N,/3V3*%
X153861200Y-108696000D02*
X155207900Y-107349300D01*
X129204000Y-108696000D02*
X153861200Y-108696000D01*
X128243000Y-107735000D02*
X129204000Y-108696000D01*
X160884800Y-113026200D02*
X155207900Y-107349300D01*
X181358800Y-113026200D02*
X160884800Y-113026200D01*
X193817000Y-100568000D02*
X181358800Y-113026200D01*
X193817000Y-80518000D02*
X193817000Y-100568000D01*
D15*
%TO.N,Net-(C11-Pad1)*%
X158534800Y-95309200D02*
X160683600Y-93160400D01*
X157142300Y-95309200D02*
X158534800Y-95309200D01*
X152538000Y-99913500D02*
X157142300Y-95309200D01*
X152538000Y-107913300D02*
X152538000Y-99913500D01*
D16*
%TO.N,+3.3V*%
X133603500Y-95152600D02*
X133320800Y-95152600D01*
X133603500Y-88547500D02*
X133603500Y-95152600D01*
X135256000Y-86895000D02*
X133603500Y-88547500D01*
X133603500Y-103699900D02*
X136611200Y-106707600D01*
X133603500Y-95152600D02*
X133603500Y-103699900D01*
D15*
%TO.N,GND*%
X115475000Y-100170000D02*
X116550100Y-100170000D01*
X116550100Y-100170000D02*
X119655000Y-100170000D01*
X115475000Y-91530000D02*
X119655000Y-91530000D01*
X191277000Y-80518000D02*
X191277000Y-81643100D01*
X179701200Y-100058700D02*
X178085600Y-101674300D01*
X180472300Y-100058700D02*
X179701200Y-100058700D01*
X184933700Y-87986400D02*
X191277000Y-81643100D01*
X184933700Y-95933700D02*
X184933700Y-87986400D01*
X180808700Y-100058700D02*
X184933700Y-95933700D01*
X180472300Y-100058700D02*
X180808700Y-100058700D01*
D16*
%TO.N,+5V*%
X128040100Y-93342200D02*
X128040100Y-100274200D01*
X125830000Y-91132100D02*
X128040100Y-93342200D01*
X136274100Y-107457800D02*
X131497700Y-102681400D01*
X141756800Y-107457800D02*
X136274100Y-107457800D01*
X156847500Y-92367100D02*
X141756800Y-107457800D01*
X170196900Y-92367100D02*
X156847500Y-92367100D01*
X171536900Y-93707100D02*
X170196900Y-92367100D01*
X130447300Y-102681400D02*
X131497700Y-102681400D01*
X128040100Y-100274200D02*
X130447300Y-102681400D01*
X131497700Y-102681400D02*
X131624900Y-102554200D01*
%TD*%
%TA.AperFunction,Conductor*%
%TO.N,GND*%
G36*
X196108621Y-78620002D02*
G01*
X196155114Y-78673658D01*
X196166500Y-78726000D01*
X196166500Y-113540500D01*
X196146498Y-113608621D01*
X196092842Y-113655114D01*
X196040500Y-113666500D01*
X182095371Y-113666500D01*
X182027250Y-113646498D01*
X181980757Y-113592842D01*
X181970653Y-113522568D01*
X182000147Y-113457988D01*
X182006276Y-113451405D01*
X194305911Y-101151770D01*
X194320323Y-101139384D01*
X194331918Y-101130851D01*
X194331923Y-101130846D01*
X194337818Y-101126508D01*
X194342557Y-101120930D01*
X194342560Y-101120927D01*
X194372035Y-101086232D01*
X194378965Y-101078716D01*
X194384660Y-101073021D01*
X194402281Y-101050749D01*
X194405072Y-101047345D01*
X194447591Y-100997297D01*
X194447592Y-100997295D01*
X194452333Y-100991715D01*
X194455661Y-100985199D01*
X194459028Y-100980150D01*
X194462195Y-100975021D01*
X194466734Y-100969284D01*
X194497655Y-100903125D01*
X194499561Y-100899225D01*
X194532769Y-100834192D01*
X194534508Y-100827084D01*
X194536607Y-100821441D01*
X194538524Y-100815678D01*
X194541622Y-100809050D01*
X194556487Y-100737583D01*
X194557457Y-100733299D01*
X194573473Y-100667845D01*
X194574808Y-100662390D01*
X194575500Y-100651236D01*
X194575536Y-100651238D01*
X194575775Y-100647245D01*
X194576149Y-100643053D01*
X194577640Y-100635885D01*
X194575546Y-100558479D01*
X194575500Y-100555072D01*
X194575500Y-81710632D01*
X194595502Y-81642511D01*
X194628331Y-81608054D01*
X194696860Y-81559173D01*
X194722800Y-81533324D01*
X194840616Y-81415918D01*
X194855096Y-81401489D01*
X194985453Y-81220077D01*
X194998995Y-81192678D01*
X195082136Y-81024453D01*
X195082137Y-81024451D01*
X195084430Y-81019811D01*
X195149370Y-80806069D01*
X195178529Y-80584590D01*
X195180156Y-80518000D01*
X195161852Y-80295361D01*
X195107431Y-80078702D01*
X195018354Y-79873840D01*
X194897014Y-79686277D01*
X194746670Y-79521051D01*
X194742619Y-79517852D01*
X194742615Y-79517848D01*
X194575414Y-79385800D01*
X194575410Y-79385798D01*
X194571359Y-79382598D01*
X194535028Y-79362542D01*
X194519136Y-79353769D01*
X194375789Y-79274638D01*
X194370920Y-79272914D01*
X194370916Y-79272912D01*
X194170087Y-79201795D01*
X194170083Y-79201794D01*
X194165212Y-79200069D01*
X194160119Y-79199162D01*
X194160116Y-79199161D01*
X193950373Y-79161800D01*
X193950367Y-79161799D01*
X193945284Y-79160894D01*
X193871452Y-79159992D01*
X193727081Y-79158228D01*
X193727079Y-79158228D01*
X193721911Y-79158165D01*
X193501091Y-79191955D01*
X193288756Y-79261357D01*
X193090607Y-79364507D01*
X193086474Y-79367610D01*
X193086471Y-79367612D01*
X192930687Y-79484578D01*
X192911965Y-79498635D01*
X192757629Y-79660138D01*
X192754715Y-79664410D01*
X192754714Y-79664411D01*
X192649898Y-79818066D01*
X192594987Y-79863069D01*
X192524462Y-79871240D01*
X192460715Y-79839986D01*
X192440018Y-79815502D01*
X192359426Y-79690926D01*
X192353136Y-79682757D01*
X192209806Y-79525240D01*
X192202273Y-79518215D01*
X192035139Y-79386222D01*
X192026552Y-79380517D01*
X191840117Y-79277599D01*
X191830705Y-79273369D01*
X191629959Y-79202280D01*
X191619988Y-79199646D01*
X191548837Y-79186972D01*
X191535540Y-79188432D01*
X191531000Y-79202989D01*
X191531000Y-81836517D01*
X191535064Y-81850359D01*
X191548478Y-81852393D01*
X191555184Y-81851534D01*
X191565262Y-81849392D01*
X191769255Y-81788191D01*
X191778842Y-81784433D01*
X191970095Y-81690739D01*
X191978945Y-81685464D01*
X192152328Y-81561792D01*
X192160200Y-81555139D01*
X192311052Y-81404812D01*
X192317730Y-81396965D01*
X192445022Y-81219819D01*
X192446279Y-81220722D01*
X192493373Y-81177362D01*
X192563311Y-81165145D01*
X192628751Y-81192678D01*
X192656579Y-81224511D01*
X192716987Y-81323088D01*
X192863250Y-81491938D01*
X193011124Y-81614705D01*
X193012985Y-81616250D01*
X193052620Y-81675152D01*
X193058500Y-81713194D01*
X193058500Y-100201629D01*
X193038498Y-100269750D01*
X193021595Y-100290724D01*
X192391195Y-100921124D01*
X192328883Y-100955150D01*
X192258068Y-100950085D01*
X192201232Y-100907538D01*
X192176421Y-100841018D01*
X192176100Y-100832029D01*
X192176100Y-90691863D01*
X192182267Y-90652927D01*
X192233725Y-90494554D01*
X192233725Y-90494553D01*
X192235765Y-90488275D01*
X192254629Y-90308800D01*
X192250896Y-90273281D01*
X192236455Y-90135889D01*
X192236455Y-90135888D01*
X192235765Y-90129325D01*
X192218029Y-90074737D01*
X192183844Y-89969526D01*
X192179999Y-89957693D01*
X192089767Y-89801407D01*
X191969013Y-89667296D01*
X191823015Y-89561222D01*
X191816987Y-89558538D01*
X191816985Y-89558537D01*
X191664183Y-89490505D01*
X191664181Y-89490505D01*
X191658152Y-89487820D01*
X191569892Y-89469060D01*
X191488089Y-89451672D01*
X191488085Y-89451672D01*
X191481632Y-89450300D01*
X191301168Y-89450300D01*
X191294715Y-89451672D01*
X191294711Y-89451672D01*
X191212908Y-89469060D01*
X191124648Y-89487820D01*
X191118619Y-89490504D01*
X191118617Y-89490505D01*
X190965816Y-89558537D01*
X190965814Y-89558538D01*
X190959786Y-89561222D01*
X190954445Y-89565102D01*
X190954444Y-89565103D01*
X190819131Y-89663413D01*
X190819129Y-89663415D01*
X190813787Y-89667296D01*
X190693033Y-89801407D01*
X190689732Y-89807125D01*
X190630753Y-89909279D01*
X190579370Y-89958272D01*
X190547831Y-89969526D01*
X190513763Y-89976767D01*
X190385548Y-90004020D01*
X190379519Y-90006704D01*
X190379517Y-90006705D01*
X190226716Y-90074737D01*
X190226714Y-90074738D01*
X190220686Y-90077422D01*
X190215345Y-90081302D01*
X190215344Y-90081303D01*
X190080031Y-90179613D01*
X190080029Y-90179615D01*
X190074687Y-90183496D01*
X189953933Y-90317607D01*
X189863701Y-90473893D01*
X189807935Y-90645525D01*
X189807245Y-90652088D01*
X189807245Y-90652089D01*
X189803948Y-90683460D01*
X189789071Y-90825000D01*
X189807935Y-91004475D01*
X189863701Y-91176107D01*
X189867004Y-91181829D01*
X189867005Y-91181830D01*
X189952249Y-91329476D01*
X189968987Y-91398471D01*
X189945767Y-91465563D01*
X189932225Y-91481571D01*
X185240288Y-96173508D01*
X185177976Y-96207534D01*
X185107161Y-96202469D01*
X185050325Y-96159922D01*
X185025514Y-96093402D01*
X185031360Y-96045477D01*
X185070325Y-95925554D01*
X185070325Y-95925553D01*
X185072365Y-95919275D01*
X185084081Y-95807812D01*
X185090539Y-95746365D01*
X185091229Y-95739800D01*
X185082240Y-95654275D01*
X185073055Y-95566889D01*
X185073055Y-95566888D01*
X185072365Y-95560325D01*
X185016599Y-95388693D01*
X184983911Y-95332075D01*
X184929670Y-95238128D01*
X184926367Y-95232407D01*
X184893864Y-95196309D01*
X184863147Y-95132301D01*
X184861500Y-95111998D01*
X184861500Y-82292867D01*
X184862027Y-82281684D01*
X184863702Y-82274191D01*
X184862490Y-82235611D01*
X184861562Y-82206101D01*
X184861500Y-82202143D01*
X184861500Y-82174244D01*
X184860996Y-82170253D01*
X184860063Y-82158411D01*
X184858923Y-82122136D01*
X184858674Y-82114211D01*
X184856462Y-82106597D01*
X184856461Y-82106592D01*
X184853023Y-82094759D01*
X184849012Y-82075395D01*
X184847550Y-82063817D01*
X184846474Y-82055303D01*
X184843557Y-82047936D01*
X184843556Y-82047931D01*
X184830198Y-82014192D01*
X184826354Y-82002965D01*
X184816230Y-81968122D01*
X184814018Y-81960507D01*
X184808228Y-81950717D01*
X184803707Y-81943072D01*
X184795012Y-81925324D01*
X184787552Y-81906483D01*
X184761564Y-81870713D01*
X184755048Y-81860793D01*
X184736580Y-81829565D01*
X184736578Y-81829562D01*
X184732542Y-81822738D01*
X184718221Y-81808417D01*
X184705380Y-81793383D01*
X184698878Y-81784433D01*
X184693472Y-81776993D01*
X184659407Y-81748812D01*
X184650628Y-81740823D01*
X184592111Y-81682306D01*
X184558085Y-81619994D01*
X184563150Y-81549179D01*
X184592266Y-81503960D01*
X184625884Y-81470460D01*
X184695096Y-81401489D01*
X184825453Y-81220077D01*
X184826776Y-81221028D01*
X184873645Y-81177857D01*
X184943580Y-81165625D01*
X185009026Y-81193144D01*
X185036875Y-81224994D01*
X185096987Y-81323088D01*
X185243250Y-81491938D01*
X185415126Y-81634632D01*
X185608000Y-81747338D01*
X185816692Y-81827030D01*
X185821760Y-81828061D01*
X185821763Y-81828062D01*
X185916862Y-81847410D01*
X186035597Y-81871567D01*
X186040772Y-81871757D01*
X186040774Y-81871757D01*
X186253673Y-81879564D01*
X186253677Y-81879564D01*
X186258837Y-81879753D01*
X186263957Y-81879097D01*
X186263959Y-81879097D01*
X186475288Y-81852025D01*
X186475289Y-81852025D01*
X186480416Y-81851368D01*
X186485366Y-81849883D01*
X186689429Y-81788661D01*
X186689434Y-81788659D01*
X186694384Y-81787174D01*
X186894994Y-81688896D01*
X187076860Y-81559173D01*
X187102800Y-81533324D01*
X187220616Y-81415918D01*
X187235096Y-81401489D01*
X187365453Y-81220077D01*
X187366776Y-81221028D01*
X187413645Y-81177857D01*
X187483580Y-81165625D01*
X187549026Y-81193144D01*
X187576875Y-81224994D01*
X187636987Y-81323088D01*
X187783250Y-81491938D01*
X187955126Y-81634632D01*
X188148000Y-81747338D01*
X188356692Y-81827030D01*
X188361760Y-81828061D01*
X188361763Y-81828062D01*
X188456862Y-81847410D01*
X188575597Y-81871567D01*
X188580772Y-81871757D01*
X188580774Y-81871757D01*
X188793673Y-81879564D01*
X188793677Y-81879564D01*
X188798837Y-81879753D01*
X188803957Y-81879097D01*
X188803959Y-81879097D01*
X189015288Y-81852025D01*
X189015289Y-81852025D01*
X189020416Y-81851368D01*
X189025366Y-81849883D01*
X189229429Y-81788661D01*
X189229434Y-81788659D01*
X189234384Y-81787174D01*
X189434994Y-81688896D01*
X189616860Y-81559173D01*
X189642800Y-81533324D01*
X189760616Y-81415918D01*
X189775096Y-81401489D01*
X189905453Y-81220077D01*
X189906640Y-81220930D01*
X189953960Y-81177362D01*
X190023897Y-81165145D01*
X190089338Y-81192678D01*
X190117166Y-81224511D01*
X190174694Y-81318388D01*
X190180777Y-81326699D01*
X190320213Y-81487667D01*
X190327580Y-81494883D01*
X190491434Y-81630916D01*
X190499881Y-81636831D01*
X190683756Y-81744279D01*
X190693042Y-81748729D01*
X190892001Y-81824703D01*
X190901899Y-81827579D01*
X191005250Y-81848606D01*
X191019299Y-81847410D01*
X191023000Y-81837065D01*
X191023000Y-79201102D01*
X191019082Y-79187758D01*
X191004806Y-79185771D01*
X190966324Y-79191660D01*
X190956288Y-79194051D01*
X190753868Y-79260212D01*
X190744359Y-79264209D01*
X190555463Y-79362542D01*
X190546738Y-79368036D01*
X190376433Y-79495905D01*
X190368726Y-79502748D01*
X190221590Y-79656717D01*
X190215109Y-79664722D01*
X190110498Y-79818074D01*
X190055587Y-79863076D01*
X189985062Y-79871247D01*
X189921315Y-79839993D01*
X189900618Y-79815509D01*
X189819822Y-79690617D01*
X189819820Y-79690614D01*
X189817014Y-79686277D01*
X189666670Y-79521051D01*
X189662619Y-79517852D01*
X189662615Y-79517848D01*
X189495414Y-79385800D01*
X189495410Y-79385798D01*
X189491359Y-79382598D01*
X189455028Y-79362542D01*
X189439136Y-79353769D01*
X189295789Y-79274638D01*
X189290920Y-79272914D01*
X189290916Y-79272912D01*
X189090087Y-79201795D01*
X189090083Y-79201794D01*
X189085212Y-79200069D01*
X189080119Y-79199162D01*
X189080116Y-79199161D01*
X188870373Y-79161800D01*
X188870367Y-79161799D01*
X188865284Y-79160894D01*
X188791452Y-79159992D01*
X188647081Y-79158228D01*
X188647079Y-79158228D01*
X188641911Y-79158165D01*
X188421091Y-79191955D01*
X188208756Y-79261357D01*
X188010607Y-79364507D01*
X188006474Y-79367610D01*
X188006471Y-79367612D01*
X187986512Y-79382598D01*
X187883858Y-79459673D01*
X187817376Y-79484578D01*
X187747980Y-79469586D01*
X187719112Y-79448007D01*
X187086200Y-78815095D01*
X187052174Y-78752783D01*
X187057239Y-78681968D01*
X187099786Y-78625132D01*
X187166306Y-78600321D01*
X187175295Y-78600000D01*
X196040500Y-78600000D01*
X196108621Y-78620002D01*
G37*
%TD.AperFunction*%
%TA.AperFunction,Conductor*%
G36*
X164549027Y-78620002D02*
G01*
X164595520Y-78673658D01*
X164605624Y-78743932D01*
X164576130Y-78808512D01*
X164570001Y-78815095D01*
X152916925Y-90468170D01*
X141264747Y-102120348D01*
X141256461Y-102127888D01*
X141249982Y-102132000D01*
X141244557Y-102137777D01*
X141203357Y-102181651D01*
X141200602Y-102184493D01*
X141180865Y-102204230D01*
X141178385Y-102207427D01*
X141170682Y-102216447D01*
X141140414Y-102248679D01*
X141136595Y-102255625D01*
X141136593Y-102255628D01*
X141130652Y-102266434D01*
X141119801Y-102282953D01*
X141107386Y-102298959D01*
X141104241Y-102306228D01*
X141104238Y-102306232D01*
X141089826Y-102339537D01*
X141084609Y-102350187D01*
X141063305Y-102388940D01*
X141061334Y-102396615D01*
X141061334Y-102396616D01*
X141058267Y-102408562D01*
X141051863Y-102427266D01*
X141043819Y-102445855D01*
X141042580Y-102453678D01*
X141042577Y-102453688D01*
X141036901Y-102489524D01*
X141034495Y-102501144D01*
X141023500Y-102543970D01*
X141023500Y-102564224D01*
X141021949Y-102583934D01*
X141018780Y-102603943D01*
X141019526Y-102611835D01*
X141022941Y-102647961D01*
X141023500Y-102659819D01*
X141023500Y-104015498D01*
X141003498Y-104083619D01*
X140991137Y-104099808D01*
X140958633Y-104135907D01*
X140868401Y-104292193D01*
X140812635Y-104463825D01*
X140793771Y-104643300D01*
X140812635Y-104822775D01*
X140868401Y-104994407D01*
X140958633Y-105150693D01*
X141079387Y-105284804D01*
X141225385Y-105390878D01*
X141231413Y-105393562D01*
X141231415Y-105393563D01*
X141384217Y-105461595D01*
X141390248Y-105464280D01*
X141478508Y-105483040D01*
X141560311Y-105500428D01*
X141560315Y-105500428D01*
X141566768Y-105501800D01*
X141747232Y-105501800D01*
X141753685Y-105500428D01*
X141753689Y-105500428D01*
X141835492Y-105483040D01*
X141923752Y-105464280D01*
X141929783Y-105461595D01*
X142082585Y-105393563D01*
X142082587Y-105393562D01*
X142088615Y-105390878D01*
X142234613Y-105284804D01*
X142355367Y-105150693D01*
X142445599Y-104994407D01*
X142501365Y-104822775D01*
X142520229Y-104643300D01*
X142501365Y-104463825D01*
X142445599Y-104292193D01*
X142355367Y-104135907D01*
X142322864Y-104099809D01*
X142292147Y-104035801D01*
X142290500Y-104015498D01*
X142290500Y-102938594D01*
X142310502Y-102870473D01*
X142327405Y-102849499D01*
X143758131Y-101418773D01*
X143820443Y-101384747D01*
X143891258Y-101389812D01*
X143921287Y-101405932D01*
X144011943Y-101471797D01*
X144017285Y-101475678D01*
X144023313Y-101478362D01*
X144023315Y-101478363D01*
X144165359Y-101541605D01*
X144182148Y-101549080D01*
X144270408Y-101567840D01*
X144352211Y-101585228D01*
X144352215Y-101585228D01*
X144358668Y-101586600D01*
X144539132Y-101586600D01*
X144545585Y-101585228D01*
X144545589Y-101585228D01*
X144627392Y-101567840D01*
X144715652Y-101549080D01*
X144732441Y-101541605D01*
X144874485Y-101478363D01*
X144874487Y-101478362D01*
X144880515Y-101475678D01*
X144976512Y-101405932D01*
X145021169Y-101373487D01*
X145021171Y-101373485D01*
X145026513Y-101369604D01*
X145030935Y-101364693D01*
X145142848Y-101240401D01*
X145142849Y-101240400D01*
X145147267Y-101235493D01*
X145237499Y-101079207D01*
X145293265Y-100907575D01*
X145303627Y-100808987D01*
X145330640Y-100743330D01*
X145339842Y-100733062D01*
X166009699Y-80063205D01*
X166072011Y-80029179D01*
X166098794Y-80026300D01*
X174552500Y-80026300D01*
X174620621Y-80046302D01*
X174667114Y-80099958D01*
X174678500Y-80152300D01*
X174678500Y-81416134D01*
X174685255Y-81478316D01*
X174736385Y-81614705D01*
X174823739Y-81731261D01*
X174940295Y-81818615D01*
X175076684Y-81869745D01*
X175138866Y-81876500D01*
X175277500Y-81876500D01*
X175345621Y-81896502D01*
X175392114Y-81950158D01*
X175403500Y-82002500D01*
X175403500Y-92185706D01*
X175383498Y-92253827D01*
X175366595Y-92274801D01*
X173973500Y-93667895D01*
X173911188Y-93701921D01*
X173884405Y-93704800D01*
X172513338Y-93704800D01*
X172445217Y-93684798D01*
X172398724Y-93631142D01*
X172388028Y-93591971D01*
X172381955Y-93534189D01*
X172381955Y-93534188D01*
X172381265Y-93527625D01*
X172377888Y-93517230D01*
X172332755Y-93378325D01*
X172325499Y-93355993D01*
X172319819Y-93346154D01*
X172238568Y-93205425D01*
X172235267Y-93199707D01*
X172222445Y-93185466D01*
X172118935Y-93070507D01*
X172118934Y-93070506D01*
X172114513Y-93065596D01*
X172067260Y-93031264D01*
X171973857Y-92963403D01*
X171973856Y-92963402D01*
X171968515Y-92959522D01*
X171962487Y-92956838D01*
X171962485Y-92956837D01*
X171803652Y-92886120D01*
X171804159Y-92884982D01*
X171761041Y-92858560D01*
X170780670Y-91878189D01*
X170768284Y-91863777D01*
X170759751Y-91852182D01*
X170759746Y-91852177D01*
X170755408Y-91846282D01*
X170749830Y-91841543D01*
X170749827Y-91841540D01*
X170715132Y-91812065D01*
X170707616Y-91805135D01*
X170701921Y-91799440D01*
X170695780Y-91794582D01*
X170679649Y-91781819D01*
X170676245Y-91779028D01*
X170626197Y-91736509D01*
X170626195Y-91736508D01*
X170620615Y-91731767D01*
X170614099Y-91728439D01*
X170609050Y-91725072D01*
X170603921Y-91721905D01*
X170598184Y-91717366D01*
X170532025Y-91686445D01*
X170528125Y-91684539D01*
X170463092Y-91651331D01*
X170455984Y-91649592D01*
X170450341Y-91647493D01*
X170444578Y-91645576D01*
X170437950Y-91642478D01*
X170366483Y-91627613D01*
X170362199Y-91626643D01*
X170291290Y-91609292D01*
X170285688Y-91608944D01*
X170285685Y-91608944D01*
X170280136Y-91608600D01*
X170280138Y-91608564D01*
X170276145Y-91608325D01*
X170271953Y-91607951D01*
X170264785Y-91606460D01*
X170201020Y-91608185D01*
X170187379Y-91608554D01*
X170183972Y-91608600D01*
X156914570Y-91608600D01*
X156895620Y-91607167D01*
X156881385Y-91605001D01*
X156881381Y-91605001D01*
X156874151Y-91603901D01*
X156866859Y-91604494D01*
X156866856Y-91604494D01*
X156821482Y-91608185D01*
X156811267Y-91608600D01*
X156803207Y-91608600D01*
X156799573Y-91609024D01*
X156799567Y-91609024D01*
X156786542Y-91610543D01*
X156774980Y-91611891D01*
X156770632Y-91612321D01*
X156748559Y-91614116D01*
X156705162Y-91617646D01*
X156705159Y-91617647D01*
X156697864Y-91618240D01*
X156690900Y-91620496D01*
X156684961Y-91621683D01*
X156679090Y-91623070D01*
X156671819Y-91623918D01*
X156664943Y-91626414D01*
X156664934Y-91626416D01*
X156603202Y-91648825D01*
X156599098Y-91650235D01*
X156529601Y-91672748D01*
X156523346Y-91676544D01*
X156517887Y-91679043D01*
X156512439Y-91681771D01*
X156505563Y-91684267D01*
X156444510Y-91724295D01*
X156440837Y-91726613D01*
X156378393Y-91764505D01*
X156370017Y-91771902D01*
X156369993Y-91771875D01*
X156366999Y-91774530D01*
X156363768Y-91777232D01*
X156357648Y-91781244D01*
X156328451Y-91812065D01*
X156304372Y-91837483D01*
X156301994Y-91839925D01*
X141479524Y-106662395D01*
X141417212Y-106696421D01*
X141390429Y-106699300D01*
X137587008Y-106699300D01*
X137518887Y-106679298D01*
X137472394Y-106625642D01*
X137461698Y-106586472D01*
X137456255Y-106534689D01*
X137456255Y-106534688D01*
X137455565Y-106528125D01*
X137438987Y-106477101D01*
X137411076Y-106391201D01*
X137399799Y-106356493D01*
X137309567Y-106200207D01*
X137188813Y-106066096D01*
X137042815Y-105960022D01*
X137036787Y-105957338D01*
X137036785Y-105957337D01*
X136877952Y-105886620D01*
X136878459Y-105885482D01*
X136835341Y-105859060D01*
X134398905Y-103422624D01*
X134364879Y-103360312D01*
X134362000Y-103333529D01*
X134362000Y-95180435D01*
X134362242Y-95172633D01*
X134363003Y-95160365D01*
X134366047Y-95111302D01*
X134363820Y-95098340D01*
X134362000Y-95077004D01*
X134362000Y-88913871D01*
X134382002Y-88845750D01*
X134398905Y-88824776D01*
X135480141Y-87743540D01*
X135523259Y-87717118D01*
X135522752Y-87715980D01*
X135681585Y-87645263D01*
X135681587Y-87645262D01*
X135687615Y-87642578D01*
X135833613Y-87536504D01*
X135954367Y-87402393D01*
X136044599Y-87246107D01*
X136100365Y-87074475D01*
X136119229Y-86895000D01*
X136100365Y-86715525D01*
X136044599Y-86543893D01*
X135954367Y-86387607D01*
X135833613Y-86253496D01*
X135687615Y-86147422D01*
X135681587Y-86144738D01*
X135681585Y-86144737D01*
X135528783Y-86076705D01*
X135528781Y-86076705D01*
X135522752Y-86074020D01*
X135434492Y-86055260D01*
X135352689Y-86037872D01*
X135352685Y-86037872D01*
X135346232Y-86036500D01*
X135165768Y-86036500D01*
X135159315Y-86037872D01*
X135159311Y-86037872D01*
X135077508Y-86055260D01*
X134989248Y-86074020D01*
X134983219Y-86076704D01*
X134983217Y-86076705D01*
X134830416Y-86144737D01*
X134830414Y-86144738D01*
X134824386Y-86147422D01*
X134819045Y-86151302D01*
X134819044Y-86151303D01*
X134683731Y-86249613D01*
X134683729Y-86249615D01*
X134678387Y-86253496D01*
X134557633Y-86387607D01*
X134467401Y-86543893D01*
X134465359Y-86550178D01*
X134444489Y-86614409D01*
X134413751Y-86664568D01*
X133114589Y-87963730D01*
X133100177Y-87976116D01*
X133088582Y-87984649D01*
X133088577Y-87984654D01*
X133082682Y-87988992D01*
X133077943Y-87994570D01*
X133077940Y-87994573D01*
X133048465Y-88029268D01*
X133041535Y-88036784D01*
X133035840Y-88042479D01*
X133033560Y-88045361D01*
X133018219Y-88064751D01*
X133015428Y-88068155D01*
X132972909Y-88118203D01*
X132968167Y-88123785D01*
X132964839Y-88130301D01*
X132961472Y-88135350D01*
X132958305Y-88140479D01*
X132953766Y-88146216D01*
X132922845Y-88212375D01*
X132920942Y-88216269D01*
X132887731Y-88281308D01*
X132885992Y-88288416D01*
X132883893Y-88294059D01*
X132881976Y-88299822D01*
X132878878Y-88306450D01*
X132877388Y-88313612D01*
X132877388Y-88313613D01*
X132864014Y-88377912D01*
X132863044Y-88382196D01*
X132845692Y-88453110D01*
X132845000Y-88464264D01*
X132844964Y-88464262D01*
X132844725Y-88468255D01*
X132844351Y-88472447D01*
X132842860Y-88479615D01*
X132843058Y-88486932D01*
X132844954Y-88557021D01*
X132845000Y-88560428D01*
X132845000Y-94372925D01*
X132824998Y-94441046D01*
X132793062Y-94474860D01*
X132743187Y-94511096D01*
X132738766Y-94516006D01*
X132738765Y-94516007D01*
X132683207Y-94577711D01*
X132622433Y-94645207D01*
X132532201Y-94801493D01*
X132525698Y-94821507D01*
X132481189Y-94958495D01*
X132476435Y-94973125D01*
X132457571Y-95152600D01*
X132476435Y-95332075D01*
X132532201Y-95503707D01*
X132535504Y-95509429D01*
X132535505Y-95509430D01*
X132565858Y-95562003D01*
X132622433Y-95659993D01*
X132626851Y-95664900D01*
X132626852Y-95664901D01*
X132738765Y-95789193D01*
X132743187Y-95794104D01*
X132793063Y-95830341D01*
X132836415Y-95886563D01*
X132845000Y-95932276D01*
X132845000Y-102651829D01*
X132824998Y-102719950D01*
X132771342Y-102766443D01*
X132701068Y-102776547D01*
X132636488Y-102747053D01*
X132629905Y-102740924D01*
X132524344Y-102635363D01*
X132490318Y-102573051D01*
X132488290Y-102554183D01*
X132488129Y-102554200D01*
X132469955Y-102381289D01*
X132469955Y-102381288D01*
X132469265Y-102374725D01*
X132413499Y-102203093D01*
X132401120Y-102181651D01*
X132326568Y-102052525D01*
X132323267Y-102046807D01*
X132202513Y-101912696D01*
X132189028Y-101902898D01*
X132061857Y-101810503D01*
X132061856Y-101810502D01*
X132056515Y-101806622D01*
X132050487Y-101803938D01*
X132050485Y-101803937D01*
X131897683Y-101735905D01*
X131897681Y-101735905D01*
X131891652Y-101733220D01*
X131803392Y-101714460D01*
X131721589Y-101697072D01*
X131721585Y-101697072D01*
X131715132Y-101695700D01*
X131534668Y-101695700D01*
X131528215Y-101697072D01*
X131528211Y-101697072D01*
X131446408Y-101714460D01*
X131358148Y-101733220D01*
X131352119Y-101735904D01*
X131352117Y-101735905D01*
X131199316Y-101803937D01*
X131199314Y-101803938D01*
X131193286Y-101806622D01*
X131076496Y-101891475D01*
X131066364Y-101898836D01*
X130992303Y-101922900D01*
X130813671Y-101922900D01*
X130745550Y-101902898D01*
X130724576Y-101885995D01*
X128882349Y-100043768D01*
X128851611Y-99993609D01*
X128830741Y-99929378D01*
X128828699Y-99923093D01*
X128815480Y-99900198D01*
X128798600Y-99837199D01*
X128798600Y-93409263D01*
X128800033Y-93390314D01*
X128800064Y-93390107D01*
X128803298Y-93368851D01*
X128802253Y-93355993D01*
X128799015Y-93316191D01*
X128798600Y-93305977D01*
X128798600Y-93297907D01*
X128798178Y-93294287D01*
X128798177Y-93294269D01*
X128795308Y-93269661D01*
X128794875Y-93265286D01*
X128789554Y-93199861D01*
X128789553Y-93199858D01*
X128788960Y-93192563D01*
X128786704Y-93185599D01*
X128785513Y-93179640D01*
X128784129Y-93173785D01*
X128783282Y-93166519D01*
X128758365Y-93097873D01*
X128756948Y-93093745D01*
X128736707Y-93031264D01*
X128736706Y-93031262D01*
X128734451Y-93024301D01*
X128730655Y-93018046D01*
X128728149Y-93012572D01*
X128725430Y-93007142D01*
X128722933Y-93000263D01*
X128682909Y-92939216D01*
X128680572Y-92935512D01*
X128645609Y-92877893D01*
X128645605Y-92877888D01*
X128642695Y-92873092D01*
X128635297Y-92864716D01*
X128635323Y-92864693D01*
X128632674Y-92861703D01*
X128629966Y-92858464D01*
X128625956Y-92852348D01*
X128620649Y-92847321D01*
X128620646Y-92847317D01*
X128569717Y-92799072D01*
X128567275Y-92796694D01*
X126672249Y-90901668D01*
X126641511Y-90851509D01*
X126620641Y-90787278D01*
X126618599Y-90780993D01*
X126528367Y-90624707D01*
X126407613Y-90490596D01*
X126384624Y-90473893D01*
X126266957Y-90388403D01*
X126266956Y-90388402D01*
X126261615Y-90384522D01*
X126255587Y-90381838D01*
X126255585Y-90381837D01*
X126102783Y-90313805D01*
X126102781Y-90313805D01*
X126096752Y-90311120D01*
X125920232Y-90273600D01*
X125920300Y-90273281D01*
X125857973Y-90247638D01*
X125817343Y-90189417D01*
X125810800Y-90149341D01*
X125810800Y-84253402D01*
X125830802Y-84185281D01*
X125843164Y-84169091D01*
X125871248Y-84137901D01*
X125871249Y-84137900D01*
X125875667Y-84132993D01*
X125965899Y-83976707D01*
X126021665Y-83805075D01*
X126040529Y-83625600D01*
X126021665Y-83446125D01*
X125965899Y-83274493D01*
X125875667Y-83118207D01*
X125754913Y-82984096D01*
X125608915Y-82878022D01*
X125602887Y-82875338D01*
X125602885Y-82875337D01*
X125450083Y-82807305D01*
X125450081Y-82807305D01*
X125444052Y-82804620D01*
X125355792Y-82785860D01*
X125273989Y-82768472D01*
X125273985Y-82768472D01*
X125267532Y-82767100D01*
X125087068Y-82767100D01*
X125080615Y-82768472D01*
X125080611Y-82768472D01*
X124998808Y-82785860D01*
X124910548Y-82804620D01*
X124904519Y-82807304D01*
X124904517Y-82807305D01*
X124751716Y-82875337D01*
X124751714Y-82875338D01*
X124745686Y-82878022D01*
X124740345Y-82881902D01*
X124740344Y-82881903D01*
X124605031Y-82980213D01*
X124605029Y-82980215D01*
X124599687Y-82984096D01*
X124478933Y-83118207D01*
X124388701Y-83274493D01*
X124332935Y-83446125D01*
X124314071Y-83625600D01*
X124332935Y-83805075D01*
X124388701Y-83976707D01*
X124478933Y-84132993D01*
X124483351Y-84137900D01*
X124483352Y-84137901D01*
X124511436Y-84169091D01*
X124542153Y-84233099D01*
X124543800Y-84253402D01*
X124543800Y-106318800D01*
X124523798Y-106386921D01*
X124470142Y-106433414D01*
X124417800Y-106444800D01*
X120234068Y-106444800D01*
X120222885Y-106444273D01*
X120215392Y-106442598D01*
X120207466Y-106442847D01*
X120207465Y-106442847D01*
X120147302Y-106444738D01*
X120143344Y-106444800D01*
X120115444Y-106444800D01*
X120111454Y-106445304D01*
X120099620Y-106446236D01*
X120055411Y-106447626D01*
X120047795Y-106449839D01*
X120047793Y-106449839D01*
X120035952Y-106453279D01*
X120016593Y-106457288D01*
X120015283Y-106457454D01*
X119996503Y-106459826D01*
X119989137Y-106462742D01*
X119989131Y-106462744D01*
X119955398Y-106476100D01*
X119944168Y-106479945D01*
X119928128Y-106484605D01*
X119901707Y-106492281D01*
X119894884Y-106496316D01*
X119884266Y-106502595D01*
X119866513Y-106511292D01*
X119858868Y-106514319D01*
X119847683Y-106518748D01*
X119836397Y-106526948D01*
X119811912Y-106544737D01*
X119801995Y-106551251D01*
X119763938Y-106573758D01*
X119749617Y-106588079D01*
X119734584Y-106600919D01*
X119718193Y-106612828D01*
X119694167Y-106641870D01*
X119690002Y-106646905D01*
X119682012Y-106655684D01*
X117548300Y-108789395D01*
X117485988Y-108823421D01*
X117471669Y-108824960D01*
X117471737Y-108825610D01*
X117465170Y-108826300D01*
X117458568Y-108826300D01*
X117452115Y-108827672D01*
X117452111Y-108827672D01*
X117370308Y-108845060D01*
X117282048Y-108863820D01*
X117276019Y-108866504D01*
X117276017Y-108866505D01*
X117123216Y-108934537D01*
X117123214Y-108934538D01*
X117117186Y-108937222D01*
X117111845Y-108941102D01*
X117111844Y-108941103D01*
X116976531Y-109039413D01*
X116976529Y-109039415D01*
X116971187Y-109043296D01*
X116850433Y-109177407D01*
X116800635Y-109263660D01*
X116784721Y-109291224D01*
X116760201Y-109333693D01*
X116758159Y-109339978D01*
X116720254Y-109456640D01*
X116704435Y-109505325D01*
X116685571Y-109684800D01*
X116704435Y-109864275D01*
X116760201Y-110035907D01*
X116850433Y-110192193D01*
X116854851Y-110197100D01*
X116854852Y-110197101D01*
X116891503Y-110237806D01*
X116971187Y-110326304D01*
X116976529Y-110330185D01*
X116976531Y-110330187D01*
X117047850Y-110382003D01*
X117117185Y-110432378D01*
X117123213Y-110435062D01*
X117123215Y-110435063D01*
X117253222Y-110492946D01*
X117282048Y-110505780D01*
X117370308Y-110524540D01*
X117452111Y-110541928D01*
X117452115Y-110541928D01*
X117458568Y-110543300D01*
X117639032Y-110543300D01*
X117645485Y-110541928D01*
X117645489Y-110541928D01*
X117727292Y-110524540D01*
X117815552Y-110505780D01*
X117844378Y-110492946D01*
X117974385Y-110435063D01*
X117974387Y-110435062D01*
X117980415Y-110432378D01*
X118049750Y-110382003D01*
X118121069Y-110330187D01*
X118121071Y-110330185D01*
X118126413Y-110326304D01*
X118206097Y-110237806D01*
X118242748Y-110197101D01*
X118242749Y-110197100D01*
X118247167Y-110192193D01*
X118337399Y-110035907D01*
X118393165Y-109864275D01*
X118403527Y-109765687D01*
X118430540Y-109700030D01*
X118439742Y-109689762D01*
X120380799Y-107748705D01*
X120443111Y-107714679D01*
X120469894Y-107711800D01*
X125105507Y-107711800D01*
X125129116Y-107714032D01*
X125129419Y-107714090D01*
X125129423Y-107714090D01*
X125137206Y-107715575D01*
X125193251Y-107712049D01*
X125201162Y-107711800D01*
X127263882Y-107711800D01*
X127332003Y-107731802D01*
X127378496Y-107785458D01*
X127389192Y-107824628D01*
X127398635Y-107914475D01*
X127454401Y-108086107D01*
X127544633Y-108242393D01*
X127665387Y-108376504D01*
X127670729Y-108380385D01*
X127670731Y-108380387D01*
X127803776Y-108477050D01*
X127811385Y-108482578D01*
X127817413Y-108485262D01*
X127817415Y-108485263D01*
X127976248Y-108555980D01*
X127975741Y-108557118D01*
X128018859Y-108583540D01*
X128620230Y-109184911D01*
X128632616Y-109199323D01*
X128641149Y-109210918D01*
X128641154Y-109210923D01*
X128645492Y-109216818D01*
X128651070Y-109221557D01*
X128651073Y-109221560D01*
X128685768Y-109251035D01*
X128693284Y-109257965D01*
X128698979Y-109263660D01*
X128701861Y-109265940D01*
X128721251Y-109281281D01*
X128724655Y-109284072D01*
X128774703Y-109326591D01*
X128780285Y-109331333D01*
X128786801Y-109334661D01*
X128791850Y-109338028D01*
X128796979Y-109341195D01*
X128802716Y-109345734D01*
X128868875Y-109376655D01*
X128872769Y-109378558D01*
X128937808Y-109411769D01*
X128944916Y-109413508D01*
X128950559Y-109415607D01*
X128956322Y-109417524D01*
X128962950Y-109420622D01*
X128970112Y-109422112D01*
X128970113Y-109422112D01*
X129034412Y-109435486D01*
X129038696Y-109436456D01*
X129109610Y-109453808D01*
X129115212Y-109454156D01*
X129115215Y-109454156D01*
X129120764Y-109454500D01*
X129120762Y-109454536D01*
X129124755Y-109454775D01*
X129128947Y-109455149D01*
X129136115Y-109456640D01*
X129213520Y-109454546D01*
X129216928Y-109454500D01*
X153794130Y-109454500D01*
X153813080Y-109455933D01*
X153827315Y-109458099D01*
X153827319Y-109458099D01*
X153834549Y-109459199D01*
X153841841Y-109458606D01*
X153841844Y-109458606D01*
X153887218Y-109454915D01*
X153897433Y-109454500D01*
X153905493Y-109454500D01*
X153922880Y-109452473D01*
X153933707Y-109451211D01*
X153938082Y-109450778D01*
X154003539Y-109445454D01*
X154003542Y-109445453D01*
X154010837Y-109444860D01*
X154017801Y-109442604D01*
X154023760Y-109441413D01*
X154029615Y-109440029D01*
X154036881Y-109439182D01*
X154105527Y-109414265D01*
X154109655Y-109412848D01*
X154172136Y-109392607D01*
X154172138Y-109392606D01*
X154179099Y-109390351D01*
X154185354Y-109386555D01*
X154190828Y-109384049D01*
X154196258Y-109381330D01*
X154203137Y-109378833D01*
X154209258Y-109374820D01*
X154264176Y-109338814D01*
X154267880Y-109336477D01*
X154330307Y-109298595D01*
X154338684Y-109291197D01*
X154338708Y-109291224D01*
X154341700Y-109288571D01*
X154344933Y-109285868D01*
X154351052Y-109281856D01*
X154404328Y-109225617D01*
X154406706Y-109223175D01*
X155118805Y-108511076D01*
X155181117Y-108477050D01*
X155251932Y-108482115D01*
X155296995Y-108511076D01*
X160237324Y-113451405D01*
X160271350Y-113513717D01*
X160266285Y-113584532D01*
X160223738Y-113641368D01*
X160157218Y-113666179D01*
X160148229Y-113666500D01*
X114118600Y-113666500D01*
X114050479Y-113646498D01*
X114006634Y-113598290D01*
X113976807Y-113540500D01*
X113914907Y-113420572D01*
X113901226Y-113401105D01*
X113746835Y-113181430D01*
X113744372Y-113177925D01*
X113542483Y-112960667D01*
X113539168Y-112957953D01*
X113539164Y-112957950D01*
X113316295Y-112775534D01*
X113312977Y-112772818D01*
X113160165Y-112679175D01*
X113112534Y-112626527D01*
X113100000Y-112571742D01*
X113100000Y-100435768D01*
X114202425Y-100435768D01*
X114234138Y-100543521D01*
X114238731Y-100554889D01*
X114324607Y-100719154D01*
X114331321Y-100729415D01*
X114447468Y-100873873D01*
X114456046Y-100882632D01*
X114598039Y-101001778D01*
X114608159Y-101008708D01*
X114770585Y-101098002D01*
X114781858Y-101102834D01*
X114958538Y-101158880D01*
X114970532Y-101161430D01*
X115114761Y-101177607D01*
X115121785Y-101178000D01*
X115202885Y-101178000D01*
X115218124Y-101173525D01*
X115219329Y-101172135D01*
X115221000Y-101164452D01*
X115221000Y-101159885D01*
X115729000Y-101159885D01*
X115733475Y-101175124D01*
X115734865Y-101176329D01*
X115742548Y-101178000D01*
X115821657Y-101178000D01*
X115827805Y-101177699D01*
X115965603Y-101164188D01*
X115977638Y-101161805D01*
X116155076Y-101108233D01*
X116166416Y-101103559D01*
X116330077Y-101016540D01*
X116340294Y-101009751D01*
X116483933Y-100892603D01*
X116492637Y-100883959D01*
X116610784Y-100741144D01*
X116617644Y-100730973D01*
X116705804Y-100567924D01*
X116710556Y-100556619D01*
X116746250Y-100441308D01*
X116746331Y-100435768D01*
X118132425Y-100435768D01*
X118164138Y-100543521D01*
X118168731Y-100554889D01*
X118254607Y-100719154D01*
X118261321Y-100729415D01*
X118377468Y-100873873D01*
X118386046Y-100882632D01*
X118528039Y-101001778D01*
X118538159Y-101008708D01*
X118700585Y-101098002D01*
X118711858Y-101102834D01*
X118888538Y-101158880D01*
X118900532Y-101161430D01*
X119044761Y-101177607D01*
X119051785Y-101178000D01*
X119382885Y-101178000D01*
X119398124Y-101173525D01*
X119399329Y-101172135D01*
X119401000Y-101164452D01*
X119401000Y-101159885D01*
X119909000Y-101159885D01*
X119913475Y-101175124D01*
X119914865Y-101176329D01*
X119922548Y-101178000D01*
X120251657Y-101178000D01*
X120257805Y-101177699D01*
X120395603Y-101164188D01*
X120407638Y-101161805D01*
X120585076Y-101108233D01*
X120596416Y-101103559D01*
X120760077Y-101016540D01*
X120770294Y-101009751D01*
X120913933Y-100892603D01*
X120922637Y-100883959D01*
X121040784Y-100741144D01*
X121047644Y-100730973D01*
X121135804Y-100567924D01*
X121140556Y-100556619D01*
X121176250Y-100441308D01*
X121176456Y-100427205D01*
X121169701Y-100424000D01*
X119927115Y-100424000D01*
X119911876Y-100428475D01*
X119910671Y-100429865D01*
X119909000Y-100437548D01*
X119909000Y-101159885D01*
X119401000Y-101159885D01*
X119401000Y-100442115D01*
X119396525Y-100426876D01*
X119395135Y-100425671D01*
X119387452Y-100424000D01*
X118147076Y-100424000D01*
X118133545Y-100427973D01*
X118132425Y-100435768D01*
X116746331Y-100435768D01*
X116746456Y-100427205D01*
X116739701Y-100424000D01*
X115747115Y-100424000D01*
X115731876Y-100428475D01*
X115730671Y-100429865D01*
X115729000Y-100437548D01*
X115729000Y-101159885D01*
X115221000Y-101159885D01*
X115221000Y-100442115D01*
X115216525Y-100426876D01*
X115215135Y-100425671D01*
X115207452Y-100424000D01*
X114217076Y-100424000D01*
X114203545Y-100427973D01*
X114202425Y-100435768D01*
X113100000Y-100435768D01*
X113100000Y-99912795D01*
X114203544Y-99912795D01*
X114210299Y-99916000D01*
X115202885Y-99916000D01*
X115218124Y-99911525D01*
X115219329Y-99910135D01*
X115221000Y-99902452D01*
X115221000Y-99897885D01*
X115729000Y-99897885D01*
X115733475Y-99913124D01*
X115734865Y-99914329D01*
X115742548Y-99916000D01*
X116732924Y-99916000D01*
X116743839Y-99912795D01*
X118133544Y-99912795D01*
X118140299Y-99916000D01*
X121162924Y-99916000D01*
X121176455Y-99912027D01*
X121177575Y-99904232D01*
X121145862Y-99796479D01*
X121141269Y-99785111D01*
X121055393Y-99620846D01*
X121048679Y-99610585D01*
X120932532Y-99466127D01*
X120923954Y-99457368D01*
X120781961Y-99338222D01*
X120771841Y-99331292D01*
X120609415Y-99241998D01*
X120598142Y-99237166D01*
X120421462Y-99181120D01*
X120409468Y-99178570D01*
X120265239Y-99162393D01*
X120258215Y-99162000D01*
X120070023Y-99162000D01*
X120001902Y-99141998D01*
X119955409Y-99088342D01*
X119945305Y-99018068D01*
X119953034Y-98989208D01*
X119959995Y-98971803D01*
X119962530Y-98965466D01*
X119963644Y-98958738D01*
X119963645Y-98958734D01*
X119990993Y-98793539D01*
X119990993Y-98793536D01*
X119992108Y-98786802D01*
X119987203Y-98693198D01*
X119982987Y-98612766D01*
X119982630Y-98605953D01*
X119959304Y-98521266D01*
X119936352Y-98437941D01*
X119934539Y-98431359D01*
X119850078Y-98271164D01*
X119845673Y-98265951D01*
X119845670Y-98265947D01*
X119737594Y-98138057D01*
X119737590Y-98138053D01*
X119733187Y-98132843D01*
X119727762Y-98128695D01*
X119594743Y-98026994D01*
X119594739Y-98026991D01*
X119589322Y-98022850D01*
X119479431Y-97971607D01*
X119431369Y-97949195D01*
X119431366Y-97949194D01*
X119425192Y-97946315D01*
X119418544Y-97944829D01*
X119418541Y-97944828D01*
X119253494Y-97907936D01*
X119253495Y-97907936D01*
X119248457Y-97906810D01*
X119242912Y-97906500D01*
X119109756Y-97906500D01*
X118974963Y-97921143D01*
X118896625Y-97947507D01*
X118809796Y-97976728D01*
X118809794Y-97976729D01*
X118803325Y-97978906D01*
X118648095Y-98072177D01*
X118643138Y-98076865D01*
X118643135Y-98076867D01*
X118521473Y-98191918D01*
X118516515Y-98196607D01*
X118512683Y-98202245D01*
X118512680Y-98202249D01*
X118461740Y-98277205D01*
X118414723Y-98346388D01*
X118347470Y-98514534D01*
X118346356Y-98521262D01*
X118346355Y-98521266D01*
X118319007Y-98686461D01*
X118317892Y-98693198D01*
X118318249Y-98700015D01*
X118318249Y-98700019D01*
X118322843Y-98787675D01*
X118327370Y-98874047D01*
X118329181Y-98880620D01*
X118329181Y-98880623D01*
X118350854Y-98959307D01*
X118375461Y-99048641D01*
X118459922Y-99208836D01*
X118464329Y-99214051D01*
X118464331Y-99214054D01*
X118470451Y-99221295D01*
X118499145Y-99286235D01*
X118488175Y-99356378D01*
X118453852Y-99400269D01*
X118396067Y-99447397D01*
X118387363Y-99456041D01*
X118269216Y-99598856D01*
X118262356Y-99609027D01*
X118174196Y-99772076D01*
X118169444Y-99783381D01*
X118133750Y-99898692D01*
X118133544Y-99912795D01*
X116743839Y-99912795D01*
X116746455Y-99912027D01*
X116747575Y-99904232D01*
X116715862Y-99796479D01*
X116711269Y-99785111D01*
X116625393Y-99620846D01*
X116618679Y-99610585D01*
X116502532Y-99466127D01*
X116493954Y-99457368D01*
X116351961Y-99338222D01*
X116341841Y-99331292D01*
X116179415Y-99241998D01*
X116168142Y-99237166D01*
X115991462Y-99181120D01*
X115979468Y-99178570D01*
X115835239Y-99162393D01*
X115828215Y-99162000D01*
X115747115Y-99162000D01*
X115731876Y-99166475D01*
X115730671Y-99167865D01*
X115729000Y-99175548D01*
X115729000Y-99897885D01*
X115221000Y-99897885D01*
X115221000Y-99180115D01*
X115216525Y-99164876D01*
X115215135Y-99163671D01*
X115207452Y-99162000D01*
X115128343Y-99162000D01*
X115122195Y-99162301D01*
X114984397Y-99175812D01*
X114972362Y-99178195D01*
X114794924Y-99231767D01*
X114783584Y-99236441D01*
X114619923Y-99323460D01*
X114609706Y-99330249D01*
X114466067Y-99447397D01*
X114457363Y-99456041D01*
X114339216Y-99598856D01*
X114332356Y-99609027D01*
X114244196Y-99772076D01*
X114239444Y-99783381D01*
X114203750Y-99898692D01*
X114203544Y-99912795D01*
X113100000Y-99912795D01*
X113100000Y-91795768D01*
X114202425Y-91795768D01*
X114234138Y-91903521D01*
X114238731Y-91914889D01*
X114324607Y-92079154D01*
X114331321Y-92089415D01*
X114447468Y-92233873D01*
X114456046Y-92242632D01*
X114598039Y-92361778D01*
X114608159Y-92368708D01*
X114770585Y-92458002D01*
X114781858Y-92462834D01*
X114958538Y-92518880D01*
X114970532Y-92521430D01*
X115114761Y-92537607D01*
X115121785Y-92538000D01*
X115202885Y-92538000D01*
X115218124Y-92533525D01*
X115219329Y-92532135D01*
X115221000Y-92524452D01*
X115221000Y-92519885D01*
X115729000Y-92519885D01*
X115733475Y-92535124D01*
X115734865Y-92536329D01*
X115742548Y-92538000D01*
X115821657Y-92538000D01*
X115827805Y-92537699D01*
X115965603Y-92524188D01*
X115977638Y-92521805D01*
X116155076Y-92468233D01*
X116166416Y-92463559D01*
X116330077Y-92376540D01*
X116340294Y-92369751D01*
X116483933Y-92252603D01*
X116492637Y-92243959D01*
X116610784Y-92101144D01*
X116617644Y-92090973D01*
X116705804Y-91927924D01*
X116710556Y-91916619D01*
X116746250Y-91801308D01*
X116746331Y-91795768D01*
X118132425Y-91795768D01*
X118164138Y-91903521D01*
X118168731Y-91914889D01*
X118254607Y-92079154D01*
X118261321Y-92089415D01*
X118377468Y-92233873D01*
X118386046Y-92242632D01*
X118457215Y-92302350D01*
X118496542Y-92361459D01*
X118497668Y-92432447D01*
X118480436Y-92469695D01*
X118437057Y-92533525D01*
X118414723Y-92566388D01*
X118347470Y-92734534D01*
X118346356Y-92741262D01*
X118346355Y-92741266D01*
X118319007Y-92906461D01*
X118317892Y-92913198D01*
X118318249Y-92920015D01*
X118318249Y-92920019D01*
X118323100Y-93012572D01*
X118327370Y-93094047D01*
X118329181Y-93100620D01*
X118329181Y-93100623D01*
X118356350Y-93199258D01*
X118375461Y-93268641D01*
X118459922Y-93428836D01*
X118464327Y-93434049D01*
X118464330Y-93434053D01*
X118572406Y-93561943D01*
X118572410Y-93561947D01*
X118576813Y-93567157D01*
X118582237Y-93571304D01*
X118582238Y-93571305D01*
X118715257Y-93673006D01*
X118715261Y-93673009D01*
X118720678Y-93677150D01*
X118812197Y-93719826D01*
X118878631Y-93750805D01*
X118878634Y-93750806D01*
X118884808Y-93753685D01*
X118891456Y-93755171D01*
X118891459Y-93755172D01*
X118996933Y-93778748D01*
X119061543Y-93793190D01*
X119067088Y-93793500D01*
X119200244Y-93793500D01*
X119335037Y-93778857D01*
X119453190Y-93739094D01*
X119500204Y-93723272D01*
X119500206Y-93723271D01*
X119506675Y-93721094D01*
X119661905Y-93627823D01*
X119666862Y-93623135D01*
X119666865Y-93623133D01*
X119788527Y-93508082D01*
X119788529Y-93508080D01*
X119793485Y-93503393D01*
X119797317Y-93497755D01*
X119797320Y-93497751D01*
X119891442Y-93359255D01*
X119895277Y-93353612D01*
X119962530Y-93185466D01*
X119963644Y-93178738D01*
X119963645Y-93178734D01*
X119990993Y-93013539D01*
X119990993Y-93013536D01*
X119992108Y-93006802D01*
X119989490Y-92956837D01*
X119982987Y-92832766D01*
X119982630Y-92825953D01*
X119947237Y-92697459D01*
X119948431Y-92626474D01*
X119987814Y-92567401D01*
X120052881Y-92538999D01*
X120068713Y-92538000D01*
X120251657Y-92538000D01*
X120257805Y-92537699D01*
X120395603Y-92524188D01*
X120407638Y-92521805D01*
X120585076Y-92468233D01*
X120596416Y-92463559D01*
X120760077Y-92376540D01*
X120770294Y-92369751D01*
X120913933Y-92252603D01*
X120922637Y-92243959D01*
X121040784Y-92101144D01*
X121047644Y-92090973D01*
X121135804Y-91927924D01*
X121140556Y-91916619D01*
X121176250Y-91801308D01*
X121176456Y-91787205D01*
X121169701Y-91784000D01*
X118147076Y-91784000D01*
X118133545Y-91787973D01*
X118132425Y-91795768D01*
X116746331Y-91795768D01*
X116746456Y-91787205D01*
X116739701Y-91784000D01*
X115747115Y-91784000D01*
X115731876Y-91788475D01*
X115730671Y-91789865D01*
X115729000Y-91797548D01*
X115729000Y-92519885D01*
X115221000Y-92519885D01*
X115221000Y-91802115D01*
X115216525Y-91786876D01*
X115215135Y-91785671D01*
X115207452Y-91784000D01*
X114217076Y-91784000D01*
X114203545Y-91787973D01*
X114202425Y-91795768D01*
X113100000Y-91795768D01*
X113100000Y-91272795D01*
X114203544Y-91272795D01*
X114210299Y-91276000D01*
X115202885Y-91276000D01*
X115218124Y-91271525D01*
X115219329Y-91270135D01*
X115221000Y-91262452D01*
X115221000Y-91257885D01*
X115729000Y-91257885D01*
X115733475Y-91273124D01*
X115734865Y-91274329D01*
X115742548Y-91276000D01*
X116732924Y-91276000D01*
X116743839Y-91272795D01*
X118133544Y-91272795D01*
X118140299Y-91276000D01*
X119382885Y-91276000D01*
X119398124Y-91271525D01*
X119399329Y-91270135D01*
X119401000Y-91262452D01*
X119401000Y-91257885D01*
X119909000Y-91257885D01*
X119913475Y-91273124D01*
X119914865Y-91274329D01*
X119922548Y-91276000D01*
X121162924Y-91276000D01*
X121176455Y-91272027D01*
X121177575Y-91264232D01*
X121145862Y-91156479D01*
X121141269Y-91145111D01*
X121055393Y-90980846D01*
X121048679Y-90970585D01*
X120932532Y-90826127D01*
X120923954Y-90817368D01*
X120781961Y-90698222D01*
X120771841Y-90691292D01*
X120609415Y-90601998D01*
X120598142Y-90597166D01*
X120421462Y-90541120D01*
X120409468Y-90538570D01*
X120265239Y-90522393D01*
X120258215Y-90522000D01*
X119927115Y-90522000D01*
X119911876Y-90526475D01*
X119910671Y-90527865D01*
X119909000Y-90535548D01*
X119909000Y-91257885D01*
X119401000Y-91257885D01*
X119401000Y-90540115D01*
X119396525Y-90524876D01*
X119395135Y-90523671D01*
X119387452Y-90522000D01*
X119058343Y-90522000D01*
X119052195Y-90522301D01*
X118914397Y-90535812D01*
X118902362Y-90538195D01*
X118724924Y-90591767D01*
X118713584Y-90596441D01*
X118549923Y-90683460D01*
X118539706Y-90690249D01*
X118396067Y-90807397D01*
X118387363Y-90816041D01*
X118269216Y-90958856D01*
X118262356Y-90969027D01*
X118174196Y-91132076D01*
X118169444Y-91143381D01*
X118133750Y-91258692D01*
X118133544Y-91272795D01*
X116743839Y-91272795D01*
X116746455Y-91272027D01*
X116747575Y-91264232D01*
X116715862Y-91156479D01*
X116711269Y-91145111D01*
X116625393Y-90980846D01*
X116618679Y-90970585D01*
X116502532Y-90826127D01*
X116493954Y-90817368D01*
X116351961Y-90698222D01*
X116341841Y-90691292D01*
X116179415Y-90601998D01*
X116168142Y-90597166D01*
X115991462Y-90541120D01*
X115979468Y-90538570D01*
X115835239Y-90522393D01*
X115828215Y-90522000D01*
X115747115Y-90522000D01*
X115731876Y-90526475D01*
X115730671Y-90527865D01*
X115729000Y-90535548D01*
X115729000Y-91257885D01*
X115221000Y-91257885D01*
X115221000Y-90540115D01*
X115216525Y-90524876D01*
X115215135Y-90523671D01*
X115207452Y-90522000D01*
X115128343Y-90522000D01*
X115122195Y-90522301D01*
X114984397Y-90535812D01*
X114972362Y-90538195D01*
X114794924Y-90591767D01*
X114783584Y-90596441D01*
X114619923Y-90683460D01*
X114609706Y-90690249D01*
X114466067Y-90807397D01*
X114457363Y-90816041D01*
X114339216Y-90958856D01*
X114332356Y-90969027D01*
X114244196Y-91132076D01*
X114239444Y-91143381D01*
X114203750Y-91258692D01*
X114203544Y-91272795D01*
X113100000Y-91272795D01*
X113100000Y-78726000D01*
X113120002Y-78657879D01*
X113173658Y-78611386D01*
X113226000Y-78600000D01*
X164480906Y-78600000D01*
X164549027Y-78620002D01*
G37*
%TD.AperFunction*%
%TA.AperFunction,Conductor*%
G36*
X184654144Y-96570444D02*
G01*
X184691957Y-96630533D01*
X184691280Y-96701526D01*
X184659823Y-96753972D01*
X170041200Y-111372595D01*
X169978888Y-111406621D01*
X169964569Y-111408160D01*
X169964637Y-111408810D01*
X169958070Y-111409500D01*
X169951468Y-111409500D01*
X169945015Y-111410872D01*
X169945011Y-111410872D01*
X169863208Y-111428260D01*
X169774948Y-111447020D01*
X169768919Y-111449704D01*
X169768917Y-111449705D01*
X169616116Y-111517737D01*
X169616114Y-111517738D01*
X169610086Y-111520422D01*
X169604745Y-111524302D01*
X169604744Y-111524303D01*
X169469431Y-111622613D01*
X169469429Y-111622615D01*
X169464087Y-111626496D01*
X169343333Y-111760607D01*
X169253101Y-111916893D01*
X169197335Y-112088525D01*
X169196645Y-112095090D01*
X169190362Y-112154870D01*
X169163349Y-112220527D01*
X169105128Y-112261157D01*
X169065052Y-112267700D01*
X161251171Y-112267700D01*
X161183050Y-112247698D01*
X161162076Y-112230795D01*
X158609573Y-109678292D01*
X168619608Y-109678292D01*
X168649486Y-109875848D01*
X168651689Y-109881835D01*
X168651689Y-109881836D01*
X168716273Y-110057371D01*
X168718477Y-110063361D01*
X168823765Y-110233172D01*
X168961047Y-110378344D01*
X169124716Y-110492946D01*
X169308086Y-110572298D01*
X169503666Y-110613156D01*
X169508522Y-110613411D01*
X169508561Y-110613413D01*
X169508577Y-110613413D01*
X169510229Y-110613500D01*
X169656934Y-110613500D01*
X169686230Y-110610524D01*
X169799434Y-110599026D01*
X169799438Y-110599025D01*
X169805780Y-110598381D01*
X169939042Y-110556619D01*
X169990349Y-110540540D01*
X169990350Y-110540539D01*
X169996440Y-110538631D01*
X170171191Y-110441765D01*
X170305903Y-110326304D01*
X170318052Y-110315891D01*
X170318053Y-110315890D01*
X170322896Y-110311739D01*
X170326805Y-110306700D01*
X170441445Y-110158907D01*
X170441447Y-110158904D01*
X170445357Y-110153863D01*
X170533571Y-109974589D01*
X170583935Y-109781238D01*
X170594392Y-109581708D01*
X170564514Y-109384152D01*
X170546970Y-109336467D01*
X170497727Y-109202629D01*
X170497727Y-109202628D01*
X170495523Y-109196639D01*
X170390235Y-109026828D01*
X170252953Y-108881656D01*
X170089284Y-108767054D01*
X169905914Y-108687702D01*
X169710334Y-108646844D01*
X169705478Y-108646589D01*
X169705439Y-108646587D01*
X169705423Y-108646587D01*
X169703771Y-108646500D01*
X169557066Y-108646500D01*
X169543933Y-108647834D01*
X169414566Y-108660974D01*
X169414562Y-108660975D01*
X169408220Y-108661619D01*
X169316898Y-108690238D01*
X169223651Y-108719460D01*
X169223650Y-108719461D01*
X169217560Y-108721369D01*
X169042809Y-108818235D01*
X169037960Y-108822391D01*
X168903984Y-108937222D01*
X168891104Y-108948261D01*
X168887197Y-108953298D01*
X168887195Y-108953300D01*
X168772555Y-109101093D01*
X168772553Y-109101096D01*
X168768643Y-109106137D01*
X168765825Y-109111863D01*
X168765823Y-109111867D01*
X168711053Y-109223175D01*
X168680429Y-109285411D01*
X168664716Y-109345734D01*
X168636277Y-109454915D01*
X168630065Y-109478762D01*
X168619608Y-109678292D01*
X158609573Y-109678292D01*
X156050149Y-107118868D01*
X156019411Y-107068709D01*
X155998541Y-107004478D01*
X155996499Y-106998193D01*
X155993002Y-106992135D01*
X155949452Y-106916705D01*
X155906267Y-106841907D01*
X155880191Y-106812946D01*
X155789935Y-106712707D01*
X155789934Y-106712706D01*
X155785513Y-106707796D01*
X155773820Y-106699300D01*
X155644857Y-106605603D01*
X155644856Y-106605602D01*
X155639515Y-106601722D01*
X155633487Y-106599038D01*
X155633485Y-106599037D01*
X155480683Y-106531005D01*
X155480681Y-106531005D01*
X155474652Y-106528320D01*
X155382661Y-106508767D01*
X155304589Y-106492172D01*
X155304585Y-106492172D01*
X155298132Y-106490800D01*
X155117668Y-106490800D01*
X155111215Y-106492172D01*
X155111211Y-106492172D01*
X155033139Y-106508767D01*
X154941148Y-106528320D01*
X154935119Y-106531004D01*
X154935117Y-106531005D01*
X154782316Y-106599037D01*
X154782314Y-106599038D01*
X154776286Y-106601722D01*
X154770945Y-106605602D01*
X154770944Y-106605603D01*
X154635631Y-106703913D01*
X154635629Y-106703915D01*
X154630287Y-106707796D01*
X154625866Y-106712706D01*
X154625865Y-106712707D01*
X154535610Y-106812946D01*
X154509533Y-106841907D01*
X154466348Y-106916705D01*
X154422799Y-106992135D01*
X154419301Y-106998193D01*
X154417259Y-107004478D01*
X154396389Y-107068709D01*
X154365651Y-107118868D01*
X153604189Y-107880330D01*
X153541877Y-107914356D01*
X153471062Y-107909291D01*
X153414226Y-107866744D01*
X153389784Y-107804407D01*
X153383055Y-107740388D01*
X153383055Y-107740386D01*
X153382365Y-107733825D01*
X153378655Y-107722405D01*
X153328641Y-107568478D01*
X153326599Y-107562193D01*
X153236367Y-107405907D01*
X153203864Y-107369809D01*
X153173147Y-107305801D01*
X153171500Y-107285498D01*
X153171500Y-103344400D01*
X153191502Y-103276279D01*
X153245158Y-103229786D01*
X153297500Y-103218400D01*
X153445432Y-103218400D01*
X153451885Y-103217028D01*
X153451889Y-103217028D01*
X153549321Y-103196318D01*
X153621952Y-103180880D01*
X153630543Y-103177055D01*
X153780785Y-103110163D01*
X153780787Y-103110162D01*
X153786815Y-103107478D01*
X153910709Y-103017464D01*
X153977575Y-102993606D01*
X153984769Y-102993400D01*
X176215733Y-102993400D01*
X176226916Y-102993927D01*
X176234409Y-102995602D01*
X176242335Y-102995353D01*
X176242336Y-102995353D01*
X176302486Y-102993462D01*
X176306445Y-102993400D01*
X176334356Y-102993400D01*
X176338291Y-102992903D01*
X176338356Y-102992895D01*
X176350193Y-102991962D01*
X176382451Y-102990948D01*
X176386470Y-102990822D01*
X176394389Y-102990573D01*
X176413843Y-102984921D01*
X176433200Y-102980913D01*
X176445430Y-102979368D01*
X176445431Y-102979368D01*
X176453297Y-102978374D01*
X176460668Y-102975455D01*
X176460670Y-102975455D01*
X176494412Y-102962096D01*
X176505642Y-102958251D01*
X176540483Y-102948129D01*
X176540484Y-102948129D01*
X176548093Y-102945918D01*
X176554912Y-102941885D01*
X176554917Y-102941883D01*
X176565528Y-102935607D01*
X176583276Y-102926912D01*
X176602117Y-102919452D01*
X176637887Y-102893464D01*
X176647807Y-102886948D01*
X176679035Y-102868480D01*
X176679038Y-102868478D01*
X176685862Y-102864442D01*
X176700183Y-102850121D01*
X176715217Y-102837280D01*
X176725194Y-102830031D01*
X176731607Y-102825372D01*
X176759798Y-102791295D01*
X176767788Y-102782516D01*
X181415600Y-98134705D01*
X181477912Y-98100679D01*
X181504695Y-98097800D01*
X182424733Y-98097800D01*
X182435916Y-98098327D01*
X182443409Y-98100002D01*
X182451335Y-98099753D01*
X182451336Y-98099753D01*
X182511486Y-98097862D01*
X182515445Y-98097800D01*
X182543356Y-98097800D01*
X182547291Y-98097303D01*
X182547356Y-98097295D01*
X182559193Y-98096362D01*
X182591451Y-98095348D01*
X182595470Y-98095222D01*
X182603389Y-98094973D01*
X182622843Y-98089321D01*
X182642200Y-98085313D01*
X182654430Y-98083768D01*
X182654431Y-98083768D01*
X182662297Y-98082774D01*
X182669668Y-98079855D01*
X182669670Y-98079855D01*
X182703412Y-98066496D01*
X182714642Y-98062651D01*
X182749483Y-98052529D01*
X182749484Y-98052529D01*
X182757093Y-98050318D01*
X182763912Y-98046285D01*
X182763917Y-98046283D01*
X182774528Y-98040007D01*
X182792276Y-98031312D01*
X182811117Y-98023852D01*
X182846887Y-97997864D01*
X182856807Y-97991348D01*
X182888035Y-97972880D01*
X182888038Y-97972878D01*
X182894862Y-97968842D01*
X182909183Y-97954521D01*
X182924217Y-97941680D01*
X182934194Y-97934431D01*
X182940607Y-97929772D01*
X182968798Y-97895695D01*
X182976788Y-97886916D01*
X184228499Y-96635205D01*
X184290811Y-96601179D01*
X184305131Y-96599640D01*
X184305063Y-96598990D01*
X184311630Y-96598300D01*
X184318232Y-96598300D01*
X184324685Y-96596928D01*
X184324689Y-96596928D01*
X184406492Y-96579540D01*
X184494752Y-96560780D01*
X184500779Y-96558097D01*
X184500787Y-96558094D01*
X184519480Y-96549771D01*
X184589847Y-96540337D01*
X184654144Y-96570444D01*
G37*
%TD.AperFunction*%
%TD*%
M02*
